%
M48
M72
T01C0.0236
T02C0.0472
T03C0.0890
%
T01
X2720Y23198
X2720Y10448
X2780Y16758
X6440Y19658
X8140Y19328
X7080Y17258
X10040Y13808
X8080Y13018
X6380Y13348
X7020Y10948
X10340Y11468
X10400Y17778
X10100Y20118
X10340Y24218
X10040Y26558
X8080Y25768
X6380Y26098
X7020Y23698
X18550Y17518
X15650Y21178
X15980Y22878
X15190Y24838
X17530Y25138
X18050Y21818
T02
X2150Y26048
X2150Y25048
X2150Y24048
X2150Y11298
X2150Y12298
X2150Y13298
X2210Y17608
X2210Y18608
X2210Y19608
X12020Y12048
X12020Y13048
X12080Y18358
X12080Y19358
X12020Y24798
X12020Y25798
X15700Y16948
X16700Y16948
X17700Y16948
X15950Y26818
X16950Y26818
T03
X1900Y27198
X1900Y14448
X1960Y20758
X12270Y16358
X12210Y22798
X14550Y16698
X18950Y27008
X12210Y10048
M30
