G75*
G70*
%OFA0B0*%
%FSLAX24Y24*%
%IPPOS*%
%LPD*%
%AMOC8*
5,1,8,0,0,1.08239X$1,22.5*
%
%ADD10C,0.0010*%
%ADD11C,0.0000*%
%ADD12C,0.0160*%
%ADD13C,0.0040*%
%ADD14C,0.0080*%
D10*
X001150Y009298D02*
X001150Y015204D01*
X012961Y015204D01*
X012961Y009298D01*
X001150Y009298D01*
X002320Y010848D02*
X003120Y010048D01*
X002320Y010048D02*
X003120Y010848D01*
X002550Y011298D02*
X001750Y011298D01*
X002150Y010898D02*
X002550Y011298D01*
X002150Y010898D02*
X002150Y011698D01*
X001750Y011298D01*
X001750Y012298D02*
X002550Y012298D01*
X002150Y011898D01*
X002150Y012698D01*
X001750Y012298D01*
X001750Y013298D02*
X002550Y013298D01*
X002150Y012898D01*
X002150Y013698D01*
X001750Y013298D01*
X001510Y014448D02*
X001512Y014487D01*
X001518Y014525D01*
X001527Y014563D01*
X001541Y014599D01*
X001557Y014635D01*
X001578Y014668D01*
X001601Y014699D01*
X001628Y014727D01*
X001657Y014753D01*
X001688Y014776D01*
X001722Y014795D01*
X001758Y014811D01*
X001794Y014823D01*
X001832Y014832D01*
X001871Y014837D01*
X001910Y014838D01*
X001948Y014835D01*
X001987Y014828D01*
X002024Y014818D01*
X002060Y014803D01*
X002095Y014786D01*
X002128Y014765D01*
X002158Y014740D01*
X002186Y014713D01*
X002211Y014683D01*
X002233Y014651D01*
X002251Y014617D01*
X002266Y014581D01*
X002278Y014544D01*
X002286Y014506D01*
X002290Y014467D01*
X002290Y014429D01*
X002286Y014390D01*
X002278Y014352D01*
X002266Y014315D01*
X002251Y014279D01*
X002233Y014245D01*
X002211Y014213D01*
X002186Y014183D01*
X002158Y014156D01*
X002128Y014131D01*
X002095Y014110D01*
X002060Y014093D01*
X002024Y014078D01*
X001987Y014068D01*
X001948Y014061D01*
X001910Y014058D01*
X001871Y014059D01*
X001832Y014064D01*
X001794Y014073D01*
X001758Y014085D01*
X001722Y014101D01*
X001688Y014120D01*
X001657Y014143D01*
X001628Y014169D01*
X001601Y014197D01*
X001578Y014228D01*
X001557Y014261D01*
X001541Y014297D01*
X001527Y014333D01*
X001518Y014371D01*
X001512Y014409D01*
X001510Y014448D01*
X001500Y014048D02*
X002300Y014848D01*
X001210Y015608D02*
X001210Y021514D01*
X013021Y021514D01*
X013021Y015608D01*
X001210Y015608D01*
X002380Y017158D02*
X003180Y016358D01*
X002380Y016358D02*
X003180Y017158D01*
X002610Y017608D02*
X001810Y017608D01*
X002210Y017208D02*
X002610Y017608D01*
X002210Y017208D02*
X002210Y018008D01*
X001810Y017608D01*
X001810Y018608D02*
X002610Y018608D01*
X002210Y018208D01*
X002210Y019008D01*
X001810Y018608D01*
X001810Y019608D02*
X002610Y019608D01*
X002210Y019208D01*
X002210Y020008D01*
X001810Y019608D01*
X001570Y020758D02*
X001572Y020797D01*
X001578Y020835D01*
X001587Y020873D01*
X001601Y020909D01*
X001617Y020945D01*
X001638Y020978D01*
X001661Y021009D01*
X001688Y021037D01*
X001717Y021063D01*
X001748Y021086D01*
X001782Y021105D01*
X001818Y021121D01*
X001854Y021133D01*
X001892Y021142D01*
X001931Y021147D01*
X001970Y021148D01*
X002008Y021145D01*
X002047Y021138D01*
X002084Y021128D01*
X002120Y021113D01*
X002155Y021096D01*
X002188Y021075D01*
X002218Y021050D01*
X002246Y021023D01*
X002271Y020993D01*
X002293Y020961D01*
X002311Y020927D01*
X002326Y020891D01*
X002338Y020854D01*
X002346Y020816D01*
X002350Y020777D01*
X002350Y020739D01*
X002346Y020700D01*
X002338Y020662D01*
X002326Y020625D01*
X002311Y020589D01*
X002293Y020555D01*
X002271Y020523D01*
X002246Y020493D01*
X002218Y020466D01*
X002188Y020441D01*
X002155Y020420D01*
X002120Y020403D01*
X002084Y020388D01*
X002047Y020378D01*
X002008Y020371D01*
X001970Y020368D01*
X001931Y020369D01*
X001892Y020374D01*
X001854Y020383D01*
X001818Y020395D01*
X001782Y020411D01*
X001748Y020430D01*
X001717Y020453D01*
X001688Y020479D01*
X001661Y020507D01*
X001638Y020538D01*
X001617Y020571D01*
X001601Y020607D01*
X001587Y020643D01*
X001578Y020681D01*
X001572Y020719D01*
X001570Y020758D01*
X001560Y020358D02*
X002360Y021158D01*
X001150Y022048D02*
X001150Y027954D01*
X012961Y027954D01*
X012961Y022048D01*
X001150Y022048D01*
X002320Y023598D02*
X003120Y022798D01*
X002320Y022798D02*
X003120Y023598D01*
X002550Y024048D02*
X001750Y024048D01*
X002150Y023648D02*
X002550Y024048D01*
X002150Y023648D02*
X002150Y024448D01*
X001750Y024048D01*
X001750Y025048D02*
X002550Y025048D01*
X002150Y024648D01*
X002150Y025448D01*
X001750Y025048D01*
X001750Y026048D02*
X002550Y026048D01*
X002150Y025648D01*
X002150Y026448D01*
X001750Y026048D01*
X001510Y027198D02*
X001512Y027237D01*
X001518Y027275D01*
X001527Y027313D01*
X001541Y027349D01*
X001557Y027385D01*
X001578Y027418D01*
X001601Y027449D01*
X001628Y027477D01*
X001657Y027503D01*
X001688Y027526D01*
X001722Y027545D01*
X001758Y027561D01*
X001794Y027573D01*
X001832Y027582D01*
X001871Y027587D01*
X001910Y027588D01*
X001948Y027585D01*
X001987Y027578D01*
X002024Y027568D01*
X002060Y027553D01*
X002095Y027536D01*
X002128Y027515D01*
X002158Y027490D01*
X002186Y027463D01*
X002211Y027433D01*
X002233Y027401D01*
X002251Y027367D01*
X002266Y027331D01*
X002278Y027294D01*
X002286Y027256D01*
X002290Y027217D01*
X002290Y027179D01*
X002286Y027140D01*
X002278Y027102D01*
X002266Y027065D01*
X002251Y027029D01*
X002233Y026995D01*
X002211Y026963D01*
X002186Y026933D01*
X002158Y026906D01*
X002128Y026881D01*
X002095Y026860D01*
X002060Y026843D01*
X002024Y026828D01*
X001987Y026818D01*
X001948Y026811D01*
X001910Y026808D01*
X001871Y026809D01*
X001832Y026814D01*
X001794Y026823D01*
X001758Y026835D01*
X001722Y026851D01*
X001688Y026870D01*
X001657Y026893D01*
X001628Y026919D01*
X001601Y026947D01*
X001578Y026978D01*
X001557Y027011D01*
X001541Y027047D01*
X001527Y027083D01*
X001518Y027121D01*
X001512Y027159D01*
X001510Y027198D01*
X001500Y026798D02*
X002300Y027598D01*
X005980Y026498D02*
X006780Y025698D01*
X005980Y025698D02*
X006780Y026498D01*
X007680Y026168D02*
X008480Y025368D01*
X007680Y025368D02*
X008480Y026168D01*
X009640Y026958D02*
X010440Y026158D01*
X009640Y026158D02*
X010440Y026958D01*
X011620Y025798D02*
X012420Y025798D01*
X012020Y025398D01*
X012020Y026198D01*
X011620Y025798D01*
X011620Y024798D02*
X012420Y024798D01*
X012020Y024398D01*
X012020Y025198D01*
X011620Y024798D01*
X010740Y023818D02*
X009940Y024618D01*
X009940Y023818D02*
X010740Y024618D01*
X011820Y022798D02*
X011822Y022837D01*
X011828Y022875D01*
X011837Y022913D01*
X011851Y022949D01*
X011867Y022985D01*
X011888Y023018D01*
X011911Y023049D01*
X011938Y023077D01*
X011967Y023103D01*
X011998Y023126D01*
X012032Y023145D01*
X012068Y023161D01*
X012104Y023173D01*
X012142Y023182D01*
X012181Y023187D01*
X012220Y023188D01*
X012258Y023185D01*
X012297Y023178D01*
X012334Y023168D01*
X012370Y023153D01*
X012405Y023136D01*
X012438Y023115D01*
X012468Y023090D01*
X012496Y023063D01*
X012521Y023033D01*
X012543Y023001D01*
X012561Y022967D01*
X012576Y022931D01*
X012588Y022894D01*
X012596Y022856D01*
X012600Y022817D01*
X012600Y022779D01*
X012596Y022740D01*
X012588Y022702D01*
X012576Y022665D01*
X012561Y022629D01*
X012543Y022595D01*
X012521Y022563D01*
X012496Y022533D01*
X012468Y022506D01*
X012438Y022481D01*
X012405Y022460D01*
X012370Y022443D01*
X012334Y022428D01*
X012297Y022418D01*
X012258Y022411D01*
X012220Y022408D01*
X012181Y022409D01*
X012142Y022414D01*
X012104Y022423D01*
X012068Y022435D01*
X012032Y022451D01*
X011998Y022470D01*
X011967Y022493D01*
X011938Y022519D01*
X011911Y022547D01*
X011888Y022578D01*
X011867Y022611D01*
X011851Y022647D01*
X011837Y022683D01*
X011828Y022721D01*
X011822Y022759D01*
X011820Y022798D01*
X011810Y022398D02*
X012610Y023198D01*
X014790Y025238D02*
X015590Y024438D01*
X014790Y024438D02*
X015590Y025238D01*
X015550Y026818D02*
X016350Y026818D01*
X015950Y026418D01*
X015950Y027218D01*
X015550Y026818D01*
X016550Y026818D02*
X017350Y026818D01*
X016950Y026418D01*
X016950Y027218D01*
X016550Y026818D01*
X017130Y025538D02*
X017930Y024738D01*
X017130Y024738D02*
X017930Y025538D01*
X018560Y027008D02*
X018562Y027047D01*
X018568Y027085D01*
X018577Y027123D01*
X018591Y027159D01*
X018607Y027195D01*
X018628Y027228D01*
X018651Y027259D01*
X018678Y027287D01*
X018707Y027313D01*
X018738Y027336D01*
X018772Y027355D01*
X018808Y027371D01*
X018844Y027383D01*
X018882Y027392D01*
X018921Y027397D01*
X018960Y027398D01*
X018998Y027395D01*
X019037Y027388D01*
X019074Y027378D01*
X019110Y027363D01*
X019145Y027346D01*
X019178Y027325D01*
X019208Y027300D01*
X019236Y027273D01*
X019261Y027243D01*
X019283Y027211D01*
X019301Y027177D01*
X019316Y027141D01*
X019328Y027104D01*
X019336Y027066D01*
X019340Y027027D01*
X019340Y026989D01*
X019336Y026950D01*
X019328Y026912D01*
X019316Y026875D01*
X019301Y026839D01*
X019283Y026805D01*
X019261Y026773D01*
X019236Y026743D01*
X019208Y026716D01*
X019178Y026691D01*
X019145Y026670D01*
X019110Y026653D01*
X019074Y026638D01*
X019037Y026628D01*
X018998Y026621D01*
X018960Y026618D01*
X018921Y026619D01*
X018882Y026624D01*
X018844Y026633D01*
X018808Y026645D01*
X018772Y026661D01*
X018738Y026680D01*
X018707Y026703D01*
X018678Y026729D01*
X018651Y026757D01*
X018628Y026788D01*
X018607Y026821D01*
X018591Y026857D01*
X018577Y026893D01*
X018568Y026931D01*
X018562Y026969D01*
X018560Y027008D01*
X018550Y026608D02*
X019350Y027408D01*
X019700Y027759D02*
X013794Y027759D01*
X013794Y015948D01*
X019700Y015948D01*
X019700Y027759D01*
X015580Y023278D02*
X016380Y022478D01*
X015580Y022478D02*
X016380Y023278D01*
X017650Y022218D02*
X018450Y021418D01*
X017650Y021418D02*
X018450Y022218D01*
X016050Y020778D02*
X015250Y021578D01*
X015250Y020778D02*
X016050Y021578D01*
X018150Y017918D02*
X018950Y017118D01*
X018150Y017118D02*
X018950Y017918D01*
X018100Y016948D02*
X017300Y016948D01*
X017700Y016548D02*
X018100Y016948D01*
X017700Y016548D02*
X017700Y017348D01*
X017300Y016948D01*
X017100Y016948D02*
X016300Y016948D01*
X016700Y016548D02*
X017100Y016948D01*
X016700Y016548D02*
X016700Y017348D01*
X016300Y016948D01*
X016100Y016948D02*
X015300Y016948D01*
X015700Y016548D02*
X016100Y016948D01*
X015700Y016548D02*
X015700Y017348D01*
X015300Y016948D01*
X014160Y016698D02*
X014162Y016737D01*
X014168Y016775D01*
X014177Y016813D01*
X014191Y016849D01*
X014207Y016885D01*
X014228Y016918D01*
X014251Y016949D01*
X014278Y016977D01*
X014307Y017003D01*
X014338Y017026D01*
X014372Y017045D01*
X014408Y017061D01*
X014444Y017073D01*
X014482Y017082D01*
X014521Y017087D01*
X014560Y017088D01*
X014598Y017085D01*
X014637Y017078D01*
X014674Y017068D01*
X014710Y017053D01*
X014745Y017036D01*
X014778Y017015D01*
X014808Y016990D01*
X014836Y016963D01*
X014861Y016933D01*
X014883Y016901D01*
X014901Y016867D01*
X014916Y016831D01*
X014928Y016794D01*
X014936Y016756D01*
X014940Y016717D01*
X014940Y016679D01*
X014936Y016640D01*
X014928Y016602D01*
X014916Y016565D01*
X014901Y016529D01*
X014883Y016495D01*
X014861Y016463D01*
X014836Y016433D01*
X014808Y016406D01*
X014778Y016381D01*
X014745Y016360D01*
X014710Y016343D01*
X014674Y016328D01*
X014637Y016318D01*
X014598Y016311D01*
X014560Y016308D01*
X014521Y016309D01*
X014482Y016314D01*
X014444Y016323D01*
X014408Y016335D01*
X014372Y016351D01*
X014338Y016370D01*
X014307Y016393D01*
X014278Y016419D01*
X014251Y016447D01*
X014228Y016478D01*
X014207Y016511D01*
X014191Y016547D01*
X014177Y016583D01*
X014168Y016621D01*
X014162Y016659D01*
X014160Y016698D01*
X014150Y016298D02*
X014950Y017098D01*
X011880Y016358D02*
X011882Y016397D01*
X011888Y016435D01*
X011897Y016473D01*
X011911Y016509D01*
X011927Y016545D01*
X011948Y016578D01*
X011971Y016609D01*
X011998Y016637D01*
X012027Y016663D01*
X012058Y016686D01*
X012092Y016705D01*
X012128Y016721D01*
X012164Y016733D01*
X012202Y016742D01*
X012241Y016747D01*
X012280Y016748D01*
X012318Y016745D01*
X012357Y016738D01*
X012394Y016728D01*
X012430Y016713D01*
X012465Y016696D01*
X012498Y016675D01*
X012528Y016650D01*
X012556Y016623D01*
X012581Y016593D01*
X012603Y016561D01*
X012621Y016527D01*
X012636Y016491D01*
X012648Y016454D01*
X012656Y016416D01*
X012660Y016377D01*
X012660Y016339D01*
X012656Y016300D01*
X012648Y016262D01*
X012636Y016225D01*
X012621Y016189D01*
X012603Y016155D01*
X012581Y016123D01*
X012556Y016093D01*
X012528Y016066D01*
X012498Y016041D01*
X012465Y016020D01*
X012430Y016003D01*
X012394Y015988D01*
X012357Y015978D01*
X012318Y015971D01*
X012280Y015968D01*
X012241Y015969D01*
X012202Y015974D01*
X012164Y015983D01*
X012128Y015995D01*
X012092Y016011D01*
X012058Y016030D01*
X012027Y016053D01*
X011998Y016079D01*
X011971Y016107D01*
X011948Y016138D01*
X011927Y016171D01*
X011911Y016207D01*
X011897Y016243D01*
X011888Y016281D01*
X011882Y016319D01*
X011880Y016358D01*
X011870Y015958D02*
X012670Y016758D01*
X012480Y018358D02*
X011680Y018358D01*
X012080Y017958D02*
X012480Y018358D01*
X012080Y017958D02*
X012080Y018758D01*
X011680Y018358D01*
X011680Y019358D02*
X012480Y019358D01*
X012080Y018958D01*
X012080Y019758D01*
X011680Y019358D01*
X010000Y018178D02*
X010800Y017378D01*
X010000Y017378D02*
X010800Y018178D01*
X010500Y019718D02*
X009700Y020518D01*
X009700Y019718D02*
X010500Y020518D01*
X008540Y018928D02*
X007740Y019728D01*
X007740Y018928D02*
X008540Y019728D01*
X006840Y019258D02*
X006040Y020058D01*
X006040Y019258D02*
X006840Y020058D01*
X006680Y017658D02*
X007480Y016858D01*
X006680Y016858D02*
X007480Y017658D01*
X009640Y014208D02*
X010440Y013408D01*
X009640Y013408D02*
X010440Y014208D01*
X011620Y013048D02*
X012420Y013048D01*
X012020Y012648D01*
X012020Y013448D01*
X011620Y013048D01*
X011620Y012048D02*
X012420Y012048D01*
X012020Y011648D01*
X012020Y012448D01*
X011620Y012048D01*
X010740Y011068D02*
X009940Y011868D01*
X009940Y011068D02*
X010740Y011868D01*
X011820Y010048D02*
X011822Y010087D01*
X011828Y010125D01*
X011837Y010163D01*
X011851Y010199D01*
X011867Y010235D01*
X011888Y010268D01*
X011911Y010299D01*
X011938Y010327D01*
X011967Y010353D01*
X011998Y010376D01*
X012032Y010395D01*
X012068Y010411D01*
X012104Y010423D01*
X012142Y010432D01*
X012181Y010437D01*
X012220Y010438D01*
X012258Y010435D01*
X012297Y010428D01*
X012334Y010418D01*
X012370Y010403D01*
X012405Y010386D01*
X012438Y010365D01*
X012468Y010340D01*
X012496Y010313D01*
X012521Y010283D01*
X012543Y010251D01*
X012561Y010217D01*
X012576Y010181D01*
X012588Y010144D01*
X012596Y010106D01*
X012600Y010067D01*
X012600Y010029D01*
X012596Y009990D01*
X012588Y009952D01*
X012576Y009915D01*
X012561Y009879D01*
X012543Y009845D01*
X012521Y009813D01*
X012496Y009783D01*
X012468Y009756D01*
X012438Y009731D01*
X012405Y009710D01*
X012370Y009693D01*
X012334Y009678D01*
X012297Y009668D01*
X012258Y009661D01*
X012220Y009658D01*
X012181Y009659D01*
X012142Y009664D01*
X012104Y009673D01*
X012068Y009685D01*
X012032Y009701D01*
X011998Y009720D01*
X011967Y009743D01*
X011938Y009769D01*
X011911Y009797D01*
X011888Y009828D01*
X011867Y009861D01*
X011851Y009897D01*
X011837Y009933D01*
X011828Y009971D01*
X011822Y010009D01*
X011820Y010048D01*
X011810Y009648D02*
X012610Y010448D01*
X008480Y012618D02*
X007680Y013418D01*
X007680Y012618D02*
X008480Y013418D01*
X006780Y012948D02*
X005980Y013748D01*
X005980Y012948D02*
X006780Y013748D01*
X006620Y011348D02*
X007420Y010548D01*
X006620Y010548D02*
X007420Y011348D01*
X007420Y023298D02*
X006620Y024098D01*
X006620Y023298D02*
X007420Y024098D01*
D11*
X011765Y022798D02*
X011767Y022840D01*
X011773Y022881D01*
X011782Y022922D01*
X011796Y022961D01*
X011813Y022999D01*
X011834Y023035D01*
X011857Y023070D01*
X011884Y023101D01*
X011914Y023131D01*
X011947Y023157D01*
X011982Y023180D01*
X012018Y023200D01*
X012057Y023216D01*
X012097Y023228D01*
X012137Y023237D01*
X012179Y023242D01*
X012220Y023243D01*
X012262Y023240D01*
X012303Y023233D01*
X012344Y023222D01*
X012383Y023208D01*
X012420Y023190D01*
X012456Y023169D01*
X012490Y023144D01*
X012521Y023116D01*
X012549Y023086D01*
X012575Y023053D01*
X012597Y023017D01*
X012616Y022980D01*
X012631Y022941D01*
X012643Y022901D01*
X012651Y022860D01*
X012655Y022819D01*
X012655Y022777D01*
X012651Y022736D01*
X012643Y022695D01*
X012631Y022655D01*
X012616Y022616D01*
X012597Y022579D01*
X012575Y022543D01*
X012549Y022510D01*
X012521Y022480D01*
X012490Y022452D01*
X012456Y022427D01*
X012420Y022406D01*
X012383Y022388D01*
X012344Y022374D01*
X012303Y022363D01*
X012262Y022356D01*
X012220Y022353D01*
X012179Y022354D01*
X012137Y022359D01*
X012097Y022368D01*
X012057Y022380D01*
X012018Y022396D01*
X011982Y022416D01*
X011947Y022439D01*
X011914Y022465D01*
X011884Y022495D01*
X011857Y022526D01*
X011834Y022561D01*
X011813Y022597D01*
X011796Y022635D01*
X011782Y022674D01*
X011773Y022715D01*
X011767Y022756D01*
X011765Y022798D01*
X014105Y016698D02*
X014107Y016740D01*
X014113Y016781D01*
X014122Y016822D01*
X014136Y016861D01*
X014153Y016899D01*
X014174Y016935D01*
X014197Y016970D01*
X014224Y017001D01*
X014254Y017031D01*
X014287Y017057D01*
X014322Y017080D01*
X014358Y017100D01*
X014397Y017116D01*
X014437Y017128D01*
X014477Y017137D01*
X014519Y017142D01*
X014560Y017143D01*
X014602Y017140D01*
X014643Y017133D01*
X014684Y017122D01*
X014723Y017108D01*
X014760Y017090D01*
X014796Y017069D01*
X014830Y017044D01*
X014861Y017016D01*
X014889Y016986D01*
X014915Y016953D01*
X014937Y016917D01*
X014956Y016880D01*
X014971Y016841D01*
X014983Y016801D01*
X014991Y016760D01*
X014995Y016719D01*
X014995Y016677D01*
X014991Y016636D01*
X014983Y016595D01*
X014971Y016555D01*
X014956Y016516D01*
X014937Y016479D01*
X014915Y016443D01*
X014889Y016410D01*
X014861Y016380D01*
X014830Y016352D01*
X014796Y016327D01*
X014760Y016306D01*
X014723Y016288D01*
X014684Y016274D01*
X014643Y016263D01*
X014602Y016256D01*
X014560Y016253D01*
X014519Y016254D01*
X014477Y016259D01*
X014437Y016268D01*
X014397Y016280D01*
X014358Y016296D01*
X014322Y016316D01*
X014287Y016339D01*
X014254Y016365D01*
X014224Y016395D01*
X014197Y016426D01*
X014174Y016461D01*
X014153Y016497D01*
X014136Y016535D01*
X014122Y016574D01*
X014113Y016615D01*
X014107Y016656D01*
X014105Y016698D01*
X011825Y016358D02*
X011827Y016400D01*
X011833Y016441D01*
X011842Y016482D01*
X011856Y016521D01*
X011873Y016559D01*
X011894Y016595D01*
X011917Y016630D01*
X011944Y016661D01*
X011974Y016691D01*
X012007Y016717D01*
X012042Y016740D01*
X012078Y016760D01*
X012117Y016776D01*
X012157Y016788D01*
X012197Y016797D01*
X012239Y016802D01*
X012280Y016803D01*
X012322Y016800D01*
X012363Y016793D01*
X012404Y016782D01*
X012443Y016768D01*
X012480Y016750D01*
X012516Y016729D01*
X012550Y016704D01*
X012581Y016676D01*
X012609Y016646D01*
X012635Y016613D01*
X012657Y016577D01*
X012676Y016540D01*
X012691Y016501D01*
X012703Y016461D01*
X012711Y016420D01*
X012715Y016379D01*
X012715Y016337D01*
X012711Y016296D01*
X012703Y016255D01*
X012691Y016215D01*
X012676Y016176D01*
X012657Y016139D01*
X012635Y016103D01*
X012609Y016070D01*
X012581Y016040D01*
X012550Y016012D01*
X012516Y015987D01*
X012480Y015966D01*
X012443Y015948D01*
X012404Y015934D01*
X012363Y015923D01*
X012322Y015916D01*
X012280Y015913D01*
X012239Y015914D01*
X012197Y015919D01*
X012157Y015928D01*
X012117Y015940D01*
X012078Y015956D01*
X012042Y015976D01*
X012007Y015999D01*
X011974Y016025D01*
X011944Y016055D01*
X011917Y016086D01*
X011894Y016121D01*
X011873Y016157D01*
X011856Y016195D01*
X011842Y016234D01*
X011833Y016275D01*
X011827Y016316D01*
X011825Y016358D01*
X011765Y010048D02*
X011767Y010090D01*
X011773Y010131D01*
X011782Y010172D01*
X011796Y010211D01*
X011813Y010249D01*
X011834Y010285D01*
X011857Y010320D01*
X011884Y010351D01*
X011914Y010381D01*
X011947Y010407D01*
X011982Y010430D01*
X012018Y010450D01*
X012057Y010466D01*
X012097Y010478D01*
X012137Y010487D01*
X012179Y010492D01*
X012220Y010493D01*
X012262Y010490D01*
X012303Y010483D01*
X012344Y010472D01*
X012383Y010458D01*
X012420Y010440D01*
X012456Y010419D01*
X012490Y010394D01*
X012521Y010366D01*
X012549Y010336D01*
X012575Y010303D01*
X012597Y010267D01*
X012616Y010230D01*
X012631Y010191D01*
X012643Y010151D01*
X012651Y010110D01*
X012655Y010069D01*
X012655Y010027D01*
X012651Y009986D01*
X012643Y009945D01*
X012631Y009905D01*
X012616Y009866D01*
X012597Y009829D01*
X012575Y009793D01*
X012549Y009760D01*
X012521Y009730D01*
X012490Y009702D01*
X012456Y009677D01*
X012420Y009656D01*
X012383Y009638D01*
X012344Y009624D01*
X012303Y009613D01*
X012262Y009606D01*
X012220Y009603D01*
X012179Y009604D01*
X012137Y009609D01*
X012097Y009618D01*
X012057Y009630D01*
X012018Y009646D01*
X011982Y009666D01*
X011947Y009689D01*
X011914Y009715D01*
X011884Y009745D01*
X011857Y009776D01*
X011834Y009811D01*
X011813Y009847D01*
X011796Y009885D01*
X011782Y009924D01*
X011773Y009965D01*
X011767Y010006D01*
X011765Y010048D01*
X001515Y020758D02*
X001517Y020800D01*
X001523Y020841D01*
X001532Y020882D01*
X001546Y020921D01*
X001563Y020959D01*
X001584Y020995D01*
X001607Y021030D01*
X001634Y021061D01*
X001664Y021091D01*
X001697Y021117D01*
X001732Y021140D01*
X001768Y021160D01*
X001807Y021176D01*
X001847Y021188D01*
X001887Y021197D01*
X001929Y021202D01*
X001970Y021203D01*
X002012Y021200D01*
X002053Y021193D01*
X002094Y021182D01*
X002133Y021168D01*
X002170Y021150D01*
X002206Y021129D01*
X002240Y021104D01*
X002271Y021076D01*
X002299Y021046D01*
X002325Y021013D01*
X002347Y020977D01*
X002366Y020940D01*
X002381Y020901D01*
X002393Y020861D01*
X002401Y020820D01*
X002405Y020779D01*
X002405Y020737D01*
X002401Y020696D01*
X002393Y020655D01*
X002381Y020615D01*
X002366Y020576D01*
X002347Y020539D01*
X002325Y020503D01*
X002299Y020470D01*
X002271Y020440D01*
X002240Y020412D01*
X002206Y020387D01*
X002170Y020366D01*
X002133Y020348D01*
X002094Y020334D01*
X002053Y020323D01*
X002012Y020316D01*
X001970Y020313D01*
X001929Y020314D01*
X001887Y020319D01*
X001847Y020328D01*
X001807Y020340D01*
X001768Y020356D01*
X001732Y020376D01*
X001697Y020399D01*
X001664Y020425D01*
X001634Y020455D01*
X001607Y020486D01*
X001584Y020521D01*
X001563Y020557D01*
X001546Y020595D01*
X001532Y020634D01*
X001523Y020675D01*
X001517Y020716D01*
X001515Y020758D01*
X001455Y014448D02*
X001457Y014490D01*
X001463Y014531D01*
X001472Y014572D01*
X001486Y014611D01*
X001503Y014649D01*
X001524Y014685D01*
X001547Y014720D01*
X001574Y014751D01*
X001604Y014781D01*
X001637Y014807D01*
X001672Y014830D01*
X001708Y014850D01*
X001747Y014866D01*
X001787Y014878D01*
X001827Y014887D01*
X001869Y014892D01*
X001910Y014893D01*
X001952Y014890D01*
X001993Y014883D01*
X002034Y014872D01*
X002073Y014858D01*
X002110Y014840D01*
X002146Y014819D01*
X002180Y014794D01*
X002211Y014766D01*
X002239Y014736D01*
X002265Y014703D01*
X002287Y014667D01*
X002306Y014630D01*
X002321Y014591D01*
X002333Y014551D01*
X002341Y014510D01*
X002345Y014469D01*
X002345Y014427D01*
X002341Y014386D01*
X002333Y014345D01*
X002321Y014305D01*
X002306Y014266D01*
X002287Y014229D01*
X002265Y014193D01*
X002239Y014160D01*
X002211Y014130D01*
X002180Y014102D01*
X002146Y014077D01*
X002110Y014056D01*
X002073Y014038D01*
X002034Y014024D01*
X001993Y014013D01*
X001952Y014006D01*
X001910Y014003D01*
X001869Y014004D01*
X001827Y014009D01*
X001787Y014018D01*
X001747Y014030D01*
X001708Y014046D01*
X001672Y014066D01*
X001637Y014089D01*
X001604Y014115D01*
X001574Y014145D01*
X001547Y014176D01*
X001524Y014211D01*
X001503Y014247D01*
X001486Y014285D01*
X001472Y014324D01*
X001463Y014365D01*
X001457Y014406D01*
X001455Y014448D01*
X001455Y027198D02*
X001457Y027240D01*
X001463Y027281D01*
X001472Y027322D01*
X001486Y027361D01*
X001503Y027399D01*
X001524Y027435D01*
X001547Y027470D01*
X001574Y027501D01*
X001604Y027531D01*
X001637Y027557D01*
X001672Y027580D01*
X001708Y027600D01*
X001747Y027616D01*
X001787Y027628D01*
X001827Y027637D01*
X001869Y027642D01*
X001910Y027643D01*
X001952Y027640D01*
X001993Y027633D01*
X002034Y027622D01*
X002073Y027608D01*
X002110Y027590D01*
X002146Y027569D01*
X002180Y027544D01*
X002211Y027516D01*
X002239Y027486D01*
X002265Y027453D01*
X002287Y027417D01*
X002306Y027380D01*
X002321Y027341D01*
X002333Y027301D01*
X002341Y027260D01*
X002345Y027219D01*
X002345Y027177D01*
X002341Y027136D01*
X002333Y027095D01*
X002321Y027055D01*
X002306Y027016D01*
X002287Y026979D01*
X002265Y026943D01*
X002239Y026910D01*
X002211Y026880D01*
X002180Y026852D01*
X002146Y026827D01*
X002110Y026806D01*
X002073Y026788D01*
X002034Y026774D01*
X001993Y026763D01*
X001952Y026756D01*
X001910Y026753D01*
X001869Y026754D01*
X001827Y026759D01*
X001787Y026768D01*
X001747Y026780D01*
X001708Y026796D01*
X001672Y026816D01*
X001637Y026839D01*
X001604Y026865D01*
X001574Y026895D01*
X001547Y026926D01*
X001524Y026961D01*
X001503Y026997D01*
X001486Y027035D01*
X001472Y027074D01*
X001463Y027115D01*
X001457Y027156D01*
X001455Y027198D01*
X018505Y027008D02*
X018507Y027050D01*
X018513Y027091D01*
X018522Y027132D01*
X018536Y027171D01*
X018553Y027209D01*
X018574Y027245D01*
X018597Y027280D01*
X018624Y027311D01*
X018654Y027341D01*
X018687Y027367D01*
X018722Y027390D01*
X018758Y027410D01*
X018797Y027426D01*
X018837Y027438D01*
X018877Y027447D01*
X018919Y027452D01*
X018960Y027453D01*
X019002Y027450D01*
X019043Y027443D01*
X019084Y027432D01*
X019123Y027418D01*
X019160Y027400D01*
X019196Y027379D01*
X019230Y027354D01*
X019261Y027326D01*
X019289Y027296D01*
X019315Y027263D01*
X019337Y027227D01*
X019356Y027190D01*
X019371Y027151D01*
X019383Y027111D01*
X019391Y027070D01*
X019395Y027029D01*
X019395Y026987D01*
X019391Y026946D01*
X019383Y026905D01*
X019371Y026865D01*
X019356Y026826D01*
X019337Y026789D01*
X019315Y026753D01*
X019289Y026720D01*
X019261Y026690D01*
X019230Y026662D01*
X019196Y026637D01*
X019160Y026616D01*
X019123Y026598D01*
X019084Y026584D01*
X019043Y026573D01*
X019002Y026566D01*
X018960Y026563D01*
X018919Y026564D01*
X018877Y026569D01*
X018837Y026578D01*
X018797Y026590D01*
X018758Y026606D01*
X018722Y026626D01*
X018687Y026649D01*
X018654Y026675D01*
X018624Y026705D01*
X018597Y026736D01*
X018574Y026771D01*
X018553Y026807D01*
X018536Y026845D01*
X018522Y026884D01*
X018513Y026925D01*
X018507Y026966D01*
X018505Y027008D01*
D12*
X020441Y028590D02*
X000756Y028590D01*
X000756Y008905D01*
X020441Y008905D01*
X020441Y028590D01*
D13*
X019150Y027208D02*
X019150Y026808D01*
X018750Y026808D01*
X018750Y027208D01*
X018950Y027208D01*
X019150Y027208D01*
X018950Y027208D02*
X018950Y027008D01*
X017530Y025338D02*
X017530Y024938D01*
X017330Y025138D02*
X017730Y025138D01*
X017150Y026618D02*
X016750Y027018D01*
X017150Y027018D02*
X016750Y026618D01*
X016150Y026618D02*
X015750Y027018D01*
X016150Y027018D02*
X015750Y026618D01*
X015190Y025038D02*
X015190Y024638D01*
X014990Y024838D02*
X015390Y024838D01*
X015980Y023078D02*
X015980Y022678D01*
X015780Y022878D02*
X016180Y022878D01*
X015650Y021378D02*
X015650Y020978D01*
X015450Y021178D02*
X015850Y021178D01*
X017850Y021818D02*
X018250Y021818D01*
X018050Y022018D02*
X018050Y021618D01*
X018550Y017718D02*
X018550Y017318D01*
X018350Y017518D02*
X018750Y017518D01*
X017900Y017148D02*
X017500Y016748D01*
X017500Y017148D02*
X017900Y016748D01*
X016900Y016748D02*
X016500Y017148D01*
X016900Y017148D02*
X016500Y016748D01*
X015900Y016748D02*
X015500Y017148D01*
X015900Y017148D02*
X015500Y016748D01*
X014750Y016898D02*
X014750Y016498D01*
X014350Y016498D01*
X014350Y016898D01*
X014550Y016898D01*
X014750Y016898D01*
X014550Y016898D02*
X014550Y016698D01*
X012470Y016558D02*
X012470Y016158D01*
X012070Y016158D01*
X012070Y016558D01*
X012270Y016558D01*
X012470Y016558D01*
X012270Y016558D02*
X012270Y016358D01*
X012280Y018158D02*
X011880Y018558D01*
X012280Y018558D02*
X011880Y018158D01*
X011880Y019158D02*
X012280Y019558D01*
X011880Y019558D02*
X012280Y019158D01*
X010600Y017778D02*
X010200Y017778D01*
X010400Y017978D02*
X010400Y017578D01*
X010100Y019918D02*
X010100Y020318D01*
X009900Y020118D02*
X010300Y020118D01*
X008340Y019328D02*
X007940Y019328D01*
X008140Y019528D02*
X008140Y019128D01*
X006640Y019658D02*
X006240Y019658D01*
X006440Y019858D02*
X006440Y019458D01*
X007080Y017458D02*
X007080Y017058D01*
X006880Y017258D02*
X007280Y017258D01*
X010040Y014008D02*
X010040Y013608D01*
X009840Y013808D02*
X010240Y013808D01*
X011820Y013248D02*
X012220Y012848D01*
X012220Y013248D02*
X011820Y012848D01*
X011820Y012248D02*
X012220Y011848D01*
X012220Y012248D02*
X011820Y011848D01*
X012010Y010248D02*
X012210Y010248D01*
X012410Y010248D01*
X012410Y009848D01*
X012010Y009848D01*
X012010Y010248D01*
X012210Y010248D02*
X012210Y010048D01*
X010540Y011468D02*
X010140Y011468D01*
X010340Y011668D02*
X010340Y011268D01*
X008280Y013018D02*
X007880Y013018D01*
X008080Y013218D02*
X008080Y012818D01*
X006580Y013348D02*
X006180Y013348D01*
X006380Y013548D02*
X006380Y013148D01*
X007020Y011148D02*
X007020Y010748D01*
X006820Y010948D02*
X007220Y010948D01*
X002920Y010448D02*
X002520Y010448D01*
X002720Y010648D02*
X002720Y010248D01*
X002350Y011098D02*
X001950Y011498D01*
X002350Y011498D02*
X001950Y011098D01*
X001950Y012098D02*
X002350Y012498D01*
X001950Y012498D02*
X002350Y012098D01*
X002350Y013098D02*
X001950Y013498D01*
X002350Y013498D02*
X001950Y013098D01*
X002100Y014248D02*
X001700Y014248D01*
X001700Y014648D01*
X001900Y014648D01*
X002100Y014648D01*
X002100Y014248D01*
X001900Y014448D02*
X001900Y014648D01*
X002780Y016558D02*
X002780Y016958D01*
X002580Y016758D02*
X002980Y016758D01*
X002410Y017408D02*
X002010Y017808D01*
X002410Y017808D02*
X002010Y017408D01*
X002010Y018408D02*
X002410Y018808D01*
X002010Y018808D02*
X002410Y018408D01*
X002410Y019408D02*
X002010Y019808D01*
X002410Y019808D02*
X002010Y019408D01*
X002160Y020558D02*
X001760Y020558D01*
X001760Y020958D01*
X001960Y020958D01*
X002160Y020958D01*
X002160Y020558D01*
X001960Y020758D02*
X001960Y020958D01*
X002720Y022998D02*
X002720Y023398D01*
X002520Y023198D02*
X002920Y023198D01*
X002350Y023848D02*
X001950Y024248D01*
X002350Y024248D02*
X001950Y023848D01*
X001950Y024848D02*
X002350Y025248D01*
X001950Y025248D02*
X002350Y024848D01*
X002350Y025848D02*
X001950Y026248D01*
X002350Y026248D02*
X001950Y025848D01*
X002100Y026998D02*
X001700Y026998D01*
X001700Y027398D01*
X001900Y027398D01*
X002100Y027398D01*
X002100Y026998D01*
X001900Y027198D02*
X001900Y027398D01*
X006180Y026098D02*
X006580Y026098D01*
X006380Y026298D02*
X006380Y025898D01*
X007880Y025768D02*
X008280Y025768D01*
X008080Y025968D02*
X008080Y025568D01*
X007020Y023898D02*
X007020Y023498D01*
X006820Y023698D02*
X007220Y023698D01*
X009840Y026558D02*
X010240Y026558D01*
X010040Y026758D02*
X010040Y026358D01*
X010340Y024418D02*
X010340Y024018D01*
X010140Y024218D02*
X010540Y024218D01*
X011820Y024598D02*
X012220Y024998D01*
X011820Y024998D02*
X012220Y024598D01*
X012220Y025598D02*
X011820Y025998D01*
X012220Y025998D02*
X011820Y025598D01*
X012010Y022998D02*
X012210Y022998D01*
X012410Y022998D01*
X012410Y022598D01*
X012010Y022598D01*
X012010Y022998D01*
X012210Y022998D02*
X012210Y022798D01*
X012800Y004740D02*
X012800Y003590D01*
X012800Y002440D01*
X012800Y001290D01*
X012800Y000140D01*
X017400Y000140D01*
X017400Y001290D01*
X017400Y002440D01*
X017400Y003590D01*
X017400Y004740D01*
X016573Y004491D02*
X016573Y003830D01*
X016243Y003830D01*
X016133Y003940D01*
X016133Y004160D01*
X016243Y004270D01*
X016573Y004270D01*
X015929Y004160D02*
X015929Y004050D01*
X015488Y004050D01*
X015488Y003940D02*
X015488Y004160D01*
X015599Y004270D01*
X015819Y004270D01*
X015929Y004160D01*
X015819Y003830D02*
X015599Y003830D01*
X015488Y003940D01*
X015279Y003830D02*
X015169Y003940D01*
X015169Y004380D01*
X015059Y004270D02*
X015279Y004270D01*
X014855Y004160D02*
X014855Y003830D01*
X014524Y003830D01*
X014414Y003940D01*
X014524Y004050D01*
X014855Y004050D01*
X014855Y004160D02*
X014745Y004270D01*
X014524Y004270D01*
X014205Y003830D02*
X013985Y003830D01*
X014095Y003830D02*
X014095Y004491D01*
X013985Y004491D01*
X013780Y004380D02*
X013780Y004160D01*
X013670Y004050D01*
X013340Y004050D01*
X013340Y003830D02*
X013340Y004491D01*
X013670Y004491D01*
X013780Y004380D01*
X014230Y003341D02*
X014230Y003230D01*
X014450Y003010D01*
X014450Y002680D01*
X014450Y003010D02*
X014670Y003230D01*
X014670Y003341D01*
X014875Y003341D02*
X014875Y002680D01*
X015315Y002680D01*
X015519Y002790D02*
X015629Y002680D01*
X015849Y002680D01*
X015959Y002790D01*
X015959Y002900D01*
X015849Y003010D01*
X015629Y003010D01*
X015519Y003120D01*
X015519Y003230D01*
X015629Y003341D01*
X015849Y003341D01*
X015959Y003230D01*
X015315Y003341D02*
X014875Y003341D01*
X014875Y003010D02*
X015095Y003010D01*
X015315Y002191D02*
X014875Y002191D01*
X014875Y001530D01*
X015315Y001530D01*
X015519Y001640D02*
X015629Y001530D01*
X015849Y001530D01*
X015959Y001640D01*
X015959Y001750D01*
X015849Y001860D01*
X015629Y001860D01*
X015519Y001970D01*
X015519Y002080D01*
X015629Y002191D01*
X015849Y002191D01*
X015959Y002080D01*
X015095Y001860D02*
X014875Y001860D01*
X014670Y002080D02*
X014670Y002191D01*
X014670Y002080D02*
X014450Y001860D01*
X014450Y001530D01*
X014450Y001860D02*
X014230Y002080D01*
X014230Y002191D01*
X014230Y001041D02*
X014670Y000380D01*
X014670Y001041D01*
X014875Y000930D02*
X014875Y000490D01*
X014985Y000380D01*
X015205Y000380D01*
X015315Y000490D01*
X015315Y000930D01*
X015205Y001041D01*
X014985Y001041D01*
X014875Y000930D01*
X014230Y001041D02*
X014230Y000380D01*
X015519Y001041D02*
X015959Y001041D01*
X015739Y001041D02*
X015739Y000380D01*
X017400Y001290D02*
X012800Y001290D01*
X010500Y001290D01*
X010500Y000140D01*
X012800Y000140D01*
X011810Y000490D02*
X011700Y000380D01*
X011480Y000380D01*
X011370Y000490D01*
X011370Y000600D01*
X011480Y000710D01*
X011700Y000710D01*
X011810Y000600D01*
X011810Y000490D01*
X011700Y000710D02*
X011810Y000820D01*
X011810Y000930D01*
X011700Y001041D01*
X011480Y001041D01*
X011370Y000930D01*
X011370Y000820D01*
X011480Y000710D01*
X011520Y001530D02*
X011080Y001530D01*
X011520Y001970D01*
X011520Y002080D01*
X011410Y002191D01*
X011190Y002191D01*
X011080Y002080D01*
X011080Y002680D02*
X011520Y003120D01*
X011520Y003230D01*
X011410Y003341D01*
X011190Y003341D01*
X011080Y003230D01*
X011080Y002680D02*
X011520Y002680D01*
X011725Y003010D02*
X012165Y003010D01*
X012055Y002680D02*
X012055Y003341D01*
X011725Y003010D01*
X012074Y003610D02*
X012185Y003610D01*
X012295Y003720D01*
X012295Y004270D01*
X012295Y003830D02*
X011964Y003830D01*
X011854Y003940D01*
X011854Y004270D01*
X011645Y004270D02*
X011425Y004270D01*
X011535Y004380D02*
X011535Y003940D01*
X011645Y003830D01*
X011220Y003830D02*
X011000Y004050D01*
X010890Y003830D02*
X010780Y003940D01*
X010780Y004380D01*
X010890Y004491D01*
X011110Y004491D01*
X011220Y004380D01*
X011220Y003940D01*
X011110Y003830D01*
X010890Y003830D01*
X010500Y003590D02*
X007400Y003590D01*
X007400Y002440D01*
X007400Y001290D01*
X007400Y000140D01*
X010500Y000140D01*
X009832Y000490D02*
X009832Y000600D01*
X009722Y000710D01*
X009391Y000710D01*
X009391Y000490D01*
X009501Y000380D01*
X009722Y000380D01*
X009832Y000490D01*
X009612Y000930D02*
X009391Y000710D01*
X009187Y000820D02*
X009187Y000930D01*
X009077Y001041D01*
X008857Y001041D01*
X008747Y000930D01*
X009187Y000820D02*
X008747Y000380D01*
X009187Y000380D01*
X009612Y000930D02*
X009832Y001041D01*
X009722Y001530D02*
X009501Y001530D01*
X009391Y001640D01*
X009832Y002080D01*
X009832Y001640D01*
X009722Y001530D01*
X009391Y001640D02*
X009391Y002080D01*
X009501Y002191D01*
X009722Y002191D01*
X009832Y002080D01*
X009722Y002680D02*
X009501Y002680D01*
X009391Y002790D01*
X009832Y003230D01*
X009832Y002790D01*
X009722Y002680D01*
X009391Y002790D02*
X009391Y003230D01*
X009501Y003341D01*
X009722Y003341D01*
X009832Y003230D01*
X009187Y003341D02*
X008967Y003230D01*
X008747Y003010D01*
X009077Y003010D01*
X009187Y002900D01*
X009187Y002790D01*
X009077Y002680D01*
X008857Y002680D01*
X008747Y002790D01*
X008747Y003010D01*
X008535Y002790D02*
X008535Y002680D01*
X008425Y002680D01*
X008425Y002790D01*
X008535Y002790D01*
X008220Y002790D02*
X008110Y002680D01*
X007890Y002680D01*
X007780Y002790D01*
X008220Y003230D01*
X008220Y002790D01*
X007780Y002790D02*
X007780Y003230D01*
X007890Y003341D01*
X008110Y003341D01*
X008220Y003230D01*
X008380Y003830D02*
X008380Y004491D01*
X008600Y004270D01*
X008820Y004491D01*
X008820Y003830D01*
X009025Y003830D02*
X009025Y004491D01*
X009245Y004270D01*
X009465Y004491D01*
X009465Y003830D01*
X010500Y003590D02*
X010500Y002440D01*
X010500Y001290D01*
X007400Y001290D01*
X004300Y001290D01*
X004300Y000140D01*
X007400Y000140D01*
X007780Y000380D02*
X008220Y000820D01*
X008220Y000930D01*
X008110Y001041D01*
X007890Y001041D01*
X007780Y000930D01*
X007780Y000380D02*
X008220Y000380D01*
X008425Y000380D02*
X008535Y000380D01*
X008535Y000490D01*
X008425Y000490D01*
X008425Y000380D01*
X008425Y001530D02*
X008535Y001530D01*
X008535Y001640D01*
X008425Y001640D01*
X008425Y001530D01*
X008220Y001530D02*
X007780Y001530D01*
X008000Y001530D02*
X008000Y002191D01*
X007780Y001970D01*
X007400Y002440D02*
X010500Y002440D01*
X012800Y002440D01*
X017400Y002440D01*
X017400Y003590D02*
X012800Y003590D01*
X010500Y003590D01*
X010500Y004740D01*
X011835Y002191D02*
X011725Y002080D01*
X011725Y001640D01*
X012165Y002080D01*
X012165Y001640D01*
X012055Y001530D01*
X011835Y001530D01*
X011725Y001640D01*
X011835Y002191D02*
X012055Y002191D01*
X012165Y002080D01*
X009187Y002080D02*
X009187Y001970D01*
X008747Y001530D01*
X009187Y001530D01*
X009187Y002080D02*
X009077Y002191D01*
X008857Y002191D01*
X008747Y002080D01*
X007400Y002440D02*
X004300Y002440D01*
X004300Y001290D01*
X002800Y001290D01*
X002800Y000140D01*
X004300Y000140D01*
X003710Y000490D02*
X003710Y000600D01*
X003600Y000710D01*
X003490Y000710D01*
X003600Y000710D02*
X003710Y000820D01*
X003710Y000930D01*
X003600Y001041D01*
X003380Y001041D01*
X003270Y000930D01*
X003270Y000490D02*
X003380Y000380D01*
X003600Y000380D01*
X003710Y000490D01*
X002800Y000140D02*
X000500Y000140D01*
X001450Y000510D02*
X001450Y000910D01*
X001650Y000910D01*
X001850Y000910D01*
X001850Y000510D01*
X001450Y000510D01*
X001650Y000710D02*
X001650Y000910D01*
X001450Y001660D02*
X001850Y002060D01*
X001450Y002060D02*
X001850Y001660D01*
X002800Y001290D02*
X002800Y002440D01*
X004300Y002440D01*
X004300Y003590D01*
X007400Y003590D01*
X007400Y004740D01*
X006624Y004270D02*
X006294Y004270D01*
X006184Y004160D01*
X006294Y004050D01*
X006514Y004050D01*
X006624Y003940D01*
X006514Y003830D01*
X006184Y003830D01*
X005974Y003830D02*
X005754Y003830D01*
X005864Y003830D02*
X005864Y004491D01*
X005754Y004491D01*
X005435Y004491D02*
X005435Y004601D01*
X005435Y004270D02*
X005435Y003830D01*
X005325Y003830D02*
X005545Y003830D01*
X005435Y004270D02*
X005325Y004270D01*
X005120Y004491D02*
X005120Y003830D01*
X004900Y004270D02*
X005120Y004491D01*
X004900Y004270D02*
X004680Y004491D01*
X004680Y003830D01*
X004300Y003590D02*
X004300Y004740D01*
X003955Y004380D02*
X003955Y004270D01*
X003845Y004160D01*
X003735Y004160D01*
X003625Y004270D01*
X003625Y004380D01*
X003735Y004491D01*
X003845Y004491D01*
X003955Y004380D01*
X003420Y004491D02*
X003420Y003830D01*
X002980Y004491D01*
X002980Y003830D01*
X002800Y003590D02*
X002800Y002440D01*
X000500Y002440D01*
X001450Y003010D02*
X001850Y003010D01*
X001650Y003210D02*
X001650Y002810D01*
X001645Y003610D02*
X001755Y003610D01*
X001865Y003720D01*
X001865Y004270D01*
X002069Y004270D02*
X002069Y003830D01*
X001865Y003830D02*
X001535Y003830D01*
X001425Y003940D01*
X001425Y004270D01*
X001220Y004380D02*
X001110Y004491D01*
X000890Y004491D01*
X000780Y004380D01*
X000780Y004270D01*
X000890Y004160D01*
X001110Y004160D01*
X001220Y004050D01*
X001220Y003940D01*
X001110Y003830D01*
X000890Y003830D01*
X000780Y003940D01*
X000500Y003590D02*
X000500Y004740D01*
X000500Y003590D02*
X002800Y003590D01*
X004300Y003590D01*
X003490Y003341D02*
X003490Y002680D01*
X003270Y002680D02*
X003710Y002680D01*
X003600Y002191D02*
X003380Y002191D01*
X003270Y002080D01*
X003600Y002191D02*
X003710Y002080D01*
X003710Y001970D01*
X003270Y001530D01*
X003710Y001530D01*
X002800Y001290D02*
X000500Y001290D01*
X002289Y003830D02*
X002289Y004160D01*
X002399Y004270D01*
X002509Y004160D01*
X002509Y003830D01*
X002800Y003590D02*
X002800Y004740D01*
X002289Y004160D02*
X002179Y004270D01*
X002069Y004270D01*
X003270Y003120D02*
X003490Y003341D01*
X005280Y003230D02*
X005390Y003341D01*
X005610Y003341D01*
X005720Y003230D01*
X005720Y003120D01*
X005280Y002680D01*
X005720Y002680D01*
X005925Y003010D02*
X006365Y003010D01*
X006255Y002680D02*
X006255Y003341D01*
X005925Y003010D01*
X005925Y002191D02*
X006365Y002191D01*
X006365Y002080D01*
X005925Y001640D01*
X005925Y001530D01*
X005610Y001530D02*
X005610Y002191D01*
X005280Y001860D01*
X005720Y001860D01*
X005610Y001041D02*
X005390Y001041D01*
X005280Y000930D01*
X005280Y000820D01*
X005390Y000710D01*
X005610Y000710D01*
X005720Y000600D01*
X005720Y000490D01*
X005610Y000380D01*
X005390Y000380D01*
X005280Y000490D01*
X005280Y000600D01*
X005390Y000710D01*
X005610Y000710D02*
X005720Y000820D01*
X005720Y000930D01*
X005610Y001041D01*
X005925Y000930D02*
X005925Y000820D01*
X006035Y000710D01*
X006365Y000710D01*
X006365Y000490D02*
X006365Y000930D01*
X006255Y001041D01*
X006035Y001041D01*
X005925Y000930D01*
X005925Y000490D02*
X006035Y000380D01*
X006255Y000380D01*
X006365Y000490D01*
D14*
X000500Y000140D02*
X000500Y004740D01*
X017400Y004740D01*
X017400Y000140D01*
X000500Y000140D01*
M02*
