G75*
G70*
%OFA0B0*%
%FSLAX24Y24*%
%IPPOS*%
%LPD*%
%AMOC8*
5,1,8,0,0,1.08239X$1,22.5*
%
%ADD10C,0.0970*%
%ADD11R,0.0600X0.0300*%
%ADD12C,0.0789*%
%ADD13R,0.0789X0.0710*%
%ADD14R,0.0710X0.0790*%
%ADD15R,0.0285X0.0220*%
%ADD16R,0.0285X0.0225*%
%ADD17R,0.0300X0.0580*%
%ADD18R,0.0474X0.0513*%
%ADD19R,0.0513X0.0474*%
%ADD20C,0.0330*%
%ADD21R,0.0474X0.0631*%
%ADD22R,0.0860X0.0300*%
%ADD23R,0.0300X0.0600*%
%ADD24R,0.0710X0.0789*%
%ADD25R,0.0790X0.0710*%
%ADD26R,0.0220X0.0285*%
%ADD27R,0.0225X0.0285*%
%ADD28R,0.0580X0.0300*%
%ADD29R,0.0631X0.0474*%
%ADD30R,0.0300X0.0860*%
%ADD31C,0.0476*%
D10*
X001900Y014448D03*
X001960Y020758D03*
X001900Y027198D03*
X012210Y022798D03*
X014550Y016698D03*
X012270Y016358D03*
X012210Y010048D03*
X018950Y027008D03*
D11*
X004160Y024798D03*
X004160Y024058D03*
X003240Y024058D03*
X003240Y024428D03*
X003240Y024798D03*
X003300Y018358D03*
X003300Y017988D03*
X003300Y017618D03*
X004220Y017618D03*
X004220Y018358D03*
X004160Y012048D03*
X004160Y011308D03*
X003240Y011308D03*
X003240Y011678D03*
X003240Y012048D03*
D12*
X002504Y012298D02*
X001796Y012298D01*
X001796Y011298D02*
X002504Y011298D01*
X002504Y013298D02*
X001796Y013298D01*
X001856Y017608D02*
X002564Y017608D01*
X002564Y018608D02*
X001856Y018608D01*
X001856Y019608D02*
X002564Y019608D01*
X002504Y024048D02*
X001796Y024048D01*
X001796Y025048D02*
X002504Y025048D01*
X002504Y026048D02*
X001796Y026048D01*
X011666Y025798D02*
X012374Y025798D01*
X012374Y024798D02*
X011666Y024798D01*
X015950Y026464D02*
X015950Y027173D01*
X016950Y027173D02*
X016950Y026464D01*
X012434Y019358D02*
X011726Y019358D01*
X011726Y018358D02*
X012434Y018358D01*
X015700Y017303D02*
X015700Y016594D01*
X016700Y016594D02*
X016700Y017303D01*
X017700Y017303D02*
X017700Y016594D01*
X012374Y013048D02*
X011666Y013048D01*
X011666Y012048D02*
X012374Y012048D01*
D13*
X004970Y011539D03*
X004970Y010437D03*
X005030Y016747D03*
X005030Y017849D03*
X004970Y023187D03*
X004970Y024289D03*
D14*
X010740Y027128D03*
X011860Y027128D03*
X011920Y020688D03*
X010800Y020688D03*
X010740Y014378D03*
X011860Y014378D03*
D15*
X010660Y016438D03*
X010600Y010128D03*
X010600Y022878D03*
D16*
X009825Y022507D03*
X009825Y023250D03*
X009885Y016810D03*
X009885Y016067D03*
X009825Y010500D03*
X009825Y009757D03*
D17*
X006490Y011818D03*
X006120Y011818D03*
X005750Y011818D03*
X005750Y012838D03*
X006120Y012838D03*
X006490Y012838D03*
X006550Y018128D03*
X006180Y018128D03*
X005810Y018128D03*
X005810Y019148D03*
X006180Y019148D03*
X006550Y019148D03*
X006490Y024568D03*
X006120Y024568D03*
X005750Y024568D03*
X005750Y025588D03*
X006120Y025588D03*
X006490Y025588D03*
D18*
X005880Y010354D03*
X005880Y011023D03*
X007025Y010518D03*
X007695Y010518D03*
X004955Y012768D03*
X004285Y012768D03*
X004275Y013608D03*
X004945Y013608D03*
X005640Y014054D03*
X005640Y014723D03*
X005940Y016664D03*
X005940Y017333D03*
X007085Y016828D03*
X007755Y016828D03*
X008645Y014558D03*
X009315Y014558D03*
X005015Y019078D03*
X004345Y019078D03*
X004335Y019918D03*
X005005Y019918D03*
X005700Y020364D03*
X005700Y021033D03*
X005880Y023104D03*
X005880Y023773D03*
X007025Y023268D03*
X007695Y023268D03*
X008705Y020868D03*
X009375Y020868D03*
X004955Y025518D03*
X004285Y025518D03*
X004275Y026358D03*
X004945Y026358D03*
X005640Y026804D03*
X005640Y027473D03*
X008645Y027308D03*
X009315Y027308D03*
X014275Y021268D03*
X014945Y021268D03*
X014450Y022124D03*
X014450Y022793D03*
X016195Y024818D03*
X016865Y024818D03*
X016865Y025638D03*
X016195Y025638D03*
X017410Y022743D03*
X017410Y022074D03*
X018565Y023208D03*
X019235Y023208D03*
X018460Y018853D03*
X018460Y018184D03*
X016015Y018408D03*
X015345Y018408D03*
D19*
X015390Y019074D03*
X015390Y019743D03*
X014945Y020438D03*
X014275Y020438D03*
X016230Y019753D03*
X016230Y019084D03*
X017975Y020678D03*
X018645Y020678D03*
X018480Y021824D03*
X018480Y022493D03*
X014440Y023444D03*
X014440Y024113D03*
X010840Y024884D03*
X010840Y025553D03*
X010020Y025553D03*
X010020Y024884D03*
X008410Y023183D03*
X008410Y022514D03*
X008055Y020858D03*
X007385Y020858D03*
X006530Y021033D03*
X006530Y020364D03*
X007335Y017898D03*
X008005Y017898D03*
X008470Y016743D03*
X008470Y016074D03*
X007995Y014548D03*
X007325Y014548D03*
X006470Y014723D03*
X006470Y014054D03*
X007275Y011588D03*
X007945Y011588D03*
X008410Y010433D03*
X008410Y009764D03*
X010020Y012134D03*
X010020Y012803D03*
X010840Y012803D03*
X010840Y012134D03*
X010900Y018444D03*
X010900Y019113D03*
X010080Y019113D03*
X010080Y018444D03*
X007945Y024338D03*
X007275Y024338D03*
X006470Y026804D03*
X006470Y027473D03*
X007325Y027298D03*
X007995Y027298D03*
X004055Y023288D03*
X003385Y023288D03*
X003610Y025734D03*
X003610Y026403D03*
X003670Y019963D03*
X003670Y019294D03*
X003445Y016848D03*
X004115Y016848D03*
X003610Y013653D03*
X003610Y012984D03*
X003385Y010538D03*
X004055Y010538D03*
D20*
X004360Y011658D03*
X005240Y012208D03*
X006490Y011318D03*
X006480Y010688D03*
X009190Y011928D03*
X009830Y010998D03*
X004940Y014238D03*
X003130Y014338D03*
X004420Y017968D03*
X005300Y018518D03*
X006550Y017628D03*
X006540Y016998D03*
X009250Y018238D03*
X009890Y017308D03*
X014660Y017928D03*
X014760Y019738D03*
X016790Y020038D03*
X017340Y019158D03*
X017680Y021288D03*
X018310Y021278D03*
X017070Y023988D03*
X018000Y024628D03*
X009830Y023748D03*
X009190Y024678D03*
X006490Y024068D03*
X006480Y023438D03*
X005240Y024958D03*
X004360Y024408D03*
X004940Y026988D03*
X003130Y027088D03*
X003190Y020648D03*
X005000Y020548D03*
D21*
X008726Y017761D03*
X009474Y017761D03*
X009100Y016895D03*
X009414Y011451D03*
X008666Y011451D03*
X009040Y010585D03*
X009040Y023335D03*
X008666Y024201D03*
X009414Y024201D03*
D22*
X009190Y025058D03*
X009190Y025558D03*
X009190Y026058D03*
X009190Y026558D03*
X007330Y026558D03*
X007330Y026058D03*
X007330Y025558D03*
X007330Y025058D03*
X007390Y020118D03*
X007390Y019618D03*
X007390Y019118D03*
X007390Y018618D03*
X009250Y018618D03*
X009250Y019118D03*
X009250Y019618D03*
X009250Y020118D03*
X009190Y013808D03*
X009190Y013308D03*
X009190Y012808D03*
X009190Y012308D03*
X007330Y012308D03*
X007330Y012808D03*
X007330Y013308D03*
X007330Y013808D03*
D23*
X016950Y018038D03*
X017320Y018038D03*
X017690Y018038D03*
X017690Y018958D03*
X016950Y018958D03*
D24*
X017459Y019768D03*
X018561Y019768D03*
D25*
X014620Y025538D03*
X014620Y026658D03*
D26*
X018870Y025398D03*
D27*
X018499Y024623D03*
X019241Y024623D03*
D28*
X017180Y021288D03*
X017180Y020918D03*
X017180Y020548D03*
X016160Y020548D03*
X016160Y020918D03*
X016160Y021288D03*
D29*
X017547Y023464D03*
X017547Y024212D03*
X018413Y023838D03*
D30*
X016690Y023988D03*
X016190Y023988D03*
X015690Y023988D03*
X015190Y023988D03*
X015190Y022128D03*
X015690Y022128D03*
X016190Y022128D03*
X016690Y022128D03*
D31*
X015980Y022878D03*
X015650Y021178D03*
X018050Y021818D03*
X017530Y025138D03*
X015190Y024838D03*
X010340Y024218D03*
X010040Y026558D03*
X008080Y025768D03*
X006380Y026098D03*
X007020Y023698D03*
X010100Y020118D03*
X010400Y017778D03*
X008140Y019328D03*
X006440Y019658D03*
X007080Y017258D03*
X010040Y013808D03*
X008080Y013018D03*
X006380Y013348D03*
X007020Y010948D03*
X010340Y011468D03*
X002720Y010448D03*
X002780Y016758D03*
X002720Y023198D03*
X018550Y017518D03*
M02*
