G75*
G70*
%OFA0B0*%
%FSLAX24Y24*%
%IPPOS*%
%LPD*%
%AMOC8*
5,1,8,0,0,1.08239X$1,22.5*
%
%ADD10C,0.0010*%
%ADD11C,0.0000*%
%ADD12C,0.0160*%
D10*
X001150Y009298D02*
X001150Y015204D01*
X012961Y015204D01*
X012961Y009298D01*
X001150Y009298D01*
X001210Y015608D02*
X001210Y021514D01*
X013021Y021514D01*
X013021Y015608D01*
X001210Y015608D01*
X001150Y022048D02*
X001150Y027954D01*
X012961Y027954D01*
X012961Y022048D01*
X001150Y022048D01*
X013794Y027759D02*
X013794Y015948D01*
X019700Y015948D01*
X019700Y027759D01*
X013794Y027759D01*
D11*
X011765Y022798D02*
X011767Y022840D01*
X011773Y022881D01*
X011782Y022922D01*
X011796Y022961D01*
X011813Y022999D01*
X011834Y023035D01*
X011857Y023070D01*
X011884Y023101D01*
X011914Y023131D01*
X011947Y023157D01*
X011982Y023180D01*
X012018Y023200D01*
X012057Y023216D01*
X012097Y023228D01*
X012137Y023237D01*
X012179Y023242D01*
X012220Y023243D01*
X012262Y023240D01*
X012303Y023233D01*
X012344Y023222D01*
X012383Y023208D01*
X012420Y023190D01*
X012456Y023169D01*
X012490Y023144D01*
X012521Y023116D01*
X012549Y023086D01*
X012575Y023053D01*
X012597Y023017D01*
X012616Y022980D01*
X012631Y022941D01*
X012643Y022901D01*
X012651Y022860D01*
X012655Y022819D01*
X012655Y022777D01*
X012651Y022736D01*
X012643Y022695D01*
X012631Y022655D01*
X012616Y022616D01*
X012597Y022579D01*
X012575Y022543D01*
X012549Y022510D01*
X012521Y022480D01*
X012490Y022452D01*
X012456Y022427D01*
X012420Y022406D01*
X012383Y022388D01*
X012344Y022374D01*
X012303Y022363D01*
X012262Y022356D01*
X012220Y022353D01*
X012179Y022354D01*
X012137Y022359D01*
X012097Y022368D01*
X012057Y022380D01*
X012018Y022396D01*
X011982Y022416D01*
X011947Y022439D01*
X011914Y022465D01*
X011884Y022495D01*
X011857Y022526D01*
X011834Y022561D01*
X011813Y022597D01*
X011796Y022635D01*
X011782Y022674D01*
X011773Y022715D01*
X011767Y022756D01*
X011765Y022798D01*
X014105Y016698D02*
X014107Y016740D01*
X014113Y016781D01*
X014122Y016822D01*
X014136Y016861D01*
X014153Y016899D01*
X014174Y016935D01*
X014197Y016970D01*
X014224Y017001D01*
X014254Y017031D01*
X014287Y017057D01*
X014322Y017080D01*
X014358Y017100D01*
X014397Y017116D01*
X014437Y017128D01*
X014477Y017137D01*
X014519Y017142D01*
X014560Y017143D01*
X014602Y017140D01*
X014643Y017133D01*
X014684Y017122D01*
X014723Y017108D01*
X014760Y017090D01*
X014796Y017069D01*
X014830Y017044D01*
X014861Y017016D01*
X014889Y016986D01*
X014915Y016953D01*
X014937Y016917D01*
X014956Y016880D01*
X014971Y016841D01*
X014983Y016801D01*
X014991Y016760D01*
X014995Y016719D01*
X014995Y016677D01*
X014991Y016636D01*
X014983Y016595D01*
X014971Y016555D01*
X014956Y016516D01*
X014937Y016479D01*
X014915Y016443D01*
X014889Y016410D01*
X014861Y016380D01*
X014830Y016352D01*
X014796Y016327D01*
X014760Y016306D01*
X014723Y016288D01*
X014684Y016274D01*
X014643Y016263D01*
X014602Y016256D01*
X014560Y016253D01*
X014519Y016254D01*
X014477Y016259D01*
X014437Y016268D01*
X014397Y016280D01*
X014358Y016296D01*
X014322Y016316D01*
X014287Y016339D01*
X014254Y016365D01*
X014224Y016395D01*
X014197Y016426D01*
X014174Y016461D01*
X014153Y016497D01*
X014136Y016535D01*
X014122Y016574D01*
X014113Y016615D01*
X014107Y016656D01*
X014105Y016698D01*
X011825Y016358D02*
X011827Y016400D01*
X011833Y016441D01*
X011842Y016482D01*
X011856Y016521D01*
X011873Y016559D01*
X011894Y016595D01*
X011917Y016630D01*
X011944Y016661D01*
X011974Y016691D01*
X012007Y016717D01*
X012042Y016740D01*
X012078Y016760D01*
X012117Y016776D01*
X012157Y016788D01*
X012197Y016797D01*
X012239Y016802D01*
X012280Y016803D01*
X012322Y016800D01*
X012363Y016793D01*
X012404Y016782D01*
X012443Y016768D01*
X012480Y016750D01*
X012516Y016729D01*
X012550Y016704D01*
X012581Y016676D01*
X012609Y016646D01*
X012635Y016613D01*
X012657Y016577D01*
X012676Y016540D01*
X012691Y016501D01*
X012703Y016461D01*
X012711Y016420D01*
X012715Y016379D01*
X012715Y016337D01*
X012711Y016296D01*
X012703Y016255D01*
X012691Y016215D01*
X012676Y016176D01*
X012657Y016139D01*
X012635Y016103D01*
X012609Y016070D01*
X012581Y016040D01*
X012550Y016012D01*
X012516Y015987D01*
X012480Y015966D01*
X012443Y015948D01*
X012404Y015934D01*
X012363Y015923D01*
X012322Y015916D01*
X012280Y015913D01*
X012239Y015914D01*
X012197Y015919D01*
X012157Y015928D01*
X012117Y015940D01*
X012078Y015956D01*
X012042Y015976D01*
X012007Y015999D01*
X011974Y016025D01*
X011944Y016055D01*
X011917Y016086D01*
X011894Y016121D01*
X011873Y016157D01*
X011856Y016195D01*
X011842Y016234D01*
X011833Y016275D01*
X011827Y016316D01*
X011825Y016358D01*
X011765Y010048D02*
X011767Y010090D01*
X011773Y010131D01*
X011782Y010172D01*
X011796Y010211D01*
X011813Y010249D01*
X011834Y010285D01*
X011857Y010320D01*
X011884Y010351D01*
X011914Y010381D01*
X011947Y010407D01*
X011982Y010430D01*
X012018Y010450D01*
X012057Y010466D01*
X012097Y010478D01*
X012137Y010487D01*
X012179Y010492D01*
X012220Y010493D01*
X012262Y010490D01*
X012303Y010483D01*
X012344Y010472D01*
X012383Y010458D01*
X012420Y010440D01*
X012456Y010419D01*
X012490Y010394D01*
X012521Y010366D01*
X012549Y010336D01*
X012575Y010303D01*
X012597Y010267D01*
X012616Y010230D01*
X012631Y010191D01*
X012643Y010151D01*
X012651Y010110D01*
X012655Y010069D01*
X012655Y010027D01*
X012651Y009986D01*
X012643Y009945D01*
X012631Y009905D01*
X012616Y009866D01*
X012597Y009829D01*
X012575Y009793D01*
X012549Y009760D01*
X012521Y009730D01*
X012490Y009702D01*
X012456Y009677D01*
X012420Y009656D01*
X012383Y009638D01*
X012344Y009624D01*
X012303Y009613D01*
X012262Y009606D01*
X012220Y009603D01*
X012179Y009604D01*
X012137Y009609D01*
X012097Y009618D01*
X012057Y009630D01*
X012018Y009646D01*
X011982Y009666D01*
X011947Y009689D01*
X011914Y009715D01*
X011884Y009745D01*
X011857Y009776D01*
X011834Y009811D01*
X011813Y009847D01*
X011796Y009885D01*
X011782Y009924D01*
X011773Y009965D01*
X011767Y010006D01*
X011765Y010048D01*
X001515Y020758D02*
X001517Y020800D01*
X001523Y020841D01*
X001532Y020882D01*
X001546Y020921D01*
X001563Y020959D01*
X001584Y020995D01*
X001607Y021030D01*
X001634Y021061D01*
X001664Y021091D01*
X001697Y021117D01*
X001732Y021140D01*
X001768Y021160D01*
X001807Y021176D01*
X001847Y021188D01*
X001887Y021197D01*
X001929Y021202D01*
X001970Y021203D01*
X002012Y021200D01*
X002053Y021193D01*
X002094Y021182D01*
X002133Y021168D01*
X002170Y021150D01*
X002206Y021129D01*
X002240Y021104D01*
X002271Y021076D01*
X002299Y021046D01*
X002325Y021013D01*
X002347Y020977D01*
X002366Y020940D01*
X002381Y020901D01*
X002393Y020861D01*
X002401Y020820D01*
X002405Y020779D01*
X002405Y020737D01*
X002401Y020696D01*
X002393Y020655D01*
X002381Y020615D01*
X002366Y020576D01*
X002347Y020539D01*
X002325Y020503D01*
X002299Y020470D01*
X002271Y020440D01*
X002240Y020412D01*
X002206Y020387D01*
X002170Y020366D01*
X002133Y020348D01*
X002094Y020334D01*
X002053Y020323D01*
X002012Y020316D01*
X001970Y020313D01*
X001929Y020314D01*
X001887Y020319D01*
X001847Y020328D01*
X001807Y020340D01*
X001768Y020356D01*
X001732Y020376D01*
X001697Y020399D01*
X001664Y020425D01*
X001634Y020455D01*
X001607Y020486D01*
X001584Y020521D01*
X001563Y020557D01*
X001546Y020595D01*
X001532Y020634D01*
X001523Y020675D01*
X001517Y020716D01*
X001515Y020758D01*
X001455Y014448D02*
X001457Y014490D01*
X001463Y014531D01*
X001472Y014572D01*
X001486Y014611D01*
X001503Y014649D01*
X001524Y014685D01*
X001547Y014720D01*
X001574Y014751D01*
X001604Y014781D01*
X001637Y014807D01*
X001672Y014830D01*
X001708Y014850D01*
X001747Y014866D01*
X001787Y014878D01*
X001827Y014887D01*
X001869Y014892D01*
X001910Y014893D01*
X001952Y014890D01*
X001993Y014883D01*
X002034Y014872D01*
X002073Y014858D01*
X002110Y014840D01*
X002146Y014819D01*
X002180Y014794D01*
X002211Y014766D01*
X002239Y014736D01*
X002265Y014703D01*
X002287Y014667D01*
X002306Y014630D01*
X002321Y014591D01*
X002333Y014551D01*
X002341Y014510D01*
X002345Y014469D01*
X002345Y014427D01*
X002341Y014386D01*
X002333Y014345D01*
X002321Y014305D01*
X002306Y014266D01*
X002287Y014229D01*
X002265Y014193D01*
X002239Y014160D01*
X002211Y014130D01*
X002180Y014102D01*
X002146Y014077D01*
X002110Y014056D01*
X002073Y014038D01*
X002034Y014024D01*
X001993Y014013D01*
X001952Y014006D01*
X001910Y014003D01*
X001869Y014004D01*
X001827Y014009D01*
X001787Y014018D01*
X001747Y014030D01*
X001708Y014046D01*
X001672Y014066D01*
X001637Y014089D01*
X001604Y014115D01*
X001574Y014145D01*
X001547Y014176D01*
X001524Y014211D01*
X001503Y014247D01*
X001486Y014285D01*
X001472Y014324D01*
X001463Y014365D01*
X001457Y014406D01*
X001455Y014448D01*
X001455Y027198D02*
X001457Y027240D01*
X001463Y027281D01*
X001472Y027322D01*
X001486Y027361D01*
X001503Y027399D01*
X001524Y027435D01*
X001547Y027470D01*
X001574Y027501D01*
X001604Y027531D01*
X001637Y027557D01*
X001672Y027580D01*
X001708Y027600D01*
X001747Y027616D01*
X001787Y027628D01*
X001827Y027637D01*
X001869Y027642D01*
X001910Y027643D01*
X001952Y027640D01*
X001993Y027633D01*
X002034Y027622D01*
X002073Y027608D01*
X002110Y027590D01*
X002146Y027569D01*
X002180Y027544D01*
X002211Y027516D01*
X002239Y027486D01*
X002265Y027453D01*
X002287Y027417D01*
X002306Y027380D01*
X002321Y027341D01*
X002333Y027301D01*
X002341Y027260D01*
X002345Y027219D01*
X002345Y027177D01*
X002341Y027136D01*
X002333Y027095D01*
X002321Y027055D01*
X002306Y027016D01*
X002287Y026979D01*
X002265Y026943D01*
X002239Y026910D01*
X002211Y026880D01*
X002180Y026852D01*
X002146Y026827D01*
X002110Y026806D01*
X002073Y026788D01*
X002034Y026774D01*
X001993Y026763D01*
X001952Y026756D01*
X001910Y026753D01*
X001869Y026754D01*
X001827Y026759D01*
X001787Y026768D01*
X001747Y026780D01*
X001708Y026796D01*
X001672Y026816D01*
X001637Y026839D01*
X001604Y026865D01*
X001574Y026895D01*
X001547Y026926D01*
X001524Y026961D01*
X001503Y026997D01*
X001486Y027035D01*
X001472Y027074D01*
X001463Y027115D01*
X001457Y027156D01*
X001455Y027198D01*
X018505Y027008D02*
X018507Y027050D01*
X018513Y027091D01*
X018522Y027132D01*
X018536Y027171D01*
X018553Y027209D01*
X018574Y027245D01*
X018597Y027280D01*
X018624Y027311D01*
X018654Y027341D01*
X018687Y027367D01*
X018722Y027390D01*
X018758Y027410D01*
X018797Y027426D01*
X018837Y027438D01*
X018877Y027447D01*
X018919Y027452D01*
X018960Y027453D01*
X019002Y027450D01*
X019043Y027443D01*
X019084Y027432D01*
X019123Y027418D01*
X019160Y027400D01*
X019196Y027379D01*
X019230Y027354D01*
X019261Y027326D01*
X019289Y027296D01*
X019315Y027263D01*
X019337Y027227D01*
X019356Y027190D01*
X019371Y027151D01*
X019383Y027111D01*
X019391Y027070D01*
X019395Y027029D01*
X019395Y026987D01*
X019391Y026946D01*
X019383Y026905D01*
X019371Y026865D01*
X019356Y026826D01*
X019337Y026789D01*
X019315Y026753D01*
X019289Y026720D01*
X019261Y026690D01*
X019230Y026662D01*
X019196Y026637D01*
X019160Y026616D01*
X019123Y026598D01*
X019084Y026584D01*
X019043Y026573D01*
X019002Y026566D01*
X018960Y026563D01*
X018919Y026564D01*
X018877Y026569D01*
X018837Y026578D01*
X018797Y026590D01*
X018758Y026606D01*
X018722Y026626D01*
X018687Y026649D01*
X018654Y026675D01*
X018624Y026705D01*
X018597Y026736D01*
X018574Y026771D01*
X018553Y026807D01*
X018536Y026845D01*
X018522Y026884D01*
X018513Y026925D01*
X018507Y026966D01*
X018505Y027008D01*
D12*
X000756Y028590D02*
X000756Y008905D01*
X020441Y008905D01*
X020441Y028590D01*
X000756Y028590D01*
M02*
