G75*
G70*
%OFA0B0*%
%FSLAX24Y24*%
%IPPOS*%
%LPD*%
%AMOC8*
5,1,8,0,0,1.08239X$1,22.5*
%
%ADD10C,0.0040*%
%ADD11C,0.0709*%
%ADD12C,0.0100*%
%ADD13C,0.0396*%
%ADD14C,0.0160*%
D10*
X008390Y014458D02*
X008443Y014458D01*
X008470Y014485D01*
X008416Y014538D02*
X008390Y014538D01*
X008363Y014512D01*
X008363Y014485D01*
X008390Y014458D01*
X008390Y014538D02*
X008363Y014565D01*
X008363Y014592D01*
X008390Y014618D01*
X008443Y014618D01*
X008470Y014592D01*
X008513Y014758D02*
X008486Y014785D01*
X008486Y014812D01*
X008513Y014838D01*
X008593Y014838D01*
X008593Y014785D01*
X008566Y014758D01*
X008513Y014758D01*
X008408Y014785D02*
X008382Y014758D01*
X008328Y014758D01*
X008302Y014785D01*
X008302Y014812D01*
X008328Y014838D01*
X008355Y014838D01*
X008328Y014838D02*
X008302Y014865D01*
X008302Y014892D01*
X008328Y014918D01*
X008382Y014918D01*
X008408Y014892D01*
X008486Y014918D02*
X008539Y014892D01*
X008593Y014838D01*
X008670Y014785D02*
X008697Y014758D01*
X008750Y014758D01*
X008777Y014785D01*
X008670Y014892D01*
X008670Y014785D01*
X008670Y014892D02*
X008697Y014918D01*
X008750Y014918D01*
X008777Y014892D01*
X008777Y014785D01*
X008854Y014785D02*
X008881Y014758D01*
X008934Y014758D01*
X008961Y014785D01*
X008908Y014838D02*
X008881Y014838D01*
X008854Y014812D01*
X008854Y014785D01*
X008881Y014838D02*
X008854Y014865D01*
X008854Y014892D01*
X008881Y014918D01*
X008934Y014918D01*
X008961Y014892D01*
X009092Y014918D02*
X009092Y014758D01*
X009145Y014758D02*
X009038Y014758D01*
X009022Y014618D02*
X009022Y014458D01*
X008916Y014458D01*
X008838Y014458D02*
X008838Y014618D01*
X008758Y014618D01*
X008731Y014592D01*
X008731Y014538D01*
X008758Y014512D01*
X008838Y014512D01*
X008785Y014512D02*
X008731Y014458D01*
X008916Y014618D02*
X009022Y014618D01*
X009100Y014618D02*
X009100Y014512D01*
X009153Y014458D01*
X009206Y014512D01*
X009206Y014618D01*
X009276Y014618D02*
X009329Y014618D01*
X009303Y014618D02*
X009303Y014458D01*
X009329Y014458D02*
X009276Y014458D01*
X009407Y014458D02*
X009460Y014512D01*
X009433Y014512D02*
X009513Y014512D01*
X009513Y014458D02*
X009513Y014618D01*
X009433Y014618D01*
X009407Y014592D01*
X009407Y014538D01*
X009433Y014512D01*
X009591Y014485D02*
X009591Y014592D01*
X009617Y014618D01*
X009698Y014618D01*
X009698Y014458D01*
X009617Y014458D01*
X009591Y014485D01*
X009513Y014758D02*
X009407Y014865D01*
X009407Y014892D01*
X009433Y014918D01*
X009487Y014918D01*
X009513Y014892D01*
X009513Y014758D02*
X009407Y014758D01*
X009329Y014785D02*
X009222Y014892D01*
X009222Y014785D01*
X009249Y014758D01*
X009303Y014758D01*
X009329Y014785D01*
X009329Y014892D01*
X009303Y014918D01*
X009249Y014918D01*
X009222Y014892D01*
X009145Y014865D02*
X009092Y014918D01*
X009022Y014538D02*
X008969Y014538D01*
X008224Y014785D02*
X008198Y014758D01*
X008144Y014758D01*
X008118Y014785D01*
X008118Y014892D01*
X008224Y014785D01*
X008224Y014892D01*
X008198Y014918D01*
X008144Y014918D01*
X008118Y014892D01*
X009775Y014918D02*
X009775Y014758D01*
X009882Y014758D02*
X009882Y014918D01*
X009828Y014865D01*
X009775Y014918D01*
X009959Y014918D02*
X009959Y014758D01*
X010012Y014812D01*
X010066Y014758D01*
X010066Y014918D01*
X010143Y014918D02*
X010250Y014918D01*
X010250Y014758D01*
X010143Y014758D01*
X010197Y014838D02*
X010250Y014838D01*
X010197Y014618D02*
X010143Y014565D01*
X010143Y014458D01*
X010143Y014538D02*
X010250Y014538D01*
X010250Y014565D02*
X010197Y014618D01*
X010250Y014565D02*
X010250Y014458D01*
X010012Y014458D02*
X010012Y014618D01*
X009959Y014618D02*
X010066Y014618D01*
X010072Y020768D02*
X010072Y020928D01*
X010019Y020928D02*
X010126Y020928D01*
X010203Y020875D02*
X010203Y020768D01*
X010203Y020848D02*
X010310Y020848D01*
X010310Y020875D02*
X010257Y020928D01*
X010203Y020875D01*
X010310Y020875D02*
X010310Y020768D01*
X010310Y021068D02*
X010203Y021068D01*
X010126Y021068D02*
X010072Y021122D01*
X010019Y021068D01*
X010019Y021228D01*
X009942Y021228D02*
X009888Y021175D01*
X009835Y021228D01*
X009835Y021068D01*
X009942Y021068D02*
X009942Y021228D01*
X010126Y021228D02*
X010126Y021068D01*
X010257Y021148D02*
X010310Y021148D01*
X010310Y021228D02*
X010310Y021068D01*
X010310Y021228D02*
X010203Y021228D01*
X009758Y020928D02*
X009758Y020768D01*
X009677Y020768D01*
X009651Y020795D01*
X009651Y020902D01*
X009677Y020928D01*
X009758Y020928D01*
X009573Y020928D02*
X009573Y020768D01*
X009573Y020822D02*
X009493Y020822D01*
X009467Y020848D01*
X009467Y020902D01*
X009493Y020928D01*
X009573Y020928D01*
X009520Y020822D02*
X009467Y020768D01*
X009389Y020768D02*
X009336Y020768D01*
X009363Y020768D02*
X009363Y020928D01*
X009389Y020928D02*
X009336Y020928D01*
X009266Y020928D02*
X009266Y020822D01*
X009213Y020768D01*
X009160Y020822D01*
X009160Y020928D01*
X009082Y020928D02*
X009082Y020768D01*
X008976Y020768D01*
X008898Y020768D02*
X008898Y020928D01*
X008818Y020928D01*
X008791Y020902D01*
X008791Y020848D01*
X008818Y020822D01*
X008898Y020822D01*
X008845Y020822D02*
X008791Y020768D01*
X008976Y020928D02*
X009082Y020928D01*
X009082Y020848D02*
X009029Y020848D01*
X008994Y021068D02*
X009021Y021095D01*
X008994Y021068D02*
X008941Y021068D01*
X008914Y021095D01*
X008914Y021122D01*
X008941Y021148D01*
X008968Y021148D01*
X008941Y021148D02*
X008914Y021175D01*
X008914Y021202D01*
X008941Y021228D01*
X008994Y021228D01*
X009021Y021202D01*
X009152Y021228D02*
X009152Y021068D01*
X009205Y021068D02*
X009098Y021068D01*
X009205Y021175D02*
X009152Y021228D01*
X009282Y021202D02*
X009389Y021095D01*
X009363Y021068D01*
X009309Y021068D01*
X009282Y021095D01*
X009282Y021202D01*
X009309Y021228D01*
X009363Y021228D01*
X009389Y021202D01*
X009389Y021095D01*
X009467Y021068D02*
X009573Y021068D01*
X009467Y021175D01*
X009467Y021202D01*
X009493Y021228D01*
X009547Y021228D01*
X009573Y021202D01*
X008837Y021202D02*
X008837Y021095D01*
X008730Y021202D01*
X008730Y021095D01*
X008757Y021068D01*
X008810Y021068D01*
X008837Y021095D01*
X008837Y021202D02*
X008810Y021228D01*
X008757Y021228D01*
X008730Y021202D01*
X008653Y021148D02*
X008573Y021148D01*
X008546Y021122D01*
X008546Y021095D01*
X008573Y021068D01*
X008626Y021068D01*
X008653Y021095D01*
X008653Y021148D01*
X008599Y021202D01*
X008546Y021228D01*
X008468Y021202D02*
X008442Y021228D01*
X008388Y021228D01*
X008362Y021202D01*
X008362Y021175D01*
X008388Y021148D01*
X008362Y021122D01*
X008362Y021095D01*
X008388Y021068D01*
X008442Y021068D01*
X008468Y021095D01*
X008415Y021148D02*
X008388Y021148D01*
X008284Y021095D02*
X008178Y021202D01*
X008178Y021095D01*
X008204Y021068D01*
X008258Y021068D01*
X008284Y021095D01*
X008284Y021202D01*
X008258Y021228D01*
X008204Y021228D01*
X008178Y021202D01*
X008450Y020928D02*
X008423Y020902D01*
X008423Y020875D01*
X008450Y020848D01*
X008423Y020822D01*
X008423Y020795D01*
X008450Y020768D01*
X008503Y020768D01*
X008530Y020795D01*
X008476Y020848D02*
X008450Y020848D01*
X008450Y020928D02*
X008503Y020928D01*
X008530Y020902D01*
X008443Y027208D02*
X008390Y027208D01*
X008363Y027235D01*
X008363Y027262D01*
X008390Y027288D01*
X008416Y027288D01*
X008390Y027288D02*
X008363Y027315D01*
X008363Y027342D01*
X008390Y027368D01*
X008443Y027368D01*
X008470Y027342D01*
X008470Y027235D02*
X008443Y027208D01*
X008731Y027208D02*
X008785Y027262D01*
X008758Y027262D02*
X008838Y027262D01*
X008838Y027208D02*
X008838Y027368D01*
X008758Y027368D01*
X008731Y027342D01*
X008731Y027288D01*
X008758Y027262D01*
X008916Y027208D02*
X009022Y027208D01*
X009022Y027368D01*
X008916Y027368D01*
X008969Y027288D02*
X009022Y027288D01*
X009100Y027262D02*
X009100Y027368D01*
X009100Y027262D02*
X009153Y027208D01*
X009206Y027262D01*
X009206Y027368D01*
X009276Y027368D02*
X009329Y027368D01*
X009303Y027368D02*
X009303Y027208D01*
X009329Y027208D02*
X009276Y027208D01*
X009407Y027208D02*
X009460Y027262D01*
X009433Y027262D02*
X009513Y027262D01*
X009513Y027208D02*
X009513Y027368D01*
X009433Y027368D01*
X009407Y027342D01*
X009407Y027288D01*
X009433Y027262D01*
X009591Y027235D02*
X009591Y027342D01*
X009617Y027368D01*
X009698Y027368D01*
X009698Y027208D01*
X009617Y027208D01*
X009591Y027235D01*
X009513Y027508D02*
X009407Y027615D01*
X009407Y027642D01*
X009433Y027668D01*
X009487Y027668D01*
X009513Y027642D01*
X009513Y027508D02*
X009407Y027508D01*
X009329Y027535D02*
X009222Y027642D01*
X009222Y027535D01*
X009249Y027508D01*
X009303Y027508D01*
X009329Y027535D01*
X009329Y027642D01*
X009303Y027668D01*
X009249Y027668D01*
X009222Y027642D01*
X009145Y027615D02*
X009092Y027668D01*
X009092Y027508D01*
X009145Y027508D02*
X009038Y027508D01*
X008961Y027535D02*
X008934Y027508D01*
X008881Y027508D01*
X008854Y027535D01*
X008854Y027562D01*
X008881Y027588D01*
X008908Y027588D01*
X008881Y027588D02*
X008854Y027615D01*
X008854Y027642D01*
X008881Y027668D01*
X008934Y027668D01*
X008961Y027642D01*
X008777Y027642D02*
X008750Y027668D01*
X008697Y027668D01*
X008670Y027642D01*
X008777Y027535D01*
X008750Y027508D01*
X008697Y027508D01*
X008670Y027535D01*
X008670Y027642D01*
X008593Y027588D02*
X008513Y027588D01*
X008486Y027562D01*
X008486Y027535D01*
X008513Y027508D01*
X008566Y027508D01*
X008593Y027535D01*
X008593Y027588D01*
X008539Y027642D01*
X008486Y027668D01*
X008408Y027642D02*
X008382Y027668D01*
X008328Y027668D01*
X008302Y027642D01*
X008302Y027615D01*
X008328Y027588D01*
X008302Y027562D01*
X008302Y027535D01*
X008328Y027508D01*
X008382Y027508D01*
X008408Y027535D01*
X008355Y027588D02*
X008328Y027588D01*
X008224Y027535D02*
X008118Y027642D01*
X008118Y027535D01*
X008144Y027508D01*
X008198Y027508D01*
X008224Y027535D01*
X008224Y027642D01*
X008198Y027668D01*
X008144Y027668D01*
X008118Y027642D01*
X008777Y027642D02*
X008777Y027535D01*
X009775Y027508D02*
X009775Y027668D01*
X009828Y027615D01*
X009882Y027668D01*
X009882Y027508D01*
X009959Y027508D02*
X009959Y027668D01*
X010066Y027668D02*
X010066Y027508D01*
X010012Y027562D01*
X009959Y027508D01*
X009959Y027368D02*
X010066Y027368D01*
X010012Y027368D02*
X010012Y027208D01*
X010143Y027208D02*
X010143Y027315D01*
X010197Y027368D01*
X010250Y027315D01*
X010250Y027208D01*
X010250Y027288D02*
X010143Y027288D01*
X010143Y027508D02*
X010250Y027508D01*
X010250Y027668D01*
X010143Y027668D01*
X010197Y027588D02*
X010250Y027588D01*
X014080Y024739D02*
X014080Y024685D01*
X014107Y024659D01*
X014160Y024712D02*
X014160Y024739D01*
X014133Y024765D01*
X014107Y024765D01*
X014080Y024739D01*
X014160Y024739D02*
X014187Y024765D01*
X014213Y024765D01*
X014240Y024739D01*
X014240Y024685D01*
X014213Y024659D01*
X014380Y024616D02*
X014407Y024643D01*
X014433Y024643D01*
X014460Y024616D01*
X014460Y024536D01*
X014407Y024536D01*
X014380Y024563D01*
X014380Y024616D01*
X014407Y024720D02*
X014380Y024747D01*
X014380Y024800D01*
X014407Y024827D01*
X014433Y024827D01*
X014460Y024800D01*
X014460Y024773D01*
X014460Y024800D02*
X014487Y024827D01*
X014513Y024827D01*
X014540Y024800D01*
X014540Y024747D01*
X014513Y024720D01*
X014540Y024643D02*
X014513Y024589D01*
X014460Y024536D01*
X014407Y024458D02*
X014380Y024432D01*
X014380Y024378D01*
X014407Y024352D01*
X014513Y024458D01*
X014407Y024458D01*
X014407Y024352D02*
X014513Y024352D01*
X014540Y024378D01*
X014540Y024432D01*
X014513Y024458D01*
X014513Y024274D02*
X014487Y024274D01*
X014460Y024248D01*
X014433Y024274D01*
X014407Y024274D01*
X014380Y024248D01*
X014380Y024194D01*
X014407Y024168D01*
X014460Y024221D02*
X014460Y024248D01*
X014513Y024274D02*
X014540Y024248D01*
X014540Y024194D01*
X014513Y024168D01*
X014540Y024037D02*
X014380Y024037D01*
X014380Y024090D02*
X014380Y023983D01*
X014407Y023906D02*
X014380Y023879D01*
X014380Y023826D01*
X014407Y023799D01*
X014513Y023906D01*
X014407Y023906D01*
X014513Y023906D02*
X014540Y023879D01*
X014540Y023826D01*
X014513Y023799D01*
X014407Y023799D01*
X014380Y023722D02*
X014380Y023615D01*
X014487Y023722D01*
X014513Y023722D01*
X014540Y023695D01*
X014540Y023642D01*
X014513Y023615D01*
X014540Y023353D02*
X014380Y023353D01*
X014380Y023247D02*
X014540Y023247D01*
X014487Y023300D01*
X014540Y023353D01*
X014540Y023169D02*
X014380Y023169D01*
X014433Y023116D01*
X014380Y023063D01*
X014540Y023063D01*
X014540Y022985D02*
X014540Y022878D01*
X014380Y022878D01*
X014380Y022985D01*
X014460Y022932D02*
X014460Y022878D01*
X014240Y022932D02*
X014187Y022985D01*
X014080Y022985D01*
X014160Y022985D02*
X014160Y022878D01*
X014187Y022878D02*
X014080Y022878D01*
X014187Y022878D02*
X014240Y022932D01*
X014240Y023063D02*
X014240Y023169D01*
X014240Y023116D02*
X014080Y023116D01*
X014080Y023431D02*
X014080Y023511D01*
X014107Y023538D01*
X014213Y023538D01*
X014240Y023511D01*
X014240Y023431D01*
X014080Y023431D01*
X014080Y023615D02*
X014240Y023615D01*
X014240Y023695D01*
X014213Y023722D01*
X014160Y023722D01*
X014133Y023695D01*
X014133Y023615D01*
X014133Y023668D02*
X014080Y023722D01*
X014080Y023799D02*
X014080Y023853D01*
X014080Y023826D02*
X014240Y023826D01*
X014240Y023799D02*
X014240Y023853D01*
X014240Y023922D02*
X014133Y023922D01*
X014080Y023975D01*
X014133Y024029D01*
X014240Y024029D01*
X014240Y024106D02*
X014080Y024106D01*
X014080Y024213D01*
X014080Y024290D02*
X014240Y024290D01*
X014240Y024370D01*
X014213Y024397D01*
X014160Y024397D01*
X014133Y024370D01*
X014133Y024290D01*
X014133Y024344D02*
X014080Y024397D01*
X014240Y024213D02*
X014240Y024106D01*
X014160Y024106D02*
X014160Y024159D01*
X014487Y023983D02*
X014540Y024037D01*
X014513Y024904D02*
X014540Y024931D01*
X014540Y024984D01*
X014513Y025011D01*
X014407Y024904D01*
X014380Y024931D01*
X014380Y024984D01*
X014407Y025011D01*
X014513Y025011D01*
X014513Y024904D02*
X014407Y024904D01*
D11*
X015950Y026464D02*
X015950Y027173D01*
X016950Y027173D02*
X016950Y026464D01*
X012374Y025798D02*
X011666Y025798D01*
X011666Y024798D02*
X012374Y024798D01*
X012434Y019358D02*
X011726Y019358D01*
X011726Y018358D02*
X012434Y018358D01*
X015700Y017303D02*
X015700Y016594D01*
X016700Y016594D02*
X016700Y017303D01*
X017700Y017303D02*
X017700Y016594D01*
X012374Y013048D02*
X011666Y013048D01*
X011666Y012048D02*
X012374Y012048D01*
X002504Y012298D02*
X001796Y012298D01*
X001796Y011298D02*
X002504Y011298D01*
X002504Y013298D02*
X001796Y013298D01*
X001856Y017608D02*
X002564Y017608D01*
X002564Y018608D02*
X001856Y018608D01*
X001856Y019608D02*
X002564Y019608D01*
X002504Y024048D02*
X001796Y024048D01*
X001796Y025048D02*
X002504Y025048D01*
X002504Y026048D02*
X001796Y026048D01*
D12*
X001405Y011032D02*
X001405Y009553D01*
X011722Y009553D01*
X011621Y009655D01*
X011515Y009910D01*
X011515Y010187D01*
X011621Y010442D01*
X011816Y010637D01*
X012072Y010743D01*
X012348Y010743D01*
X012604Y010637D01*
X012706Y010535D01*
X012706Y011723D01*
X012637Y011655D01*
X012467Y011584D01*
X011573Y011584D01*
X011403Y011655D01*
X011272Y011785D01*
X011201Y011956D01*
X011201Y012141D01*
X011272Y012311D01*
X011403Y012442D01*
X011573Y012513D01*
X012467Y012513D01*
X012637Y012442D01*
X012706Y012373D01*
X012706Y012723D01*
X012637Y012655D01*
X012467Y012584D01*
X011573Y012584D01*
X011403Y012655D01*
X011272Y012785D01*
X011201Y012956D01*
X011201Y013141D01*
X011272Y013311D01*
X011403Y013442D01*
X011573Y013513D01*
X012467Y013513D01*
X012637Y013442D01*
X012706Y013373D01*
X012706Y014949D01*
X010380Y014949D01*
X010380Y014704D01*
X010337Y014662D01*
X010380Y014619D01*
X010380Y014567D01*
X010380Y014404D01*
X010304Y014328D01*
X010089Y014328D01*
X010078Y014340D01*
X010066Y014328D01*
X009959Y014328D01*
X009882Y014404D01*
X009882Y014511D01*
X009829Y014565D01*
X009829Y014628D01*
X009828Y014628D01*
X009828Y014404D01*
X009751Y014328D01*
X009222Y014328D01*
X009214Y014336D01*
X009207Y014328D01*
X009099Y014328D01*
X009088Y014340D01*
X009076Y014328D01*
X008678Y014328D01*
X008601Y014404D01*
X008601Y014628D01*
X008600Y014628D01*
X008600Y014431D01*
X008497Y014328D01*
X008336Y014328D01*
X008260Y014404D01*
X008233Y014431D01*
X008233Y014628D01*
X008090Y014628D01*
X008014Y014704D01*
X007988Y014731D01*
X007988Y014946D01*
X007991Y014949D01*
X002382Y014949D01*
X002489Y014842D01*
X002595Y014587D01*
X002595Y014310D01*
X002489Y014055D01*
X002294Y013859D01*
X002061Y013763D01*
X002597Y013763D01*
X002767Y013692D01*
X002898Y013561D01*
X002969Y013391D01*
X002969Y013206D01*
X002898Y013035D01*
X002767Y012905D01*
X002597Y012834D01*
X001703Y012834D01*
X001533Y012905D01*
X001405Y013032D01*
X001405Y012619D01*
X001411Y012627D01*
X001467Y012683D01*
X001531Y012730D01*
X001602Y012766D01*
X001678Y012790D01*
X001756Y012803D01*
X002100Y012803D01*
X002100Y012348D01*
X002200Y012348D01*
X003007Y012348D01*
X002996Y012416D01*
X002972Y012492D01*
X002936Y012563D01*
X002889Y012627D01*
X002833Y012683D01*
X002769Y012730D01*
X002698Y012766D01*
X002622Y012790D01*
X002544Y012803D01*
X002200Y012803D01*
X002200Y012348D01*
X002200Y012248D01*
X002200Y011794D01*
X002544Y011794D01*
X002622Y011806D01*
X002698Y011831D01*
X002769Y011867D01*
X002833Y011914D01*
X002889Y011970D01*
X002936Y012034D01*
X002972Y012105D01*
X002996Y012180D01*
X003007Y012248D01*
X002200Y012248D01*
X002100Y012248D01*
X002100Y011794D01*
X001756Y011794D01*
X001678Y011806D01*
X001602Y011831D01*
X001531Y011867D01*
X001467Y011914D01*
X001411Y011970D01*
X001405Y011978D01*
X001405Y011564D01*
X001533Y011692D01*
X001703Y011763D01*
X002597Y011763D01*
X002767Y011692D01*
X002898Y011561D01*
X002969Y011391D01*
X002969Y011206D01*
X002898Y011035D01*
X002767Y010905D01*
X002597Y010834D01*
X001703Y010834D01*
X001533Y010905D01*
X001405Y011032D01*
X001405Y010973D02*
X001465Y010973D01*
X001405Y010874D02*
X001606Y010874D01*
X001405Y010776D02*
X006758Y010776D01*
X006759Y010774D02*
X006845Y010687D01*
X006959Y010640D01*
X007081Y010640D01*
X007195Y010687D01*
X007281Y010774D01*
X007328Y010887D01*
X007328Y011010D01*
X007281Y011123D01*
X007210Y011194D01*
X007210Y012787D01*
X006688Y013309D01*
X006688Y013410D01*
X006641Y013523D01*
X006555Y013609D01*
X006441Y013656D01*
X006319Y013656D01*
X006205Y013609D01*
X006119Y013523D01*
X006072Y013410D01*
X006072Y013287D01*
X006119Y013174D01*
X006205Y013087D01*
X006319Y013040D01*
X006419Y013040D01*
X006830Y012630D01*
X006830Y011194D01*
X006759Y011123D01*
X006712Y011010D01*
X006712Y010887D01*
X006759Y010774D01*
X006717Y010874D02*
X002694Y010874D01*
X002835Y010973D02*
X006712Y010973D01*
X006737Y011071D02*
X002913Y011071D01*
X002954Y011170D02*
X006806Y011170D01*
X006830Y011268D02*
X002969Y011268D01*
X002969Y011367D02*
X006830Y011367D01*
X006830Y011465D02*
X002938Y011465D01*
X002895Y011564D02*
X006830Y011564D01*
X006830Y011662D02*
X002797Y011662D01*
X002754Y011859D02*
X006830Y011859D01*
X006830Y011761D02*
X002601Y011761D01*
X002877Y011958D02*
X006830Y011958D01*
X006830Y012056D02*
X002947Y012056D01*
X002988Y012155D02*
X006830Y012155D01*
X006830Y012253D02*
X002200Y012253D01*
X002200Y012155D02*
X002100Y012155D01*
X002100Y012056D02*
X002200Y012056D01*
X002200Y011958D02*
X002100Y011958D01*
X002100Y011859D02*
X002200Y011859D01*
X002200Y012352D02*
X002100Y012352D01*
X002100Y012450D02*
X002200Y012450D01*
X002200Y012549D02*
X002100Y012549D01*
X002100Y012647D02*
X002200Y012647D01*
X002200Y012746D02*
X002100Y012746D01*
X001678Y012844D02*
X001405Y012844D01*
X001405Y012746D02*
X001563Y012746D01*
X001431Y012647D02*
X001405Y012647D01*
X001405Y012943D02*
X001494Y012943D01*
X001423Y011958D02*
X001405Y011958D01*
X001405Y011859D02*
X001546Y011859D01*
X001405Y011761D02*
X001699Y011761D01*
X001503Y011662D02*
X001405Y011662D01*
X001405Y010677D02*
X006869Y010677D01*
X007171Y010677D02*
X011912Y010677D01*
X011758Y010579D02*
X001405Y010579D01*
X001405Y010480D02*
X011659Y010480D01*
X011596Y010382D02*
X001405Y010382D01*
X001405Y010283D02*
X011555Y010283D01*
X011515Y010185D02*
X001405Y010185D01*
X001405Y010086D02*
X011515Y010086D01*
X011515Y009988D02*
X001405Y009988D01*
X001405Y009889D02*
X011524Y009889D01*
X011564Y009791D02*
X001405Y009791D01*
X001405Y009692D02*
X011605Y009692D01*
X011682Y009594D02*
X001405Y009594D01*
X003006Y012352D02*
X006830Y012352D01*
X006830Y012450D02*
X002985Y012450D01*
X002943Y012549D02*
X006830Y012549D01*
X006812Y012647D02*
X002869Y012647D01*
X002737Y012746D02*
X006714Y012746D01*
X006615Y012844D02*
X002622Y012844D01*
X002806Y012943D02*
X006517Y012943D01*
X006316Y013041D02*
X002900Y013041D01*
X002941Y013140D02*
X006153Y013140D01*
X006092Y013238D02*
X002969Y013238D01*
X002969Y013337D02*
X006072Y013337D01*
X006083Y013435D02*
X002950Y013435D01*
X002909Y013534D02*
X006130Y013534D01*
X006261Y013632D02*
X002827Y013632D01*
X002674Y013731D02*
X012706Y013731D01*
X012706Y013829D02*
X002222Y013829D01*
X002362Y013928D02*
X012706Y013928D01*
X012706Y014026D02*
X002461Y014026D01*
X002518Y014125D02*
X012706Y014125D01*
X012706Y014223D02*
X002559Y014223D01*
X002595Y014322D02*
X012706Y014322D01*
X012706Y014420D02*
X010380Y014420D01*
X010380Y014519D02*
X012706Y014519D01*
X012706Y014617D02*
X010380Y014617D01*
X010380Y014716D02*
X012706Y014716D01*
X012706Y014814D02*
X010380Y014814D01*
X010380Y014913D02*
X012706Y014913D01*
X011782Y015863D02*
X001465Y015863D01*
X001465Y017342D01*
X001593Y017215D01*
X001763Y017144D01*
X002657Y017144D01*
X002827Y017215D01*
X002958Y017345D01*
X003029Y017516D01*
X003029Y017701D01*
X002958Y017871D01*
X002827Y018002D01*
X002657Y018073D01*
X001763Y018073D01*
X001593Y018002D01*
X001465Y017874D01*
X001465Y018288D01*
X001471Y018280D01*
X001527Y018224D01*
X001591Y018177D01*
X001662Y018141D01*
X001738Y018116D01*
X001816Y018104D01*
X002160Y018104D01*
X002160Y018558D01*
X002260Y018558D01*
X002260Y018104D01*
X002604Y018104D01*
X002682Y018116D01*
X002758Y018141D01*
X002829Y018177D01*
X002893Y018224D01*
X002949Y018280D01*
X002996Y018344D01*
X003032Y018415D01*
X003056Y018490D01*
X003067Y018558D01*
X002260Y018558D01*
X002260Y018658D01*
X003067Y018658D01*
X003056Y018726D01*
X003032Y018802D01*
X002996Y018873D01*
X002949Y018937D01*
X002893Y018993D01*
X002829Y019040D01*
X002758Y019076D01*
X002682Y019100D01*
X002604Y019113D01*
X002260Y019113D01*
X002260Y018658D01*
X002160Y018658D01*
X002160Y019113D01*
X001816Y019113D01*
X001738Y019100D01*
X001662Y019076D01*
X001591Y019040D01*
X001527Y018993D01*
X001471Y018937D01*
X001465Y018929D01*
X001465Y019342D01*
X001593Y019215D01*
X001763Y019144D01*
X002657Y019144D01*
X002827Y019215D01*
X002958Y019345D01*
X003029Y019516D01*
X003029Y019701D01*
X002958Y019871D01*
X002827Y020002D01*
X002657Y020073D01*
X002121Y020073D01*
X002354Y020169D01*
X002549Y020365D01*
X002655Y020620D01*
X002655Y020897D01*
X002549Y021152D01*
X002442Y021259D01*
X008051Y021259D01*
X008048Y021256D01*
X008048Y021041D01*
X008074Y021014D01*
X008150Y020938D01*
X008293Y020938D01*
X008293Y020741D01*
X008320Y020714D01*
X008396Y020638D01*
X008557Y020638D01*
X008660Y020741D01*
X008660Y020938D01*
X008661Y020938D01*
X008661Y020714D01*
X008738Y020638D01*
X009136Y020638D01*
X009148Y020650D01*
X009159Y020638D01*
X009267Y020638D01*
X009274Y020646D01*
X009282Y020638D01*
X009811Y020638D01*
X009888Y020714D01*
X009888Y020938D01*
X009889Y020938D01*
X009889Y020875D01*
X009942Y020821D01*
X009942Y020714D01*
X010019Y020638D01*
X010126Y020638D01*
X010138Y020650D01*
X010149Y020638D01*
X010364Y020638D01*
X010440Y020714D01*
X010440Y020877D01*
X010440Y020929D01*
X010397Y020972D01*
X010440Y021014D01*
X010440Y021259D01*
X012766Y021259D01*
X012766Y019683D01*
X012697Y019752D01*
X012527Y019823D01*
X011633Y019823D01*
X011463Y019752D01*
X011332Y019621D01*
X011261Y019451D01*
X011261Y019266D01*
X011332Y019095D01*
X011463Y018965D01*
X011633Y018894D01*
X012527Y018894D01*
X012697Y018965D01*
X012766Y019033D01*
X012766Y018683D01*
X012697Y018752D01*
X012527Y018823D01*
X011633Y018823D01*
X011463Y018752D01*
X011332Y018621D01*
X011261Y018451D01*
X011261Y018266D01*
X011332Y018095D01*
X011463Y017965D01*
X011633Y017894D01*
X012527Y017894D01*
X012697Y017965D01*
X012766Y018033D01*
X012766Y016845D01*
X012664Y016947D01*
X012408Y017053D01*
X012132Y017053D01*
X011876Y016947D01*
X011681Y016752D01*
X011575Y016497D01*
X011575Y016220D01*
X011681Y015965D01*
X011782Y015863D01*
X011748Y015898D02*
X001465Y015898D01*
X001465Y015996D02*
X011668Y015996D01*
X011627Y016095D02*
X001465Y016095D01*
X001465Y016193D02*
X011586Y016193D01*
X011575Y016292D02*
X001465Y016292D01*
X001465Y016390D02*
X011575Y016390D01*
X011575Y016489D02*
X001465Y016489D01*
X001465Y016587D02*
X011613Y016587D01*
X011653Y016686D02*
X001465Y016686D01*
X001465Y016784D02*
X011713Y016784D01*
X011812Y016883D02*
X001465Y016883D01*
X001465Y016981D02*
X006944Y016981D01*
X006905Y016997D02*
X007019Y016950D01*
X007141Y016950D01*
X007255Y016997D01*
X007341Y017084D01*
X007388Y017197D01*
X007388Y017320D01*
X007341Y017433D01*
X007270Y017504D01*
X007270Y019097D01*
X006748Y019619D01*
X006748Y019720D01*
X006701Y019833D01*
X006615Y019919D01*
X006501Y019966D01*
X006379Y019966D01*
X006265Y019919D01*
X006179Y019833D01*
X006132Y019720D01*
X006132Y019597D01*
X006179Y019484D01*
X006265Y019397D01*
X006379Y019350D01*
X006479Y019350D01*
X006890Y018940D01*
X006890Y017504D01*
X006819Y017433D01*
X006772Y017320D01*
X006772Y017197D01*
X006819Y017084D01*
X006905Y016997D01*
X006823Y017080D02*
X001465Y017080D01*
X001465Y017178D02*
X001680Y017178D01*
X001530Y017277D02*
X001465Y017277D01*
X001465Y017966D02*
X001557Y017966D01*
X001465Y018065D02*
X001744Y018065D01*
X001618Y018163D02*
X001465Y018163D01*
X001465Y018262D02*
X001489Y018262D01*
X002160Y018262D02*
X002260Y018262D01*
X002260Y018360D02*
X002160Y018360D01*
X002160Y018459D02*
X002260Y018459D01*
X002260Y018557D02*
X002160Y018557D01*
X002260Y018656D02*
X006890Y018656D01*
X006890Y018754D02*
X003047Y018754D01*
X003006Y018853D02*
X006890Y018853D01*
X006878Y018951D02*
X002935Y018951D01*
X002809Y019050D02*
X006780Y019050D01*
X006681Y019148D02*
X002667Y019148D01*
X002860Y019247D02*
X006583Y019247D01*
X006484Y019345D02*
X002958Y019345D01*
X002999Y019444D02*
X006219Y019444D01*
X006155Y019542D02*
X003029Y019542D01*
X003029Y019641D02*
X006132Y019641D01*
X006140Y019739D02*
X003013Y019739D01*
X002972Y019838D02*
X006184Y019838D01*
X006306Y019936D02*
X002893Y019936D01*
X002748Y020035D02*
X012766Y020035D01*
X012766Y020133D02*
X002267Y020133D01*
X002416Y020232D02*
X012766Y020232D01*
X012766Y020330D02*
X002515Y020330D01*
X002576Y020429D02*
X012766Y020429D01*
X012766Y020527D02*
X002617Y020527D01*
X002655Y020626D02*
X012766Y020626D01*
X012766Y020724D02*
X010440Y020724D01*
X010440Y020823D02*
X012766Y020823D01*
X012766Y020921D02*
X010440Y020921D01*
X010440Y021020D02*
X012766Y021020D01*
X012766Y021118D02*
X010440Y021118D01*
X010440Y021217D02*
X012766Y021217D01*
X012766Y019936D02*
X006574Y019936D01*
X006696Y019838D02*
X012766Y019838D01*
X012766Y019739D02*
X012710Y019739D01*
X012665Y018951D02*
X012766Y018951D01*
X012766Y018853D02*
X007270Y018853D01*
X007270Y018951D02*
X011495Y018951D01*
X011377Y019050D02*
X007270Y019050D01*
X007219Y019148D02*
X011310Y019148D01*
X011269Y019247D02*
X007120Y019247D01*
X007022Y019345D02*
X011261Y019345D01*
X011261Y019444D02*
X006923Y019444D01*
X006825Y019542D02*
X011299Y019542D01*
X011352Y019641D02*
X006748Y019641D01*
X006740Y019739D02*
X011450Y019739D01*
X011468Y018754D02*
X007270Y018754D01*
X007270Y018656D02*
X011367Y018656D01*
X011306Y018557D02*
X007270Y018557D01*
X007270Y018459D02*
X011265Y018459D01*
X011261Y018360D02*
X007270Y018360D01*
X007270Y018262D02*
X011263Y018262D01*
X011304Y018163D02*
X007270Y018163D01*
X007270Y018065D02*
X011362Y018065D01*
X011461Y017966D02*
X007270Y017966D01*
X007270Y017868D02*
X012766Y017868D01*
X012766Y017966D02*
X012699Y017966D01*
X012766Y017769D02*
X007270Y017769D01*
X007270Y017671D02*
X012766Y017671D01*
X012766Y017572D02*
X007270Y017572D01*
X007300Y017474D02*
X012766Y017474D01*
X012766Y017375D02*
X007365Y017375D01*
X007388Y017277D02*
X012766Y017277D01*
X012766Y017178D02*
X007380Y017178D01*
X007337Y017080D02*
X012766Y017080D01*
X012766Y016981D02*
X012582Y016981D01*
X012728Y016883D02*
X012766Y016883D01*
X011958Y016981D02*
X007216Y016981D01*
X006780Y017178D02*
X002740Y017178D01*
X002890Y017277D02*
X006772Y017277D01*
X006795Y017375D02*
X002970Y017375D01*
X003011Y017474D02*
X006860Y017474D01*
X006890Y017572D02*
X003029Y017572D01*
X003029Y017671D02*
X006890Y017671D01*
X006890Y017769D02*
X003000Y017769D01*
X002959Y017868D02*
X006890Y017868D01*
X006890Y017966D02*
X002863Y017966D01*
X002802Y018163D02*
X006890Y018163D01*
X006890Y018065D02*
X002676Y018065D01*
X002931Y018262D02*
X006890Y018262D01*
X006890Y018360D02*
X003004Y018360D01*
X003046Y018459D02*
X006890Y018459D01*
X006890Y018557D02*
X003067Y018557D01*
X002260Y018754D02*
X002160Y018754D01*
X002160Y018853D02*
X002260Y018853D01*
X002260Y018951D02*
X002160Y018951D01*
X002160Y019050D02*
X002260Y019050D01*
X001753Y019148D02*
X001465Y019148D01*
X001465Y019050D02*
X001611Y019050D01*
X001485Y018951D02*
X001465Y018951D01*
X001465Y019247D02*
X001560Y019247D01*
X002160Y018163D02*
X002260Y018163D01*
X002655Y020724D02*
X008310Y020724D01*
X008293Y020823D02*
X002655Y020823D01*
X002645Y020921D02*
X008293Y020921D01*
X008069Y021020D02*
X002604Y021020D01*
X002563Y021118D02*
X008048Y021118D01*
X008048Y021217D02*
X002484Y021217D01*
X001405Y022303D02*
X001405Y023782D01*
X001533Y023655D01*
X001703Y023584D01*
X002597Y023584D01*
X002767Y023655D01*
X002898Y023785D01*
X002969Y023956D01*
X002969Y024141D01*
X002898Y024311D01*
X002767Y024442D01*
X002597Y024513D01*
X001703Y024513D01*
X001533Y024442D01*
X001405Y024314D01*
X001405Y024728D01*
X001411Y024720D01*
X001467Y024664D01*
X001531Y024617D01*
X001602Y024581D01*
X001678Y024556D01*
X001756Y024544D01*
X002100Y024544D01*
X002100Y024998D01*
X002200Y024998D01*
X002200Y024544D01*
X002544Y024544D01*
X002622Y024556D01*
X002698Y024581D01*
X002769Y024617D01*
X002833Y024664D01*
X002889Y024720D01*
X002936Y024784D01*
X002972Y024855D01*
X002996Y024930D01*
X003007Y024998D01*
X002200Y024998D01*
X002200Y025098D01*
X003007Y025098D01*
X002996Y025166D01*
X002972Y025242D01*
X002936Y025313D01*
X002889Y025377D01*
X002833Y025433D01*
X002769Y025480D01*
X002698Y025516D01*
X002622Y025540D01*
X002544Y025553D01*
X002200Y025553D01*
X002200Y025098D01*
X002100Y025098D01*
X002100Y025553D01*
X001756Y025553D01*
X001678Y025540D01*
X001602Y025516D01*
X001531Y025480D01*
X001467Y025433D01*
X001411Y025377D01*
X001405Y025369D01*
X001405Y025782D01*
X001533Y025655D01*
X001703Y025584D01*
X002597Y025584D01*
X002767Y025655D01*
X002898Y025785D01*
X002969Y025956D01*
X002969Y026141D01*
X002898Y026311D01*
X002767Y026442D01*
X002597Y026513D01*
X002061Y026513D01*
X002294Y026609D01*
X002489Y026805D01*
X002595Y027060D01*
X002595Y027337D01*
X002489Y027592D01*
X002382Y027699D01*
X007991Y027699D01*
X007988Y027696D01*
X007988Y027481D01*
X008014Y027454D01*
X008090Y027378D01*
X008233Y027378D01*
X008233Y027181D01*
X008260Y027154D01*
X008336Y027078D01*
X008497Y027078D01*
X008600Y027181D01*
X008600Y027378D01*
X008601Y027378D01*
X008601Y027154D01*
X008678Y027078D01*
X009076Y027078D01*
X009088Y027090D01*
X009099Y027078D01*
X009207Y027078D01*
X009214Y027086D01*
X009222Y027078D01*
X009751Y027078D01*
X009828Y027154D01*
X009828Y027378D01*
X009829Y027378D01*
X009829Y027315D01*
X009882Y027261D01*
X009882Y027154D01*
X009959Y027078D01*
X010066Y027078D01*
X010078Y027090D01*
X010089Y027078D01*
X010304Y027078D01*
X010380Y027154D01*
X010380Y027317D01*
X010380Y027369D01*
X010337Y027412D01*
X010380Y027454D01*
X010380Y027699D01*
X012706Y027699D01*
X012706Y026123D01*
X012637Y026192D01*
X012467Y026263D01*
X011573Y026263D01*
X011403Y026192D01*
X011272Y026061D01*
X011201Y025891D01*
X011201Y025706D01*
X011272Y025535D01*
X011403Y025405D01*
X011573Y025334D01*
X012467Y025334D01*
X012637Y025405D01*
X012706Y025473D01*
X012706Y025123D01*
X012637Y025192D01*
X012467Y025263D01*
X011573Y025263D01*
X011403Y025192D01*
X011272Y025061D01*
X011201Y024891D01*
X011201Y024706D01*
X011272Y024535D01*
X011403Y024405D01*
X011573Y024334D01*
X012467Y024334D01*
X012637Y024405D01*
X012706Y024473D01*
X012706Y023285D01*
X012604Y023387D01*
X012348Y023493D01*
X012072Y023493D01*
X011816Y023387D01*
X011621Y023192D01*
X011515Y022937D01*
X011515Y022660D01*
X011621Y022405D01*
X011722Y022303D01*
X001405Y022303D01*
X001405Y022399D02*
X011627Y022399D01*
X011582Y022497D02*
X001405Y022497D01*
X001405Y022596D02*
X011542Y022596D01*
X011515Y022694D02*
X001405Y022694D01*
X001405Y022793D02*
X011515Y022793D01*
X011515Y022891D02*
X001405Y022891D01*
X001405Y022990D02*
X011537Y022990D01*
X011578Y023088D02*
X001405Y023088D01*
X001405Y023187D02*
X011619Y023187D01*
X011714Y023285D02*
X001405Y023285D01*
X001405Y023384D02*
X011813Y023384D01*
X012045Y023482D02*
X007240Y023482D01*
X007281Y023524D02*
X007328Y023637D01*
X007328Y023760D01*
X007281Y023873D01*
X007210Y023944D01*
X007210Y025537D01*
X006688Y026059D01*
X006688Y026160D01*
X006641Y026273D01*
X006555Y026359D01*
X006441Y026406D01*
X006319Y026406D01*
X006205Y026359D01*
X006119Y026273D01*
X006072Y026160D01*
X006072Y026037D01*
X006119Y025924D01*
X006205Y025837D01*
X006319Y025790D01*
X006419Y025790D01*
X006830Y025380D01*
X006830Y023944D01*
X006759Y023873D01*
X006712Y023760D01*
X006712Y023637D01*
X006759Y023524D01*
X006845Y023437D01*
X006959Y023390D01*
X007081Y023390D01*
X007195Y023437D01*
X007281Y023524D01*
X007305Y023581D02*
X012706Y023581D01*
X012706Y023679D02*
X007328Y023679D01*
X007321Y023778D02*
X012706Y023778D01*
X012706Y023876D02*
X007278Y023876D01*
X007210Y023975D02*
X012706Y023975D01*
X012706Y024073D02*
X007210Y024073D01*
X007210Y024172D02*
X012706Y024172D01*
X012706Y024270D02*
X007210Y024270D01*
X007210Y024369D02*
X011489Y024369D01*
X011340Y024467D02*
X007210Y024467D01*
X007210Y024566D02*
X011259Y024566D01*
X011219Y024664D02*
X007210Y024664D01*
X007210Y024763D02*
X011201Y024763D01*
X011201Y024861D02*
X007210Y024861D01*
X007210Y024960D02*
X011230Y024960D01*
X011271Y025058D02*
X007210Y025058D01*
X007210Y025157D02*
X011368Y025157D01*
X011556Y025255D02*
X007210Y025255D01*
X007210Y025354D02*
X011525Y025354D01*
X011355Y025452D02*
X007210Y025452D01*
X007196Y025551D02*
X011266Y025551D01*
X011225Y025649D02*
X007098Y025649D01*
X006999Y025748D02*
X011201Y025748D01*
X011201Y025846D02*
X006901Y025846D01*
X006802Y025945D02*
X011224Y025945D01*
X011265Y026043D02*
X006704Y026043D01*
X006688Y026142D02*
X011353Y026142D01*
X011520Y026240D02*
X006655Y026240D01*
X006575Y026339D02*
X012706Y026339D01*
X012706Y026437D02*
X002772Y026437D01*
X002870Y026339D02*
X006185Y026339D01*
X006105Y026240D02*
X002927Y026240D01*
X002968Y026142D02*
X006072Y026142D01*
X006072Y026043D02*
X002969Y026043D01*
X002964Y025945D02*
X006110Y025945D01*
X006196Y025846D02*
X002923Y025846D01*
X002861Y025748D02*
X006462Y025748D01*
X006560Y025649D02*
X002755Y025649D01*
X002806Y025452D02*
X006757Y025452D01*
X006830Y025354D02*
X002906Y025354D01*
X002965Y025255D02*
X006830Y025255D01*
X006830Y025157D02*
X002998Y025157D01*
X003001Y024960D02*
X006830Y024960D01*
X006830Y025058D02*
X002200Y025058D01*
X002200Y024960D02*
X002100Y024960D01*
X002100Y024861D02*
X002200Y024861D01*
X002200Y024763D02*
X002100Y024763D01*
X002100Y024664D02*
X002200Y024664D01*
X002200Y024566D02*
X002100Y024566D01*
X001648Y024566D02*
X001405Y024566D01*
X001405Y024664D02*
X001466Y024664D01*
X001405Y024467D02*
X001594Y024467D01*
X001460Y024369D02*
X001405Y024369D01*
X001405Y023778D02*
X001409Y023778D01*
X001405Y023679D02*
X001508Y023679D01*
X001405Y023581D02*
X006735Y023581D01*
X006712Y023679D02*
X002792Y023679D01*
X002891Y023778D02*
X006719Y023778D01*
X006762Y023876D02*
X002936Y023876D01*
X002969Y023975D02*
X006830Y023975D01*
X006830Y024073D02*
X002969Y024073D01*
X002956Y024172D02*
X006830Y024172D01*
X006830Y024270D02*
X002915Y024270D01*
X002840Y024369D02*
X006830Y024369D01*
X006830Y024467D02*
X002706Y024467D01*
X002652Y024566D02*
X006830Y024566D01*
X006830Y024664D02*
X002834Y024664D01*
X002920Y024763D02*
X006830Y024763D01*
X006830Y024861D02*
X002974Y024861D01*
X002555Y025551D02*
X006659Y025551D01*
X008046Y027422D02*
X002559Y027422D01*
X002595Y027324D02*
X008233Y027324D01*
X008233Y027225D02*
X002595Y027225D01*
X002595Y027127D02*
X008287Y027127D01*
X008546Y027127D02*
X008629Y027127D01*
X008601Y027225D02*
X008600Y027225D01*
X008600Y027324D02*
X008601Y027324D01*
X007988Y027521D02*
X002519Y027521D01*
X002462Y027619D02*
X007988Y027619D01*
X009828Y027324D02*
X009829Y027324D01*
X009828Y027225D02*
X009882Y027225D01*
X009910Y027127D02*
X009800Y027127D01*
X010352Y027127D02*
X012706Y027127D01*
X012706Y027225D02*
X010380Y027225D01*
X010380Y027324D02*
X012706Y027324D01*
X012706Y027422D02*
X010348Y027422D01*
X010380Y027521D02*
X012706Y027521D01*
X012706Y027619D02*
X010380Y027619D01*
X012706Y027028D02*
X002582Y027028D01*
X002541Y026930D02*
X012706Y026930D01*
X012706Y026831D02*
X002500Y026831D01*
X002417Y026733D02*
X012706Y026733D01*
X012706Y026634D02*
X002319Y026634D01*
X002117Y026536D02*
X012706Y026536D01*
X012706Y026240D02*
X012520Y026240D01*
X012687Y026142D02*
X012706Y026142D01*
X012685Y025452D02*
X012706Y025452D01*
X012706Y025354D02*
X012515Y025354D01*
X012484Y025255D02*
X012706Y025255D01*
X012706Y025157D02*
X012672Y025157D01*
X012700Y024467D02*
X012706Y024467D01*
X012706Y024369D02*
X012551Y024369D01*
X012706Y023482D02*
X012375Y023482D01*
X012607Y023384D02*
X012706Y023384D01*
X012706Y023285D02*
X012706Y023285D01*
X014049Y022748D02*
X014188Y022748D01*
X014241Y022748D01*
X014283Y022791D01*
X014326Y022748D01*
X014594Y022748D01*
X014670Y022825D01*
X014670Y023193D01*
X014670Y023247D01*
X014670Y023354D01*
X014670Y023407D01*
X014670Y023407D01*
X014594Y023483D01*
X014540Y023483D01*
X014486Y023483D01*
X014370Y023483D01*
X014370Y023485D01*
X014434Y023485D01*
X014447Y023498D01*
X014460Y023485D01*
X014567Y023485D01*
X014670Y023588D01*
X014670Y023749D01*
X014659Y023760D01*
X014670Y023772D01*
X014670Y023933D01*
X014645Y023958D01*
X014670Y023983D01*
X014670Y024037D01*
X014670Y024091D01*
X014645Y024115D01*
X014670Y024140D01*
X014670Y024301D01*
X014659Y024313D01*
X014670Y024325D01*
X014670Y024486D01*
X014643Y024512D01*
X014632Y024524D01*
X014643Y024535D01*
X014643Y024559D01*
X014680Y024633D01*
X014663Y024686D01*
X014670Y024693D01*
X014670Y024854D01*
X014659Y024865D01*
X014670Y024877D01*
X014670Y025038D01*
X014643Y025065D01*
X014608Y025101D01*
X014567Y025141D01*
X014353Y025141D01*
X014326Y025114D01*
X014250Y025038D01*
X014250Y024895D01*
X014053Y024895D01*
X014049Y024892D01*
X014049Y027504D01*
X015625Y027504D01*
X015556Y027436D01*
X015486Y027265D01*
X015486Y026372D01*
X015556Y026201D01*
X015687Y026070D01*
X015858Y026000D01*
X016042Y026000D01*
X016213Y026070D01*
X016344Y026201D01*
X016414Y026372D01*
X016414Y027265D01*
X016344Y027436D01*
X016275Y027504D01*
X016625Y027504D01*
X016556Y027436D01*
X016486Y027265D01*
X016486Y026372D01*
X016556Y026201D01*
X016687Y026070D01*
X016858Y026000D01*
X017042Y026000D01*
X017213Y026070D01*
X017344Y026201D01*
X017414Y026372D01*
X017414Y027265D01*
X017344Y027436D01*
X017275Y027504D01*
X018463Y027504D01*
X018361Y027402D01*
X018255Y027147D01*
X018255Y026870D01*
X018361Y026615D01*
X018556Y026419D01*
X018812Y026313D01*
X019088Y026313D01*
X019344Y026419D01*
X019445Y026520D01*
X019445Y016203D01*
X017966Y016203D01*
X018094Y016331D01*
X018164Y016502D01*
X018164Y017395D01*
X018094Y017566D01*
X017963Y017696D01*
X017792Y017767D01*
X017608Y017767D01*
X017437Y017696D01*
X017306Y017566D01*
X017236Y017395D01*
X017236Y016502D01*
X017306Y016331D01*
X017434Y016203D01*
X017020Y016203D01*
X017029Y016209D01*
X017085Y016265D01*
X017131Y016330D01*
X017167Y016400D01*
X017192Y016476D01*
X017204Y016554D01*
X017204Y016898D01*
X016750Y016898D01*
X016750Y016998D01*
X017204Y016998D01*
X017204Y017342D01*
X017192Y017421D01*
X017167Y017496D01*
X017131Y017567D01*
X017085Y017631D01*
X017029Y017687D01*
X016964Y017734D01*
X016894Y017770D01*
X016818Y017795D01*
X016750Y017805D01*
X016750Y016998D01*
X016650Y016998D01*
X016650Y016898D01*
X016196Y016898D01*
X016196Y016554D01*
X016208Y016476D01*
X016233Y016400D01*
X016269Y016330D01*
X016315Y016265D01*
X016371Y016209D01*
X016380Y016203D01*
X015966Y016203D01*
X016094Y016331D01*
X016164Y016502D01*
X016164Y017395D01*
X016094Y017566D01*
X015963Y017696D01*
X015792Y017767D01*
X015608Y017767D01*
X015437Y017696D01*
X015306Y017566D01*
X015236Y017395D01*
X015236Y016859D01*
X015139Y017092D01*
X014944Y017287D01*
X014688Y017393D01*
X014412Y017393D01*
X014156Y017287D01*
X014049Y017181D01*
X014049Y022748D01*
X014049Y022694D02*
X019445Y022694D01*
X019445Y022596D02*
X014049Y022596D01*
X014049Y022497D02*
X019445Y022497D01*
X019445Y022399D02*
X014049Y022399D01*
X014049Y022300D02*
X019445Y022300D01*
X019445Y022202D02*
X014049Y022202D01*
X014049Y022103D02*
X017933Y022103D01*
X017989Y022126D02*
X017875Y022079D01*
X017804Y022008D01*
X016211Y022008D01*
X015689Y021486D01*
X015589Y021486D01*
X015475Y021439D01*
X015389Y021353D01*
X015342Y021240D01*
X015342Y021117D01*
X015389Y021004D01*
X015475Y020917D01*
X015589Y020870D01*
X015711Y020870D01*
X015825Y020917D01*
X015911Y021004D01*
X015958Y021117D01*
X015958Y021218D01*
X016369Y021628D01*
X017804Y021628D01*
X017875Y021557D01*
X017989Y021510D01*
X018111Y021510D01*
X018225Y021557D01*
X018311Y021644D01*
X018358Y021757D01*
X018358Y021880D01*
X018311Y021993D01*
X018225Y022079D01*
X018111Y022126D01*
X017989Y022126D01*
X018167Y022103D02*
X019445Y022103D01*
X019445Y022005D02*
X018299Y022005D01*
X018347Y021906D02*
X019445Y021906D01*
X019445Y021808D02*
X018358Y021808D01*
X018338Y021709D02*
X019445Y021709D01*
X019445Y021611D02*
X018278Y021611D01*
X018116Y021512D02*
X019445Y021512D01*
X019445Y021414D02*
X016154Y021414D01*
X016056Y021315D02*
X019445Y021315D01*
X019445Y021217D02*
X015958Y021217D01*
X015958Y021118D02*
X019445Y021118D01*
X019445Y021020D02*
X015918Y021020D01*
X015829Y020921D02*
X019445Y020921D01*
X019445Y020823D02*
X014049Y020823D01*
X014049Y020921D02*
X015471Y020921D01*
X015382Y021020D02*
X014049Y021020D01*
X014049Y021118D02*
X015342Y021118D01*
X015342Y021217D02*
X014049Y021217D01*
X014049Y021315D02*
X015373Y021315D01*
X015450Y021414D02*
X014049Y021414D01*
X014049Y021512D02*
X015715Y021512D01*
X015814Y021611D02*
X014049Y021611D01*
X014049Y021709D02*
X015912Y021709D01*
X016011Y021808D02*
X014049Y021808D01*
X014049Y021906D02*
X016109Y021906D01*
X016208Y022005D02*
X014049Y022005D01*
X014638Y022793D02*
X019445Y022793D01*
X019445Y022891D02*
X014670Y022891D01*
X014670Y022990D02*
X019445Y022990D01*
X019445Y023088D02*
X014670Y023088D01*
X014670Y023187D02*
X019445Y023187D01*
X019445Y023285D02*
X014670Y023285D01*
X014670Y023193D02*
X014670Y023193D01*
X014670Y023384D02*
X019445Y023384D01*
X019445Y023482D02*
X014595Y023482D01*
X014486Y023483D02*
X014486Y023483D01*
X014663Y023581D02*
X019445Y023581D01*
X019445Y023679D02*
X014670Y023679D01*
X014670Y023778D02*
X019445Y023778D01*
X019445Y023876D02*
X014670Y023876D01*
X014662Y023975D02*
X019445Y023975D01*
X019445Y024073D02*
X014670Y024073D01*
X014670Y024091D02*
X014670Y024091D01*
X014670Y024172D02*
X019445Y024172D01*
X019445Y024270D02*
X014670Y024270D01*
X014670Y024369D02*
X019445Y024369D01*
X019445Y024467D02*
X014670Y024467D01*
X014647Y024566D02*
X019445Y024566D01*
X019445Y024664D02*
X014670Y024664D01*
X014670Y024763D02*
X019445Y024763D01*
X019445Y024861D02*
X014663Y024861D01*
X014670Y024960D02*
X019445Y024960D01*
X019445Y025058D02*
X014650Y025058D01*
X014270Y025058D02*
X014049Y025058D01*
X014049Y024960D02*
X014250Y024960D01*
X014049Y025157D02*
X019445Y025157D01*
X019445Y025255D02*
X014049Y025255D01*
X014049Y025354D02*
X019445Y025354D01*
X019445Y025452D02*
X014049Y025452D01*
X014049Y025551D02*
X019445Y025551D01*
X019445Y025649D02*
X014049Y025649D01*
X014049Y025748D02*
X019445Y025748D01*
X019445Y025846D02*
X014049Y025846D01*
X014049Y025945D02*
X019445Y025945D01*
X019445Y026043D02*
X017148Y026043D01*
X017285Y026142D02*
X019445Y026142D01*
X019445Y026240D02*
X017360Y026240D01*
X017401Y026339D02*
X018750Y026339D01*
X018538Y026437D02*
X017414Y026437D01*
X017414Y026536D02*
X018440Y026536D01*
X018353Y026634D02*
X017414Y026634D01*
X017414Y026733D02*
X018312Y026733D01*
X018271Y026831D02*
X017414Y026831D01*
X017414Y026930D02*
X018255Y026930D01*
X018255Y027028D02*
X017414Y027028D01*
X017414Y027127D02*
X018255Y027127D01*
X018288Y027225D02*
X017414Y027225D01*
X017390Y027324D02*
X018328Y027324D01*
X018381Y027422D02*
X017349Y027422D01*
X016551Y027422D02*
X016349Y027422D01*
X016390Y027324D02*
X016510Y027324D01*
X016486Y027225D02*
X016414Y027225D01*
X016414Y027127D02*
X016486Y027127D01*
X016486Y027028D02*
X016414Y027028D01*
X016414Y026930D02*
X016486Y026930D01*
X016486Y026831D02*
X016414Y026831D01*
X016414Y026733D02*
X016486Y026733D01*
X016486Y026634D02*
X016414Y026634D01*
X016414Y026536D02*
X016486Y026536D01*
X016486Y026437D02*
X016414Y026437D01*
X016401Y026339D02*
X016499Y026339D01*
X016540Y026240D02*
X016360Y026240D01*
X016285Y026142D02*
X016615Y026142D01*
X016752Y026043D02*
X016148Y026043D01*
X015752Y026043D02*
X014049Y026043D01*
X014049Y026142D02*
X015615Y026142D01*
X015540Y026240D02*
X014049Y026240D01*
X014049Y026339D02*
X015499Y026339D01*
X015486Y026437D02*
X014049Y026437D01*
X014049Y026536D02*
X015486Y026536D01*
X015486Y026634D02*
X014049Y026634D01*
X014049Y026733D02*
X015486Y026733D01*
X015486Y026831D02*
X014049Y026831D01*
X014049Y026930D02*
X015486Y026930D01*
X015486Y027028D02*
X014049Y027028D01*
X014049Y027127D02*
X015486Y027127D01*
X015486Y027225D02*
X014049Y027225D01*
X014049Y027324D02*
X015510Y027324D01*
X015551Y027422D02*
X014049Y027422D01*
X016351Y021611D02*
X017822Y021611D01*
X017984Y021512D02*
X016253Y021512D01*
X014049Y020724D02*
X019445Y020724D01*
X019445Y020626D02*
X014049Y020626D01*
X014049Y020527D02*
X019445Y020527D01*
X019445Y020429D02*
X014049Y020429D01*
X014049Y020330D02*
X019445Y020330D01*
X019445Y020232D02*
X014049Y020232D01*
X014049Y020133D02*
X019445Y020133D01*
X019445Y020035D02*
X014049Y020035D01*
X014049Y019936D02*
X019445Y019936D01*
X019445Y019838D02*
X014049Y019838D01*
X014049Y019739D02*
X019445Y019739D01*
X019445Y019641D02*
X014049Y019641D01*
X014049Y019542D02*
X019445Y019542D01*
X019445Y019444D02*
X014049Y019444D01*
X014049Y019345D02*
X019445Y019345D01*
X019445Y019247D02*
X014049Y019247D01*
X014049Y019148D02*
X019445Y019148D01*
X019445Y019050D02*
X014049Y019050D01*
X014049Y018951D02*
X019445Y018951D01*
X019445Y018853D02*
X014049Y018853D01*
X014049Y018754D02*
X019445Y018754D01*
X019445Y018656D02*
X014049Y018656D01*
X014049Y018557D02*
X019445Y018557D01*
X019445Y018459D02*
X014049Y018459D01*
X014049Y018360D02*
X019445Y018360D01*
X019445Y018262D02*
X014049Y018262D01*
X014049Y018163D02*
X019445Y018163D01*
X019445Y018065D02*
X014049Y018065D01*
X014049Y017966D02*
X019445Y017966D01*
X019445Y017868D02*
X014049Y017868D01*
X014049Y017769D02*
X016505Y017769D01*
X016506Y017770D02*
X016436Y017734D01*
X016371Y017687D01*
X016315Y017631D01*
X016269Y017567D01*
X016233Y017496D01*
X016208Y017421D01*
X016196Y017342D01*
X016196Y016998D01*
X016650Y016998D01*
X016650Y017805D01*
X016582Y017795D01*
X016506Y017770D01*
X016650Y017769D02*
X016750Y017769D01*
X016750Y017671D02*
X016650Y017671D01*
X016650Y017572D02*
X016750Y017572D01*
X016750Y017474D02*
X016650Y017474D01*
X016650Y017375D02*
X016750Y017375D01*
X016750Y017277D02*
X016650Y017277D01*
X016650Y017178D02*
X016750Y017178D01*
X016750Y017080D02*
X016650Y017080D01*
X016650Y016981D02*
X016164Y016981D01*
X016164Y016883D02*
X016196Y016883D01*
X016196Y016784D02*
X016164Y016784D01*
X016164Y016686D02*
X016196Y016686D01*
X016196Y016587D02*
X016164Y016587D01*
X016159Y016489D02*
X016206Y016489D01*
X016238Y016390D02*
X016118Y016390D01*
X016055Y016292D02*
X016296Y016292D01*
X016750Y016981D02*
X017236Y016981D01*
X017236Y016883D02*
X017204Y016883D01*
X017204Y016784D02*
X017236Y016784D01*
X017236Y016686D02*
X017204Y016686D01*
X017204Y016587D02*
X017236Y016587D01*
X017241Y016489D02*
X017194Y016489D01*
X017162Y016390D02*
X017282Y016390D01*
X017345Y016292D02*
X017104Y016292D01*
X017204Y017080D02*
X017236Y017080D01*
X017236Y017178D02*
X017204Y017178D01*
X017204Y017277D02*
X017236Y017277D01*
X017236Y017375D02*
X017199Y017375D01*
X017175Y017474D02*
X017268Y017474D01*
X017313Y017572D02*
X017127Y017572D01*
X017045Y017671D02*
X017412Y017671D01*
X016895Y017769D02*
X019445Y017769D01*
X019445Y017671D02*
X017988Y017671D01*
X018087Y017572D02*
X019445Y017572D01*
X019445Y017474D02*
X018132Y017474D01*
X018164Y017375D02*
X019445Y017375D01*
X019445Y017277D02*
X018164Y017277D01*
X018164Y017178D02*
X019445Y017178D01*
X019445Y017080D02*
X018164Y017080D01*
X018164Y016981D02*
X019445Y016981D01*
X019445Y016883D02*
X018164Y016883D01*
X018164Y016784D02*
X019445Y016784D01*
X019445Y016686D02*
X018164Y016686D01*
X018164Y016587D02*
X019445Y016587D01*
X019445Y016489D02*
X018159Y016489D01*
X018118Y016390D02*
X019445Y016390D01*
X019445Y016292D02*
X018055Y016292D01*
X016355Y017671D02*
X015988Y017671D01*
X016087Y017572D02*
X016273Y017572D01*
X016225Y017474D02*
X016132Y017474D01*
X016164Y017375D02*
X016201Y017375D01*
X016196Y017277D02*
X016164Y017277D01*
X016164Y017178D02*
X016196Y017178D01*
X016196Y017080D02*
X016164Y017080D01*
X015412Y017671D02*
X014049Y017671D01*
X014049Y017572D02*
X015313Y017572D01*
X015268Y017474D02*
X014049Y017474D01*
X014049Y017375D02*
X014368Y017375D01*
X014146Y017277D02*
X014049Y017277D01*
X014732Y017375D02*
X015236Y017375D01*
X015236Y017277D02*
X014954Y017277D01*
X015053Y017178D02*
X015236Y017178D01*
X015236Y017080D02*
X015144Y017080D01*
X015185Y016981D02*
X015236Y016981D01*
X015226Y016883D02*
X015236Y016883D01*
X012766Y018754D02*
X012692Y018754D01*
X009942Y020724D02*
X009888Y020724D01*
X009888Y020823D02*
X009941Y020823D01*
X009889Y020921D02*
X009888Y020921D01*
X008661Y020921D02*
X008660Y020921D01*
X008660Y020823D02*
X008661Y020823D01*
X008661Y020724D02*
X008643Y020724D01*
X006800Y023482D02*
X001405Y023482D01*
X002100Y025157D02*
X002200Y025157D01*
X002200Y025255D02*
X002100Y025255D01*
X002100Y025354D02*
X002200Y025354D01*
X002200Y025452D02*
X002100Y025452D01*
X002100Y025551D02*
X002200Y025551D01*
X001745Y025551D02*
X001405Y025551D01*
X001405Y025649D02*
X001545Y025649D01*
X001439Y025748D02*
X001405Y025748D01*
X001405Y025452D02*
X001494Y025452D01*
X002418Y014913D02*
X007988Y014913D01*
X007988Y014814D02*
X002501Y014814D01*
X002541Y014716D02*
X008003Y014716D01*
X008233Y014617D02*
X002582Y014617D01*
X002595Y014519D02*
X008233Y014519D01*
X008244Y014420D02*
X002595Y014420D01*
X006499Y013632D02*
X012706Y013632D01*
X012706Y013534D02*
X006630Y013534D01*
X006677Y013435D02*
X011396Y013435D01*
X011298Y013337D02*
X006688Y013337D01*
X006759Y013238D02*
X011242Y013238D01*
X011201Y013140D02*
X006857Y013140D01*
X006956Y013041D02*
X011201Y013041D01*
X011207Y012943D02*
X007054Y012943D01*
X007153Y012844D02*
X011248Y012844D01*
X011311Y012746D02*
X007210Y012746D01*
X007210Y012647D02*
X011420Y012647D01*
X011423Y012450D02*
X007210Y012450D01*
X007210Y012352D02*
X011313Y012352D01*
X011248Y012253D02*
X007210Y012253D01*
X007210Y012155D02*
X011207Y012155D01*
X011201Y012056D02*
X007210Y012056D01*
X007210Y011958D02*
X011201Y011958D01*
X011241Y011859D02*
X007210Y011859D01*
X007210Y011761D02*
X011296Y011761D01*
X011395Y011662D02*
X007210Y011662D01*
X007210Y011564D02*
X012706Y011564D01*
X012706Y011662D02*
X012645Y011662D01*
X012706Y011465D02*
X007210Y011465D01*
X007210Y011367D02*
X012706Y011367D01*
X012706Y011268D02*
X007210Y011268D01*
X007234Y011170D02*
X012706Y011170D01*
X012706Y011071D02*
X007303Y011071D01*
X007328Y010973D02*
X012706Y010973D01*
X012706Y010874D02*
X007323Y010874D01*
X007282Y010776D02*
X012706Y010776D01*
X012706Y010677D02*
X012508Y010677D01*
X012662Y010579D02*
X012706Y010579D01*
X012706Y012450D02*
X012617Y012450D01*
X012706Y012549D02*
X007210Y012549D01*
X008589Y014420D02*
X008601Y014420D01*
X008600Y014519D02*
X008601Y014519D01*
X008600Y014617D02*
X008601Y014617D01*
X009828Y014617D02*
X009829Y014617D01*
X009828Y014519D02*
X009875Y014519D01*
X009882Y014420D02*
X009828Y014420D01*
X012644Y013435D02*
X012706Y013435D01*
X012706Y012647D02*
X012620Y012647D01*
X019150Y026339D02*
X019445Y026339D01*
X019445Y026437D02*
X019362Y026437D01*
D13*
X017530Y025138D03*
X015980Y022878D03*
X015650Y021178D03*
X018050Y021818D03*
X015190Y024838D03*
X010340Y024218D03*
X010040Y026558D03*
X008080Y025768D03*
X006380Y026098D03*
X007020Y023698D03*
X010100Y020118D03*
X010400Y017778D03*
X008140Y019328D03*
X006440Y019658D03*
X007080Y017258D03*
X010040Y013808D03*
X008080Y013018D03*
X006380Y013348D03*
X007020Y010948D03*
X010340Y011468D03*
X002720Y010448D03*
X002780Y016758D03*
X002720Y023198D03*
X018550Y017518D03*
D14*
X015650Y021178D02*
X016290Y021818D01*
X018050Y021818D01*
X007020Y023698D02*
X007020Y025458D01*
X006380Y026098D01*
X006440Y019658D02*
X007080Y019018D01*
X007080Y017258D01*
X006380Y013348D02*
X007020Y012708D01*
X007020Y010948D01*
M02*
