G75*
G70*
%OFA0B0*%
%FSLAX24Y24*%
%IPPOS*%
%LPD*%
%AMOC8*
5,1,8,0,0,1.08239X$1,22.5*
%
%ADD10C,0.0010*%
%ADD11C,0.0030*%
%ADD12C,0.0000*%
%ADD13C,0.0020*%
%ADD14C,0.0160*%
D10*
X001150Y009298D02*
X001150Y015204D01*
X012961Y015204D01*
X012961Y009298D01*
X001150Y009298D01*
X001210Y015608D02*
X001210Y021514D01*
X013021Y021514D01*
X013021Y015608D01*
X001210Y015608D01*
X001150Y022048D02*
X001150Y027954D01*
X012961Y027954D01*
X012961Y022048D01*
X001150Y022048D01*
X013794Y027759D02*
X013794Y015948D01*
X019700Y015948D01*
X019700Y027759D01*
X013794Y027759D01*
D11*
X012783Y026598D02*
X012590Y026598D01*
X012488Y026502D02*
X012488Y026695D01*
X012440Y026744D01*
X012295Y026744D01*
X012295Y026453D01*
X012440Y026453D01*
X012488Y026502D01*
X010964Y026544D02*
X010770Y026544D01*
X010770Y026398D01*
X010867Y026447D01*
X010915Y026447D01*
X010964Y026398D01*
X010964Y026302D01*
X010915Y026253D01*
X010819Y026253D01*
X010770Y026302D01*
X010669Y026253D02*
X010572Y026350D01*
X010621Y026350D02*
X010476Y026350D01*
X010476Y026253D02*
X010476Y026544D01*
X010621Y026544D01*
X010669Y026495D01*
X010669Y026398D01*
X010621Y026350D01*
X010035Y027113D02*
X010084Y027162D01*
X010084Y027210D01*
X010035Y027258D01*
X009987Y027258D01*
X010035Y027258D02*
X010084Y027307D01*
X010084Y027355D01*
X010035Y027404D01*
X009939Y027404D01*
X009890Y027355D01*
X009789Y027355D02*
X009789Y027258D01*
X009741Y027210D01*
X009596Y027210D01*
X009692Y027210D02*
X009789Y027113D01*
X009890Y027162D02*
X009939Y027113D01*
X010035Y027113D01*
X009789Y027355D02*
X009741Y027404D01*
X009596Y027404D01*
X009596Y027113D01*
X008264Y026688D02*
X008070Y026688D01*
X008215Y026834D01*
X008215Y026543D01*
X007969Y026592D02*
X007921Y026543D01*
X007824Y026543D01*
X007776Y026592D01*
X007776Y026785D01*
X007824Y026834D01*
X007921Y026834D01*
X007969Y026785D01*
X006333Y025205D02*
X006333Y025157D01*
X006140Y024963D01*
X006333Y024963D01*
X006333Y025205D02*
X006285Y025254D01*
X006188Y025254D01*
X006140Y025205D01*
X006038Y025254D02*
X006038Y025012D01*
X005990Y024963D01*
X005893Y024963D01*
X005845Y025012D01*
X005845Y025254D01*
X005480Y025823D02*
X005480Y025872D01*
X005673Y026065D01*
X005673Y026114D01*
X005480Y026114D01*
X005378Y026065D02*
X005378Y025968D01*
X005330Y025920D01*
X005185Y025920D01*
X005185Y025823D02*
X005185Y026114D01*
X005330Y026114D01*
X005378Y026065D01*
X005282Y025920D02*
X005378Y025823D01*
X005705Y026203D02*
X005705Y026494D01*
X005850Y026494D01*
X005898Y026445D01*
X005898Y026348D01*
X005850Y026300D01*
X005705Y026300D01*
X005802Y026300D02*
X005898Y026203D01*
X006000Y026348D02*
X006193Y026348D01*
X006145Y026203D02*
X006145Y026494D01*
X006000Y026348D01*
X005084Y027413D02*
X004890Y027413D01*
X005084Y027607D01*
X005084Y027655D01*
X005035Y027704D01*
X004939Y027704D01*
X004890Y027655D01*
X004789Y027655D02*
X004741Y027704D01*
X004644Y027704D01*
X004596Y027655D01*
X004596Y027462D01*
X004644Y027413D01*
X004741Y027413D01*
X004789Y027462D01*
X004793Y027114D02*
X004696Y027065D01*
X004600Y026968D01*
X004745Y026968D01*
X004793Y026920D01*
X004793Y026872D01*
X004745Y026823D01*
X004648Y026823D01*
X004600Y026872D01*
X004600Y026968D01*
X004498Y026968D02*
X004450Y026920D01*
X004305Y026920D01*
X004305Y026823D02*
X004305Y027114D01*
X004450Y027114D01*
X004498Y027065D01*
X004498Y026968D01*
X004402Y026920D02*
X004498Y026823D01*
X003834Y026833D02*
X003640Y026833D01*
X003737Y026833D02*
X003737Y027124D01*
X003640Y027027D01*
X003539Y027075D02*
X003539Y026882D01*
X003491Y026833D01*
X003346Y026833D01*
X003346Y027124D01*
X003491Y027124D01*
X003539Y027075D01*
X002828Y027422D02*
X002828Y027518D01*
X002732Y027518D01*
X002828Y027422D02*
X002780Y027373D01*
X002683Y027373D01*
X002635Y027422D01*
X002635Y027615D01*
X002683Y027664D01*
X002780Y027664D01*
X002828Y027615D01*
X004425Y025084D02*
X004425Y024890D01*
X004522Y024793D01*
X004618Y024890D01*
X004618Y025084D01*
X004725Y025084D02*
X004822Y024987D01*
X004918Y025084D01*
X004918Y024793D01*
X004725Y024793D02*
X004725Y025084D01*
X003906Y024584D02*
X003906Y024293D01*
X003810Y024293D02*
X004003Y024293D01*
X003810Y024487D02*
X003906Y024584D01*
X003708Y024584D02*
X003708Y024342D01*
X003660Y024293D01*
X003563Y024293D01*
X003515Y024342D01*
X003515Y024584D01*
X003441Y022764D02*
X003344Y022764D01*
X003296Y022715D01*
X003296Y022522D01*
X003344Y022473D01*
X003441Y022473D01*
X003489Y022522D01*
X003590Y022473D02*
X003784Y022473D01*
X003687Y022473D02*
X003687Y022764D01*
X003590Y022667D01*
X003489Y022715D02*
X003441Y022764D01*
X004665Y022615D02*
X004665Y022422D01*
X004713Y022373D01*
X004810Y022373D01*
X004858Y022422D01*
X004960Y022422D02*
X005008Y022373D01*
X005105Y022373D01*
X005153Y022422D01*
X005153Y022470D01*
X005105Y022518D01*
X005056Y022518D01*
X005105Y022518D02*
X005153Y022567D01*
X005153Y022615D01*
X005105Y022664D01*
X005008Y022664D01*
X004960Y022615D01*
X004858Y022615D02*
X004810Y022664D01*
X004713Y022664D01*
X004665Y022615D01*
X005665Y022685D02*
X005665Y022492D01*
X005713Y022443D01*
X005810Y022443D01*
X005858Y022492D01*
X005960Y022492D02*
X006008Y022443D01*
X006105Y022443D01*
X006153Y022492D01*
X006153Y022540D01*
X006105Y022588D01*
X005960Y022588D01*
X005960Y022492D01*
X005960Y022588D02*
X006056Y022685D01*
X006153Y022734D01*
X006375Y022833D02*
X006375Y023124D01*
X006520Y023124D01*
X006568Y023075D01*
X006568Y022882D01*
X006520Y022833D01*
X006375Y022833D01*
X005858Y022685D02*
X005810Y022734D01*
X005713Y022734D01*
X005665Y022685D01*
X006635Y023963D02*
X006635Y024254D01*
X006780Y024254D01*
X006828Y024205D01*
X006828Y024108D01*
X006780Y024060D01*
X006635Y024060D01*
X006732Y024060D02*
X006828Y023963D01*
X007415Y023865D02*
X007415Y023672D01*
X007463Y023623D01*
X007560Y023623D01*
X007608Y023672D01*
X007710Y023672D02*
X007758Y023623D01*
X007855Y023623D01*
X007903Y023672D01*
X007903Y023768D01*
X007855Y023817D01*
X007806Y023817D01*
X007710Y023768D01*
X007710Y023914D01*
X007903Y023914D01*
X007608Y023865D02*
X007560Y023914D01*
X007463Y023914D01*
X007415Y023865D01*
X007317Y022884D02*
X007317Y022593D01*
X007220Y022593D02*
X007414Y022593D01*
X007220Y022787D02*
X007317Y022884D01*
X007119Y022835D02*
X007119Y022738D01*
X007071Y022690D01*
X006926Y022690D01*
X007022Y022690D02*
X007119Y022593D01*
X006926Y022593D02*
X006926Y022884D01*
X007071Y022884D01*
X007119Y022835D01*
X008765Y022664D02*
X008765Y022373D01*
X008765Y022470D02*
X008910Y022470D01*
X008958Y022518D01*
X008958Y022615D01*
X008910Y022664D01*
X008765Y022664D01*
X008862Y022470D02*
X008958Y022373D01*
X009060Y022373D02*
X009253Y022567D01*
X009253Y022615D01*
X009205Y022664D01*
X009108Y022664D01*
X009060Y022615D01*
X009060Y022373D02*
X009253Y022373D01*
X009656Y020964D02*
X009801Y020964D01*
X009849Y020915D01*
X009849Y020818D01*
X009801Y020770D01*
X009656Y020770D01*
X009752Y020770D02*
X009849Y020673D01*
X009950Y020722D02*
X009999Y020673D01*
X010095Y020673D01*
X010144Y020722D01*
X010144Y020770D01*
X010095Y020818D01*
X010047Y020818D01*
X010095Y020818D02*
X010144Y020867D01*
X010144Y020915D01*
X010095Y020964D01*
X009999Y020964D01*
X009950Y020915D01*
X009656Y020964D02*
X009656Y020673D01*
X010536Y020104D02*
X010536Y019813D01*
X010536Y019910D02*
X010681Y019910D01*
X010729Y019958D01*
X010729Y020055D01*
X010681Y020104D01*
X010536Y020104D01*
X010632Y019910D02*
X010729Y019813D01*
X010830Y019862D02*
X010879Y019813D01*
X010975Y019813D01*
X011024Y019862D01*
X011024Y019958D01*
X010975Y020007D01*
X010927Y020007D01*
X010830Y019958D01*
X010830Y020104D01*
X011024Y020104D01*
X012355Y020013D02*
X012500Y020013D01*
X012548Y020062D01*
X012548Y020255D01*
X012500Y020304D01*
X012355Y020304D01*
X012355Y020013D01*
X012650Y020158D02*
X012843Y020158D01*
X014045Y019834D02*
X014045Y019737D01*
X014093Y019689D01*
X014093Y019587D02*
X014045Y019539D01*
X014045Y019442D01*
X014093Y019394D01*
X014287Y019394D01*
X014335Y019442D01*
X014335Y019539D01*
X014287Y019587D01*
X014335Y019689D02*
X014142Y019882D01*
X014093Y019882D01*
X014045Y019834D01*
X014335Y019882D02*
X014335Y019689D01*
X014635Y019591D02*
X014683Y019495D01*
X014780Y019398D01*
X014780Y019543D01*
X014828Y019591D01*
X014877Y019591D01*
X014925Y019543D01*
X014925Y019446D01*
X014877Y019398D01*
X014780Y019398D01*
X014780Y019297D02*
X014828Y019248D01*
X014828Y019103D01*
X014925Y019103D02*
X014635Y019103D01*
X014635Y019248D01*
X014683Y019297D01*
X014780Y019297D01*
X014828Y019200D02*
X014925Y019297D01*
X014915Y018632D02*
X014915Y018439D01*
X014915Y018535D02*
X014625Y018535D01*
X014722Y018439D01*
X014673Y018337D02*
X014625Y018289D01*
X014625Y018144D01*
X014915Y018144D01*
X014915Y018289D01*
X014867Y018337D01*
X014673Y018337D01*
X014327Y017627D02*
X014230Y017627D01*
X014230Y017530D01*
X014327Y017433D02*
X014375Y017482D01*
X014375Y017578D01*
X014327Y017627D01*
X014327Y017433D02*
X014133Y017433D01*
X014085Y017482D01*
X014085Y017578D01*
X014133Y017627D01*
X012733Y017448D02*
X012540Y017448D01*
X012636Y017352D02*
X012636Y017545D01*
X012438Y017545D02*
X012438Y017352D01*
X012390Y017303D01*
X012245Y017303D01*
X012245Y017594D01*
X012390Y017594D01*
X012438Y017545D01*
X011303Y017782D02*
X011255Y017733D01*
X011158Y017733D01*
X011110Y017782D01*
X011110Y017830D01*
X011158Y017878D01*
X011255Y017878D01*
X011303Y017830D01*
X011303Y017782D01*
X011255Y017878D02*
X011303Y017927D01*
X011303Y017975D01*
X011255Y018024D01*
X011158Y018024D01*
X011110Y017975D01*
X011110Y017927D01*
X011158Y017878D01*
X011008Y017878D02*
X011008Y017975D01*
X010960Y018024D01*
X010815Y018024D01*
X010815Y017733D01*
X010815Y017830D02*
X010960Y017830D01*
X011008Y017878D01*
X010912Y017830D02*
X011008Y017733D01*
X010203Y017715D02*
X010155Y017764D01*
X010058Y017764D01*
X010010Y017715D01*
X009908Y017715D02*
X009908Y017522D01*
X009860Y017473D01*
X009763Y017473D01*
X009715Y017522D01*
X009715Y017715D01*
X009763Y017764D01*
X009860Y017764D01*
X009908Y017715D01*
X009908Y017863D02*
X009812Y017960D01*
X009860Y017960D02*
X009715Y017960D01*
X009715Y017863D02*
X009715Y018154D01*
X009860Y018154D01*
X009908Y018105D01*
X009908Y018008D01*
X009860Y017960D01*
X010010Y017912D02*
X010058Y017863D01*
X010155Y017863D01*
X010203Y017912D01*
X010203Y018105D01*
X010155Y018154D01*
X010058Y018154D01*
X010010Y018105D01*
X010010Y018057D01*
X010058Y018008D01*
X010203Y018008D01*
X010203Y017715D02*
X010203Y017667D01*
X010010Y017473D01*
X010203Y017473D01*
X009908Y017473D02*
X009812Y017570D01*
X009265Y016224D02*
X009168Y016224D01*
X009120Y016175D01*
X009018Y016175D02*
X009018Y016078D01*
X008970Y016030D01*
X008825Y016030D01*
X008825Y015933D02*
X008825Y016224D01*
X008970Y016224D01*
X009018Y016175D01*
X008922Y016030D02*
X009018Y015933D01*
X009120Y015933D02*
X009313Y016127D01*
X009313Y016175D01*
X009265Y016224D01*
X009313Y015933D02*
X009120Y015933D01*
X007915Y017183D02*
X007963Y017232D01*
X007963Y017328D01*
X007915Y017377D01*
X007866Y017377D01*
X007770Y017328D01*
X007770Y017474D01*
X007963Y017474D01*
X007915Y017183D02*
X007818Y017183D01*
X007770Y017232D01*
X007668Y017232D02*
X007620Y017183D01*
X007523Y017183D01*
X007475Y017232D01*
X007475Y017425D01*
X007523Y017474D01*
X007620Y017474D01*
X007668Y017425D01*
X006888Y017523D02*
X006792Y017620D01*
X006840Y017620D02*
X006695Y017620D01*
X006695Y017523D02*
X006695Y017814D01*
X006840Y017814D01*
X006888Y017765D01*
X006888Y017668D01*
X006840Y017620D01*
X006580Y016684D02*
X006435Y016684D01*
X006435Y016393D01*
X006580Y016393D01*
X006628Y016442D01*
X006628Y016635D01*
X006580Y016684D01*
X006986Y016444D02*
X006986Y016153D01*
X006986Y016250D02*
X007131Y016250D01*
X007179Y016298D01*
X007179Y016395D01*
X007131Y016444D01*
X006986Y016444D01*
X007082Y016250D02*
X007179Y016153D01*
X007280Y016153D02*
X007474Y016153D01*
X007377Y016153D02*
X007377Y016444D01*
X007280Y016347D01*
X006213Y016294D02*
X006116Y016245D01*
X006020Y016148D01*
X006165Y016148D01*
X006213Y016100D01*
X006213Y016052D01*
X006165Y016003D01*
X006068Y016003D01*
X006020Y016052D01*
X006020Y016148D01*
X005918Y016052D02*
X005870Y016003D01*
X005773Y016003D01*
X005725Y016052D01*
X005725Y016245D01*
X005773Y016294D01*
X005870Y016294D01*
X005918Y016245D01*
X005213Y016175D02*
X005213Y016127D01*
X005165Y016078D01*
X005213Y016030D01*
X005213Y015982D01*
X005165Y015933D01*
X005068Y015933D01*
X005020Y015982D01*
X004918Y015982D02*
X004870Y015933D01*
X004773Y015933D01*
X004725Y015982D01*
X004725Y016175D01*
X004773Y016224D01*
X004870Y016224D01*
X004918Y016175D01*
X005020Y016175D02*
X005068Y016224D01*
X005165Y016224D01*
X005213Y016175D01*
X005165Y016078D02*
X005116Y016078D01*
X005035Y014954D02*
X004939Y014954D01*
X004890Y014905D01*
X004789Y014905D02*
X004741Y014954D01*
X004644Y014954D01*
X004596Y014905D01*
X004596Y014712D01*
X004644Y014663D01*
X004741Y014663D01*
X004789Y014712D01*
X004890Y014663D02*
X005084Y014857D01*
X005084Y014905D01*
X005035Y014954D01*
X005084Y014663D02*
X004890Y014663D01*
X004793Y014364D02*
X004696Y014315D01*
X004600Y014218D01*
X004745Y014218D01*
X004793Y014170D01*
X004793Y014122D01*
X004745Y014073D01*
X004648Y014073D01*
X004600Y014122D01*
X004600Y014218D01*
X004498Y014218D02*
X004450Y014170D01*
X004305Y014170D01*
X004305Y014073D02*
X004305Y014364D01*
X004450Y014364D01*
X004498Y014315D01*
X004498Y014218D01*
X004402Y014170D02*
X004498Y014073D01*
X003834Y014083D02*
X003640Y014083D01*
X003737Y014083D02*
X003737Y014374D01*
X003640Y014277D01*
X003539Y014325D02*
X003539Y014132D01*
X003491Y014083D01*
X003346Y014083D01*
X003346Y014374D01*
X003491Y014374D01*
X003539Y014325D01*
X002828Y014672D02*
X002828Y014768D01*
X002732Y014768D01*
X002828Y014672D02*
X002780Y014623D01*
X002683Y014623D01*
X002635Y014672D01*
X002635Y014865D01*
X002683Y014914D01*
X002780Y014914D01*
X002828Y014865D01*
X003404Y016033D02*
X003356Y016082D01*
X003356Y016275D01*
X003404Y016324D01*
X003501Y016324D01*
X003549Y016275D01*
X003650Y016227D02*
X003747Y016324D01*
X003747Y016033D01*
X003650Y016033D02*
X003844Y016033D01*
X003549Y016082D02*
X003501Y016033D01*
X003404Y016033D01*
X003623Y017853D02*
X003575Y017902D01*
X003575Y018144D01*
X003768Y018144D02*
X003768Y017902D01*
X003720Y017853D01*
X003623Y017853D01*
X003870Y017853D02*
X004063Y017853D01*
X003966Y017853D02*
X003966Y018144D01*
X003870Y018047D01*
X004485Y018450D02*
X004485Y018644D01*
X004678Y018644D02*
X004678Y018450D01*
X004582Y018353D01*
X004485Y018450D01*
X004785Y018353D02*
X004785Y018644D01*
X004882Y018547D01*
X004978Y018644D01*
X004978Y018353D01*
X005245Y019383D02*
X005245Y019674D01*
X005390Y019674D01*
X005438Y019625D01*
X005438Y019528D01*
X005390Y019480D01*
X005245Y019480D01*
X005342Y019480D02*
X005438Y019383D01*
X005540Y019383D02*
X005540Y019432D01*
X005733Y019625D01*
X005733Y019674D01*
X005540Y019674D01*
X005765Y019763D02*
X005765Y020054D01*
X005910Y020054D01*
X005958Y020005D01*
X005958Y019908D01*
X005910Y019860D01*
X005765Y019860D01*
X005862Y019860D02*
X005958Y019763D01*
X006060Y019908D02*
X006205Y020054D01*
X006205Y019763D01*
X006253Y019908D02*
X006060Y019908D01*
X006098Y018814D02*
X006098Y018572D01*
X006050Y018523D01*
X005953Y018523D01*
X005905Y018572D01*
X005905Y018814D01*
X006200Y018765D02*
X006248Y018814D01*
X006345Y018814D01*
X006393Y018765D01*
X006393Y018717D01*
X006200Y018523D01*
X006393Y018523D01*
X007884Y020103D02*
X007981Y020103D01*
X008029Y020152D01*
X008130Y020248D02*
X008324Y020248D01*
X008275Y020103D02*
X008275Y020394D01*
X008130Y020248D01*
X008029Y020345D02*
X007981Y020394D01*
X007884Y020394D01*
X007836Y020345D01*
X007836Y020152D01*
X007884Y020103D01*
X005144Y020973D02*
X004950Y020973D01*
X005144Y021167D01*
X005144Y021215D01*
X005095Y021264D01*
X004999Y021264D01*
X004950Y021215D01*
X004849Y021215D02*
X004801Y021264D01*
X004704Y021264D01*
X004656Y021215D01*
X004656Y021022D01*
X004704Y020973D01*
X004801Y020973D01*
X004849Y021022D01*
X004853Y020674D02*
X004756Y020625D01*
X004660Y020528D01*
X004805Y020528D01*
X004853Y020480D01*
X004853Y020432D01*
X004805Y020383D01*
X004708Y020383D01*
X004660Y020432D01*
X004660Y020528D01*
X004558Y020528D02*
X004558Y020625D01*
X004510Y020674D01*
X004365Y020674D01*
X004365Y020383D01*
X004365Y020480D02*
X004510Y020480D01*
X004558Y020528D01*
X004462Y020480D02*
X004558Y020383D01*
X003894Y020393D02*
X003700Y020393D01*
X003797Y020393D02*
X003797Y020684D01*
X003700Y020587D01*
X003599Y020635D02*
X003599Y020442D01*
X003551Y020393D01*
X003406Y020393D01*
X003406Y020684D01*
X003551Y020684D01*
X003599Y020635D01*
X002888Y020982D02*
X002888Y021078D01*
X002792Y021078D01*
X002888Y020982D02*
X002840Y020933D01*
X002743Y020933D01*
X002695Y020982D01*
X002695Y021175D01*
X002743Y021224D01*
X002840Y021224D01*
X002888Y021175D01*
X007824Y014084D02*
X007776Y014035D01*
X007776Y013842D01*
X007824Y013793D01*
X007921Y013793D01*
X007969Y013842D01*
X008070Y013938D02*
X008264Y013938D01*
X008215Y013793D02*
X008215Y014084D01*
X008070Y013938D01*
X007969Y014035D02*
X007921Y014084D01*
X007824Y014084D01*
X006285Y012504D02*
X006188Y012504D01*
X006140Y012455D01*
X006038Y012504D02*
X006038Y012262D01*
X005990Y012213D01*
X005893Y012213D01*
X005845Y012262D01*
X005845Y012504D01*
X006140Y012213D02*
X006333Y012407D01*
X006333Y012455D01*
X006285Y012504D01*
X006333Y012213D02*
X006140Y012213D01*
X006635Y011504D02*
X006780Y011504D01*
X006828Y011455D01*
X006828Y011358D01*
X006780Y011310D01*
X006635Y011310D01*
X006635Y011213D02*
X006635Y011504D01*
X006732Y011310D02*
X006828Y011213D01*
X007415Y011115D02*
X007415Y010922D01*
X007463Y010873D01*
X007560Y010873D01*
X007608Y010922D01*
X007710Y010922D02*
X007758Y010873D01*
X007855Y010873D01*
X007903Y010922D01*
X007903Y011018D01*
X007855Y011067D01*
X007806Y011067D01*
X007710Y011018D01*
X007710Y011164D01*
X007903Y011164D01*
X007608Y011115D02*
X007560Y011164D01*
X007463Y011164D01*
X007415Y011115D01*
X007317Y010134D02*
X007317Y009843D01*
X007220Y009843D02*
X007414Y009843D01*
X007220Y010037D02*
X007317Y010134D01*
X007119Y010085D02*
X007119Y009988D01*
X007071Y009940D01*
X006926Y009940D01*
X007022Y009940D02*
X007119Y009843D01*
X006926Y009843D02*
X006926Y010134D01*
X007071Y010134D01*
X007119Y010085D01*
X006568Y010132D02*
X006520Y010083D01*
X006375Y010083D01*
X006375Y010374D01*
X006520Y010374D01*
X006568Y010325D01*
X006568Y010132D01*
X006153Y009984D02*
X006056Y009935D01*
X005960Y009838D01*
X006105Y009838D01*
X006153Y009790D01*
X006153Y009742D01*
X006105Y009693D01*
X006008Y009693D01*
X005960Y009742D01*
X005960Y009838D01*
X005858Y009742D02*
X005810Y009693D01*
X005713Y009693D01*
X005665Y009742D01*
X005665Y009935D01*
X005713Y009984D01*
X005810Y009984D01*
X005858Y009935D01*
X005153Y009865D02*
X005153Y009817D01*
X005105Y009768D01*
X005153Y009720D01*
X005153Y009672D01*
X005105Y009623D01*
X005008Y009623D01*
X004960Y009672D01*
X004858Y009672D02*
X004810Y009623D01*
X004713Y009623D01*
X004665Y009672D01*
X004665Y009865D01*
X004713Y009914D01*
X004810Y009914D01*
X004858Y009865D01*
X004960Y009865D02*
X005008Y009914D01*
X005105Y009914D01*
X005153Y009865D01*
X005105Y009768D02*
X005056Y009768D01*
X003784Y009723D02*
X003590Y009723D01*
X003687Y009723D02*
X003687Y010014D01*
X003590Y009917D01*
X003489Y009965D02*
X003441Y010014D01*
X003344Y010014D01*
X003296Y009965D01*
X003296Y009772D01*
X003344Y009723D01*
X003441Y009723D01*
X003489Y009772D01*
X003563Y011543D02*
X003660Y011543D01*
X003708Y011592D01*
X003708Y011834D01*
X003810Y011737D02*
X003906Y011834D01*
X003906Y011543D01*
X003810Y011543D02*
X004003Y011543D01*
X003563Y011543D02*
X003515Y011592D01*
X003515Y011834D01*
X004425Y012140D02*
X004522Y012043D01*
X004618Y012140D01*
X004618Y012334D01*
X004725Y012334D02*
X004822Y012237D01*
X004918Y012334D01*
X004918Y012043D01*
X004725Y012043D02*
X004725Y012334D01*
X004425Y012334D02*
X004425Y012140D01*
X005185Y013073D02*
X005185Y013364D01*
X005330Y013364D01*
X005378Y013315D01*
X005378Y013218D01*
X005330Y013170D01*
X005185Y013170D01*
X005282Y013170D02*
X005378Y013073D01*
X005480Y013073D02*
X005480Y013122D01*
X005673Y013315D01*
X005673Y013364D01*
X005480Y013364D01*
X005705Y013453D02*
X005705Y013744D01*
X005850Y013744D01*
X005898Y013695D01*
X005898Y013598D01*
X005850Y013550D01*
X005705Y013550D01*
X005802Y013550D02*
X005898Y013453D01*
X006000Y013598D02*
X006193Y013598D01*
X006145Y013453D02*
X006145Y013744D01*
X006000Y013598D01*
X008765Y009914D02*
X008910Y009914D01*
X008958Y009865D01*
X008958Y009768D01*
X008910Y009720D01*
X008765Y009720D01*
X008765Y009623D02*
X008765Y009914D01*
X008862Y009720D02*
X008958Y009623D01*
X009060Y009623D02*
X009253Y009817D01*
X009253Y009865D01*
X009205Y009914D01*
X009108Y009914D01*
X009060Y009865D01*
X009060Y009623D02*
X009253Y009623D01*
X009703Y011163D02*
X009655Y011212D01*
X009655Y011405D01*
X009703Y011454D01*
X009800Y011454D01*
X009848Y011405D01*
X009848Y011212D01*
X009800Y011163D01*
X009703Y011163D01*
X009752Y011260D02*
X009848Y011163D01*
X009950Y011163D02*
X010143Y011357D01*
X010143Y011405D01*
X010095Y011454D01*
X009998Y011454D01*
X009950Y011405D01*
X009998Y011553D02*
X010095Y011553D01*
X010143Y011602D01*
X010143Y011795D01*
X010095Y011844D01*
X009998Y011844D01*
X009950Y011795D01*
X009950Y011747D01*
X009998Y011698D01*
X010143Y011698D01*
X009998Y011553D02*
X009950Y011602D01*
X009848Y011553D02*
X009752Y011650D01*
X009800Y011650D02*
X009655Y011650D01*
X009655Y011553D02*
X009655Y011844D01*
X009800Y011844D01*
X009848Y011795D01*
X009848Y011698D01*
X009800Y011650D01*
X009950Y011163D02*
X010143Y011163D01*
X010755Y011423D02*
X010755Y011714D01*
X010900Y011714D01*
X010948Y011665D01*
X010948Y011568D01*
X010900Y011520D01*
X010755Y011520D01*
X010852Y011520D02*
X010948Y011423D01*
X011050Y011472D02*
X011050Y011520D01*
X011098Y011568D01*
X011195Y011568D01*
X011243Y011520D01*
X011243Y011472D01*
X011195Y011423D01*
X011098Y011423D01*
X011050Y011472D01*
X011098Y011568D02*
X011050Y011617D01*
X011050Y011665D01*
X011098Y011714D01*
X011195Y011714D01*
X011243Y011665D01*
X011243Y011617D01*
X011195Y011568D01*
X012185Y011284D02*
X012185Y010993D01*
X012330Y010993D01*
X012378Y011042D01*
X012378Y011235D01*
X012330Y011284D01*
X012185Y011284D01*
X012480Y011138D02*
X012673Y011138D01*
X012576Y011042D02*
X012576Y011235D01*
X011556Y009864D02*
X011556Y009573D01*
X011460Y009573D02*
X011653Y009573D01*
X011460Y009767D02*
X011556Y009864D01*
X011358Y009815D02*
X011358Y009622D01*
X011310Y009573D01*
X011213Y009573D01*
X011165Y009622D01*
X011165Y009815D01*
X011213Y009864D01*
X011310Y009864D01*
X011358Y009815D01*
X011262Y009670D02*
X011358Y009573D01*
X010915Y013503D02*
X010819Y013503D01*
X010770Y013552D01*
X010770Y013648D02*
X010867Y013697D01*
X010915Y013697D01*
X010964Y013648D01*
X010964Y013552D01*
X010915Y013503D01*
X010770Y013648D02*
X010770Y013794D01*
X010964Y013794D01*
X010669Y013745D02*
X010669Y013648D01*
X010621Y013600D01*
X010476Y013600D01*
X010572Y013600D02*
X010669Y013503D01*
X010476Y013503D02*
X010476Y013794D01*
X010621Y013794D01*
X010669Y013745D01*
X010035Y014363D02*
X010084Y014412D01*
X010084Y014460D01*
X010035Y014508D01*
X009987Y014508D01*
X010035Y014508D02*
X010084Y014557D01*
X010084Y014605D01*
X010035Y014654D01*
X009939Y014654D01*
X009890Y014605D01*
X009789Y014605D02*
X009789Y014508D01*
X009741Y014460D01*
X009596Y014460D01*
X009692Y014460D02*
X009789Y014363D01*
X009890Y014412D02*
X009939Y014363D01*
X010035Y014363D01*
X009789Y014605D02*
X009741Y014654D01*
X009596Y014654D01*
X009596Y014363D01*
X011225Y015932D02*
X011273Y015883D01*
X011370Y015883D01*
X011418Y015932D01*
X011418Y016125D01*
X011370Y016174D01*
X011273Y016174D01*
X011225Y016125D01*
X011225Y015932D01*
X011322Y015980D02*
X011418Y015883D01*
X011520Y015883D02*
X011713Y015883D01*
X011616Y015883D02*
X011616Y016174D01*
X011520Y016077D01*
X012295Y013994D02*
X012440Y013994D01*
X012488Y013945D01*
X012488Y013752D01*
X012440Y013703D01*
X012295Y013703D01*
X012295Y013994D01*
X012590Y013848D02*
X012783Y013848D01*
X017165Y018313D02*
X017407Y018313D01*
X017455Y018362D01*
X017455Y018458D01*
X017407Y018507D01*
X017165Y018507D01*
X017262Y018608D02*
X017165Y018705D01*
X017455Y018705D01*
X017455Y018801D02*
X017455Y018608D01*
X016858Y019223D02*
X016955Y019320D01*
X016858Y019417D01*
X016665Y019417D01*
X016665Y019523D02*
X016762Y019620D01*
X016665Y019717D01*
X016955Y019717D01*
X016955Y019523D02*
X016665Y019523D01*
X016665Y019223D02*
X016858Y019223D01*
X015925Y019983D02*
X015635Y019983D01*
X015635Y020128D01*
X015683Y020177D01*
X015780Y020177D01*
X015828Y020128D01*
X015828Y019983D01*
X015828Y020080D02*
X015925Y020177D01*
X015925Y020278D02*
X015877Y020278D01*
X015683Y020471D01*
X015635Y020471D01*
X015635Y020278D01*
X015545Y020503D02*
X015255Y020503D01*
X015255Y020648D01*
X015303Y020697D01*
X015400Y020697D01*
X015448Y020648D01*
X015448Y020503D01*
X015448Y020600D02*
X015545Y020697D01*
X015400Y020798D02*
X015400Y020991D01*
X015545Y020943D02*
X015255Y020943D01*
X015400Y020798D01*
X016495Y020837D02*
X016737Y020837D01*
X016785Y020788D01*
X016785Y020692D01*
X016737Y020643D01*
X016495Y020643D01*
X016543Y020938D02*
X016495Y020986D01*
X016495Y021083D01*
X016543Y021131D01*
X016592Y021131D01*
X016785Y020938D01*
X016785Y021131D01*
X017495Y021433D02*
X017495Y021578D01*
X017543Y021627D01*
X017640Y021627D01*
X017688Y021578D01*
X017688Y021433D01*
X017785Y021433D02*
X017495Y021433D01*
X017688Y021530D02*
X017785Y021627D01*
X017883Y022213D02*
X018077Y022213D01*
X018125Y022262D01*
X018125Y022358D01*
X018077Y022407D01*
X018077Y022508D02*
X018125Y022556D01*
X018125Y022653D01*
X018077Y022701D01*
X017980Y022701D01*
X017932Y022653D01*
X017932Y022605D01*
X017980Y022508D01*
X017835Y022508D01*
X017835Y022701D01*
X017883Y022407D02*
X017835Y022358D01*
X017835Y022262D01*
X017883Y022213D01*
X018673Y021367D02*
X018625Y021318D01*
X018625Y021173D01*
X018915Y021173D01*
X018915Y021318D01*
X018867Y021367D01*
X018673Y021367D01*
X018865Y021724D02*
X018865Y021869D01*
X018913Y021917D01*
X019010Y021917D01*
X019058Y021869D01*
X019058Y021724D01*
X019058Y021821D02*
X019155Y021917D01*
X019155Y022019D02*
X019155Y022212D01*
X019155Y022115D02*
X018865Y022115D01*
X018962Y022019D01*
X018865Y021724D02*
X019155Y021724D01*
X019208Y020951D02*
X019160Y020903D01*
X019160Y020758D01*
X019257Y020758D01*
X019305Y020806D01*
X019305Y020903D01*
X019257Y020951D01*
X019208Y020951D01*
X019063Y020855D02*
X019160Y020758D01*
X019063Y020855D02*
X019015Y020951D01*
X019063Y020657D02*
X019015Y020608D01*
X019015Y020512D01*
X019063Y020463D01*
X019257Y020463D01*
X019305Y020512D01*
X019305Y020608D01*
X019257Y020657D01*
X019278Y019951D02*
X019327Y019951D01*
X019375Y019903D01*
X019375Y019806D01*
X019327Y019758D01*
X019327Y019657D02*
X019375Y019608D01*
X019375Y019512D01*
X019327Y019463D01*
X019133Y019463D01*
X019085Y019512D01*
X019085Y019608D01*
X019133Y019657D01*
X019133Y019758D02*
X019085Y019806D01*
X019085Y019903D01*
X019133Y019951D01*
X019182Y019951D01*
X019230Y019903D01*
X019278Y019951D01*
X019230Y019903D02*
X019230Y019855D01*
X019275Y018582D02*
X019275Y018389D01*
X019275Y018485D02*
X018985Y018485D01*
X019082Y018389D01*
X019033Y018287D02*
X018985Y018239D01*
X018985Y018142D01*
X019033Y018094D01*
X019227Y018094D01*
X019275Y018142D01*
X019275Y018239D01*
X019227Y018287D01*
X015157Y022574D02*
X015205Y022622D01*
X015205Y022719D01*
X015157Y022767D01*
X015060Y022869D02*
X015060Y023062D01*
X015205Y023014D02*
X014915Y023014D01*
X015060Y022869D01*
X014963Y022767D02*
X014915Y022719D01*
X014915Y022622D01*
X014963Y022574D01*
X015157Y022574D01*
X014635Y024394D02*
X014345Y024394D01*
X014345Y024539D01*
X014393Y024587D01*
X014490Y024587D01*
X014538Y024539D01*
X014538Y024394D01*
X014538Y024491D02*
X014635Y024587D01*
X014587Y024689D02*
X014635Y024737D01*
X014635Y024834D01*
X014587Y024882D01*
X014538Y024882D01*
X014490Y024834D01*
X014490Y024785D01*
X014490Y024834D02*
X014442Y024882D01*
X014393Y024882D01*
X014345Y024834D01*
X014345Y024737D01*
X014393Y024689D01*
X015205Y025274D02*
X015205Y025419D01*
X015253Y025467D01*
X015350Y025467D01*
X015398Y025419D01*
X015398Y025274D01*
X015398Y025371D02*
X015495Y025467D01*
X015447Y025569D02*
X015495Y025617D01*
X015495Y025714D01*
X015447Y025762D01*
X015350Y025762D01*
X015302Y025714D01*
X015302Y025665D01*
X015350Y025569D01*
X015205Y025569D01*
X015205Y025762D01*
X015205Y025274D02*
X015495Y025274D01*
X015295Y027093D02*
X015005Y027093D01*
X015005Y027238D01*
X015053Y027287D01*
X015247Y027287D01*
X015295Y027238D01*
X015295Y027093D01*
X015150Y027388D02*
X015150Y027581D01*
X017285Y025993D02*
X017333Y026041D01*
X017382Y026041D01*
X017430Y025993D01*
X017430Y025896D01*
X017382Y025848D01*
X017333Y025848D01*
X017285Y025896D01*
X017285Y025993D01*
X017430Y025993D02*
X017478Y026041D01*
X017527Y026041D01*
X017575Y025993D01*
X017575Y025896D01*
X017527Y025848D01*
X017478Y025848D01*
X017430Y025896D01*
X017430Y025747D02*
X017478Y025698D01*
X017478Y025553D01*
X017575Y025553D02*
X017285Y025553D01*
X017285Y025698D01*
X017333Y025747D01*
X017430Y025747D01*
X017478Y025650D02*
X017575Y025747D01*
X017593Y024941D02*
X017545Y024893D01*
X017545Y024796D01*
X017593Y024748D01*
X017593Y024647D02*
X017787Y024647D01*
X017835Y024598D01*
X017835Y024502D01*
X017787Y024453D01*
X017593Y024453D01*
X017545Y024502D01*
X017545Y024598D01*
X017593Y024647D01*
X017445Y024647D02*
X017348Y024550D01*
X017348Y024598D02*
X017348Y024453D01*
X017445Y024453D02*
X017155Y024453D01*
X017155Y024598D01*
X017203Y024647D01*
X017300Y024647D01*
X017348Y024598D01*
X017397Y024748D02*
X017445Y024796D01*
X017445Y024893D01*
X017397Y024941D01*
X017203Y024941D01*
X017155Y024893D01*
X017155Y024796D01*
X017203Y024748D01*
X017252Y024748D01*
X017300Y024796D01*
X017300Y024941D01*
X017593Y024941D02*
X017642Y024941D01*
X017835Y024748D01*
X017835Y024941D01*
X017835Y024647D02*
X017738Y024550D01*
X019085Y024003D02*
X019085Y023906D01*
X019133Y023858D01*
X019133Y023757D02*
X019230Y023757D01*
X019278Y023708D01*
X019278Y023563D01*
X019375Y023563D02*
X019085Y023563D01*
X019085Y023708D01*
X019133Y023757D01*
X019278Y023660D02*
X019375Y023757D01*
X019375Y023858D02*
X019182Y024051D01*
X019133Y024051D01*
X019085Y024003D01*
X019375Y024051D02*
X019375Y023858D01*
X019377Y025963D02*
X019183Y025963D01*
X019135Y026012D01*
X019135Y026108D01*
X019183Y026157D01*
X019377Y026157D01*
X019425Y026108D01*
X019425Y026012D01*
X019377Y025963D01*
X019328Y026060D02*
X019425Y026157D01*
X019425Y026258D02*
X019425Y026451D01*
X019425Y026355D02*
X019135Y026355D01*
X019232Y026258D01*
X018005Y026983D02*
X018005Y027128D01*
X017957Y027177D01*
X017763Y027177D01*
X017715Y027128D01*
X017715Y026983D01*
X018005Y026983D01*
X017860Y027278D02*
X017860Y027471D01*
X017763Y027375D02*
X017957Y027375D01*
X012673Y023888D02*
X012480Y023888D01*
X012576Y023792D02*
X012576Y023985D01*
X012378Y023985D02*
X012330Y024034D01*
X012185Y024034D01*
X012185Y023743D01*
X012330Y023743D01*
X012378Y023792D01*
X012378Y023985D01*
X011556Y022614D02*
X011556Y022323D01*
X011460Y022323D02*
X011653Y022323D01*
X011460Y022517D02*
X011556Y022614D01*
X011358Y022565D02*
X011358Y022372D01*
X011310Y022323D01*
X011213Y022323D01*
X011165Y022372D01*
X011165Y022565D01*
X011213Y022614D01*
X011310Y022614D01*
X011358Y022565D01*
X011262Y022420D02*
X011358Y022323D01*
X010143Y023913D02*
X009950Y023913D01*
X010143Y024107D01*
X010143Y024155D01*
X010095Y024204D01*
X009998Y024204D01*
X009950Y024155D01*
X009848Y024155D02*
X009848Y023962D01*
X009800Y023913D01*
X009703Y023913D01*
X009655Y023962D01*
X009655Y024155D01*
X009703Y024204D01*
X009800Y024204D01*
X009848Y024155D01*
X009848Y024303D02*
X009752Y024400D01*
X009800Y024400D02*
X009655Y024400D01*
X009655Y024303D02*
X009655Y024594D01*
X009800Y024594D01*
X009848Y024545D01*
X009848Y024448D01*
X009800Y024400D01*
X009950Y024352D02*
X009998Y024303D01*
X010095Y024303D01*
X010143Y024352D01*
X010143Y024545D01*
X010095Y024594D01*
X009998Y024594D01*
X009950Y024545D01*
X009950Y024497D01*
X009998Y024448D01*
X010143Y024448D01*
X009752Y024010D02*
X009848Y023913D01*
X010755Y024173D02*
X010755Y024464D01*
X010900Y024464D01*
X010948Y024415D01*
X010948Y024318D01*
X010900Y024270D01*
X010755Y024270D01*
X010852Y024270D02*
X010948Y024173D01*
X011050Y024222D02*
X011050Y024270D01*
X011098Y024318D01*
X011195Y024318D01*
X011243Y024270D01*
X011243Y024222D01*
X011195Y024173D01*
X011098Y024173D01*
X011050Y024222D01*
X011098Y024318D02*
X011050Y024367D01*
X011050Y024415D01*
X011098Y024464D01*
X011195Y024464D01*
X011243Y024415D01*
X011243Y024367D01*
X011195Y024318D01*
D12*
X011765Y022798D02*
X011767Y022840D01*
X011773Y022881D01*
X011782Y022922D01*
X011796Y022961D01*
X011813Y022999D01*
X011834Y023035D01*
X011857Y023070D01*
X011884Y023101D01*
X011914Y023131D01*
X011947Y023157D01*
X011982Y023180D01*
X012018Y023200D01*
X012057Y023216D01*
X012097Y023228D01*
X012137Y023237D01*
X012179Y023242D01*
X012220Y023243D01*
X012262Y023240D01*
X012303Y023233D01*
X012344Y023222D01*
X012383Y023208D01*
X012420Y023190D01*
X012456Y023169D01*
X012490Y023144D01*
X012521Y023116D01*
X012549Y023086D01*
X012575Y023053D01*
X012597Y023017D01*
X012616Y022980D01*
X012631Y022941D01*
X012643Y022901D01*
X012651Y022860D01*
X012655Y022819D01*
X012655Y022777D01*
X012651Y022736D01*
X012643Y022695D01*
X012631Y022655D01*
X012616Y022616D01*
X012597Y022579D01*
X012575Y022543D01*
X012549Y022510D01*
X012521Y022480D01*
X012490Y022452D01*
X012456Y022427D01*
X012420Y022406D01*
X012383Y022388D01*
X012344Y022374D01*
X012303Y022363D01*
X012262Y022356D01*
X012220Y022353D01*
X012179Y022354D01*
X012137Y022359D01*
X012097Y022368D01*
X012057Y022380D01*
X012018Y022396D01*
X011982Y022416D01*
X011947Y022439D01*
X011914Y022465D01*
X011884Y022495D01*
X011857Y022526D01*
X011834Y022561D01*
X011813Y022597D01*
X011796Y022635D01*
X011782Y022674D01*
X011773Y022715D01*
X011767Y022756D01*
X011765Y022798D01*
X014105Y016698D02*
X014107Y016740D01*
X014113Y016781D01*
X014122Y016822D01*
X014136Y016861D01*
X014153Y016899D01*
X014174Y016935D01*
X014197Y016970D01*
X014224Y017001D01*
X014254Y017031D01*
X014287Y017057D01*
X014322Y017080D01*
X014358Y017100D01*
X014397Y017116D01*
X014437Y017128D01*
X014477Y017137D01*
X014519Y017142D01*
X014560Y017143D01*
X014602Y017140D01*
X014643Y017133D01*
X014684Y017122D01*
X014723Y017108D01*
X014760Y017090D01*
X014796Y017069D01*
X014830Y017044D01*
X014861Y017016D01*
X014889Y016986D01*
X014915Y016953D01*
X014937Y016917D01*
X014956Y016880D01*
X014971Y016841D01*
X014983Y016801D01*
X014991Y016760D01*
X014995Y016719D01*
X014995Y016677D01*
X014991Y016636D01*
X014983Y016595D01*
X014971Y016555D01*
X014956Y016516D01*
X014937Y016479D01*
X014915Y016443D01*
X014889Y016410D01*
X014861Y016380D01*
X014830Y016352D01*
X014796Y016327D01*
X014760Y016306D01*
X014723Y016288D01*
X014684Y016274D01*
X014643Y016263D01*
X014602Y016256D01*
X014560Y016253D01*
X014519Y016254D01*
X014477Y016259D01*
X014437Y016268D01*
X014397Y016280D01*
X014358Y016296D01*
X014322Y016316D01*
X014287Y016339D01*
X014254Y016365D01*
X014224Y016395D01*
X014197Y016426D01*
X014174Y016461D01*
X014153Y016497D01*
X014136Y016535D01*
X014122Y016574D01*
X014113Y016615D01*
X014107Y016656D01*
X014105Y016698D01*
X011825Y016358D02*
X011827Y016400D01*
X011833Y016441D01*
X011842Y016482D01*
X011856Y016521D01*
X011873Y016559D01*
X011894Y016595D01*
X011917Y016630D01*
X011944Y016661D01*
X011974Y016691D01*
X012007Y016717D01*
X012042Y016740D01*
X012078Y016760D01*
X012117Y016776D01*
X012157Y016788D01*
X012197Y016797D01*
X012239Y016802D01*
X012280Y016803D01*
X012322Y016800D01*
X012363Y016793D01*
X012404Y016782D01*
X012443Y016768D01*
X012480Y016750D01*
X012516Y016729D01*
X012550Y016704D01*
X012581Y016676D01*
X012609Y016646D01*
X012635Y016613D01*
X012657Y016577D01*
X012676Y016540D01*
X012691Y016501D01*
X012703Y016461D01*
X012711Y016420D01*
X012715Y016379D01*
X012715Y016337D01*
X012711Y016296D01*
X012703Y016255D01*
X012691Y016215D01*
X012676Y016176D01*
X012657Y016139D01*
X012635Y016103D01*
X012609Y016070D01*
X012581Y016040D01*
X012550Y016012D01*
X012516Y015987D01*
X012480Y015966D01*
X012443Y015948D01*
X012404Y015934D01*
X012363Y015923D01*
X012322Y015916D01*
X012280Y015913D01*
X012239Y015914D01*
X012197Y015919D01*
X012157Y015928D01*
X012117Y015940D01*
X012078Y015956D01*
X012042Y015976D01*
X012007Y015999D01*
X011974Y016025D01*
X011944Y016055D01*
X011917Y016086D01*
X011894Y016121D01*
X011873Y016157D01*
X011856Y016195D01*
X011842Y016234D01*
X011833Y016275D01*
X011827Y016316D01*
X011825Y016358D01*
X011765Y010048D02*
X011767Y010090D01*
X011773Y010131D01*
X011782Y010172D01*
X011796Y010211D01*
X011813Y010249D01*
X011834Y010285D01*
X011857Y010320D01*
X011884Y010351D01*
X011914Y010381D01*
X011947Y010407D01*
X011982Y010430D01*
X012018Y010450D01*
X012057Y010466D01*
X012097Y010478D01*
X012137Y010487D01*
X012179Y010492D01*
X012220Y010493D01*
X012262Y010490D01*
X012303Y010483D01*
X012344Y010472D01*
X012383Y010458D01*
X012420Y010440D01*
X012456Y010419D01*
X012490Y010394D01*
X012521Y010366D01*
X012549Y010336D01*
X012575Y010303D01*
X012597Y010267D01*
X012616Y010230D01*
X012631Y010191D01*
X012643Y010151D01*
X012651Y010110D01*
X012655Y010069D01*
X012655Y010027D01*
X012651Y009986D01*
X012643Y009945D01*
X012631Y009905D01*
X012616Y009866D01*
X012597Y009829D01*
X012575Y009793D01*
X012549Y009760D01*
X012521Y009730D01*
X012490Y009702D01*
X012456Y009677D01*
X012420Y009656D01*
X012383Y009638D01*
X012344Y009624D01*
X012303Y009613D01*
X012262Y009606D01*
X012220Y009603D01*
X012179Y009604D01*
X012137Y009609D01*
X012097Y009618D01*
X012057Y009630D01*
X012018Y009646D01*
X011982Y009666D01*
X011947Y009689D01*
X011914Y009715D01*
X011884Y009745D01*
X011857Y009776D01*
X011834Y009811D01*
X011813Y009847D01*
X011796Y009885D01*
X011782Y009924D01*
X011773Y009965D01*
X011767Y010006D01*
X011765Y010048D01*
X001515Y020758D02*
X001517Y020800D01*
X001523Y020841D01*
X001532Y020882D01*
X001546Y020921D01*
X001563Y020959D01*
X001584Y020995D01*
X001607Y021030D01*
X001634Y021061D01*
X001664Y021091D01*
X001697Y021117D01*
X001732Y021140D01*
X001768Y021160D01*
X001807Y021176D01*
X001847Y021188D01*
X001887Y021197D01*
X001929Y021202D01*
X001970Y021203D01*
X002012Y021200D01*
X002053Y021193D01*
X002094Y021182D01*
X002133Y021168D01*
X002170Y021150D01*
X002206Y021129D01*
X002240Y021104D01*
X002271Y021076D01*
X002299Y021046D01*
X002325Y021013D01*
X002347Y020977D01*
X002366Y020940D01*
X002381Y020901D01*
X002393Y020861D01*
X002401Y020820D01*
X002405Y020779D01*
X002405Y020737D01*
X002401Y020696D01*
X002393Y020655D01*
X002381Y020615D01*
X002366Y020576D01*
X002347Y020539D01*
X002325Y020503D01*
X002299Y020470D01*
X002271Y020440D01*
X002240Y020412D01*
X002206Y020387D01*
X002170Y020366D01*
X002133Y020348D01*
X002094Y020334D01*
X002053Y020323D01*
X002012Y020316D01*
X001970Y020313D01*
X001929Y020314D01*
X001887Y020319D01*
X001847Y020328D01*
X001807Y020340D01*
X001768Y020356D01*
X001732Y020376D01*
X001697Y020399D01*
X001664Y020425D01*
X001634Y020455D01*
X001607Y020486D01*
X001584Y020521D01*
X001563Y020557D01*
X001546Y020595D01*
X001532Y020634D01*
X001523Y020675D01*
X001517Y020716D01*
X001515Y020758D01*
X001455Y014448D02*
X001457Y014490D01*
X001463Y014531D01*
X001472Y014572D01*
X001486Y014611D01*
X001503Y014649D01*
X001524Y014685D01*
X001547Y014720D01*
X001574Y014751D01*
X001604Y014781D01*
X001637Y014807D01*
X001672Y014830D01*
X001708Y014850D01*
X001747Y014866D01*
X001787Y014878D01*
X001827Y014887D01*
X001869Y014892D01*
X001910Y014893D01*
X001952Y014890D01*
X001993Y014883D01*
X002034Y014872D01*
X002073Y014858D01*
X002110Y014840D01*
X002146Y014819D01*
X002180Y014794D01*
X002211Y014766D01*
X002239Y014736D01*
X002265Y014703D01*
X002287Y014667D01*
X002306Y014630D01*
X002321Y014591D01*
X002333Y014551D01*
X002341Y014510D01*
X002345Y014469D01*
X002345Y014427D01*
X002341Y014386D01*
X002333Y014345D01*
X002321Y014305D01*
X002306Y014266D01*
X002287Y014229D01*
X002265Y014193D01*
X002239Y014160D01*
X002211Y014130D01*
X002180Y014102D01*
X002146Y014077D01*
X002110Y014056D01*
X002073Y014038D01*
X002034Y014024D01*
X001993Y014013D01*
X001952Y014006D01*
X001910Y014003D01*
X001869Y014004D01*
X001827Y014009D01*
X001787Y014018D01*
X001747Y014030D01*
X001708Y014046D01*
X001672Y014066D01*
X001637Y014089D01*
X001604Y014115D01*
X001574Y014145D01*
X001547Y014176D01*
X001524Y014211D01*
X001503Y014247D01*
X001486Y014285D01*
X001472Y014324D01*
X001463Y014365D01*
X001457Y014406D01*
X001455Y014448D01*
X001455Y027198D02*
X001457Y027240D01*
X001463Y027281D01*
X001472Y027322D01*
X001486Y027361D01*
X001503Y027399D01*
X001524Y027435D01*
X001547Y027470D01*
X001574Y027501D01*
X001604Y027531D01*
X001637Y027557D01*
X001672Y027580D01*
X001708Y027600D01*
X001747Y027616D01*
X001787Y027628D01*
X001827Y027637D01*
X001869Y027642D01*
X001910Y027643D01*
X001952Y027640D01*
X001993Y027633D01*
X002034Y027622D01*
X002073Y027608D01*
X002110Y027590D01*
X002146Y027569D01*
X002180Y027544D01*
X002211Y027516D01*
X002239Y027486D01*
X002265Y027453D01*
X002287Y027417D01*
X002306Y027380D01*
X002321Y027341D01*
X002333Y027301D01*
X002341Y027260D01*
X002345Y027219D01*
X002345Y027177D01*
X002341Y027136D01*
X002333Y027095D01*
X002321Y027055D01*
X002306Y027016D01*
X002287Y026979D01*
X002265Y026943D01*
X002239Y026910D01*
X002211Y026880D01*
X002180Y026852D01*
X002146Y026827D01*
X002110Y026806D01*
X002073Y026788D01*
X002034Y026774D01*
X001993Y026763D01*
X001952Y026756D01*
X001910Y026753D01*
X001869Y026754D01*
X001827Y026759D01*
X001787Y026768D01*
X001747Y026780D01*
X001708Y026796D01*
X001672Y026816D01*
X001637Y026839D01*
X001604Y026865D01*
X001574Y026895D01*
X001547Y026926D01*
X001524Y026961D01*
X001503Y026997D01*
X001486Y027035D01*
X001472Y027074D01*
X001463Y027115D01*
X001457Y027156D01*
X001455Y027198D01*
X018505Y027008D02*
X018507Y027050D01*
X018513Y027091D01*
X018522Y027132D01*
X018536Y027171D01*
X018553Y027209D01*
X018574Y027245D01*
X018597Y027280D01*
X018624Y027311D01*
X018654Y027341D01*
X018687Y027367D01*
X018722Y027390D01*
X018758Y027410D01*
X018797Y027426D01*
X018837Y027438D01*
X018877Y027447D01*
X018919Y027452D01*
X018960Y027453D01*
X019002Y027450D01*
X019043Y027443D01*
X019084Y027432D01*
X019123Y027418D01*
X019160Y027400D01*
X019196Y027379D01*
X019230Y027354D01*
X019261Y027326D01*
X019289Y027296D01*
X019315Y027263D01*
X019337Y027227D01*
X019356Y027190D01*
X019371Y027151D01*
X019383Y027111D01*
X019391Y027070D01*
X019395Y027029D01*
X019395Y026987D01*
X019391Y026946D01*
X019383Y026905D01*
X019371Y026865D01*
X019356Y026826D01*
X019337Y026789D01*
X019315Y026753D01*
X019289Y026720D01*
X019261Y026690D01*
X019230Y026662D01*
X019196Y026637D01*
X019160Y026616D01*
X019123Y026598D01*
X019084Y026584D01*
X019043Y026573D01*
X019002Y026566D01*
X018960Y026563D01*
X018919Y026564D01*
X018877Y026569D01*
X018837Y026578D01*
X018797Y026590D01*
X018758Y026606D01*
X018722Y026626D01*
X018687Y026649D01*
X018654Y026675D01*
X018624Y026705D01*
X018597Y026736D01*
X018574Y026771D01*
X018553Y026807D01*
X018536Y026845D01*
X018522Y026884D01*
X018513Y026925D01*
X018507Y026966D01*
X018505Y027008D01*
D13*
X015830Y023233D02*
X015880Y023183D01*
X015880Y023083D01*
X015830Y023033D01*
X015830Y022938D02*
X015580Y022938D01*
X015630Y023033D02*
X015580Y023083D01*
X015580Y023183D01*
X015630Y023233D01*
X015680Y023233D01*
X015730Y023183D01*
X015780Y023233D01*
X015830Y023233D01*
X015730Y023183D02*
X015730Y023133D01*
X015830Y022938D02*
X015880Y022888D01*
X015880Y022788D01*
X015830Y022738D01*
X015580Y022738D01*
X008495Y019679D02*
X008495Y019628D01*
X008445Y019578D01*
X008495Y019528D01*
X008495Y019478D01*
X008445Y019428D01*
X008345Y019428D01*
X008295Y019478D01*
X008200Y019478D02*
X008200Y019729D01*
X008295Y019679D02*
X008345Y019729D01*
X008445Y019729D01*
X008495Y019679D01*
X008445Y019578D02*
X008395Y019578D01*
X008200Y019478D02*
X008150Y019428D01*
X008050Y019428D01*
X008000Y019478D01*
X008000Y019729D01*
X007990Y025868D02*
X008090Y025868D01*
X008140Y025918D01*
X008140Y026169D01*
X008235Y026119D02*
X008285Y026169D01*
X008385Y026169D01*
X008435Y026119D01*
X008435Y026068D01*
X008385Y026018D01*
X008435Y025968D01*
X008435Y025918D01*
X008385Y025868D01*
X008285Y025868D01*
X008235Y025918D01*
X008335Y026018D02*
X008385Y026018D01*
X007990Y025868D02*
X007940Y025918D01*
X007940Y026169D01*
X007940Y013419D02*
X007940Y013168D01*
X007990Y013118D01*
X008090Y013118D01*
X008140Y013168D01*
X008140Y013419D01*
X008235Y013369D02*
X008285Y013419D01*
X008385Y013419D01*
X008435Y013369D01*
X008435Y013318D01*
X008385Y013268D01*
X008435Y013218D01*
X008435Y013168D01*
X008385Y013118D01*
X008285Y013118D01*
X008235Y013168D01*
X008335Y013268D02*
X008385Y013268D01*
D14*
X000756Y008905D02*
X000756Y028590D01*
X020441Y028590D01*
X020441Y008905D01*
X000756Y008905D01*
M02*
