G75*
G70*
%OFA0B0*%
%FSLAX24Y24*%
%IPPOS*%
%LPD*%
%AMOC8*
5,1,8,0,0,1.08239X$1,22.5*
%
%ADD10C,0.0020*%
%ADD11R,0.0520X0.0220*%
%ADD12C,0.0709*%
%ADD13R,0.0709X0.0630*%
%ADD14R,0.0630X0.0710*%
%ADD15R,0.0807X0.1142*%
%ADD16R,0.0591X0.0394*%
%ADD17R,0.0220X0.0500*%
%ADD18R,0.0394X0.0433*%
%ADD19R,0.0433X0.0394*%
%ADD20C,0.0250*%
%ADD21R,0.0394X0.0551*%
%ADD22R,0.0780X0.0220*%
%ADD23C,0.0030*%
%ADD24R,0.0220X0.0520*%
%ADD25R,0.0630X0.0709*%
%ADD26R,0.0710X0.0630*%
%ADD27R,0.1142X0.0807*%
%ADD28R,0.0394X0.0591*%
%ADD29R,0.0500X0.0220*%
%ADD30R,0.0551X0.0394*%
%ADD31R,0.0220X0.0780*%
%ADD32C,0.0100*%
%ADD33C,0.0396*%
%ADD34C,0.0160*%
%ADD35C,0.0500*%
D10*
X013570Y013398D02*
X013620Y013348D01*
X013720Y013348D01*
X013770Y013398D01*
X013770Y013649D01*
X013865Y013599D02*
X013915Y013649D01*
X014015Y013649D01*
X014065Y013599D01*
X014159Y013548D02*
X014259Y013649D01*
X014359Y013548D01*
X014359Y013348D01*
X014359Y013498D02*
X014159Y013498D01*
X014159Y013548D02*
X014159Y013348D01*
X014065Y013398D02*
X014015Y013348D01*
X013915Y013348D01*
X013865Y013398D01*
X013915Y013498D02*
X014015Y013498D01*
X014065Y013448D01*
X014065Y013398D01*
X013915Y013498D02*
X013865Y013548D01*
X013865Y013599D01*
X013915Y013828D02*
X013865Y013878D01*
X013915Y013928D01*
X014065Y013928D01*
X014065Y013978D02*
X014065Y013828D01*
X013915Y013828D01*
X013770Y013828D02*
X013770Y014129D01*
X013915Y014028D02*
X014015Y014028D01*
X014065Y013978D01*
X014159Y013928D02*
X014259Y014028D01*
X014309Y014028D01*
X014405Y014028D02*
X014405Y013878D01*
X014455Y013828D01*
X014505Y013878D01*
X014555Y013828D01*
X014605Y013878D01*
X014605Y014028D01*
X014699Y014028D02*
X014750Y014028D01*
X014750Y013828D01*
X014800Y013828D02*
X014699Y013828D01*
X014896Y013878D02*
X014896Y013978D01*
X014946Y014028D01*
X015096Y014028D01*
X015191Y013928D02*
X015341Y013828D01*
X015436Y013728D02*
X015536Y013828D01*
X015486Y013828D01*
X015486Y013878D01*
X015536Y013878D01*
X015536Y013828D01*
X015341Y014028D02*
X015191Y013928D01*
X015191Y013828D02*
X015191Y014129D01*
X015289Y014308D02*
X015289Y014508D01*
X015439Y014508D01*
X015489Y014458D01*
X015489Y014308D01*
X015583Y014358D02*
X015633Y014308D01*
X015734Y014308D01*
X015784Y014358D01*
X015784Y014458D01*
X015734Y014508D01*
X015633Y014508D01*
X015583Y014458D01*
X015583Y014358D01*
X015193Y014508D02*
X015143Y014508D01*
X015043Y014408D01*
X014949Y014408D02*
X014749Y014408D01*
X014749Y014358D02*
X014749Y014458D01*
X014799Y014508D01*
X014899Y014508D01*
X014949Y014458D01*
X014949Y014408D01*
X014899Y014308D02*
X014799Y014308D01*
X014749Y014358D01*
X014654Y014408D02*
X014654Y014609D01*
X014454Y014609D02*
X014454Y014408D01*
X014554Y014308D01*
X014654Y014408D01*
X014750Y014179D02*
X014750Y014129D01*
X014896Y013878D02*
X014946Y013828D01*
X015096Y013828D01*
X015043Y014308D02*
X015043Y014508D01*
X015096Y014788D02*
X015096Y015089D01*
X014996Y014988D01*
X014896Y015089D01*
X014896Y014788D01*
X015191Y014838D02*
X015241Y014788D01*
X015341Y014788D01*
X015391Y014838D01*
X015391Y014938D01*
X015341Y014988D01*
X015241Y014988D01*
X015191Y014938D01*
X015191Y014838D01*
X015485Y014788D02*
X015485Y014988D01*
X015485Y014888D02*
X015585Y014988D01*
X015635Y014988D01*
X015731Y014988D02*
X015731Y014788D01*
X015731Y014888D02*
X015831Y014988D01*
X015881Y014988D01*
X015976Y014988D02*
X016026Y014988D01*
X016026Y014788D01*
X015976Y014788D02*
X016076Y014788D01*
X016173Y014788D02*
X016323Y014788D01*
X016373Y014838D01*
X016323Y014888D01*
X016223Y014888D01*
X016173Y014938D01*
X016223Y014988D01*
X016373Y014988D01*
X016467Y014938D02*
X016467Y014838D01*
X016517Y014788D01*
X016618Y014788D01*
X016668Y014838D01*
X016668Y014938D01*
X016618Y014988D01*
X016517Y014988D01*
X016467Y014938D01*
X016762Y014988D02*
X016912Y014988D01*
X016962Y014938D01*
X016962Y014788D01*
X016762Y014788D02*
X016762Y014988D01*
X016618Y014609D02*
X016517Y014609D01*
X016467Y014559D01*
X016467Y014508D01*
X016517Y014458D01*
X016618Y014458D01*
X016668Y014408D01*
X016668Y014358D01*
X016618Y014308D01*
X016517Y014308D01*
X016467Y014358D01*
X016322Y014129D02*
X016222Y014129D01*
X016272Y014129D02*
X016272Y013828D01*
X016222Y013828D02*
X016322Y013828D01*
X016127Y013828D02*
X016027Y013928D01*
X016077Y013928D02*
X015927Y013928D01*
X015927Y013828D02*
X015927Y014129D01*
X016077Y014129D01*
X016127Y014079D01*
X016127Y013978D01*
X016077Y013928D01*
X016078Y014308D02*
X016078Y014458D01*
X016028Y014508D01*
X015878Y014508D01*
X015878Y014308D01*
X016026Y015089D02*
X016026Y015139D01*
X016618Y014609D02*
X016668Y014559D01*
X016762Y014508D02*
X016862Y014508D01*
X016812Y014559D02*
X016812Y014358D01*
X016862Y014308D01*
X016863Y014129D02*
X016763Y014129D01*
X016713Y014079D01*
X016713Y013878D01*
X016913Y014079D01*
X016913Y013878D01*
X016863Y013828D01*
X016763Y013828D01*
X016713Y013878D01*
X016913Y014079D02*
X016863Y014129D01*
X017008Y014079D02*
X017058Y014129D01*
X017158Y014129D01*
X017208Y014079D01*
X017208Y014028D01*
X017008Y013828D01*
X017208Y013828D01*
X017302Y013878D02*
X017302Y013928D01*
X017352Y013978D01*
X017452Y013978D01*
X017502Y013928D01*
X017502Y013878D01*
X017452Y013828D01*
X017352Y013828D01*
X017302Y013878D01*
X017352Y013978D02*
X017302Y014028D01*
X017302Y014079D01*
X017352Y014129D01*
X017452Y014129D01*
X017502Y014079D01*
X017502Y014028D01*
X017452Y013978D01*
X017597Y013928D02*
X017597Y013878D01*
X017647Y013828D01*
X017747Y013828D01*
X017797Y013878D01*
X017797Y013928D01*
X017747Y013978D01*
X017647Y013978D01*
X017597Y014028D01*
X017597Y014079D01*
X017647Y014129D01*
X017747Y014129D01*
X017797Y014079D01*
X017797Y014028D01*
X017747Y013978D01*
X017647Y013978D02*
X017597Y013928D01*
X017892Y013878D02*
X017942Y013828D01*
X018042Y013828D01*
X018092Y013878D01*
X018092Y014079D01*
X018042Y014129D01*
X017942Y014129D01*
X017892Y014079D01*
X017892Y014028D01*
X017942Y013978D01*
X018092Y013978D01*
X014507Y014788D02*
X014357Y014788D01*
X014307Y014838D01*
X014307Y014938D01*
X014357Y014988D01*
X014507Y014988D01*
X014210Y014788D02*
X014110Y014788D01*
X014160Y014788D02*
X014160Y014988D01*
X014110Y014988D01*
X014015Y014988D02*
X013965Y014988D01*
X013865Y014888D01*
X013865Y014788D02*
X013865Y014988D01*
X013770Y015089D02*
X013570Y015089D01*
X013570Y014788D01*
X013770Y014788D01*
X013670Y014938D02*
X013570Y014938D01*
X013620Y014609D02*
X013570Y014559D01*
X013570Y014508D01*
X013620Y014458D01*
X013770Y014458D01*
X013770Y014358D02*
X013770Y014559D01*
X013720Y014609D01*
X013620Y014609D01*
X013865Y014609D02*
X014065Y014609D01*
X014065Y014559D01*
X013865Y014358D01*
X013865Y014308D01*
X013770Y014358D02*
X013720Y014308D01*
X013620Y014308D01*
X013570Y014358D01*
X013570Y014129D02*
X013570Y013828D01*
X013670Y013928D01*
X013770Y013828D01*
X013570Y013649D02*
X013570Y013398D01*
X014159Y013828D02*
X014159Y014028D01*
X014160Y015089D02*
X014160Y015139D01*
D11*
X004220Y017618D03*
X004220Y018358D03*
X003300Y018358D03*
X003300Y017988D03*
X003300Y017618D03*
X003240Y012048D03*
X003240Y011678D03*
X003240Y011308D03*
X004160Y011308D03*
X004160Y012048D03*
X004160Y024058D03*
X004160Y024798D03*
X003240Y024798D03*
X003240Y024428D03*
X003240Y024058D03*
D12*
X002504Y024048D02*
X001796Y024048D01*
X001796Y025048D02*
X002504Y025048D01*
X002504Y026048D02*
X001796Y026048D01*
X001856Y019608D02*
X002564Y019608D01*
X002564Y018608D02*
X001856Y018608D01*
X001856Y017608D02*
X002564Y017608D01*
X002504Y013298D02*
X001796Y013298D01*
X001796Y012298D02*
X002504Y012298D01*
X002504Y011298D02*
X001796Y011298D01*
X011666Y012048D02*
X012374Y012048D01*
X012374Y013048D02*
X011666Y013048D01*
X015700Y016594D02*
X015700Y017303D01*
X016700Y017303D02*
X016700Y016594D01*
X017700Y016594D02*
X017700Y017303D01*
X012434Y018358D02*
X011726Y018358D01*
X011726Y019358D02*
X012434Y019358D01*
X012374Y024798D02*
X011666Y024798D01*
X011666Y025798D02*
X012374Y025798D01*
X015950Y026464D02*
X015950Y027173D01*
X016950Y027173D02*
X016950Y026464D01*
D13*
X004970Y024289D03*
X004970Y023187D03*
X005030Y017849D03*
X005030Y016747D03*
X004970Y011539D03*
X004970Y010437D03*
D14*
X010740Y014378D03*
X011860Y014378D03*
X011920Y020688D03*
X010800Y020688D03*
X010740Y027128D03*
X011860Y027128D03*
D15*
X010600Y022878D03*
X010660Y016438D03*
X010600Y010128D03*
D16*
X009803Y009754D03*
X009803Y010502D03*
X009863Y016064D03*
X009863Y016812D03*
X009803Y022504D03*
X009803Y023252D03*
D17*
X006490Y024568D03*
X006120Y024568D03*
X005750Y024568D03*
X005750Y025588D03*
X006120Y025588D03*
X006490Y025588D03*
X006550Y019148D03*
X006180Y019148D03*
X005810Y019148D03*
X005810Y018128D03*
X006180Y018128D03*
X006550Y018128D03*
X006490Y012838D03*
X006120Y012838D03*
X005750Y012838D03*
X005750Y011818D03*
X006120Y011818D03*
X006490Y011818D03*
D18*
X005880Y011023D03*
X005880Y010354D03*
X007025Y010518D03*
X007695Y010518D03*
X004955Y012768D03*
X004285Y012768D03*
X004275Y013608D03*
X004945Y013608D03*
X005640Y014054D03*
X005640Y014723D03*
X005940Y016664D03*
X005940Y017333D03*
X007085Y016828D03*
X007755Y016828D03*
X008645Y014558D03*
X009315Y014558D03*
X005015Y019078D03*
X004345Y019078D03*
X004335Y019918D03*
X005005Y019918D03*
X005700Y020364D03*
X005700Y021033D03*
X005880Y023104D03*
X005880Y023773D03*
X007025Y023268D03*
X007695Y023268D03*
X008705Y020868D03*
X009375Y020868D03*
X004955Y025518D03*
X004285Y025518D03*
X004275Y026358D03*
X004945Y026358D03*
X005640Y026804D03*
X005640Y027473D03*
X008645Y027308D03*
X009315Y027308D03*
X014275Y021268D03*
X014945Y021268D03*
X014450Y022124D03*
X014450Y022793D03*
X016195Y024818D03*
X016865Y024818D03*
X016865Y025638D03*
X016195Y025638D03*
X017410Y022743D03*
X017410Y022074D03*
X018565Y023208D03*
X019235Y023208D03*
X018460Y018853D03*
X018460Y018184D03*
X016015Y018408D03*
X015345Y018408D03*
D19*
X015390Y019074D03*
X015390Y019743D03*
X014945Y020438D03*
X014275Y020438D03*
X016230Y019753D03*
X016230Y019084D03*
X017975Y020678D03*
X018645Y020678D03*
X018480Y021824D03*
X018480Y022493D03*
X014440Y023444D03*
X014440Y024113D03*
X010840Y024884D03*
X010840Y025553D03*
X010020Y025553D03*
X010020Y024884D03*
X008410Y023183D03*
X008410Y022514D03*
X008055Y020858D03*
X007385Y020858D03*
X006530Y021033D03*
X006530Y020364D03*
X007335Y017898D03*
X008005Y017898D03*
X008470Y016743D03*
X008470Y016074D03*
X007995Y014548D03*
X007325Y014548D03*
X006470Y014723D03*
X006470Y014054D03*
X007275Y011588D03*
X007945Y011588D03*
X008410Y010433D03*
X008410Y009764D03*
X010020Y012134D03*
X010020Y012803D03*
X010840Y012803D03*
X010840Y012134D03*
X010900Y018444D03*
X010900Y019113D03*
X010080Y019113D03*
X010080Y018444D03*
X007945Y024338D03*
X007275Y024338D03*
X006470Y026804D03*
X006470Y027473D03*
X007325Y027298D03*
X007995Y027298D03*
X004055Y023288D03*
X003385Y023288D03*
X003610Y025734D03*
X003610Y026403D03*
X003670Y019963D03*
X003670Y019294D03*
X003445Y016848D03*
X004115Y016848D03*
X003610Y013653D03*
X003610Y012984D03*
X003385Y010538D03*
X004055Y010538D03*
D20*
X004360Y011658D03*
X005240Y012208D03*
X006490Y011318D03*
X006480Y010688D03*
X009190Y011928D03*
X009830Y010998D03*
X004940Y014238D03*
X003130Y014338D03*
X004420Y017968D03*
X005300Y018518D03*
X006550Y017628D03*
X006540Y016998D03*
X009250Y018238D03*
X009890Y017308D03*
X014660Y017928D03*
X014760Y019738D03*
X016790Y020038D03*
X017340Y019158D03*
X017680Y021288D03*
X018310Y021278D03*
X017070Y023988D03*
X018000Y024628D03*
X009830Y023748D03*
X009190Y024678D03*
X006490Y024068D03*
X006480Y023438D03*
X005240Y024958D03*
X004360Y024408D03*
X004940Y026988D03*
X003130Y027088D03*
X003190Y020648D03*
X005000Y020548D03*
D21*
X008726Y017761D03*
X009474Y017761D03*
X009100Y016895D03*
X009414Y011451D03*
X008666Y011451D03*
X009040Y010585D03*
X009040Y023335D03*
X008666Y024201D03*
X009414Y024201D03*
D22*
X009190Y025058D03*
X009190Y025558D03*
X009190Y026058D03*
X009190Y026558D03*
X007330Y026558D03*
X007330Y026058D03*
X007330Y025558D03*
X007330Y025058D03*
X007390Y020118D03*
X007390Y019618D03*
X007390Y019118D03*
X007390Y018618D03*
X009250Y018618D03*
X009250Y019118D03*
X009250Y019618D03*
X009250Y020118D03*
X009190Y013808D03*
X009190Y013308D03*
X009190Y012808D03*
X009190Y012308D03*
X007330Y012308D03*
X007330Y012808D03*
X007330Y013308D03*
X007330Y013808D03*
D23*
X003810Y013818D02*
X003410Y013818D01*
X003510Y013918D01*
X003710Y013918D01*
X003810Y013818D01*
X003798Y013830D02*
X003422Y013830D01*
X003450Y013858D02*
X003770Y013858D01*
X003741Y013887D02*
X003479Y013887D01*
X003507Y013915D02*
X003713Y013915D01*
X003870Y020128D02*
X003470Y020128D01*
X003570Y020228D01*
X003770Y020228D01*
X003870Y020128D01*
X003470Y020128D01*
X003499Y020157D02*
X003841Y020157D01*
X003813Y020185D02*
X003527Y020185D01*
X003556Y020214D02*
X003784Y020214D01*
X003810Y026568D02*
X003410Y026568D01*
X003510Y026668D01*
X003710Y026668D01*
X003810Y026568D01*
X003809Y026569D02*
X003411Y026569D01*
X003440Y026598D02*
X003780Y026598D01*
X003752Y026626D02*
X003468Y026626D01*
X003497Y026655D02*
X003723Y026655D01*
X015080Y018508D02*
X015180Y018608D01*
X015180Y018208D01*
X015080Y018308D01*
X015080Y018508D01*
X015080Y018504D02*
X015180Y018504D01*
X015180Y018532D02*
X015104Y018532D01*
X015133Y018561D02*
X015180Y018561D01*
X015180Y018589D02*
X015161Y018589D01*
X015180Y018475D02*
X015080Y018475D01*
X015080Y018447D02*
X015180Y018447D01*
X015180Y018418D02*
X015080Y018418D01*
X015080Y018390D02*
X015180Y018390D01*
X015180Y018361D02*
X015080Y018361D01*
X015080Y018333D02*
X015180Y018333D01*
X015180Y018304D02*
X015084Y018304D01*
X015112Y018276D02*
X015180Y018276D01*
X015180Y018247D02*
X015141Y018247D01*
X015169Y018219D02*
X015180Y018219D01*
D24*
X016950Y018038D03*
X017320Y018038D03*
X017690Y018038D03*
X017690Y018958D03*
X016950Y018958D03*
D25*
X017459Y019768D03*
X018561Y019768D03*
D26*
X014620Y025538D03*
X014620Y026658D03*
D27*
X018870Y025398D03*
D28*
X018496Y024601D03*
X019244Y024601D03*
D29*
X017180Y021288D03*
X017180Y020918D03*
X017180Y020548D03*
X016160Y020548D03*
X016160Y020918D03*
X016160Y021288D03*
D30*
X017547Y023464D03*
X017547Y024212D03*
X018413Y023838D03*
D31*
X016690Y023988D03*
X016190Y023988D03*
X015690Y023988D03*
X015190Y023988D03*
X015190Y022128D03*
X015690Y022128D03*
X016190Y022128D03*
X016690Y022128D03*
D32*
X016910Y022103D02*
X017362Y022103D01*
X017362Y022122D02*
X017362Y022025D01*
X017458Y022025D01*
X017458Y021707D01*
X017627Y021707D01*
X017665Y021717D01*
X017699Y021737D01*
X017727Y021765D01*
X017742Y021791D01*
X017742Y021757D01*
X017789Y021644D01*
X017871Y021562D01*
X017870Y021498D01*
X018199Y021500D01*
X018075Y021376D01*
X018075Y021181D01*
X018213Y021043D01*
X018407Y021043D01*
X018545Y021181D01*
X018545Y021203D01*
X018551Y021203D01*
X018596Y021247D01*
X018648Y021283D01*
X018651Y021300D01*
X018664Y021313D01*
X018664Y021376D01*
X018675Y021438D01*
X018665Y021453D01*
X018666Y021502D01*
X018884Y021503D01*
X018884Y021024D01*
X018881Y021025D01*
X018693Y021025D01*
X018693Y020727D01*
X018596Y020727D01*
X018596Y021025D01*
X018408Y021025D01*
X018370Y021015D01*
X018336Y020995D01*
X018308Y020967D01*
X018289Y020934D01*
X018237Y020985D01*
X017923Y020985D01*
X017847Y021055D01*
X017813Y021089D01*
X017915Y021191D01*
X017915Y021386D01*
X017777Y021523D01*
X017583Y021523D01*
X017538Y021478D01*
X017506Y021478D01*
X017476Y021508D01*
X016970Y021508D01*
X016970Y021553D01*
X016974Y021626D01*
X016970Y021631D01*
X016970Y021637D01*
X016918Y021689D01*
X016910Y021698D01*
X016910Y022553D01*
X017103Y022553D01*
X017103Y022481D01*
X017154Y022430D01*
X017121Y022410D01*
X017093Y022382D01*
X017073Y022348D01*
X017063Y022310D01*
X017063Y022122D01*
X017362Y022122D01*
X017458Y022122D02*
X017757Y022122D01*
X017757Y022310D01*
X017747Y022348D01*
X017727Y022382D01*
X017699Y022410D01*
X017666Y022430D01*
X017717Y022481D01*
X017717Y023005D01*
X017652Y023069D01*
X017168Y023069D01*
X017103Y023005D01*
X017103Y022933D01*
X016736Y022933D01*
X016631Y022828D01*
X016520Y022717D01*
X016520Y022614D01*
X016470Y022564D01*
X016470Y021798D01*
X016410Y021798D01*
X016410Y022564D01*
X016346Y022628D01*
X016034Y022628D01*
X015970Y022564D01*
X015970Y022318D01*
X015910Y022318D01*
X015910Y022564D01*
X015846Y022628D01*
X015534Y022628D01*
X015470Y022564D01*
X015470Y021780D01*
X015410Y021714D01*
X015410Y022564D01*
X015346Y022628D01*
X015034Y022628D01*
X014970Y022564D01*
X014970Y022314D01*
X014757Y022314D01*
X014757Y022386D01*
X014706Y022437D01*
X014739Y022456D01*
X014767Y022484D01*
X014787Y022519D01*
X014797Y022557D01*
X014797Y022745D01*
X014498Y022745D01*
X014498Y022841D01*
X014797Y022841D01*
X014797Y023029D01*
X014787Y023067D01*
X014767Y023102D01*
X014739Y023129D01*
X014711Y023146D01*
X014767Y023201D01*
X014767Y023343D01*
X014820Y023290D01*
X014931Y023178D01*
X016639Y023178D01*
X016759Y023298D01*
X016870Y023410D01*
X016870Y023513D01*
X016910Y023553D01*
X016910Y023798D01*
X016928Y023798D01*
X016973Y023753D01*
X017151Y023753D01*
X017132Y023719D01*
X017121Y023681D01*
X017121Y023513D01*
X017498Y023513D01*
X017498Y023416D01*
X017121Y023416D01*
X017121Y023248D01*
X017132Y023210D01*
X017151Y023175D01*
X017179Y023147D01*
X017213Y023128D01*
X017252Y023117D01*
X017499Y023117D01*
X017499Y023416D01*
X017595Y023416D01*
X017595Y023117D01*
X017800Y023117D01*
X017800Y022912D01*
X017797Y022837D01*
X017800Y022834D01*
X017800Y022830D01*
X017853Y022776D01*
X017883Y022744D01*
X017876Y022080D01*
X017875Y022079D01*
X017789Y021993D01*
X017757Y021916D01*
X017757Y022025D01*
X017458Y022025D01*
X017458Y022122D01*
X017458Y022103D02*
X017876Y022103D01*
X017877Y022202D02*
X017757Y022202D01*
X017757Y022300D02*
X017878Y022300D01*
X017879Y022399D02*
X017710Y022399D01*
X017717Y022497D02*
X017881Y022497D01*
X017882Y022596D02*
X017717Y022596D01*
X017717Y022694D02*
X017883Y022694D01*
X017837Y022793D02*
X017717Y022793D01*
X017717Y022891D02*
X017799Y022891D01*
X017800Y022990D02*
X017717Y022990D01*
X017800Y023088D02*
X014775Y023088D01*
X014797Y022990D02*
X017103Y022990D01*
X017145Y023187D02*
X016647Y023187D01*
X016746Y023285D02*
X017121Y023285D01*
X017121Y023384D02*
X016844Y023384D01*
X016870Y023482D02*
X017498Y023482D01*
X017499Y023513D02*
X017499Y023811D01*
X017252Y023811D01*
X017216Y023801D01*
X017305Y023891D01*
X017305Y023905D01*
X017578Y023905D01*
X017668Y023811D01*
X017595Y023811D01*
X017595Y023513D01*
X017499Y023513D01*
X017499Y023581D02*
X017595Y023581D01*
X017595Y023679D02*
X017499Y023679D01*
X017499Y023778D02*
X017595Y023778D01*
X017605Y023876D02*
X017290Y023876D01*
X017151Y023753D02*
X017151Y023753D01*
X017121Y023679D02*
X016910Y023679D01*
X016910Y023581D02*
X017121Y023581D01*
X016948Y023778D02*
X016910Y023778D01*
X016910Y024178D02*
X016910Y024250D01*
X016939Y024278D01*
X017050Y024390D01*
X017050Y024492D01*
X017107Y024492D01*
X017171Y024556D01*
X017171Y025080D01*
X017107Y025145D01*
X016622Y025145D01*
X016558Y025080D01*
X016558Y024556D01*
X016618Y024495D01*
X016611Y024488D01*
X016534Y024488D01*
X016470Y024424D01*
X016470Y023558D01*
X016410Y023558D01*
X016410Y024424D01*
X016380Y024454D01*
X016380Y024492D01*
X016438Y024492D01*
X016502Y024556D01*
X016502Y025080D01*
X016438Y025145D01*
X016385Y025145D01*
X016385Y025312D01*
X016438Y025312D01*
X016502Y025376D01*
X016502Y025900D01*
X016438Y025965D01*
X016095Y025965D01*
X016130Y026000D01*
X016130Y026036D01*
X016213Y026070D01*
X016344Y026201D01*
X016414Y026372D01*
X016414Y027265D01*
X016344Y027436D01*
X016275Y027504D01*
X016625Y027504D01*
X016556Y027436D01*
X016486Y027265D01*
X016486Y026372D01*
X016556Y026201D01*
X016687Y026070D01*
X016858Y026000D01*
X016913Y026000D01*
X016913Y025687D01*
X016816Y025687D01*
X016816Y026005D01*
X016648Y026005D01*
X016610Y025995D01*
X016576Y025975D01*
X016548Y025947D01*
X016528Y025913D01*
X016518Y025875D01*
X016518Y025687D01*
X016816Y025687D01*
X016816Y025590D01*
X016518Y025590D01*
X016518Y025402D01*
X016528Y025364D01*
X016548Y025330D01*
X016576Y025302D01*
X016610Y025282D01*
X016648Y025272D01*
X016816Y025272D01*
X016816Y025590D01*
X016913Y025590D01*
X016913Y025687D01*
X017211Y025687D01*
X017211Y025875D01*
X017201Y025913D01*
X017182Y025947D01*
X017154Y025975D01*
X017119Y025995D01*
X017081Y026005D01*
X017055Y026005D01*
X017213Y026070D01*
X017344Y026201D01*
X017414Y026372D01*
X017414Y026458D01*
X017681Y026458D01*
X017910Y026229D01*
X017903Y024863D01*
X017903Y024863D01*
X017765Y024726D01*
X017765Y024531D01*
X017777Y024519D01*
X017226Y024519D01*
X017161Y024455D01*
X017161Y024223D01*
X016973Y024223D01*
X016928Y024178D01*
X016910Y024178D01*
X016931Y024270D02*
X017161Y024270D01*
X017161Y024369D02*
X017029Y024369D01*
X017050Y024467D02*
X017174Y024467D01*
X017171Y024566D02*
X017765Y024566D01*
X017765Y024664D02*
X017171Y024664D01*
X017171Y024763D02*
X017802Y024763D01*
X017901Y024861D02*
X017171Y024861D01*
X017171Y024960D02*
X017903Y024960D01*
X017904Y025058D02*
X017171Y025058D01*
X017119Y025282D02*
X017154Y025302D01*
X017182Y025330D01*
X017201Y025364D01*
X017211Y025402D01*
X017211Y025590D01*
X016913Y025590D01*
X016913Y025272D01*
X017081Y025272D01*
X017119Y025282D01*
X017195Y025354D02*
X017906Y025354D01*
X017906Y025452D02*
X017211Y025452D01*
X017211Y025551D02*
X017907Y025551D01*
X017907Y025649D02*
X016913Y025649D01*
X016816Y025649D02*
X016502Y025649D01*
X016502Y025551D02*
X016518Y025551D01*
X016518Y025452D02*
X016502Y025452D01*
X016480Y025354D02*
X016534Y025354D01*
X016385Y025255D02*
X017905Y025255D01*
X017904Y025157D02*
X016385Y025157D01*
X016502Y025058D02*
X016558Y025058D01*
X016558Y024960D02*
X016502Y024960D01*
X016502Y024861D02*
X016558Y024861D01*
X016558Y024763D02*
X016502Y024763D01*
X016502Y024664D02*
X016558Y024664D01*
X016558Y024566D02*
X016502Y024566D01*
X016513Y024467D02*
X016380Y024467D01*
X016410Y024369D02*
X016470Y024369D01*
X016470Y024270D02*
X016410Y024270D01*
X016410Y024172D02*
X016470Y024172D01*
X016470Y024073D02*
X016410Y024073D01*
X016410Y023975D02*
X016470Y023975D01*
X016470Y023876D02*
X016410Y023876D01*
X016410Y023778D02*
X016470Y023778D01*
X016470Y023679D02*
X016410Y023679D01*
X016410Y023581D02*
X016470Y023581D01*
X016694Y022891D02*
X014797Y022891D01*
X014797Y022694D02*
X016520Y022694D01*
X016502Y022596D02*
X016378Y022596D01*
X016410Y022497D02*
X016470Y022497D01*
X016470Y022399D02*
X016410Y022399D01*
X016410Y022300D02*
X016470Y022300D01*
X016470Y022202D02*
X016410Y022202D01*
X016410Y022103D02*
X016470Y022103D01*
X016470Y022005D02*
X016410Y022005D01*
X016410Y021906D02*
X016470Y021906D01*
X016470Y021808D02*
X016410Y021808D01*
X016910Y021808D02*
X017071Y021808D01*
X017073Y021799D02*
X017093Y021765D01*
X017121Y021737D01*
X017155Y021717D01*
X017193Y021707D01*
X017362Y021707D01*
X017362Y022025D01*
X017063Y022025D01*
X017063Y021837D01*
X017073Y021799D01*
X017063Y021906D02*
X016910Y021906D01*
X016910Y022005D02*
X017063Y022005D01*
X017063Y022202D02*
X016910Y022202D01*
X016910Y022300D02*
X017063Y022300D01*
X017110Y022399D02*
X016910Y022399D01*
X016910Y022497D02*
X017103Y022497D01*
X017362Y022005D02*
X017458Y022005D01*
X017458Y021906D02*
X017362Y021906D01*
X017362Y021808D02*
X017458Y021808D01*
X017458Y021709D02*
X017362Y021709D01*
X017185Y021709D02*
X016910Y021709D01*
X016973Y021611D02*
X017822Y021611D01*
X017788Y021512D02*
X017870Y021512D01*
X017887Y021414D02*
X018113Y021414D01*
X018075Y021315D02*
X017915Y021315D01*
X017915Y021217D02*
X018075Y021217D01*
X018138Y021118D02*
X017842Y021118D01*
X017885Y021020D02*
X018389Y021020D01*
X018482Y021118D02*
X018884Y021118D01*
X018884Y021217D02*
X018565Y021217D01*
X018664Y021315D02*
X018884Y021315D01*
X018884Y021414D02*
X018671Y021414D01*
X018693Y021020D02*
X018596Y021020D01*
X018596Y020921D02*
X018693Y020921D01*
X018693Y020823D02*
X018596Y020823D01*
X018596Y020630D02*
X018693Y020630D01*
X018693Y020331D01*
X018881Y020331D01*
X018884Y020332D01*
X018884Y020273D01*
X018611Y020273D01*
X018611Y019818D01*
X018511Y019818D01*
X018511Y019718D01*
X018611Y019718D01*
X018611Y019264D01*
X018884Y019264D01*
X018884Y017471D01*
X018701Y017288D01*
X018164Y017288D01*
X018164Y017395D01*
X018094Y017566D01*
X017963Y017696D01*
X017900Y017722D01*
X017910Y017733D01*
X017910Y018344D01*
X017846Y018408D01*
X017534Y018408D01*
X017533Y018407D01*
X017522Y018418D01*
X017488Y018438D01*
X017450Y018448D01*
X017325Y018448D01*
X017325Y018043D01*
X017315Y018043D01*
X017315Y018448D01*
X017190Y018448D01*
X017152Y018438D01*
X017118Y018418D01*
X017107Y018407D01*
X017106Y018408D01*
X016794Y018408D01*
X016730Y018344D01*
X016730Y017733D01*
X016750Y017713D01*
X016750Y016998D01*
X017204Y016998D01*
X017204Y017342D01*
X017200Y017368D01*
X017236Y017368D01*
X017236Y016502D01*
X017306Y016331D01*
X017434Y016203D01*
X017020Y016203D01*
X017029Y016209D01*
X017085Y016265D01*
X017131Y016330D01*
X017167Y016400D01*
X017192Y016476D01*
X017204Y016554D01*
X017204Y016898D01*
X016750Y016898D01*
X016750Y016998D01*
X016650Y016998D01*
X016650Y016898D01*
X016196Y016898D01*
X016196Y016554D01*
X016208Y016476D01*
X016233Y016400D01*
X016269Y016330D01*
X016315Y016265D01*
X016371Y016209D01*
X016380Y016203D01*
X015966Y016203D01*
X016094Y016331D01*
X016164Y016502D01*
X016164Y017395D01*
X016094Y017566D01*
X016035Y017624D01*
X016099Y017688D01*
X016210Y017800D01*
X016210Y018082D01*
X016257Y018082D01*
X016321Y018146D01*
X016321Y018670D01*
X016257Y018735D01*
X015772Y018735D01*
X015708Y018670D01*
X015708Y018146D01*
X015772Y018082D01*
X015830Y018082D01*
X015830Y017957D01*
X015640Y017767D01*
X015608Y017767D01*
X015437Y017696D01*
X015306Y017566D01*
X015236Y017395D01*
X015236Y016859D01*
X015139Y017092D01*
X014944Y017287D01*
X014688Y017393D01*
X014412Y017393D01*
X014156Y017287D01*
X014049Y017181D01*
X014049Y020131D01*
X014537Y020131D01*
X014602Y020196D01*
X014602Y020681D01*
X014537Y020745D01*
X014465Y020745D01*
X014465Y020942D01*
X014518Y020942D01*
X014582Y021006D01*
X014582Y021530D01*
X014518Y021595D01*
X014286Y021595D01*
X014270Y021610D01*
X014270Y021797D01*
X014692Y021797D01*
X014757Y021862D01*
X014757Y021934D01*
X014970Y021934D01*
X014970Y021693D01*
X015000Y021663D01*
X015000Y021637D01*
X014958Y021595D01*
X014702Y021595D01*
X014638Y021530D01*
X014638Y021006D01*
X014702Y020942D01*
X015048Y020942D01*
X014871Y020745D01*
X014683Y020745D01*
X014618Y020681D01*
X014618Y020196D01*
X014683Y020131D01*
X015207Y020131D01*
X015271Y020196D01*
X015271Y020622D01*
X015438Y020808D01*
X015490Y020860D01*
X015490Y020865D01*
X015494Y020870D01*
X015492Y020910D01*
X015589Y020870D01*
X015711Y020870D01*
X015760Y020890D01*
X015760Y020789D01*
X015770Y020750D01*
X015790Y020716D01*
X015801Y020705D01*
X015800Y020704D01*
X015800Y020393D01*
X015864Y020328D01*
X016040Y020328D01*
X016040Y020060D01*
X015968Y020060D01*
X015903Y019995D01*
X015903Y019933D01*
X015717Y019933D01*
X015717Y019985D01*
X015652Y020050D01*
X015128Y020050D01*
X015063Y019985D01*
X015063Y019933D01*
X014898Y019933D01*
X014857Y019973D01*
X014663Y019973D01*
X014525Y019836D01*
X014525Y019641D01*
X014663Y019503D01*
X014857Y019503D01*
X014907Y019553D01*
X015063Y019553D01*
X015063Y019501D01*
X015128Y019436D01*
X015652Y019436D01*
X015717Y019501D01*
X015717Y019553D01*
X015903Y019553D01*
X015903Y019511D01*
X015968Y019446D01*
X016492Y019446D01*
X016557Y019511D01*
X016557Y019939D01*
X016693Y019803D01*
X016887Y019803D01*
X017025Y019941D01*
X017025Y020136D01*
X016980Y020181D01*
X016980Y020328D01*
X017476Y020328D01*
X017540Y020393D01*
X017540Y020704D01*
X017516Y020728D01*
X017641Y020728D01*
X017649Y020721D01*
X017649Y020436D01*
X017713Y020371D01*
X017764Y020371D01*
X017626Y020233D01*
X017098Y020233D01*
X017034Y020168D01*
X017034Y019368D01*
X017074Y019328D01*
X016794Y019328D01*
X016730Y019264D01*
X016730Y018653D01*
X016794Y018588D01*
X017106Y018588D01*
X017170Y018653D01*
X017170Y018768D01*
X017219Y018768D01*
X017374Y018923D01*
X017437Y018923D01*
X017470Y018956D01*
X017470Y018653D01*
X017534Y018588D01*
X017846Y018588D01*
X017910Y018653D01*
X017910Y018768D01*
X018153Y018768D01*
X018153Y018591D01*
X018204Y018540D01*
X018171Y018520D01*
X018143Y018492D01*
X018123Y018458D01*
X018113Y018420D01*
X018113Y018232D01*
X018412Y018232D01*
X018412Y018135D01*
X018508Y018135D01*
X018508Y017817D01*
X018677Y017817D01*
X018715Y017827D01*
X018749Y017847D01*
X018777Y017875D01*
X018797Y017909D01*
X018807Y017947D01*
X018807Y018135D01*
X018508Y018135D01*
X018508Y018232D01*
X018807Y018232D01*
X018807Y018420D01*
X018797Y018458D01*
X018777Y018492D01*
X018749Y018520D01*
X018716Y018540D01*
X018767Y018591D01*
X018767Y018882D01*
X018780Y018920D01*
X018767Y018947D01*
X018767Y019115D01*
X018702Y019179D01*
X018218Y019179D01*
X018186Y019148D01*
X017910Y019148D01*
X017910Y019264D01*
X017846Y019328D01*
X017844Y019328D01*
X017884Y019368D01*
X017884Y019953D01*
X018049Y020118D01*
X018105Y020174D01*
X018096Y020142D01*
X018096Y019818D01*
X018511Y019818D01*
X018511Y020273D01*
X018226Y020273D01*
X018188Y020262D01*
X018160Y020246D01*
X018160Y020371D01*
X018237Y020371D01*
X018289Y020423D01*
X018308Y020389D01*
X018336Y020361D01*
X018370Y020342D01*
X018408Y020331D01*
X018596Y020331D01*
X018596Y020630D01*
X018596Y020626D02*
X018693Y020626D01*
X018693Y020527D02*
X018596Y020527D01*
X018596Y020429D02*
X018693Y020429D01*
X018611Y020232D02*
X018511Y020232D01*
X018511Y020133D02*
X018611Y020133D01*
X018611Y020035D02*
X018511Y020035D01*
X018511Y019936D02*
X018611Y019936D01*
X018611Y019838D02*
X018511Y019838D01*
X018511Y019739D02*
X017884Y019739D01*
X017884Y019641D02*
X018096Y019641D01*
X018096Y019718D02*
X018096Y019394D01*
X018106Y019356D01*
X018126Y019322D01*
X018154Y019294D01*
X018188Y019274D01*
X018226Y019264D01*
X018511Y019264D01*
X018511Y019718D01*
X018096Y019718D01*
X018096Y019838D02*
X017884Y019838D01*
X017884Y019936D02*
X018096Y019936D01*
X018096Y020035D02*
X017965Y020035D01*
X018064Y020133D02*
X018096Y020133D01*
X018160Y020330D02*
X018884Y020330D01*
X018611Y019641D02*
X018511Y019641D01*
X018511Y019542D02*
X018611Y019542D01*
X018611Y019444D02*
X018511Y019444D01*
X018511Y019345D02*
X018611Y019345D01*
X018734Y019148D02*
X018884Y019148D01*
X018884Y019050D02*
X018767Y019050D01*
X018767Y018951D02*
X018884Y018951D01*
X018884Y018853D02*
X018767Y018853D01*
X018767Y018754D02*
X018884Y018754D01*
X018884Y018656D02*
X018767Y018656D01*
X018733Y018557D02*
X018884Y018557D01*
X018884Y018459D02*
X018796Y018459D01*
X018807Y018360D02*
X018884Y018360D01*
X018884Y018262D02*
X018807Y018262D01*
X018884Y018163D02*
X018508Y018163D01*
X018412Y018163D02*
X017910Y018163D01*
X017910Y018065D02*
X018113Y018065D01*
X018113Y018135D02*
X018113Y017947D01*
X018123Y017909D01*
X018143Y017875D01*
X018171Y017847D01*
X018205Y017827D01*
X018243Y017817D01*
X018412Y017817D01*
X018412Y018135D01*
X018113Y018135D01*
X018113Y018262D02*
X017910Y018262D01*
X017894Y018360D02*
X018113Y018360D01*
X018124Y018459D02*
X016321Y018459D01*
X016321Y018557D02*
X018187Y018557D01*
X018153Y018656D02*
X017910Y018656D01*
X017910Y018754D02*
X018153Y018754D01*
X018186Y019148D02*
X017910Y019148D01*
X017910Y019247D02*
X018884Y019247D01*
X018113Y019345D02*
X017861Y019345D01*
X017884Y019444D02*
X018096Y019444D01*
X018096Y019542D02*
X017884Y019542D01*
X017470Y018951D02*
X017465Y018951D01*
X017470Y018853D02*
X017303Y018853D01*
X017170Y018754D02*
X017470Y018754D01*
X017470Y018656D02*
X017170Y018656D01*
X017315Y018360D02*
X017325Y018360D01*
X017315Y018262D02*
X017325Y018262D01*
X017315Y018163D02*
X017325Y018163D01*
X017315Y018065D02*
X017325Y018065D01*
X017910Y017966D02*
X018113Y017966D01*
X018150Y017868D02*
X017910Y017868D01*
X017910Y017769D02*
X018884Y017769D01*
X018884Y017671D02*
X017988Y017671D01*
X018087Y017572D02*
X018884Y017572D01*
X018884Y017474D02*
X018132Y017474D01*
X018164Y017375D02*
X018788Y017375D01*
X018770Y017868D02*
X018884Y017868D01*
X018884Y017966D02*
X018807Y017966D01*
X018807Y018065D02*
X018884Y018065D01*
X018508Y018065D02*
X018412Y018065D01*
X018412Y017966D02*
X018508Y017966D01*
X018508Y017868D02*
X018412Y017868D01*
X017236Y017277D02*
X017204Y017277D01*
X017204Y017178D02*
X017236Y017178D01*
X017236Y017080D02*
X017204Y017080D01*
X017236Y016981D02*
X016750Y016981D01*
X016750Y017080D02*
X016650Y017080D01*
X016650Y016998D02*
X016650Y017805D01*
X016582Y017795D01*
X016506Y017770D01*
X016436Y017734D01*
X016371Y017687D01*
X016315Y017631D01*
X016269Y017567D01*
X016233Y017496D01*
X016208Y017421D01*
X016196Y017342D01*
X016196Y016998D01*
X016650Y016998D01*
X016650Y016981D02*
X016164Y016981D01*
X016164Y016883D02*
X016196Y016883D01*
X016196Y016784D02*
X016164Y016784D01*
X016164Y016686D02*
X016196Y016686D01*
X016196Y016587D02*
X016164Y016587D01*
X016159Y016489D02*
X016206Y016489D01*
X016238Y016390D02*
X016118Y016390D01*
X016055Y016292D02*
X016296Y016292D01*
X016196Y017080D02*
X016164Y017080D01*
X016164Y017178D02*
X016196Y017178D01*
X016196Y017277D02*
X016164Y017277D01*
X016164Y017375D02*
X016201Y017375D01*
X016225Y017474D02*
X016132Y017474D01*
X016087Y017572D02*
X016273Y017572D01*
X016355Y017671D02*
X016081Y017671D01*
X016180Y017769D02*
X016505Y017769D01*
X016650Y017769D02*
X016730Y017769D01*
X016730Y017868D02*
X016210Y017868D01*
X016210Y017966D02*
X016730Y017966D01*
X016730Y018065D02*
X016210Y018065D01*
X016321Y018163D02*
X016730Y018163D01*
X016730Y018262D02*
X016321Y018262D01*
X016321Y018360D02*
X016746Y018360D01*
X016730Y018656D02*
X016321Y018656D01*
X016278Y018737D02*
X016466Y018737D01*
X016504Y018747D01*
X016539Y018767D01*
X016567Y018795D01*
X016586Y018829D01*
X016597Y018867D01*
X016597Y019035D01*
X016278Y019035D01*
X016278Y018737D01*
X016278Y018754D02*
X016182Y018754D01*
X016182Y018737D02*
X016182Y019035D01*
X016278Y019035D01*
X016278Y019132D01*
X016182Y019132D01*
X016182Y019430D01*
X015994Y019430D01*
X015956Y019420D01*
X015921Y019401D01*
X015893Y019373D01*
X015874Y019338D01*
X015863Y019300D01*
X015863Y019132D01*
X016182Y019132D01*
X016182Y019035D01*
X015863Y019035D01*
X015863Y018867D01*
X015874Y018829D01*
X015893Y018795D01*
X015921Y018767D01*
X015956Y018747D01*
X015994Y018737D01*
X016182Y018737D01*
X016182Y018853D02*
X016278Y018853D01*
X016278Y018951D02*
X016182Y018951D01*
X016182Y019050D02*
X015717Y019050D01*
X015717Y019148D02*
X015863Y019148D01*
X015863Y019247D02*
X015717Y019247D01*
X015717Y019316D02*
X015652Y019380D01*
X015128Y019380D01*
X015063Y019316D01*
X015063Y018831D01*
X015128Y018767D01*
X015155Y018767D01*
X015155Y018735D01*
X015103Y018735D01*
X015039Y018670D01*
X015039Y018644D01*
X014955Y018560D01*
X014955Y018257D01*
X015028Y018183D01*
X015039Y018173D01*
X015039Y018146D01*
X015103Y018082D01*
X015588Y018082D01*
X015652Y018146D01*
X015652Y018670D01*
X015588Y018735D01*
X015535Y018735D01*
X015535Y018767D01*
X015652Y018767D01*
X015717Y018831D01*
X015717Y019316D01*
X015687Y019345D02*
X015878Y019345D01*
X015903Y019542D02*
X015717Y019542D01*
X015660Y019444D02*
X017034Y019444D01*
X017034Y019542D02*
X016557Y019542D01*
X016557Y019641D02*
X017034Y019641D01*
X017034Y019739D02*
X016557Y019739D01*
X016557Y019838D02*
X016658Y019838D01*
X016560Y019936D02*
X016557Y019936D01*
X016466Y019430D02*
X016278Y019430D01*
X016278Y019132D01*
X016597Y019132D01*
X016597Y019300D01*
X016586Y019338D01*
X016567Y019373D01*
X016539Y019401D01*
X016504Y019420D01*
X016466Y019430D01*
X016582Y019345D02*
X017057Y019345D01*
X016730Y019247D02*
X016597Y019247D01*
X016597Y019148D02*
X016730Y019148D01*
X016730Y019050D02*
X016278Y019050D01*
X016278Y019148D02*
X016182Y019148D01*
X016182Y019247D02*
X016278Y019247D01*
X016278Y019345D02*
X016182Y019345D01*
X015863Y018951D02*
X015717Y018951D01*
X015717Y018853D02*
X015867Y018853D01*
X015943Y018754D02*
X015535Y018754D01*
X015652Y018656D02*
X015708Y018656D01*
X015708Y018557D02*
X015652Y018557D01*
X015652Y018459D02*
X015708Y018459D01*
X015708Y018360D02*
X015652Y018360D01*
X015652Y018262D02*
X015708Y018262D01*
X015708Y018163D02*
X015652Y018163D01*
X015830Y018065D02*
X014900Y018065D01*
X014904Y018059D02*
X014874Y018104D01*
X014835Y018142D01*
X014790Y018172D01*
X014740Y018193D01*
X014687Y018203D01*
X014673Y018203D01*
X014673Y017941D01*
X014935Y017941D01*
X014935Y017955D01*
X014924Y018009D01*
X014904Y018059D01*
X014933Y017966D02*
X015830Y017966D01*
X015741Y017868D02*
X014928Y017868D01*
X014924Y017848D02*
X014935Y017901D01*
X014935Y017916D01*
X014673Y017916D01*
X014673Y017941D01*
X014647Y017941D01*
X014647Y017916D01*
X014385Y017916D01*
X014385Y017901D01*
X014396Y017848D01*
X014416Y017798D01*
X014446Y017753D01*
X014485Y017715D01*
X014530Y017685D01*
X014580Y017664D01*
X014633Y017653D01*
X014647Y017653D01*
X014647Y017916D01*
X014673Y017916D01*
X014673Y017653D01*
X014687Y017653D01*
X014740Y017664D01*
X014790Y017685D01*
X014835Y017715D01*
X014874Y017753D01*
X014904Y017798D01*
X014924Y017848D01*
X014885Y017769D02*
X015642Y017769D01*
X015412Y017671D02*
X014757Y017671D01*
X014673Y017671D02*
X014647Y017671D01*
X014563Y017671D02*
X014049Y017671D01*
X014049Y017769D02*
X014435Y017769D01*
X014392Y017868D02*
X014049Y017868D01*
X014049Y017966D02*
X014387Y017966D01*
X014385Y017955D02*
X014385Y017941D01*
X014647Y017941D01*
X014647Y018203D01*
X014633Y018203D01*
X014580Y018193D01*
X014530Y018172D01*
X014485Y018142D01*
X014446Y018104D01*
X014416Y018059D01*
X014396Y018009D01*
X014385Y017955D01*
X014420Y018065D02*
X014049Y018065D01*
X014049Y018163D02*
X014517Y018163D01*
X014647Y018163D02*
X014673Y018163D01*
X014673Y018065D02*
X014647Y018065D01*
X014647Y017966D02*
X014673Y017966D01*
X014673Y017868D02*
X014647Y017868D01*
X014647Y017769D02*
X014673Y017769D01*
X014732Y017375D02*
X015236Y017375D01*
X015236Y017277D02*
X014954Y017277D01*
X015053Y017178D02*
X015236Y017178D01*
X015236Y017080D02*
X015144Y017080D01*
X015185Y016981D02*
X015236Y016981D01*
X015226Y016883D02*
X015236Y016883D01*
X015268Y017474D02*
X014049Y017474D01*
X014049Y017572D02*
X015313Y017572D01*
X015039Y018163D02*
X014803Y018163D01*
X014955Y018262D02*
X014049Y018262D01*
X014049Y018360D02*
X014955Y018360D01*
X014955Y018459D02*
X014049Y018459D01*
X014049Y018557D02*
X014955Y018557D01*
X015039Y018656D02*
X014049Y018656D01*
X014049Y018754D02*
X015155Y018754D01*
X015063Y018853D02*
X014049Y018853D01*
X014049Y018951D02*
X015063Y018951D01*
X015063Y019050D02*
X014049Y019050D01*
X014049Y019148D02*
X015063Y019148D01*
X015063Y019247D02*
X014049Y019247D01*
X014049Y019345D02*
X015093Y019345D01*
X015120Y019444D02*
X014049Y019444D01*
X014049Y019542D02*
X014624Y019542D01*
X014525Y019641D02*
X014049Y019641D01*
X014049Y019739D02*
X014525Y019739D01*
X014527Y019838D02*
X014049Y019838D01*
X014049Y019936D02*
X014626Y019936D01*
X014681Y020133D02*
X014539Y020133D01*
X014602Y020232D02*
X014618Y020232D01*
X014618Y020330D02*
X014602Y020330D01*
X014602Y020429D02*
X014618Y020429D01*
X014618Y020527D02*
X014602Y020527D01*
X014602Y020626D02*
X014618Y020626D01*
X014662Y020724D02*
X014558Y020724D01*
X014465Y020823D02*
X014941Y020823D01*
X015029Y020921D02*
X014465Y020921D01*
X014582Y021020D02*
X014638Y021020D01*
X014638Y021118D02*
X014582Y021118D01*
X014582Y021217D02*
X014638Y021217D01*
X014638Y021315D02*
X014582Y021315D01*
X014582Y021414D02*
X014638Y021414D01*
X014638Y021512D02*
X014582Y021512D01*
X014703Y021808D02*
X014970Y021808D01*
X014970Y021906D02*
X014757Y021906D01*
X014970Y021709D02*
X014270Y021709D01*
X014270Y021611D02*
X014974Y021611D01*
X015410Y021808D02*
X015470Y021808D01*
X015470Y021906D02*
X015410Y021906D01*
X015410Y022005D02*
X015470Y022005D01*
X015470Y022103D02*
X015410Y022103D01*
X015410Y022202D02*
X015470Y022202D01*
X015470Y022300D02*
X015410Y022300D01*
X015410Y022399D02*
X015470Y022399D01*
X015470Y022497D02*
X015410Y022497D01*
X015378Y022596D02*
X015502Y022596D01*
X015878Y022596D02*
X016002Y022596D01*
X015970Y022497D02*
X015910Y022497D01*
X015910Y022399D02*
X015970Y022399D01*
X016596Y022793D02*
X014498Y022793D01*
X014797Y022596D02*
X015002Y022596D01*
X014970Y022497D02*
X014774Y022497D01*
X014744Y022399D02*
X014970Y022399D01*
X014923Y023187D02*
X014752Y023187D01*
X014767Y023285D02*
X014824Y023285D01*
X014660Y023750D02*
X014178Y023750D01*
X014113Y023686D01*
X014113Y023594D01*
X014073Y023550D01*
X014049Y023526D01*
X014049Y027504D01*
X015625Y027504D01*
X015556Y027436D01*
X015486Y027265D01*
X015486Y027018D01*
X015085Y027018D01*
X015085Y027019D01*
X015020Y027083D01*
X014220Y027083D01*
X014155Y027019D01*
X014155Y026298D01*
X014220Y026233D01*
X015020Y026233D01*
X015085Y026298D01*
X015516Y026298D01*
X015556Y026201D01*
X015675Y026082D01*
X015500Y025907D01*
X015500Y024454D01*
X015470Y024424D01*
X015470Y023558D01*
X015445Y023558D01*
X015450Y023579D01*
X015450Y023983D01*
X015195Y023983D01*
X015195Y023993D01*
X015450Y023993D01*
X015450Y024398D01*
X015440Y024436D01*
X015420Y024470D01*
X015392Y024498D01*
X015358Y024518D01*
X015320Y024528D01*
X015195Y024528D01*
X015195Y023993D01*
X015185Y023993D01*
X015185Y024528D01*
X015060Y024528D01*
X015022Y024518D01*
X014988Y024498D01*
X014960Y024470D01*
X014940Y024436D01*
X014930Y024398D01*
X014930Y024097D01*
X014929Y024098D01*
X014767Y024260D01*
X014767Y024355D01*
X014702Y024420D01*
X014178Y024420D01*
X014113Y024355D01*
X014113Y023871D01*
X014178Y023806D01*
X014660Y023806D01*
X014660Y023750D01*
X014660Y023778D02*
X014049Y023778D01*
X014049Y023876D02*
X014113Y023876D01*
X014113Y023975D02*
X014049Y023975D01*
X014049Y024073D02*
X014113Y024073D01*
X014113Y024172D02*
X014049Y024172D01*
X014049Y024270D02*
X014113Y024270D01*
X014127Y024369D02*
X014049Y024369D01*
X014049Y024467D02*
X014958Y024467D01*
X014930Y024369D02*
X014753Y024369D01*
X014767Y024270D02*
X014930Y024270D01*
X014930Y024172D02*
X014855Y024172D01*
X015185Y024172D02*
X015195Y024172D01*
X015185Y024270D02*
X015195Y024270D01*
X015185Y024369D02*
X015195Y024369D01*
X015185Y024467D02*
X015195Y024467D01*
X015422Y024467D02*
X015500Y024467D01*
X015500Y024566D02*
X014049Y024566D01*
X014049Y024664D02*
X015500Y024664D01*
X015500Y024763D02*
X014049Y024763D01*
X014049Y024861D02*
X015500Y024861D01*
X015500Y024960D02*
X014049Y024960D01*
X014049Y025058D02*
X015500Y025058D01*
X015500Y025157D02*
X015110Y025157D01*
X015115Y025166D02*
X015125Y025204D01*
X015125Y025488D01*
X014670Y025488D01*
X014670Y025073D01*
X014995Y025073D01*
X015033Y025084D01*
X015067Y025103D01*
X015095Y025131D01*
X015115Y025166D01*
X015125Y025255D02*
X015500Y025255D01*
X015500Y025354D02*
X015125Y025354D01*
X015125Y025452D02*
X015500Y025452D01*
X015500Y025551D02*
X014670Y025551D01*
X014670Y025588D02*
X015125Y025588D01*
X015125Y025873D01*
X015115Y025911D01*
X015095Y025946D01*
X015067Y025973D01*
X015033Y025993D01*
X014995Y026003D01*
X014670Y026003D01*
X014670Y025588D01*
X014670Y025488D01*
X014570Y025488D01*
X014570Y025073D01*
X014245Y025073D01*
X014207Y025084D01*
X014173Y025103D01*
X014145Y025131D01*
X014125Y025166D01*
X014115Y025204D01*
X014115Y025488D01*
X014570Y025488D01*
X014570Y025588D01*
X014115Y025588D01*
X014115Y025873D01*
X014125Y025911D01*
X014145Y025946D01*
X014173Y025973D01*
X014207Y025993D01*
X014245Y026003D01*
X014570Y026003D01*
X014570Y025588D01*
X014670Y025588D01*
X014670Y025649D02*
X014570Y025649D01*
X014570Y025551D02*
X014049Y025551D01*
X014049Y025649D02*
X014115Y025649D01*
X014115Y025748D02*
X014049Y025748D01*
X014049Y025846D02*
X014115Y025846D01*
X014145Y025945D02*
X014049Y025945D01*
X014049Y026043D02*
X015636Y026043D01*
X015615Y026142D02*
X014049Y026142D01*
X014049Y026240D02*
X014212Y026240D01*
X014155Y026339D02*
X014049Y026339D01*
X014049Y026437D02*
X014155Y026437D01*
X014155Y026536D02*
X014049Y026536D01*
X014049Y026634D02*
X014155Y026634D01*
X014155Y026733D02*
X014049Y026733D01*
X014049Y026831D02*
X014155Y026831D01*
X014155Y026930D02*
X014049Y026930D01*
X014049Y027028D02*
X014165Y027028D01*
X014049Y027127D02*
X015486Y027127D01*
X015486Y027225D02*
X014049Y027225D01*
X014049Y027324D02*
X015510Y027324D01*
X015551Y027422D02*
X014049Y027422D01*
X015075Y027028D02*
X015486Y027028D01*
X015540Y026240D02*
X015028Y026240D01*
X015085Y026298D02*
X015085Y026298D01*
X015095Y025945D02*
X015538Y025945D01*
X015500Y025846D02*
X015125Y025846D01*
X015125Y025748D02*
X015500Y025748D01*
X015500Y025649D02*
X015125Y025649D01*
X014670Y025748D02*
X014570Y025748D01*
X014570Y025846D02*
X014670Y025846D01*
X014670Y025945D02*
X014570Y025945D01*
X014570Y025452D02*
X014670Y025452D01*
X014670Y025354D02*
X014570Y025354D01*
X014570Y025255D02*
X014670Y025255D01*
X014670Y025157D02*
X014570Y025157D01*
X014130Y025157D02*
X014049Y025157D01*
X014049Y025255D02*
X014115Y025255D01*
X014115Y025354D02*
X014049Y025354D01*
X014049Y025452D02*
X014115Y025452D01*
X015185Y024073D02*
X015195Y024073D01*
X015450Y024073D02*
X015470Y024073D01*
X015470Y023975D02*
X015450Y023975D01*
X015450Y023876D02*
X015470Y023876D01*
X015470Y023778D02*
X015450Y023778D01*
X015450Y023679D02*
X015470Y023679D01*
X015470Y023581D02*
X015450Y023581D01*
X015450Y024172D02*
X015470Y024172D01*
X015470Y024270D02*
X015450Y024270D01*
X015450Y024369D02*
X015470Y024369D01*
X016502Y025748D02*
X016518Y025748D01*
X016518Y025846D02*
X016502Y025846D01*
X016458Y025945D02*
X016547Y025945D01*
X016615Y026142D02*
X016285Y026142D01*
X016360Y026240D02*
X016540Y026240D01*
X016499Y026339D02*
X016401Y026339D01*
X016414Y026437D02*
X016486Y026437D01*
X016486Y026536D02*
X016414Y026536D01*
X016414Y026634D02*
X016486Y026634D01*
X016486Y026733D02*
X016414Y026733D01*
X016414Y026831D02*
X016486Y026831D01*
X016486Y026930D02*
X016414Y026930D01*
X016414Y027028D02*
X016486Y027028D01*
X016486Y027127D02*
X016414Y027127D01*
X016414Y027225D02*
X016486Y027225D01*
X016510Y027324D02*
X016390Y027324D01*
X016349Y027422D02*
X016551Y027422D01*
X017414Y026437D02*
X017702Y026437D01*
X017800Y026339D02*
X017401Y026339D01*
X017360Y026240D02*
X017899Y026240D01*
X017910Y026142D02*
X017285Y026142D01*
X017148Y026043D02*
X017909Y026043D01*
X017909Y025945D02*
X017183Y025945D01*
X017211Y025846D02*
X017908Y025846D01*
X017908Y025748D02*
X017211Y025748D01*
X016913Y025748D02*
X016816Y025748D01*
X016816Y025846D02*
X016913Y025846D01*
X016913Y025945D02*
X016816Y025945D01*
X016752Y026043D02*
X016148Y026043D01*
X016816Y025551D02*
X016913Y025551D01*
X016913Y025452D02*
X016816Y025452D01*
X016816Y025354D02*
X016913Y025354D01*
X016939Y024278D02*
X016939Y024278D01*
X017499Y023384D02*
X017595Y023384D01*
X017595Y023285D02*
X017499Y023285D01*
X017499Y023187D02*
X017595Y023187D01*
X018191Y023187D02*
X018259Y023187D01*
X018259Y023285D02*
X018194Y023285D01*
X018197Y023384D02*
X018236Y023384D01*
X018259Y023361D02*
X018198Y023421D01*
X018184Y022979D01*
X018350Y022800D01*
X018742Y022800D01*
X018807Y022735D01*
X018807Y022251D01*
X018742Y022186D01*
X018218Y022186D01*
X018182Y022222D01*
X018187Y022099D01*
X018218Y022130D01*
X018742Y022130D01*
X018807Y022066D01*
X018807Y021728D01*
X019445Y021728D01*
X019445Y022842D01*
X019283Y022842D01*
X019283Y023160D01*
X019186Y023160D01*
X018888Y023160D01*
X018888Y022972D01*
X018898Y022934D01*
X018918Y022900D01*
X018946Y022872D01*
X018980Y022852D01*
X019018Y022842D01*
X019186Y022842D01*
X019186Y023160D01*
X019186Y023257D01*
X019186Y023575D01*
X019018Y023575D01*
X018980Y023565D01*
X018946Y023545D01*
X018918Y023517D01*
X018898Y023483D01*
X018888Y023445D01*
X018888Y023257D01*
X019186Y023257D01*
X019283Y023257D01*
X019283Y023575D01*
X019445Y023575D01*
X019445Y024156D01*
X019292Y024156D01*
X019292Y024553D01*
X019196Y024553D01*
X019196Y024156D01*
X019027Y024156D01*
X018989Y024166D01*
X018955Y024186D01*
X018927Y024214D01*
X018907Y024248D01*
X018897Y024286D01*
X018897Y024553D01*
X019196Y024553D01*
X019196Y024649D01*
X018897Y024649D01*
X018897Y024885D01*
X018803Y024885D01*
X018803Y024260D01*
X018738Y024196D01*
X018690Y024196D01*
X018690Y024145D01*
X018734Y024145D01*
X018799Y024081D01*
X018799Y023596D01*
X018738Y023535D01*
X018808Y023535D01*
X018872Y023470D01*
X018872Y022946D01*
X018808Y022882D01*
X018323Y022882D01*
X018259Y022946D01*
X018259Y023361D01*
X018259Y023088D02*
X018187Y023088D01*
X018184Y022990D02*
X018259Y022990D01*
X018265Y022891D02*
X018313Y022891D01*
X018749Y022793D02*
X019445Y022793D01*
X019445Y022694D02*
X018807Y022694D01*
X018807Y022596D02*
X019445Y022596D01*
X019445Y022497D02*
X018807Y022497D01*
X018807Y022399D02*
X019445Y022399D01*
X019445Y022300D02*
X018807Y022300D01*
X018758Y022202D02*
X019445Y022202D01*
X019445Y022103D02*
X018769Y022103D01*
X018807Y022005D02*
X019445Y022005D01*
X019445Y021906D02*
X018807Y021906D01*
X018807Y021808D02*
X019445Y021808D01*
X019283Y022891D02*
X019186Y022891D01*
X019186Y022990D02*
X019283Y022990D01*
X019283Y023088D02*
X019186Y023088D01*
X019186Y023187D02*
X018872Y023187D01*
X018872Y023285D02*
X018888Y023285D01*
X018888Y023384D02*
X018872Y023384D01*
X018860Y023482D02*
X018898Y023482D01*
X018784Y023581D02*
X019445Y023581D01*
X019445Y023679D02*
X018799Y023679D01*
X018799Y023778D02*
X019445Y023778D01*
X019445Y023876D02*
X018799Y023876D01*
X018799Y023975D02*
X019445Y023975D01*
X019445Y024073D02*
X018799Y024073D01*
X018690Y024172D02*
X018979Y024172D01*
X018901Y024270D02*
X018803Y024270D01*
X018803Y024369D02*
X018897Y024369D01*
X018897Y024467D02*
X018803Y024467D01*
X018803Y024566D02*
X019196Y024566D01*
X019196Y024467D02*
X019292Y024467D01*
X019292Y024369D02*
X019196Y024369D01*
X019196Y024270D02*
X019292Y024270D01*
X019292Y024172D02*
X019196Y024172D01*
X018897Y024664D02*
X018803Y024664D01*
X018803Y024763D02*
X018897Y024763D01*
X018897Y024861D02*
X018803Y024861D01*
X019186Y023482D02*
X019283Y023482D01*
X019283Y023384D02*
X019186Y023384D01*
X019186Y023285D02*
X019283Y023285D01*
X018888Y023088D02*
X018872Y023088D01*
X018872Y022990D02*
X018888Y022990D01*
X018926Y022891D02*
X018817Y022891D01*
X018202Y022202D02*
X018183Y022202D01*
X018186Y022103D02*
X018191Y022103D01*
X017801Y022005D02*
X017757Y022005D01*
X017762Y021709D02*
X017635Y021709D01*
X017572Y021512D02*
X016970Y021512D01*
X017520Y020724D02*
X017645Y020724D01*
X017649Y020626D02*
X017540Y020626D01*
X017540Y020527D02*
X017649Y020527D01*
X017656Y020429D02*
X017540Y020429D01*
X017478Y020330D02*
X017723Y020330D01*
X017097Y020232D02*
X016980Y020232D01*
X017025Y020133D02*
X017034Y020133D01*
X017025Y020035D02*
X017034Y020035D01*
X017020Y019936D02*
X017034Y019936D01*
X017034Y019838D02*
X016922Y019838D01*
X016730Y018951D02*
X016597Y018951D01*
X016593Y018853D02*
X016730Y018853D01*
X016730Y018754D02*
X016517Y018754D01*
X016650Y017671D02*
X016750Y017671D01*
X016750Y017572D02*
X016650Y017572D01*
X016650Y017474D02*
X016750Y017474D01*
X016750Y017375D02*
X016650Y017375D01*
X016650Y017277D02*
X016750Y017277D01*
X016750Y017178D02*
X016650Y017178D01*
X017204Y016883D02*
X017236Y016883D01*
X017236Y016784D02*
X017204Y016784D01*
X017204Y016686D02*
X017236Y016686D01*
X017236Y016587D02*
X017204Y016587D01*
X017194Y016489D02*
X017241Y016489D01*
X017282Y016390D02*
X017162Y016390D01*
X017104Y016292D02*
X017345Y016292D01*
X015063Y019542D02*
X014896Y019542D01*
X014894Y019936D02*
X015063Y019936D01*
X015113Y020035D02*
X014049Y020035D01*
X015209Y020133D02*
X016040Y020133D01*
X016040Y020232D02*
X015271Y020232D01*
X015271Y020330D02*
X015862Y020330D01*
X015800Y020429D02*
X015271Y020429D01*
X015271Y020527D02*
X015800Y020527D01*
X015800Y020626D02*
X015275Y020626D01*
X015363Y020724D02*
X015785Y020724D01*
X015760Y020823D02*
X015453Y020823D01*
X015667Y020035D02*
X015943Y020035D01*
X015903Y019936D02*
X015717Y019936D01*
X014368Y017375D02*
X014049Y017375D01*
X014049Y017277D02*
X014146Y017277D01*
X012766Y018683D02*
X012697Y018752D01*
X012527Y018823D01*
X011633Y018823D01*
X011463Y018752D01*
X011332Y018621D01*
X011261Y018451D01*
X011261Y018395D01*
X010948Y018395D01*
X010948Y018097D01*
X011136Y018097D01*
X011174Y018107D01*
X011209Y018127D01*
X011237Y018155D01*
X011256Y018189D01*
X011267Y018227D01*
X011267Y018253D01*
X011332Y018095D01*
X011463Y017965D01*
X011633Y017894D01*
X011720Y017894D01*
X011720Y017627D01*
X011491Y017398D01*
X010125Y017405D01*
X010125Y017406D01*
X009987Y017543D01*
X009793Y017543D01*
X009781Y017531D01*
X009781Y018083D01*
X009716Y018147D01*
X009485Y018147D01*
X009485Y018336D01*
X009440Y018381D01*
X009440Y018398D01*
X009511Y018398D01*
X009540Y018370D01*
X009651Y018258D01*
X009753Y018258D01*
X009753Y018201D01*
X009818Y018137D01*
X010342Y018137D01*
X010407Y018201D01*
X010407Y018686D01*
X010342Y018750D01*
X009818Y018750D01*
X009757Y018690D01*
X009750Y018697D01*
X009750Y018774D01*
X009686Y018838D01*
X008820Y018838D01*
X008820Y018898D01*
X009686Y018898D01*
X009716Y018928D01*
X009753Y018928D01*
X009753Y018871D01*
X009818Y018806D01*
X010342Y018806D01*
X010407Y018871D01*
X010407Y018923D01*
X010573Y018923D01*
X010573Y018871D01*
X010638Y018806D01*
X011162Y018806D01*
X011227Y018871D01*
X011227Y019213D01*
X011261Y019178D01*
X011298Y019178D01*
X011332Y019095D01*
X011463Y018965D01*
X011633Y018894D01*
X012527Y018894D01*
X012697Y018965D01*
X012766Y019033D01*
X012766Y018683D01*
X012766Y018754D02*
X012692Y018754D01*
X012766Y018853D02*
X011209Y018853D01*
X011174Y018780D02*
X011136Y018790D01*
X010948Y018790D01*
X010948Y018492D01*
X010852Y018492D01*
X010852Y018790D01*
X010664Y018790D01*
X010626Y018780D01*
X010591Y018761D01*
X010563Y018733D01*
X010544Y018698D01*
X010533Y018660D01*
X010533Y018492D01*
X010852Y018492D01*
X010852Y018395D01*
X010948Y018395D01*
X010948Y018492D01*
X011267Y018492D01*
X011267Y018660D01*
X011256Y018698D01*
X011237Y018733D01*
X011209Y018761D01*
X011174Y018780D01*
X011215Y018754D02*
X011468Y018754D01*
X011367Y018656D02*
X011267Y018656D01*
X011267Y018557D02*
X011306Y018557D01*
X011265Y018459D02*
X010948Y018459D01*
X010852Y018459D02*
X010407Y018459D01*
X010407Y018557D02*
X010533Y018557D01*
X010533Y018656D02*
X010407Y018656D01*
X010389Y018853D02*
X010591Y018853D01*
X010585Y018754D02*
X009750Y018754D01*
X009771Y018853D02*
X008820Y018853D01*
X008440Y018853D02*
X007060Y018853D01*
X007060Y018838D02*
X007060Y018898D01*
X007826Y018898D01*
X007890Y018963D01*
X007890Y019274D01*
X007826Y019338D01*
X007580Y019338D01*
X007580Y019398D01*
X007826Y019398D01*
X007890Y019463D01*
X007890Y019774D01*
X007826Y019838D01*
X008440Y019838D01*
X008440Y019936D02*
X007864Y019936D01*
X007890Y019963D02*
X007890Y020274D01*
X007826Y020338D01*
X007575Y020338D01*
X007575Y020551D01*
X007647Y020551D01*
X007699Y020603D01*
X007718Y020569D01*
X007746Y020541D01*
X007780Y020522D01*
X007818Y020511D01*
X008006Y020511D01*
X008006Y020810D01*
X008103Y020810D01*
X008103Y020511D01*
X008291Y020511D01*
X008329Y020522D01*
X008363Y020541D01*
X008391Y020569D01*
X008407Y020597D01*
X008463Y020542D01*
X008605Y020542D01*
X008551Y020488D01*
X008440Y020377D01*
X008440Y018670D01*
X008560Y018550D01*
X008671Y018438D01*
X008774Y018438D01*
X008814Y018398D01*
X009060Y018398D01*
X009060Y018381D01*
X009015Y018336D01*
X009015Y018157D01*
X008981Y018177D01*
X008943Y018187D01*
X008774Y018187D01*
X008774Y017810D01*
X008678Y017810D01*
X008678Y018187D01*
X008509Y018187D01*
X008471Y018177D01*
X008437Y018157D01*
X008409Y018129D01*
X008389Y018095D01*
X008379Y018057D01*
X008379Y017810D01*
X008678Y017810D01*
X008678Y017713D01*
X008379Y017713D01*
X008379Y017508D01*
X008174Y017508D01*
X008098Y017511D01*
X008095Y017508D01*
X008091Y017508D01*
X008038Y017455D01*
X008006Y017425D01*
X007341Y017432D01*
X007341Y017433D01*
X007255Y017519D01*
X007177Y017551D01*
X007287Y017551D01*
X007287Y017850D01*
X006969Y017850D01*
X006969Y017682D01*
X006979Y017644D01*
X006999Y017609D01*
X007027Y017581D01*
X007053Y017566D01*
X007019Y017566D01*
X006905Y017519D01*
X006824Y017438D01*
X006760Y017438D01*
X006762Y017109D01*
X006637Y017233D01*
X006443Y017233D01*
X006305Y017096D01*
X006305Y016901D01*
X006443Y016763D01*
X006464Y016763D01*
X006464Y016757D01*
X006509Y016712D01*
X006545Y016660D01*
X006562Y016657D01*
X006574Y016645D01*
X006638Y016644D01*
X006700Y016633D01*
X006714Y016643D01*
X006764Y016642D01*
X006765Y016424D01*
X006286Y016424D01*
X006287Y016427D01*
X006287Y016615D01*
X005988Y016615D01*
X005988Y016712D01*
X006287Y016712D01*
X006287Y016900D01*
X006277Y016938D01*
X006257Y016972D01*
X006229Y017000D01*
X006196Y017020D01*
X006247Y017071D01*
X006247Y017385D01*
X006317Y017461D01*
X006351Y017495D01*
X006453Y017393D01*
X006647Y017393D01*
X006785Y017531D01*
X006785Y017726D01*
X006740Y017771D01*
X006740Y017803D01*
X006770Y017833D01*
X006770Y018338D01*
X006814Y018338D01*
X006887Y018334D01*
X006892Y018338D01*
X006899Y018338D01*
X006950Y018390D01*
X006960Y018398D01*
X007815Y018398D01*
X007815Y018205D01*
X007743Y018205D01*
X007691Y018154D01*
X007672Y018187D01*
X007644Y018215D01*
X007610Y018235D01*
X007572Y018245D01*
X007384Y018245D01*
X007384Y017947D01*
X007287Y017947D01*
X007287Y018245D01*
X007099Y018245D01*
X007061Y018235D01*
X007027Y018215D01*
X006999Y018187D01*
X006979Y018153D01*
X006969Y018115D01*
X006969Y017947D01*
X007287Y017947D01*
X007287Y017850D01*
X007384Y017850D01*
X007384Y017551D01*
X007572Y017551D01*
X007610Y017562D01*
X007644Y017581D01*
X007672Y017609D01*
X007691Y017643D01*
X007743Y017591D01*
X008267Y017591D01*
X008331Y017656D01*
X008331Y018141D01*
X008267Y018205D01*
X008195Y018205D01*
X008195Y018572D01*
X008090Y018677D01*
X007979Y018788D01*
X007876Y018788D01*
X007826Y018838D01*
X007060Y018838D01*
X006921Y018360D02*
X007815Y018360D01*
X007815Y018262D02*
X006770Y018262D01*
X006770Y018163D02*
X006985Y018163D01*
X006969Y018065D02*
X006770Y018065D01*
X006770Y017966D02*
X006969Y017966D01*
X006969Y017769D02*
X006741Y017769D01*
X006770Y017868D02*
X007287Y017868D01*
X007287Y017966D02*
X007384Y017966D01*
X007384Y018065D02*
X007287Y018065D01*
X007287Y018163D02*
X007384Y018163D01*
X007384Y017769D02*
X007287Y017769D01*
X007287Y017671D02*
X007384Y017671D01*
X007384Y017572D02*
X007287Y017572D01*
X007300Y017474D02*
X008057Y017474D01*
X008379Y017572D02*
X007628Y017572D01*
X007484Y017126D02*
X007361Y017122D01*
X007392Y017090D01*
X007392Y016566D01*
X007328Y016502D01*
X006990Y016502D01*
X006990Y015863D01*
X008103Y015863D01*
X008103Y016025D01*
X008422Y016025D01*
X008422Y016122D01*
X008422Y016420D01*
X008234Y016420D01*
X008196Y016410D01*
X008161Y016391D01*
X008133Y016363D01*
X008114Y016328D01*
X008103Y016290D01*
X008103Y016122D01*
X008422Y016122D01*
X008518Y016122D01*
X008518Y016420D01*
X008706Y016420D01*
X008744Y016410D01*
X008779Y016391D01*
X008807Y016363D01*
X008826Y016328D01*
X008837Y016290D01*
X008837Y016122D01*
X008518Y016122D01*
X008518Y016025D01*
X008837Y016025D01*
X008837Y015863D01*
X009417Y015863D01*
X009417Y016016D01*
X009814Y016016D01*
X009814Y016113D01*
X009814Y016411D01*
X009548Y016411D01*
X009510Y016401D01*
X009475Y016381D01*
X009447Y016353D01*
X009428Y016319D01*
X009417Y016281D01*
X009417Y016113D01*
X009814Y016113D01*
X009911Y016113D01*
X009911Y016411D01*
X010146Y016411D01*
X010146Y016505D01*
X009522Y016505D01*
X009457Y016570D01*
X009457Y016618D01*
X009407Y016618D01*
X009407Y016574D01*
X009342Y016510D01*
X008858Y016510D01*
X008797Y016571D01*
X008797Y016501D01*
X008732Y016436D01*
X008208Y016436D01*
X008143Y016501D01*
X008143Y016985D01*
X008208Y017050D01*
X008623Y017050D01*
X008683Y017110D01*
X008240Y017124D01*
X008061Y016958D01*
X008061Y016566D01*
X007997Y016502D01*
X007512Y016502D01*
X007448Y016566D01*
X007448Y017090D01*
X007484Y017126D01*
X007448Y017080D02*
X007392Y017080D01*
X007392Y016981D02*
X007448Y016981D01*
X007448Y016883D02*
X007392Y016883D01*
X007392Y016784D02*
X007448Y016784D01*
X007448Y016686D02*
X007392Y016686D01*
X007392Y016587D02*
X007448Y016587D01*
X006990Y016489D02*
X008155Y016489D01*
X008161Y016390D02*
X006990Y016390D01*
X006990Y016292D02*
X008104Y016292D01*
X008103Y016193D02*
X006990Y016193D01*
X006990Y016095D02*
X008422Y016095D01*
X008518Y016095D02*
X009814Y016095D01*
X009814Y016193D02*
X009911Y016193D01*
X009911Y016292D02*
X009814Y016292D01*
X009814Y016390D02*
X009911Y016390D01*
X010146Y016489D02*
X008785Y016489D01*
X008779Y016390D02*
X009491Y016390D01*
X009420Y016292D02*
X008836Y016292D01*
X008837Y016193D02*
X009417Y016193D01*
X009417Y015996D02*
X008837Y015996D01*
X008837Y015898D02*
X009417Y015898D01*
X009407Y016587D02*
X009457Y016587D01*
X008653Y017080D02*
X008192Y017080D01*
X008143Y016981D02*
X008086Y016981D01*
X008061Y016883D02*
X008143Y016883D01*
X008143Y016784D02*
X008061Y016784D01*
X008061Y016686D02*
X008143Y016686D01*
X008143Y016587D02*
X008061Y016587D01*
X008422Y016390D02*
X008518Y016390D01*
X008518Y016292D02*
X008422Y016292D01*
X008422Y016193D02*
X008518Y016193D01*
X008103Y015996D02*
X006990Y015996D01*
X006990Y015898D02*
X008103Y015898D01*
X008728Y014949D02*
X012706Y014949D01*
X012706Y013373D01*
X012637Y013442D01*
X012467Y013513D01*
X012220Y013513D01*
X012220Y013913D01*
X012220Y013913D01*
X012285Y013978D01*
X012285Y014779D01*
X012220Y014843D01*
X011499Y014843D01*
X011435Y014779D01*
X011435Y013978D01*
X011499Y013913D01*
X011500Y013913D01*
X011500Y013482D01*
X011403Y013442D01*
X011284Y013323D01*
X011109Y013498D01*
X009656Y013498D01*
X009626Y013528D01*
X008760Y013528D01*
X008760Y013554D01*
X008780Y013548D01*
X009185Y013548D01*
X009185Y013803D01*
X009195Y013803D01*
X009195Y013548D01*
X009600Y013548D01*
X009638Y013559D01*
X009672Y013578D01*
X009700Y013606D01*
X009720Y013640D01*
X009730Y013679D01*
X009730Y013803D01*
X009195Y013803D01*
X009195Y013813D01*
X009730Y013813D01*
X009730Y013938D01*
X009720Y013976D01*
X009700Y014010D01*
X009672Y014038D01*
X009638Y014058D01*
X009600Y014068D01*
X009299Y014068D01*
X009300Y014070D01*
X009462Y014232D01*
X009557Y014232D01*
X009621Y014296D01*
X009621Y014820D01*
X009557Y014885D01*
X009072Y014885D01*
X009008Y014820D01*
X009008Y014338D01*
X008952Y014338D01*
X008952Y014820D01*
X008888Y014885D01*
X008795Y014885D01*
X008752Y014925D01*
X008728Y014949D01*
X008765Y014913D02*
X012706Y014913D01*
X012706Y014814D02*
X012249Y014814D01*
X012285Y014716D02*
X012706Y014716D01*
X012706Y014617D02*
X012285Y014617D01*
X012285Y014519D02*
X012706Y014519D01*
X012706Y014420D02*
X012285Y014420D01*
X012285Y014322D02*
X012706Y014322D01*
X012706Y014223D02*
X012285Y014223D01*
X012285Y014125D02*
X012706Y014125D01*
X012706Y014026D02*
X012285Y014026D01*
X012235Y013928D02*
X012706Y013928D01*
X012706Y013829D02*
X012220Y013829D01*
X012220Y013731D02*
X012706Y013731D01*
X012706Y013632D02*
X012220Y013632D01*
X012220Y013534D02*
X012706Y013534D01*
X012706Y013435D02*
X012644Y013435D01*
X012706Y012723D02*
X012706Y012373D01*
X012637Y012442D01*
X012467Y012513D01*
X011573Y012513D01*
X011403Y012442D01*
X011272Y012311D01*
X011201Y012141D01*
X011201Y012085D01*
X010888Y012085D01*
X010888Y011787D01*
X011076Y011787D01*
X011114Y011797D01*
X011149Y011817D01*
X011177Y011845D01*
X011196Y011879D01*
X011207Y011917D01*
X011207Y011943D01*
X011272Y011785D01*
X011403Y011655D01*
X011573Y011584D01*
X011660Y011584D01*
X011660Y011317D01*
X011431Y011088D01*
X010065Y011095D01*
X010065Y011096D01*
X009927Y011233D01*
X009733Y011233D01*
X009721Y011221D01*
X009721Y011773D01*
X009656Y011837D01*
X009425Y011837D01*
X009425Y012026D01*
X009380Y012071D01*
X009380Y012088D01*
X009451Y012088D01*
X009480Y012060D01*
X009591Y011948D01*
X009693Y011948D01*
X009693Y011891D01*
X009758Y011827D01*
X010282Y011827D01*
X010347Y011891D01*
X010347Y012376D01*
X010282Y012440D01*
X009758Y012440D01*
X009697Y012380D01*
X009690Y012387D01*
X009690Y012464D01*
X009626Y012528D01*
X008760Y012528D01*
X008760Y012588D01*
X009626Y012588D01*
X009656Y012618D01*
X009693Y012618D01*
X009693Y012561D01*
X009758Y012496D01*
X010282Y012496D01*
X010347Y012561D01*
X010347Y012613D01*
X010513Y012613D01*
X010513Y012561D01*
X010578Y012496D01*
X011102Y012496D01*
X011167Y012561D01*
X011167Y012903D01*
X011201Y012868D01*
X011238Y012868D01*
X011272Y012785D01*
X011403Y012655D01*
X011573Y012584D01*
X012467Y012584D01*
X012637Y012655D01*
X012706Y012723D01*
X012706Y012647D02*
X012620Y012647D01*
X012706Y012549D02*
X011155Y012549D01*
X011114Y012470D02*
X011076Y012480D01*
X010888Y012480D01*
X010888Y012182D01*
X010792Y012182D01*
X010792Y012480D01*
X010604Y012480D01*
X010566Y012470D01*
X010531Y012451D01*
X010503Y012423D01*
X010484Y012388D01*
X010473Y012350D01*
X010473Y012182D01*
X010792Y012182D01*
X010792Y012085D01*
X010888Y012085D01*
X010888Y012182D01*
X011207Y012182D01*
X011207Y012350D01*
X011196Y012388D01*
X011177Y012423D01*
X011149Y012451D01*
X011114Y012470D01*
X011149Y012450D02*
X011423Y012450D01*
X011313Y012352D02*
X011206Y012352D01*
X011207Y012253D02*
X011248Y012253D01*
X011207Y012155D02*
X010888Y012155D01*
X010792Y012155D02*
X010347Y012155D01*
X010347Y012253D02*
X010473Y012253D01*
X010474Y012352D02*
X010347Y012352D01*
X010335Y012549D02*
X010525Y012549D01*
X010531Y012450D02*
X009690Y012450D01*
X009705Y012549D02*
X008760Y012549D01*
X008486Y012253D02*
X008135Y012253D01*
X008135Y012262D02*
X008030Y012367D01*
X007919Y012478D01*
X007816Y012478D01*
X007766Y012528D01*
X007000Y012528D01*
X007000Y012588D01*
X007766Y012588D01*
X007830Y012653D01*
X007830Y012964D01*
X007766Y013028D01*
X007520Y013028D01*
X007520Y013088D01*
X007766Y013088D01*
X007830Y013153D01*
X007830Y013464D01*
X007766Y013528D01*
X006982Y013528D01*
X006915Y013588D01*
X007766Y013588D01*
X007830Y013653D01*
X007830Y013964D01*
X007766Y014028D01*
X007515Y014028D01*
X007515Y014241D01*
X007587Y014241D01*
X007639Y014293D01*
X007658Y014259D01*
X007686Y014231D01*
X007720Y014212D01*
X007758Y014201D01*
X007946Y014201D01*
X007946Y014500D01*
X008043Y014500D01*
X008043Y014201D01*
X008231Y014201D01*
X008269Y014212D01*
X008303Y014231D01*
X008331Y014259D01*
X008347Y014287D01*
X008403Y014232D01*
X008545Y014232D01*
X008491Y014178D01*
X008380Y014067D01*
X008380Y012360D01*
X008500Y012240D01*
X008611Y012128D01*
X008714Y012128D01*
X008754Y012088D01*
X009000Y012088D01*
X009000Y012071D01*
X008955Y012026D01*
X008955Y011847D01*
X008921Y011867D01*
X008883Y011877D01*
X008714Y011877D01*
X008714Y011500D01*
X008618Y011500D01*
X008618Y011877D01*
X008449Y011877D01*
X008411Y011867D01*
X008377Y011847D01*
X008349Y011819D01*
X008329Y011785D01*
X008319Y011747D01*
X008319Y011500D01*
X008618Y011500D01*
X008618Y011403D01*
X008319Y011403D01*
X008319Y011198D01*
X008114Y011198D01*
X008038Y011201D01*
X008035Y011198D01*
X008031Y011198D01*
X007978Y011145D01*
X007946Y011115D01*
X007281Y011122D01*
X007281Y011123D01*
X007195Y011209D01*
X007117Y011241D01*
X007227Y011241D01*
X007227Y011540D01*
X006909Y011540D01*
X006909Y011372D01*
X006919Y011334D01*
X006939Y011299D01*
X006967Y011271D01*
X006993Y011256D01*
X006959Y011256D01*
X006845Y011209D01*
X006764Y011128D01*
X006700Y011128D01*
X006702Y010799D01*
X006577Y010923D01*
X006383Y010923D01*
X006245Y010786D01*
X006245Y010591D01*
X006383Y010453D01*
X006404Y010453D01*
X006404Y010447D01*
X006449Y010402D01*
X006485Y010350D01*
X006502Y010347D01*
X006514Y010335D01*
X006578Y010334D01*
X006640Y010323D01*
X006654Y010333D01*
X006704Y010332D01*
X006705Y010114D01*
X006226Y010114D01*
X006227Y010117D01*
X006227Y010305D01*
X005928Y010305D01*
X005928Y010402D01*
X006227Y010402D01*
X006227Y010590D01*
X006217Y010628D01*
X006197Y010662D01*
X006169Y010690D01*
X006136Y010710D01*
X006187Y010761D01*
X006187Y011075D01*
X006257Y011151D01*
X006291Y011185D01*
X006393Y011083D01*
X006587Y011083D01*
X006725Y011221D01*
X006725Y011416D01*
X006680Y011461D01*
X006680Y011493D01*
X006710Y011523D01*
X006710Y012028D01*
X006754Y012028D01*
X006827Y012024D01*
X006832Y012028D01*
X006839Y012028D01*
X006890Y012080D01*
X006900Y012088D01*
X007755Y012088D01*
X007755Y011895D01*
X007683Y011895D01*
X007631Y011844D01*
X007612Y011877D01*
X007584Y011905D01*
X007550Y011925D01*
X007512Y011935D01*
X007324Y011935D01*
X007324Y011637D01*
X007227Y011637D01*
X007227Y011935D01*
X007039Y011935D01*
X007001Y011925D01*
X006967Y011905D01*
X006939Y011877D01*
X006919Y011843D01*
X006909Y011805D01*
X006909Y011637D01*
X007227Y011637D01*
X007227Y011540D01*
X007324Y011540D01*
X007324Y011241D01*
X007512Y011241D01*
X007550Y011252D01*
X007584Y011271D01*
X007612Y011299D01*
X007631Y011333D01*
X007683Y011281D01*
X008207Y011281D01*
X008271Y011346D01*
X008271Y011831D01*
X008207Y011895D01*
X008135Y011895D01*
X008135Y012262D01*
X008135Y012155D02*
X008585Y012155D01*
X008388Y012352D02*
X008045Y012352D01*
X007947Y012450D02*
X008380Y012450D01*
X008380Y012549D02*
X007000Y012549D01*
X006867Y012056D02*
X007755Y012056D01*
X007755Y011958D02*
X006710Y011958D01*
X006710Y011859D02*
X006928Y011859D01*
X006909Y011761D02*
X006710Y011761D01*
X006710Y011662D02*
X006909Y011662D01*
X006909Y011465D02*
X006680Y011465D01*
X006710Y011564D02*
X007227Y011564D01*
X007227Y011662D02*
X007324Y011662D01*
X007324Y011761D02*
X007227Y011761D01*
X007227Y011859D02*
X007324Y011859D01*
X007622Y011859D02*
X007647Y011859D01*
X007324Y011465D02*
X007227Y011465D01*
X007227Y011367D02*
X007324Y011367D01*
X007324Y011268D02*
X007227Y011268D01*
X007234Y011170D02*
X008003Y011170D01*
X008319Y011268D02*
X007579Y011268D01*
X007424Y010816D02*
X007388Y010780D01*
X007388Y010256D01*
X007452Y010192D01*
X007937Y010192D01*
X008001Y010256D01*
X008001Y010648D01*
X008180Y010814D01*
X008623Y010800D01*
X008563Y010740D01*
X008148Y010740D01*
X008083Y010675D01*
X008083Y010191D01*
X008148Y010126D01*
X008672Y010126D01*
X008737Y010191D01*
X008737Y010261D01*
X008798Y010200D01*
X009282Y010200D01*
X009347Y010264D01*
X009347Y010308D01*
X009397Y010308D01*
X009397Y010260D01*
X009462Y010195D01*
X010086Y010195D01*
X010086Y010101D01*
X009851Y010101D01*
X009851Y009803D01*
X009754Y009803D01*
X009754Y010101D01*
X009488Y010101D01*
X009450Y010091D01*
X009415Y010071D01*
X009387Y010043D01*
X009368Y010009D01*
X009357Y009971D01*
X009357Y009803D01*
X009754Y009803D01*
X009754Y009706D01*
X009357Y009706D01*
X009357Y009553D01*
X008777Y009553D01*
X008777Y009715D01*
X008458Y009715D01*
X008458Y009812D01*
X008362Y009812D01*
X008362Y010110D01*
X008174Y010110D01*
X008136Y010100D01*
X008101Y010081D01*
X008073Y010053D01*
X008054Y010018D01*
X008043Y009980D01*
X008043Y009812D01*
X008362Y009812D01*
X008362Y009715D01*
X008043Y009715D01*
X008043Y009553D01*
X006930Y009553D01*
X006930Y010192D01*
X007268Y010192D01*
X007332Y010256D01*
X007332Y010780D01*
X007301Y010812D01*
X007424Y010816D01*
X007388Y010776D02*
X007332Y010776D01*
X007332Y010677D02*
X007388Y010677D01*
X007388Y010579D02*
X007332Y010579D01*
X007332Y010480D02*
X007388Y010480D01*
X007388Y010382D02*
X007332Y010382D01*
X007332Y010283D02*
X007388Y010283D01*
X006930Y010185D02*
X008089Y010185D01*
X008083Y010283D02*
X008001Y010283D01*
X008001Y010382D02*
X008083Y010382D01*
X008083Y010480D02*
X008001Y010480D01*
X008001Y010579D02*
X008083Y010579D01*
X008085Y010677D02*
X008033Y010677D01*
X008139Y010776D02*
X008599Y010776D01*
X008731Y010185D02*
X010086Y010185D01*
X009851Y010086D02*
X009754Y010086D01*
X009754Y009988D02*
X009851Y009988D01*
X009851Y009889D02*
X009754Y009889D01*
X009754Y009791D02*
X008458Y009791D01*
X008458Y009812D02*
X008777Y009812D01*
X008777Y009980D01*
X008766Y010018D01*
X008747Y010053D01*
X008719Y010081D01*
X008684Y010100D01*
X008646Y010110D01*
X008458Y010110D01*
X008458Y009812D01*
X008458Y009889D02*
X008362Y009889D01*
X008362Y009791D02*
X006930Y009791D01*
X006930Y009889D02*
X008043Y009889D01*
X008045Y009988D02*
X006930Y009988D01*
X006930Y010086D02*
X008111Y010086D01*
X008362Y010086D02*
X008458Y010086D01*
X008458Y009988D02*
X008362Y009988D01*
X008043Y009692D02*
X006930Y009692D01*
X006930Y009594D02*
X008043Y009594D01*
X008777Y009594D02*
X009357Y009594D01*
X009357Y009692D02*
X008777Y009692D01*
X008777Y009889D02*
X009357Y009889D01*
X009362Y009988D02*
X008775Y009988D01*
X008709Y010086D02*
X009442Y010086D01*
X009397Y010283D02*
X009347Y010283D01*
X009721Y011268D02*
X011611Y011268D01*
X011660Y011367D02*
X009721Y011367D01*
X009721Y011465D02*
X011660Y011465D01*
X011660Y011564D02*
X009721Y011564D01*
X009721Y011662D02*
X011395Y011662D01*
X011296Y011761D02*
X009721Y011761D01*
X009725Y011859D02*
X009425Y011859D01*
X009425Y011958D02*
X009582Y011958D01*
X009483Y012056D02*
X009394Y012056D01*
X008986Y012056D02*
X008135Y012056D01*
X008135Y011958D02*
X008955Y011958D01*
X008955Y011859D02*
X008934Y011859D01*
X008955Y011847D02*
X008955Y011847D01*
X009003Y011783D02*
X009093Y011693D01*
X009107Y011693D01*
X009107Y011421D01*
X009013Y011330D01*
X009013Y011403D01*
X008714Y011403D01*
X008714Y011500D01*
X009013Y011500D01*
X009013Y011747D01*
X009003Y011783D01*
X009009Y011761D02*
X009025Y011761D01*
X009013Y011662D02*
X009107Y011662D01*
X009107Y011564D02*
X009013Y011564D01*
X009107Y011465D02*
X008714Y011465D01*
X008618Y011465D02*
X008271Y011465D01*
X008271Y011367D02*
X008319Y011367D01*
X008319Y011564D02*
X008271Y011564D01*
X008271Y011662D02*
X008319Y011662D01*
X008323Y011761D02*
X008271Y011761D01*
X008243Y011859D02*
X008398Y011859D01*
X008618Y011859D02*
X008714Y011859D01*
X008714Y011761D02*
X008618Y011761D01*
X008618Y011662D02*
X008714Y011662D01*
X008714Y011564D02*
X008618Y011564D01*
X009013Y011367D02*
X009051Y011367D01*
X009991Y011170D02*
X011512Y011170D01*
X011241Y011859D02*
X011185Y011859D01*
X010888Y011859D02*
X010792Y011859D01*
X010792Y011787D02*
X010792Y012085D01*
X010473Y012085D01*
X010473Y011917D01*
X010484Y011879D01*
X010503Y011845D01*
X010531Y011817D01*
X010566Y011797D01*
X010604Y011787D01*
X010792Y011787D01*
X010792Y011958D02*
X010888Y011958D01*
X010888Y012056D02*
X010792Y012056D01*
X010792Y012253D02*
X010888Y012253D01*
X010888Y012352D02*
X010792Y012352D01*
X010792Y012450D02*
X010888Y012450D01*
X011167Y012647D02*
X011420Y012647D01*
X011311Y012746D02*
X011167Y012746D01*
X011167Y012844D02*
X011248Y012844D01*
X011270Y013337D02*
X011298Y013337D01*
X011396Y013435D02*
X011172Y013435D01*
X011500Y013534D02*
X008760Y013534D01*
X008380Y013534D02*
X006976Y013534D01*
X006864Y013998D02*
X006839Y013998D01*
X006797Y014040D01*
X006797Y014296D01*
X006732Y014360D01*
X006208Y014360D01*
X006143Y014296D01*
X006143Y013951D01*
X005947Y014127D01*
X005947Y014316D01*
X005882Y014380D01*
X005398Y014380D01*
X005333Y014316D01*
X005333Y013792D01*
X005398Y013727D01*
X005824Y013727D01*
X006009Y013560D01*
X006061Y013508D01*
X006067Y013508D01*
X006072Y013504D01*
X006112Y013507D01*
X006072Y013410D01*
X006072Y013287D01*
X006092Y013238D01*
X005990Y013238D01*
X005952Y013228D01*
X005918Y013208D01*
X005907Y013197D01*
X005906Y013198D01*
X005594Y013198D01*
X005530Y013134D01*
X005530Y012958D01*
X005261Y012958D01*
X005261Y013030D01*
X005197Y013095D01*
X005135Y013095D01*
X005135Y013282D01*
X005187Y013282D01*
X005251Y013346D01*
X005251Y013870D01*
X005187Y013935D01*
X005135Y013935D01*
X005135Y014101D01*
X005175Y014141D01*
X005175Y014336D01*
X005037Y014473D01*
X004843Y014473D01*
X004705Y014336D01*
X004705Y014141D01*
X004755Y014091D01*
X004755Y013935D01*
X004702Y013935D01*
X004638Y013870D01*
X004638Y013346D01*
X004702Y013282D01*
X004755Y013282D01*
X004755Y013095D01*
X004712Y013095D01*
X004648Y013030D01*
X004648Y012506D01*
X004712Y012442D01*
X005141Y012442D01*
X005005Y012306D01*
X005005Y012111D01*
X005143Y011973D01*
X005337Y011973D01*
X005382Y012018D01*
X005530Y012018D01*
X005530Y011523D01*
X005594Y011458D01*
X005906Y011458D01*
X005930Y011483D01*
X005930Y011357D01*
X005923Y011349D01*
X005638Y011349D01*
X005573Y011285D01*
X005573Y011234D01*
X005434Y011373D01*
X005434Y011900D01*
X005370Y011964D01*
X004570Y011964D01*
X004530Y011924D01*
X004530Y012204D01*
X004466Y012268D01*
X003854Y012268D01*
X003790Y012204D01*
X003790Y011893D01*
X003854Y011828D01*
X003970Y011828D01*
X003970Y011780D01*
X004125Y011625D01*
X004125Y011561D01*
X004158Y011528D01*
X003854Y011528D01*
X003790Y011464D01*
X003790Y011153D01*
X003854Y011088D01*
X003970Y011088D01*
X003970Y010845D01*
X003793Y010845D01*
X003741Y010794D01*
X003722Y010827D01*
X003694Y010855D01*
X003660Y010875D01*
X003622Y010885D01*
X003434Y010885D01*
X003434Y010587D01*
X003337Y010587D01*
X003337Y010885D01*
X003149Y010885D01*
X003111Y010875D01*
X003077Y010855D01*
X003049Y010827D01*
X003029Y010793D01*
X003019Y010755D01*
X003019Y010587D01*
X003337Y010587D01*
X003337Y010490D01*
X003019Y010490D01*
X003019Y010322D01*
X003029Y010284D01*
X003049Y010249D01*
X003077Y010221D01*
X003111Y010202D01*
X003149Y010191D01*
X003337Y010191D01*
X003337Y010490D01*
X003434Y010490D01*
X003434Y010191D01*
X003622Y010191D01*
X003660Y010202D01*
X003694Y010221D01*
X003722Y010249D01*
X003741Y010283D01*
X003793Y010231D01*
X004084Y010231D01*
X004122Y010218D01*
X004149Y010231D01*
X004317Y010231D01*
X004381Y010296D01*
X004381Y010781D01*
X004350Y010812D01*
X004350Y011088D01*
X004466Y011088D01*
X004530Y011153D01*
X004530Y011155D01*
X004570Y011115D01*
X005155Y011115D01*
X005320Y010950D01*
X005376Y010893D01*
X005344Y010902D01*
X005020Y010902D01*
X005020Y010487D01*
X005474Y010487D01*
X005474Y010772D01*
X005464Y010810D01*
X005448Y010838D01*
X005573Y010838D01*
X005573Y010761D01*
X005624Y010710D01*
X005591Y010690D01*
X005563Y010662D01*
X005543Y010628D01*
X005533Y010590D01*
X005533Y010402D01*
X005832Y010402D01*
X005832Y010305D01*
X005533Y010305D01*
X005533Y010117D01*
X005534Y010114D01*
X005474Y010114D01*
X005474Y010387D01*
X005020Y010387D01*
X005020Y010487D01*
X004920Y010487D01*
X004920Y010387D01*
X004466Y010387D01*
X004466Y010114D01*
X002673Y010114D01*
X002490Y010297D01*
X002490Y010834D01*
X002597Y010834D01*
X002767Y010905D01*
X002898Y011035D01*
X002924Y011099D01*
X002934Y011088D01*
X003546Y011088D01*
X003610Y011153D01*
X003610Y011464D01*
X003609Y011465D01*
X003620Y011476D01*
X003640Y011510D01*
X003650Y011549D01*
X003650Y011673D01*
X003245Y011673D01*
X003245Y011683D01*
X003650Y011683D01*
X003650Y011808D01*
X003640Y011846D01*
X003620Y011880D01*
X003609Y011892D01*
X003610Y011893D01*
X003610Y012204D01*
X003546Y012268D01*
X002934Y012268D01*
X002914Y012248D01*
X002200Y012248D01*
X002200Y011794D01*
X002544Y011794D01*
X002570Y011798D01*
X002570Y011763D01*
X001703Y011763D01*
X001533Y011692D01*
X001405Y011564D01*
X001405Y011978D01*
X001411Y011970D01*
X001467Y011914D01*
X001531Y011867D01*
X001602Y011831D01*
X001678Y011806D01*
X001756Y011794D01*
X002100Y011794D01*
X002100Y012248D01*
X002200Y012248D01*
X002200Y012348D01*
X003007Y012348D01*
X002996Y012416D01*
X002972Y012492D01*
X002936Y012563D01*
X002889Y012627D01*
X002833Y012683D01*
X002769Y012730D01*
X002698Y012766D01*
X002622Y012790D01*
X002544Y012803D01*
X002200Y012803D01*
X002200Y012348D01*
X002100Y012348D01*
X002100Y012803D01*
X001756Y012803D01*
X001678Y012790D01*
X001602Y012766D01*
X001531Y012730D01*
X001467Y012683D01*
X001411Y012627D01*
X001405Y012619D01*
X001405Y013032D01*
X001533Y012905D01*
X001703Y012834D01*
X002597Y012834D01*
X002767Y012905D01*
X002826Y012963D01*
X002890Y012900D01*
X003001Y012788D01*
X003283Y012788D01*
X003283Y012741D01*
X003348Y012677D01*
X003872Y012677D01*
X003937Y012741D01*
X003937Y013226D01*
X003872Y013290D01*
X003348Y013290D01*
X003283Y013226D01*
X003283Y013168D01*
X003159Y013168D01*
X002969Y013358D01*
X002969Y013391D01*
X002898Y013561D01*
X002767Y013692D01*
X002597Y013763D01*
X002061Y013763D01*
X002294Y013859D01*
X002489Y014055D01*
X002595Y014310D01*
X002595Y014587D01*
X002489Y014842D01*
X002382Y014949D01*
X005333Y014949D01*
X005333Y014461D01*
X005398Y014396D01*
X005882Y014396D01*
X005947Y014461D01*
X005947Y014533D01*
X006143Y014533D01*
X006143Y014481D01*
X006208Y014416D01*
X006732Y014416D01*
X006797Y014481D01*
X006797Y014712D01*
X006812Y014728D01*
X006999Y014728D01*
X006999Y014306D01*
X007063Y014241D01*
X007135Y014241D01*
X007135Y014028D01*
X006894Y014028D01*
X006864Y013998D01*
X006892Y014026D02*
X006811Y014026D01*
X006797Y014125D02*
X007135Y014125D01*
X007135Y014223D02*
X006797Y014223D01*
X006771Y014322D02*
X006999Y014322D01*
X006999Y014420D02*
X006736Y014420D01*
X006797Y014519D02*
X006999Y014519D01*
X006999Y014617D02*
X006797Y014617D01*
X006800Y014716D02*
X006999Y014716D01*
X007515Y014223D02*
X007700Y014223D01*
X007768Y014026D02*
X008380Y014026D01*
X008380Y013928D02*
X007830Y013928D01*
X007830Y013829D02*
X008380Y013829D01*
X008380Y013731D02*
X007830Y013731D01*
X007810Y013632D02*
X008380Y013632D01*
X008380Y013435D02*
X007830Y013435D01*
X007830Y013337D02*
X008380Y013337D01*
X008380Y013238D02*
X007830Y013238D01*
X007817Y013140D02*
X008380Y013140D01*
X008380Y013041D02*
X007520Y013041D01*
X007830Y012943D02*
X008380Y012943D01*
X008380Y012844D02*
X007830Y012844D01*
X007830Y012746D02*
X008380Y012746D01*
X008380Y012647D02*
X007825Y012647D01*
X006910Y011367D02*
X006725Y011367D01*
X006725Y011268D02*
X006972Y011268D01*
X006806Y011170D02*
X006674Y011170D01*
X006700Y011071D02*
X006187Y011071D01*
X006187Y010973D02*
X006701Y010973D01*
X006701Y010874D02*
X006626Y010874D01*
X006334Y010874D02*
X006187Y010874D01*
X006187Y010776D02*
X006245Y010776D01*
X006245Y010677D02*
X006182Y010677D01*
X006227Y010579D02*
X006257Y010579D01*
X006227Y010480D02*
X006356Y010480D01*
X006463Y010382D02*
X005928Y010382D01*
X005832Y010382D02*
X005474Y010382D01*
X005474Y010283D02*
X005533Y010283D01*
X005533Y010185D02*
X005474Y010185D01*
X005533Y010480D02*
X005020Y010480D01*
X005020Y010579D02*
X004920Y010579D01*
X004920Y010487D02*
X004920Y010902D01*
X004596Y010902D01*
X004558Y010892D01*
X004524Y010872D01*
X004496Y010844D01*
X004476Y010810D01*
X004466Y010772D01*
X004466Y010487D01*
X004920Y010487D01*
X004920Y010480D02*
X004381Y010480D01*
X004381Y010382D02*
X004466Y010382D01*
X004466Y010283D02*
X004369Y010283D01*
X004466Y010185D02*
X002603Y010185D01*
X002504Y010283D02*
X003029Y010283D01*
X003019Y010382D02*
X002490Y010382D01*
X002490Y010480D02*
X003019Y010480D01*
X003019Y010677D02*
X002490Y010677D01*
X002490Y010579D02*
X003337Y010579D01*
X003337Y010677D02*
X003434Y010677D01*
X003434Y010776D02*
X003337Y010776D01*
X003337Y010874D02*
X003434Y010874D01*
X003661Y010874D02*
X003970Y010874D01*
X003970Y010973D02*
X002835Y010973D01*
X002913Y011071D02*
X003970Y011071D01*
X003790Y011170D02*
X003610Y011170D01*
X003610Y011268D02*
X003790Y011268D01*
X003790Y011367D02*
X003610Y011367D01*
X003609Y011465D02*
X003791Y011465D01*
X003650Y011564D02*
X004125Y011564D01*
X004087Y011662D02*
X003650Y011662D01*
X003650Y011761D02*
X003989Y011761D01*
X003823Y011859D02*
X003632Y011859D01*
X003610Y011958D02*
X003790Y011958D01*
X003790Y012056D02*
X003610Y012056D01*
X003610Y012155D02*
X003790Y012155D01*
X003839Y012253D02*
X003561Y012253D01*
X003949Y012494D02*
X003968Y012460D01*
X003996Y012432D01*
X004031Y012412D01*
X004069Y012402D01*
X004237Y012402D01*
X004237Y012720D01*
X003939Y012720D01*
X003939Y012532D01*
X003949Y012494D01*
X003978Y012450D02*
X002985Y012450D01*
X003006Y012352D02*
X005051Y012352D01*
X005005Y012253D02*
X004481Y012253D01*
X004530Y012155D02*
X005005Y012155D01*
X005060Y012056D02*
X004530Y012056D01*
X004530Y011958D02*
X004563Y011958D01*
X004502Y012402D02*
X004540Y012412D01*
X004574Y012432D01*
X004602Y012460D01*
X004622Y012494D01*
X004632Y012532D01*
X004632Y012720D01*
X004334Y012720D01*
X004334Y012817D01*
X004237Y012817D01*
X004237Y013135D01*
X004069Y013135D01*
X004031Y013125D01*
X003996Y013105D01*
X003968Y013077D01*
X003949Y013043D01*
X003939Y013005D01*
X003939Y012817D01*
X004237Y012817D01*
X004237Y012720D01*
X004334Y012720D01*
X004334Y012402D01*
X004502Y012402D01*
X004593Y012450D02*
X004704Y012450D01*
X004648Y012549D02*
X004632Y012549D01*
X004632Y012647D02*
X004648Y012647D01*
X004648Y012746D02*
X004334Y012746D01*
X004334Y012817D02*
X004632Y012817D01*
X004632Y013005D01*
X004622Y013043D01*
X004602Y013077D01*
X004574Y013105D01*
X004540Y013125D01*
X004502Y013135D01*
X004334Y013135D01*
X004334Y012817D01*
X004334Y012844D02*
X004237Y012844D01*
X004237Y012746D02*
X003937Y012746D01*
X003937Y012844D02*
X003939Y012844D01*
X003937Y012943D02*
X003939Y012943D01*
X003937Y013041D02*
X003948Y013041D01*
X003937Y013140D02*
X004755Y013140D01*
X004755Y013238D02*
X003924Y013238D01*
X003978Y013337D02*
X002990Y013337D01*
X002950Y013435D02*
X003283Y013435D01*
X003283Y013411D02*
X003348Y013346D01*
X003872Y013346D01*
X003937Y013411D01*
X003937Y013463D01*
X003969Y013463D01*
X003969Y013346D01*
X004033Y013282D01*
X004518Y013282D01*
X004582Y013346D01*
X004582Y013870D01*
X004518Y013935D01*
X004033Y013935D01*
X003969Y013870D01*
X003969Y013843D01*
X003937Y013843D01*
X003937Y013895D01*
X003872Y013960D01*
X003845Y013960D01*
X003762Y014043D01*
X003458Y014043D01*
X003385Y013970D01*
X003375Y013960D01*
X003348Y013960D01*
X003283Y013895D01*
X003283Y013411D01*
X003283Y013534D02*
X002909Y013534D01*
X002827Y013632D02*
X003283Y013632D01*
X003283Y013731D02*
X002674Y013731D01*
X002461Y014026D02*
X003441Y014026D01*
X003385Y013970D02*
X003385Y013970D01*
X003316Y013928D02*
X002362Y013928D01*
X002222Y013829D02*
X003283Y013829D01*
X003210Y014074D02*
X003260Y014095D01*
X003305Y014125D01*
X003344Y014163D01*
X003374Y014208D01*
X003394Y014258D01*
X003405Y014311D01*
X003405Y014326D01*
X003143Y014326D01*
X003143Y014351D01*
X003405Y014351D01*
X003405Y014365D01*
X003394Y014419D01*
X003374Y014469D01*
X003344Y014514D01*
X003305Y014552D01*
X003260Y014582D01*
X003210Y014603D01*
X003157Y014613D01*
X003143Y014613D01*
X003143Y014351D01*
X003117Y014351D01*
X003117Y014326D01*
X002855Y014326D01*
X002855Y014311D01*
X002866Y014258D01*
X002886Y014208D01*
X002916Y014163D01*
X002955Y014125D01*
X003000Y014095D01*
X003050Y014074D01*
X003103Y014063D01*
X003117Y014063D01*
X003117Y014326D01*
X003143Y014326D01*
X003143Y014063D01*
X003157Y014063D01*
X003210Y014074D01*
X003143Y014125D02*
X003117Y014125D01*
X003117Y014223D02*
X003143Y014223D01*
X003143Y014322D02*
X003117Y014322D01*
X003117Y014351D02*
X002855Y014351D01*
X002855Y014365D01*
X002866Y014419D01*
X002886Y014469D01*
X002916Y014514D01*
X002955Y014552D01*
X003000Y014582D01*
X003050Y014603D01*
X003103Y014613D01*
X003117Y014613D01*
X003117Y014351D01*
X003117Y014420D02*
X003143Y014420D01*
X003143Y014519D02*
X003117Y014519D01*
X002922Y014519D02*
X002595Y014519D01*
X002595Y014420D02*
X002866Y014420D01*
X002855Y014322D02*
X002595Y014322D01*
X002559Y014223D02*
X002880Y014223D01*
X002955Y014125D02*
X002518Y014125D01*
X002582Y014617D02*
X005333Y014617D01*
X005333Y014519D02*
X003338Y014519D01*
X003394Y014420D02*
X004790Y014420D01*
X004705Y014322D02*
X003405Y014322D01*
X003380Y014223D02*
X004705Y014223D01*
X004721Y014125D02*
X003305Y014125D01*
X003779Y014026D02*
X004755Y014026D01*
X004695Y013928D02*
X004525Y013928D01*
X004582Y013829D02*
X004638Y013829D01*
X004638Y013731D02*
X004582Y013731D01*
X004582Y013632D02*
X004638Y013632D01*
X004638Y013534D02*
X004582Y013534D01*
X004582Y013435D02*
X004638Y013435D01*
X004647Y013337D02*
X004573Y013337D01*
X004622Y013041D02*
X004659Y013041D01*
X004648Y012943D02*
X004632Y012943D01*
X004632Y012844D02*
X004648Y012844D01*
X004334Y012943D02*
X004237Y012943D01*
X004237Y013041D02*
X004334Y013041D01*
X004334Y012647D02*
X004237Y012647D01*
X004237Y012549D02*
X004334Y012549D01*
X004334Y012450D02*
X004237Y012450D01*
X003939Y012549D02*
X002943Y012549D01*
X002869Y012647D02*
X003939Y012647D01*
X003283Y012746D02*
X002737Y012746D01*
X002622Y012844D02*
X002945Y012844D01*
X002847Y012943D02*
X002806Y012943D01*
X003089Y013238D02*
X003296Y013238D01*
X003937Y013435D02*
X003969Y013435D01*
X004026Y013928D02*
X003904Y013928D01*
X005135Y014026D02*
X005333Y014026D01*
X005333Y013928D02*
X005194Y013928D01*
X005251Y013829D02*
X005333Y013829D01*
X005394Y013731D02*
X005251Y013731D01*
X005251Y013632D02*
X005929Y013632D01*
X006036Y013534D02*
X005251Y013534D01*
X005251Y013435D02*
X006083Y013435D01*
X006072Y013337D02*
X005242Y013337D01*
X005135Y013238D02*
X006092Y013238D01*
X005536Y013140D02*
X005135Y013140D01*
X005251Y013041D02*
X005530Y013041D01*
X005333Y014125D02*
X005159Y014125D01*
X005175Y014223D02*
X005333Y014223D01*
X005339Y014322D02*
X005175Y014322D01*
X005090Y014420D02*
X005374Y014420D01*
X005333Y014716D02*
X002541Y014716D01*
X002501Y014814D02*
X005333Y014814D01*
X005333Y014913D02*
X002418Y014913D01*
X002733Y016424D02*
X002550Y016607D01*
X002550Y017144D01*
X002657Y017144D01*
X002827Y017215D01*
X002958Y017345D01*
X002984Y017409D01*
X002994Y017398D01*
X003606Y017398D01*
X003670Y017463D01*
X003670Y017774D01*
X003669Y017775D01*
X003680Y017786D01*
X003700Y017820D01*
X003710Y017859D01*
X003710Y017983D01*
X003305Y017983D01*
X003305Y017993D01*
X003710Y017993D01*
X003710Y018118D01*
X003700Y018156D01*
X003680Y018190D01*
X003669Y018202D01*
X003670Y018203D01*
X003670Y018514D01*
X003606Y018578D01*
X002994Y018578D01*
X002974Y018558D01*
X002260Y018558D01*
X002260Y018104D01*
X002604Y018104D01*
X002630Y018108D01*
X002630Y018073D01*
X001763Y018073D01*
X001593Y018002D01*
X001465Y017874D01*
X001465Y018288D01*
X001471Y018280D01*
X001527Y018224D01*
X001591Y018177D01*
X001662Y018141D01*
X001738Y018116D01*
X001816Y018104D01*
X002160Y018104D01*
X002160Y018558D01*
X002260Y018558D01*
X002260Y018658D01*
X003067Y018658D01*
X003056Y018726D01*
X003032Y018802D01*
X002996Y018873D01*
X002949Y018937D01*
X002893Y018993D01*
X002829Y019040D01*
X002758Y019076D01*
X002682Y019100D01*
X002604Y019113D01*
X002260Y019113D01*
X002260Y018658D01*
X002160Y018658D01*
X002160Y019113D01*
X001816Y019113D01*
X001738Y019100D01*
X001662Y019076D01*
X001591Y019040D01*
X001527Y018993D01*
X001471Y018937D01*
X001465Y018929D01*
X001465Y019342D01*
X001593Y019215D01*
X001763Y019144D01*
X002657Y019144D01*
X002827Y019215D01*
X002886Y019273D01*
X002950Y019210D01*
X003061Y019098D01*
X003343Y019098D01*
X003343Y019051D01*
X003408Y018987D01*
X003932Y018987D01*
X003997Y019051D01*
X003997Y019536D01*
X003932Y019600D01*
X003408Y019600D01*
X003343Y019536D01*
X003343Y019478D01*
X003219Y019478D01*
X003029Y019668D01*
X003029Y019701D01*
X002958Y019871D01*
X002827Y020002D01*
X002657Y020073D01*
X002121Y020073D01*
X002354Y020169D01*
X002549Y020365D01*
X002655Y020620D01*
X002655Y020897D01*
X002549Y021152D01*
X002442Y021259D01*
X005393Y021259D01*
X005393Y020771D01*
X005458Y020706D01*
X005942Y020706D01*
X006007Y020771D01*
X006007Y020843D01*
X006203Y020843D01*
X006203Y020791D01*
X006268Y020726D01*
X006792Y020726D01*
X006857Y020791D01*
X006857Y021022D01*
X006872Y021038D01*
X007059Y021038D01*
X007059Y020616D01*
X007123Y020551D01*
X007195Y020551D01*
X007195Y020338D01*
X006954Y020338D01*
X006924Y020308D01*
X006899Y020308D01*
X006857Y020350D01*
X006857Y020606D01*
X006792Y020670D01*
X006268Y020670D01*
X006203Y020606D01*
X006203Y020261D01*
X006007Y020437D01*
X006007Y020626D01*
X006223Y020626D01*
X006203Y020527D02*
X006007Y020527D01*
X006016Y020429D02*
X006203Y020429D01*
X006203Y020330D02*
X006126Y020330D01*
X006007Y020626D02*
X005942Y020690D01*
X005458Y020690D01*
X005393Y020626D01*
X005235Y020626D01*
X005235Y020646D02*
X005097Y020783D01*
X004903Y020783D01*
X004765Y020646D01*
X004765Y020451D01*
X004815Y020401D01*
X004815Y020245D01*
X004762Y020245D01*
X004698Y020180D01*
X004698Y019656D01*
X004762Y019592D01*
X004815Y019592D01*
X004815Y019405D01*
X004772Y019405D01*
X004708Y019340D01*
X004708Y018816D01*
X004772Y018752D01*
X005201Y018752D01*
X005065Y018616D01*
X005065Y018421D01*
X005203Y018283D01*
X005397Y018283D01*
X005442Y018328D01*
X005590Y018328D01*
X005590Y017833D01*
X005654Y017768D01*
X005966Y017768D01*
X005990Y017793D01*
X005990Y017667D01*
X005983Y017659D01*
X005698Y017659D01*
X005633Y017595D01*
X005633Y017544D01*
X005494Y017683D01*
X005494Y018210D01*
X005430Y018274D01*
X004630Y018274D01*
X004590Y018234D01*
X004590Y018514D01*
X004526Y018578D01*
X003914Y018578D01*
X003850Y018514D01*
X003850Y018203D01*
X003914Y018138D01*
X004030Y018138D01*
X004030Y018090D01*
X004185Y017935D01*
X004185Y017871D01*
X004218Y017838D01*
X003914Y017838D01*
X003850Y017774D01*
X003850Y017463D01*
X003914Y017398D01*
X004030Y017398D01*
X004030Y017155D01*
X003853Y017155D01*
X003801Y017104D01*
X003782Y017137D01*
X003754Y017165D01*
X003720Y017185D01*
X003682Y017195D01*
X003494Y017195D01*
X003494Y016897D01*
X003397Y016897D01*
X003397Y017195D01*
X003209Y017195D01*
X003171Y017185D01*
X003137Y017165D01*
X003109Y017137D01*
X003089Y017103D01*
X003079Y017065D01*
X003079Y016897D01*
X003397Y016897D01*
X003397Y016800D01*
X003079Y016800D01*
X003079Y016632D01*
X003089Y016594D01*
X003109Y016559D01*
X003137Y016531D01*
X003171Y016512D01*
X003209Y016501D01*
X003397Y016501D01*
X003397Y016800D01*
X003494Y016800D01*
X003494Y016501D01*
X003682Y016501D01*
X003720Y016512D01*
X003754Y016531D01*
X003782Y016559D01*
X003801Y016593D01*
X003853Y016541D01*
X004144Y016541D01*
X004182Y016528D01*
X004209Y016541D01*
X004377Y016541D01*
X004441Y016606D01*
X004441Y017091D01*
X004410Y017122D01*
X004410Y017398D01*
X004526Y017398D01*
X004590Y017463D01*
X004590Y017465D01*
X004630Y017425D01*
X005215Y017425D01*
X005380Y017260D01*
X005436Y017203D01*
X005404Y017212D01*
X005080Y017212D01*
X005080Y016797D01*
X005534Y016797D01*
X005534Y017082D01*
X005524Y017120D01*
X005508Y017148D01*
X005633Y017148D01*
X005633Y017071D01*
X005684Y017020D01*
X005651Y017000D01*
X005623Y016972D01*
X005603Y016938D01*
X005593Y016900D01*
X005593Y016712D01*
X005892Y016712D01*
X005892Y016615D01*
X005593Y016615D01*
X005593Y016427D01*
X005594Y016424D01*
X005534Y016424D01*
X005534Y016697D01*
X005080Y016697D01*
X005080Y016797D01*
X004980Y016797D01*
X004980Y016697D01*
X004526Y016697D01*
X004526Y016424D01*
X002733Y016424D01*
X002669Y016489D02*
X004526Y016489D01*
X004526Y016587D02*
X004423Y016587D01*
X004441Y016686D02*
X004526Y016686D01*
X004526Y016797D02*
X004980Y016797D01*
X004980Y017212D01*
X004656Y017212D01*
X004618Y017202D01*
X004584Y017182D01*
X004556Y017154D01*
X004536Y017120D01*
X004526Y017082D01*
X004526Y016797D01*
X004441Y016784D02*
X004980Y016784D01*
X004980Y016883D02*
X005080Y016883D01*
X005080Y016981D02*
X004980Y016981D01*
X004980Y017080D02*
X005080Y017080D01*
X005080Y017178D02*
X004980Y017178D01*
X005264Y017375D02*
X004410Y017375D01*
X004410Y017277D02*
X005363Y017277D01*
X005534Y017080D02*
X005633Y017080D01*
X005632Y016981D02*
X005534Y016981D01*
X005534Y016883D02*
X005593Y016883D01*
X005593Y016784D02*
X005080Y016784D01*
X005534Y016686D02*
X005892Y016686D01*
X005988Y016686D02*
X006527Y016686D01*
X006422Y016784D02*
X006287Y016784D01*
X006287Y016883D02*
X006323Y016883D01*
X006305Y016981D02*
X006248Y016981D01*
X006247Y017080D02*
X006305Y017080D01*
X006247Y017178D02*
X006388Y017178D01*
X006247Y017277D02*
X006761Y017277D01*
X006760Y017375D02*
X006247Y017375D01*
X006330Y017474D02*
X006372Y017474D01*
X006692Y017178D02*
X006761Y017178D01*
X006728Y017474D02*
X006860Y017474D01*
X006785Y017572D02*
X007042Y017572D01*
X006972Y017671D02*
X006785Y017671D01*
X005990Y017671D02*
X005506Y017671D01*
X005494Y017769D02*
X005653Y017769D01*
X005590Y017868D02*
X005494Y017868D01*
X005494Y017966D02*
X005590Y017966D01*
X005590Y018065D02*
X005494Y018065D01*
X005494Y018163D02*
X005590Y018163D01*
X005590Y018262D02*
X005443Y018262D01*
X005126Y018360D02*
X004590Y018360D01*
X004590Y018262D02*
X004617Y018262D01*
X004590Y018459D02*
X005065Y018459D01*
X005065Y018557D02*
X004547Y018557D01*
X004562Y018712D02*
X004394Y018712D01*
X004394Y019030D01*
X004394Y019127D01*
X004297Y019127D01*
X004297Y019445D01*
X004129Y019445D01*
X004091Y019435D01*
X004056Y019415D01*
X004028Y019387D01*
X004009Y019353D01*
X003999Y019315D01*
X003999Y019127D01*
X004297Y019127D01*
X004297Y019030D01*
X003999Y019030D01*
X003999Y018842D01*
X004009Y018804D01*
X004028Y018770D01*
X004056Y018742D01*
X004091Y018722D01*
X004129Y018712D01*
X004297Y018712D01*
X004297Y019030D01*
X004394Y019030D01*
X004692Y019030D01*
X004692Y018842D01*
X004682Y018804D01*
X004662Y018770D01*
X004634Y018742D01*
X004600Y018722D01*
X004562Y018712D01*
X004647Y018754D02*
X004770Y018754D01*
X004708Y018853D02*
X004692Y018853D01*
X004692Y018951D02*
X004708Y018951D01*
X004708Y019050D02*
X004394Y019050D01*
X004394Y019127D02*
X004692Y019127D01*
X004692Y019315D01*
X004682Y019353D01*
X004662Y019387D01*
X004634Y019415D01*
X004600Y019435D01*
X004562Y019445D01*
X004394Y019445D01*
X004394Y019127D01*
X004394Y019148D02*
X004297Y019148D01*
X004297Y019050D02*
X003995Y019050D01*
X003997Y019148D02*
X003999Y019148D01*
X003997Y019247D02*
X003999Y019247D01*
X003997Y019345D02*
X004007Y019345D01*
X003997Y019444D02*
X004125Y019444D01*
X004093Y019592D02*
X004578Y019592D01*
X004642Y019656D01*
X004642Y020180D01*
X004578Y020245D01*
X004093Y020245D01*
X004029Y020180D01*
X004029Y020153D01*
X003997Y020153D01*
X003997Y020205D01*
X003932Y020270D01*
X003905Y020270D01*
X003822Y020353D01*
X003518Y020353D01*
X003445Y020280D01*
X003435Y020270D01*
X003408Y020270D01*
X003343Y020205D01*
X003343Y019721D01*
X003408Y019656D01*
X003932Y019656D01*
X003997Y019721D01*
X003997Y019773D01*
X004029Y019773D01*
X004029Y019656D01*
X004093Y019592D01*
X004044Y019641D02*
X003056Y019641D01*
X003013Y019739D02*
X003343Y019739D01*
X003343Y019838D02*
X002972Y019838D01*
X002893Y019936D02*
X003343Y019936D01*
X003343Y020035D02*
X002748Y020035D01*
X002515Y020330D02*
X003495Y020330D01*
X003370Y020232D02*
X002416Y020232D01*
X002267Y020133D02*
X003343Y020133D01*
X003270Y020384D02*
X003320Y020405D01*
X003365Y020435D01*
X003404Y020473D01*
X003434Y020518D01*
X003454Y020568D01*
X003465Y020621D01*
X003465Y020636D01*
X003203Y020636D01*
X003203Y020661D01*
X003465Y020661D01*
X003465Y020675D01*
X003454Y020729D01*
X003434Y020779D01*
X003404Y020824D01*
X003365Y020862D01*
X003320Y020892D01*
X003270Y020913D01*
X003217Y020923D01*
X003203Y020923D01*
X003203Y020661D01*
X003177Y020661D01*
X003177Y020636D01*
X002915Y020636D01*
X002915Y020621D01*
X002926Y020568D01*
X002946Y020518D01*
X002976Y020473D01*
X003015Y020435D01*
X003060Y020405D01*
X003110Y020384D01*
X003163Y020373D01*
X003177Y020373D01*
X003177Y020636D01*
X003203Y020636D01*
X003203Y020373D01*
X003217Y020373D01*
X003270Y020384D01*
X003203Y020429D02*
X003177Y020429D01*
X003177Y020527D02*
X003203Y020527D01*
X003203Y020626D02*
X003177Y020626D01*
X003177Y020661D02*
X002915Y020661D01*
X002915Y020675D01*
X002926Y020729D01*
X002946Y020779D01*
X002976Y020824D01*
X003015Y020862D01*
X003060Y020892D01*
X003110Y020913D01*
X003163Y020923D01*
X003177Y020923D01*
X003177Y020661D01*
X003177Y020724D02*
X003203Y020724D01*
X003203Y020823D02*
X003177Y020823D01*
X003177Y020921D02*
X003203Y020921D01*
X003227Y020921D02*
X005393Y020921D01*
X005393Y020823D02*
X003404Y020823D01*
X003455Y020724D02*
X004844Y020724D01*
X004765Y020626D02*
X003465Y020626D01*
X003438Y020527D02*
X004765Y020527D01*
X004787Y020429D02*
X003357Y020429D01*
X003023Y020429D02*
X002576Y020429D01*
X002617Y020527D02*
X002942Y020527D01*
X002915Y020626D02*
X002655Y020626D01*
X002655Y020724D02*
X002925Y020724D01*
X002976Y020823D02*
X002655Y020823D01*
X002645Y020921D02*
X003153Y020921D01*
X002604Y021020D02*
X005393Y021020D01*
X005393Y021118D02*
X002563Y021118D01*
X002484Y021217D02*
X005393Y021217D01*
X005440Y020724D02*
X005156Y020724D01*
X005235Y020646D02*
X005235Y020451D01*
X005195Y020411D01*
X005195Y020245D01*
X005247Y020245D01*
X005311Y020180D01*
X005311Y019656D01*
X005247Y019592D01*
X005195Y019592D01*
X005195Y019405D01*
X005257Y019405D01*
X005321Y019340D01*
X005321Y019268D01*
X005590Y019268D01*
X005590Y019444D01*
X005654Y019508D01*
X005966Y019508D01*
X005967Y019507D01*
X005978Y019518D01*
X006012Y019538D01*
X006050Y019548D01*
X006152Y019548D01*
X006132Y019597D01*
X006132Y019720D01*
X006172Y019817D01*
X006132Y019814D01*
X006127Y019818D01*
X006121Y019818D01*
X006069Y019870D01*
X005884Y020037D01*
X005458Y020037D01*
X005393Y020102D01*
X005393Y020626D01*
X005393Y020527D02*
X005235Y020527D01*
X005213Y020429D02*
X005393Y020429D01*
X005393Y020330D02*
X005195Y020330D01*
X005260Y020232D02*
X005393Y020232D01*
X005393Y020133D02*
X005311Y020133D01*
X005311Y020035D02*
X005886Y020035D01*
X005996Y019936D02*
X005311Y019936D01*
X005311Y019838D02*
X006102Y019838D01*
X006140Y019739D02*
X005311Y019739D01*
X005296Y019641D02*
X006132Y019641D01*
X006028Y019542D02*
X005195Y019542D01*
X005195Y019444D02*
X005590Y019444D01*
X005590Y019345D02*
X005317Y019345D01*
X004815Y019444D02*
X004566Y019444D01*
X004684Y019345D02*
X004713Y019345D01*
X004708Y019247D02*
X004692Y019247D01*
X004692Y019148D02*
X004708Y019148D01*
X004394Y019247D02*
X004297Y019247D01*
X004297Y019345D02*
X004394Y019345D01*
X004394Y019444D02*
X004297Y019444D01*
X003990Y019542D02*
X004815Y019542D01*
X004713Y019641D02*
X004627Y019641D01*
X004642Y019739D02*
X004698Y019739D01*
X004698Y019838D02*
X004642Y019838D01*
X004642Y019936D02*
X004698Y019936D01*
X004698Y020035D02*
X004642Y020035D01*
X004642Y020133D02*
X004698Y020133D01*
X004749Y020232D02*
X004591Y020232D01*
X004815Y020330D02*
X003845Y020330D01*
X003970Y020232D02*
X004080Y020232D01*
X004029Y019739D02*
X003997Y019739D01*
X003350Y019542D02*
X003155Y019542D01*
X002913Y019247D02*
X002860Y019247D01*
X003011Y019148D02*
X002667Y019148D01*
X002809Y019050D02*
X003345Y019050D01*
X003006Y018853D02*
X003999Y018853D01*
X003999Y018951D02*
X002935Y018951D01*
X003047Y018754D02*
X004044Y018754D01*
X003893Y018557D02*
X003627Y018557D01*
X003670Y018459D02*
X003850Y018459D01*
X003850Y018360D02*
X003670Y018360D01*
X003670Y018262D02*
X003850Y018262D01*
X003889Y018163D02*
X003696Y018163D01*
X003710Y018065D02*
X004055Y018065D01*
X004153Y017966D02*
X003710Y017966D01*
X003710Y017868D02*
X004188Y017868D01*
X003850Y017769D02*
X003670Y017769D01*
X003670Y017671D02*
X003850Y017671D01*
X003850Y017572D02*
X003670Y017572D01*
X003670Y017474D02*
X003850Y017474D01*
X004030Y017375D02*
X002970Y017375D01*
X002890Y017277D02*
X004030Y017277D01*
X004030Y017178D02*
X003731Y017178D01*
X003494Y017178D02*
X003397Y017178D01*
X003397Y017080D02*
X003494Y017080D01*
X003494Y016981D02*
X003397Y016981D01*
X003397Y016883D02*
X002550Y016883D01*
X002550Y016981D02*
X003079Y016981D01*
X003083Y017080D02*
X002550Y017080D01*
X002740Y017178D02*
X003159Y017178D01*
X003079Y016784D02*
X002550Y016784D01*
X002550Y016686D02*
X003079Y016686D01*
X003093Y016587D02*
X002570Y016587D01*
X003397Y016587D02*
X003494Y016587D01*
X003494Y016686D02*
X003397Y016686D01*
X003397Y016784D02*
X003494Y016784D01*
X003798Y016587D02*
X003807Y016587D01*
X004441Y016883D02*
X004526Y016883D01*
X004526Y016981D02*
X004441Y016981D01*
X004441Y017080D02*
X004526Y017080D01*
X004580Y017178D02*
X004410Y017178D01*
X005605Y017572D02*
X005633Y017572D01*
X005967Y017769D02*
X005990Y017769D01*
X005105Y018656D02*
X002260Y018656D01*
X002260Y018754D02*
X002160Y018754D01*
X002160Y018853D02*
X002260Y018853D01*
X002260Y018951D02*
X002160Y018951D01*
X002160Y019050D02*
X002260Y019050D01*
X002260Y018557D02*
X002160Y018557D01*
X002160Y018459D02*
X002260Y018459D01*
X002260Y018360D02*
X002160Y018360D01*
X002160Y018262D02*
X002260Y018262D01*
X002260Y018163D02*
X002160Y018163D01*
X001744Y018065D02*
X001465Y018065D01*
X001465Y018163D02*
X001618Y018163D01*
X001489Y018262D02*
X001465Y018262D01*
X001465Y017966D02*
X001557Y017966D01*
X001485Y018951D02*
X001465Y018951D01*
X001465Y019050D02*
X001611Y019050D01*
X001753Y019148D02*
X001465Y019148D01*
X001465Y019247D02*
X001560Y019247D01*
X004297Y018951D02*
X004394Y018951D01*
X004394Y018853D02*
X004297Y018853D01*
X004297Y018754D02*
X004394Y018754D01*
X005534Y016587D02*
X005593Y016587D01*
X005593Y016489D02*
X005534Y016489D01*
X006287Y016489D02*
X006765Y016489D01*
X006764Y016587D02*
X006287Y016587D01*
X007686Y018163D02*
X007701Y018163D01*
X008195Y018262D02*
X009015Y018262D01*
X009004Y018163D02*
X009015Y018163D01*
X009015Y018157D02*
X009015Y018157D01*
X009063Y018093D02*
X009153Y018003D01*
X009167Y018003D01*
X009167Y017731D01*
X009073Y017640D01*
X009073Y017713D01*
X008774Y017713D01*
X008774Y017810D01*
X009073Y017810D01*
X009073Y018057D01*
X009063Y018093D01*
X009071Y018065D02*
X009091Y018065D01*
X009073Y017966D02*
X009167Y017966D01*
X009167Y017868D02*
X009073Y017868D01*
X009167Y017769D02*
X008774Y017769D01*
X008678Y017769D02*
X008331Y017769D01*
X008331Y017671D02*
X008379Y017671D01*
X008379Y017868D02*
X008331Y017868D01*
X008331Y017966D02*
X008379Y017966D01*
X008381Y018065D02*
X008331Y018065D01*
X008309Y018163D02*
X008448Y018163D01*
X008678Y018163D02*
X008774Y018163D01*
X008774Y018065D02*
X008678Y018065D01*
X008678Y017966D02*
X008774Y017966D01*
X008774Y017868D02*
X008678Y017868D01*
X009073Y017671D02*
X009105Y017671D01*
X009485Y018163D02*
X009791Y018163D01*
X009781Y018065D02*
X011362Y018065D01*
X011304Y018163D02*
X011242Y018163D01*
X010948Y018163D02*
X010852Y018163D01*
X010852Y018097D02*
X010852Y018395D01*
X010533Y018395D01*
X010533Y018227D01*
X010544Y018189D01*
X010563Y018155D01*
X010591Y018127D01*
X010626Y018107D01*
X010664Y018097D01*
X010852Y018097D01*
X010852Y018262D02*
X010948Y018262D01*
X010948Y018360D02*
X010852Y018360D01*
X010852Y018557D02*
X010948Y018557D01*
X010948Y018656D02*
X010852Y018656D01*
X010852Y018754D02*
X010948Y018754D01*
X011227Y018951D02*
X011495Y018951D01*
X011377Y019050D02*
X011227Y019050D01*
X011227Y019148D02*
X011310Y019148D01*
X011344Y019633D02*
X011169Y019808D01*
X009716Y019808D01*
X009686Y019838D01*
X011560Y019838D01*
X011560Y019792D02*
X011463Y019752D01*
X011344Y019633D01*
X011336Y019641D02*
X011352Y019641D01*
X011450Y019739D02*
X011238Y019739D01*
X011135Y020183D02*
X010850Y020183D01*
X010850Y020638D01*
X010750Y020638D01*
X010750Y020183D01*
X010465Y020183D01*
X010427Y020194D01*
X010393Y020213D01*
X010365Y020241D01*
X010345Y020275D01*
X010335Y020314D01*
X010335Y020638D01*
X010750Y020638D01*
X010750Y020738D01*
X010335Y020738D01*
X010335Y021063D01*
X010345Y021101D01*
X010365Y021135D01*
X010393Y021163D01*
X010427Y021183D01*
X010465Y021193D01*
X010750Y021193D01*
X010750Y020738D01*
X010850Y020738D01*
X011265Y020738D01*
X011265Y021063D01*
X011255Y021101D01*
X011235Y021135D01*
X011207Y021163D01*
X011173Y021183D01*
X011135Y021193D01*
X010850Y021193D01*
X010850Y020738D01*
X010850Y020638D01*
X011265Y020638D01*
X011265Y020314D01*
X011255Y020275D01*
X011235Y020241D01*
X011207Y020213D01*
X011173Y020194D01*
X011135Y020183D01*
X011226Y020232D02*
X011551Y020232D01*
X011559Y020223D02*
X011560Y020223D01*
X011560Y019792D01*
X011560Y019936D02*
X009772Y019936D01*
X009780Y019950D02*
X009790Y019989D01*
X009790Y020113D01*
X009255Y020113D01*
X009255Y019858D01*
X009660Y019858D01*
X009698Y019869D01*
X009732Y019888D01*
X009760Y019916D01*
X009780Y019950D01*
X009790Y020035D02*
X011560Y020035D01*
X011560Y020133D02*
X009790Y020133D01*
X009790Y020123D02*
X009790Y020248D01*
X009780Y020286D01*
X009760Y020320D01*
X009732Y020348D01*
X009698Y020368D01*
X009660Y020378D01*
X009359Y020378D01*
X009360Y020380D01*
X009522Y020542D01*
X009617Y020542D01*
X009681Y020606D01*
X009681Y021130D01*
X009617Y021195D01*
X009132Y021195D01*
X009068Y021130D01*
X009068Y020648D01*
X009012Y020648D01*
X009012Y021130D01*
X008948Y021195D01*
X008855Y021195D01*
X008812Y021235D01*
X008788Y021259D01*
X012766Y021259D01*
X012766Y019683D01*
X012697Y019752D01*
X012527Y019823D01*
X012280Y019823D01*
X012280Y020223D01*
X012280Y020223D01*
X012345Y020288D01*
X012345Y021089D01*
X012280Y021153D01*
X011559Y021153D01*
X011495Y021089D01*
X011495Y020288D01*
X011559Y020223D01*
X011495Y020330D02*
X011265Y020330D01*
X011265Y020429D02*
X011495Y020429D01*
X011495Y020527D02*
X011265Y020527D01*
X011265Y020626D02*
X011495Y020626D01*
X011495Y020724D02*
X010850Y020724D01*
X010850Y020626D02*
X010750Y020626D01*
X010750Y020724D02*
X009681Y020724D01*
X009681Y020626D02*
X010335Y020626D01*
X010335Y020527D02*
X009508Y020527D01*
X009409Y020429D02*
X010335Y020429D01*
X010335Y020330D02*
X009750Y020330D01*
X009790Y020232D02*
X010375Y020232D01*
X010750Y020232D02*
X010850Y020232D01*
X010850Y020330D02*
X010750Y020330D01*
X010750Y020429D02*
X010850Y020429D01*
X010850Y020527D02*
X010750Y020527D01*
X010750Y020823D02*
X010850Y020823D01*
X010850Y020921D02*
X010750Y020921D01*
X010750Y021020D02*
X010850Y021020D01*
X010850Y021118D02*
X010750Y021118D01*
X010355Y021118D02*
X009681Y021118D01*
X009681Y021020D02*
X010335Y021020D01*
X010335Y020921D02*
X009681Y020921D01*
X009681Y020823D02*
X010335Y020823D01*
X009790Y020123D02*
X009255Y020123D01*
X009255Y020113D01*
X009245Y020113D01*
X009245Y019858D01*
X008840Y019858D01*
X008820Y019864D01*
X008820Y019838D01*
X009686Y019838D01*
X009255Y019936D02*
X009245Y019936D01*
X009245Y020035D02*
X009255Y020035D01*
X009068Y020724D02*
X009012Y020724D01*
X009012Y020823D02*
X009068Y020823D01*
X009068Y020921D02*
X009012Y020921D01*
X009012Y021020D02*
X009068Y021020D01*
X009068Y021118D02*
X009012Y021118D01*
X008832Y021217D02*
X012766Y021217D01*
X012766Y021118D02*
X012315Y021118D01*
X012345Y021020D02*
X012766Y021020D01*
X012766Y020921D02*
X012345Y020921D01*
X012345Y020823D02*
X012766Y020823D01*
X012766Y020724D02*
X012345Y020724D01*
X012345Y020626D02*
X012766Y020626D01*
X012766Y020527D02*
X012345Y020527D01*
X012345Y020429D02*
X012766Y020429D01*
X012766Y020330D02*
X012345Y020330D01*
X012289Y020232D02*
X012766Y020232D01*
X012766Y020133D02*
X012280Y020133D01*
X012280Y020035D02*
X012766Y020035D01*
X012766Y019936D02*
X012280Y019936D01*
X012280Y019838D02*
X012766Y019838D01*
X012766Y019739D02*
X012710Y019739D01*
X012665Y018951D02*
X012766Y018951D01*
X011720Y017868D02*
X009781Y017868D01*
X009781Y017966D02*
X011461Y017966D01*
X011720Y017769D02*
X009781Y017769D01*
X009781Y017671D02*
X011720Y017671D01*
X011665Y017572D02*
X009781Y017572D01*
X010057Y017474D02*
X011566Y017474D01*
X010558Y018163D02*
X010369Y018163D01*
X010407Y018262D02*
X010533Y018262D01*
X010533Y018360D02*
X010407Y018360D01*
X009648Y018262D02*
X009485Y018262D01*
X009460Y018360D02*
X009549Y018360D01*
X009040Y018360D02*
X008195Y018360D01*
X008195Y018459D02*
X008651Y018459D01*
X008552Y018557D02*
X008195Y018557D01*
X008111Y018656D02*
X008454Y018656D01*
X008440Y018754D02*
X008013Y018754D01*
X007879Y018951D02*
X008440Y018951D01*
X008440Y019050D02*
X007890Y019050D01*
X007890Y019148D02*
X008440Y019148D01*
X008440Y019247D02*
X007890Y019247D01*
X007871Y019444D02*
X008440Y019444D01*
X008440Y019542D02*
X007890Y019542D01*
X007890Y019641D02*
X008440Y019641D01*
X008440Y019739D02*
X007890Y019739D01*
X007826Y019838D02*
X007042Y019838D01*
X006975Y019898D01*
X007826Y019898D01*
X007890Y019963D01*
X007890Y020035D02*
X008440Y020035D01*
X008440Y020133D02*
X007890Y020133D01*
X007890Y020232D02*
X008440Y020232D01*
X008440Y020330D02*
X007834Y020330D01*
X007770Y020527D02*
X007575Y020527D01*
X007575Y020429D02*
X008492Y020429D01*
X008590Y020527D02*
X008339Y020527D01*
X008103Y020527D02*
X008006Y020527D01*
X008006Y020626D02*
X008103Y020626D01*
X008103Y020724D02*
X008006Y020724D01*
X007195Y020527D02*
X006857Y020527D01*
X006857Y020429D02*
X007195Y020429D01*
X007059Y020626D02*
X006837Y020626D01*
X006857Y020823D02*
X007059Y020823D01*
X007059Y020921D02*
X006857Y020921D01*
X006857Y021020D02*
X007059Y021020D01*
X007059Y020724D02*
X005960Y020724D01*
X006007Y020823D02*
X006203Y020823D01*
X006877Y020330D02*
X006946Y020330D01*
X007580Y019345D02*
X008440Y019345D01*
X008777Y022303D02*
X008777Y022465D01*
X008458Y022465D01*
X008458Y022562D01*
X008362Y022562D01*
X008362Y022860D01*
X008174Y022860D01*
X008136Y022850D01*
X008101Y022831D01*
X008073Y022803D01*
X008054Y022768D01*
X008043Y022730D01*
X008043Y022562D01*
X008362Y022562D01*
X008362Y022465D01*
X008043Y022465D01*
X008043Y022303D01*
X006930Y022303D01*
X006930Y022942D01*
X007268Y022942D01*
X007332Y023006D01*
X007332Y023530D01*
X007301Y023562D01*
X007424Y023566D01*
X007388Y023530D01*
X007388Y023006D01*
X007452Y022942D01*
X007937Y022942D01*
X008001Y023006D01*
X008001Y023398D01*
X008180Y023564D01*
X008623Y023550D01*
X008563Y023490D01*
X008148Y023490D01*
X008083Y023425D01*
X008083Y022941D01*
X008148Y022876D01*
X008672Y022876D01*
X008737Y022941D01*
X008737Y023011D01*
X008798Y022950D01*
X009282Y022950D01*
X009347Y023014D01*
X009347Y023058D01*
X009397Y023058D01*
X009397Y023010D01*
X009462Y022945D01*
X010086Y022945D01*
X010086Y022851D01*
X009851Y022851D01*
X009851Y022553D01*
X009754Y022553D01*
X009754Y022851D01*
X009488Y022851D01*
X009450Y022841D01*
X009415Y022821D01*
X009387Y022793D01*
X008752Y022793D01*
X008747Y022803D02*
X008719Y022831D01*
X008684Y022850D01*
X008646Y022860D01*
X008458Y022860D01*
X008458Y022562D01*
X008777Y022562D01*
X008777Y022730D01*
X008766Y022768D01*
X008747Y022803D01*
X008687Y022891D02*
X010086Y022891D01*
X009851Y022793D02*
X009754Y022793D01*
X009754Y022694D02*
X009851Y022694D01*
X009851Y022596D02*
X009754Y022596D01*
X009754Y022553D02*
X009754Y022456D01*
X009357Y022456D01*
X009357Y022303D01*
X008777Y022303D01*
X008777Y022399D02*
X009357Y022399D01*
X009357Y022553D02*
X009754Y022553D01*
X009754Y022497D02*
X008458Y022497D01*
X008362Y022497D02*
X006930Y022497D01*
X006930Y022399D02*
X008043Y022399D01*
X008043Y022596D02*
X006930Y022596D01*
X006930Y022694D02*
X008043Y022694D01*
X008068Y022793D02*
X006930Y022793D01*
X006930Y022891D02*
X008133Y022891D01*
X008083Y022990D02*
X007985Y022990D01*
X008001Y023088D02*
X008083Y023088D01*
X008083Y023187D02*
X008001Y023187D01*
X008001Y023285D02*
X008083Y023285D01*
X008083Y023384D02*
X008001Y023384D01*
X008092Y023482D02*
X008140Y023482D01*
X007946Y023865D02*
X007281Y023872D01*
X007281Y023873D01*
X007195Y023959D01*
X007117Y023991D01*
X007227Y023991D01*
X007227Y024290D01*
X006909Y024290D01*
X006909Y024122D01*
X006919Y024084D01*
X006939Y024049D01*
X006967Y024021D01*
X006993Y024006D01*
X006959Y024006D01*
X006845Y023959D01*
X006764Y023878D01*
X006700Y023878D01*
X006712Y023643D01*
X006712Y023637D01*
X006712Y023636D01*
X006719Y023512D01*
X006719Y023462D01*
X006715Y023462D01*
X006715Y023536D01*
X006577Y023673D01*
X006383Y023673D01*
X006245Y023536D01*
X006245Y023341D01*
X006383Y023203D01*
X006404Y023203D01*
X006404Y023197D01*
X006449Y023152D01*
X006485Y023100D01*
X006502Y023097D01*
X006514Y023085D01*
X006578Y023084D01*
X006640Y023073D01*
X006654Y023083D01*
X006719Y023082D01*
X006719Y023006D01*
X006745Y022979D01*
X006751Y022864D01*
X006226Y022864D01*
X006227Y022867D01*
X006227Y023055D01*
X005928Y023055D01*
X005928Y023152D01*
X006227Y023152D01*
X006227Y023340D01*
X006217Y023378D01*
X006197Y023412D01*
X006169Y023440D01*
X006136Y023460D01*
X006187Y023511D01*
X006187Y023825D01*
X006257Y023901D01*
X006291Y023935D01*
X006393Y023833D01*
X006587Y023833D01*
X006725Y023971D01*
X006725Y024166D01*
X006680Y024211D01*
X006680Y024243D01*
X006710Y024273D01*
X006710Y024778D01*
X006754Y024778D01*
X006827Y024774D01*
X006832Y024778D01*
X006839Y024778D01*
X006890Y024830D01*
X006900Y024838D01*
X007755Y024838D01*
X007755Y024645D01*
X007683Y024645D01*
X007631Y024594D01*
X007612Y024627D01*
X007584Y024655D01*
X007550Y024675D01*
X007512Y024685D01*
X007324Y024685D01*
X007324Y024387D01*
X007227Y024387D01*
X007227Y024685D01*
X007039Y024685D01*
X007001Y024675D01*
X006967Y024655D01*
X006939Y024627D01*
X006919Y024593D01*
X006909Y024555D01*
X006909Y024387D01*
X007227Y024387D01*
X007227Y024290D01*
X007324Y024290D01*
X007324Y023991D01*
X007512Y023991D01*
X007550Y024002D01*
X007584Y024021D01*
X007612Y024049D01*
X007631Y024083D01*
X007683Y024031D01*
X008207Y024031D01*
X008271Y024096D01*
X008271Y024581D01*
X008207Y024645D01*
X008135Y024645D01*
X008135Y025012D01*
X008030Y025117D01*
X007919Y025228D01*
X007816Y025228D01*
X007766Y025278D01*
X007000Y025278D01*
X007000Y025338D01*
X007766Y025338D01*
X007830Y025403D01*
X007830Y025714D01*
X007766Y025778D01*
X007520Y025778D01*
X007520Y025838D01*
X007766Y025838D01*
X007830Y025903D01*
X007830Y026214D01*
X007766Y026278D01*
X006982Y026278D01*
X006915Y026338D01*
X007766Y026338D01*
X007830Y026403D01*
X007830Y026714D01*
X007766Y026778D01*
X007515Y026778D01*
X007515Y026991D01*
X007587Y026991D01*
X007639Y027043D01*
X007658Y027009D01*
X007686Y026981D01*
X007720Y026962D01*
X007758Y026951D01*
X007946Y026951D01*
X007946Y027250D01*
X008043Y027250D01*
X008043Y026951D01*
X008231Y026951D01*
X008269Y026962D01*
X008303Y026981D01*
X008331Y027009D01*
X008347Y027037D01*
X008403Y026982D01*
X008545Y026982D01*
X008491Y026928D01*
X008380Y026817D01*
X008380Y025110D01*
X008500Y024990D01*
X008611Y024878D01*
X008714Y024878D01*
X008754Y024838D01*
X009000Y024838D01*
X009000Y024821D01*
X008955Y024776D01*
X008955Y024597D01*
X008921Y024617D01*
X008883Y024627D01*
X008714Y024627D01*
X008714Y024250D01*
X008618Y024250D01*
X008618Y024627D01*
X008449Y024627D01*
X008411Y024617D01*
X008377Y024597D01*
X008349Y024569D01*
X008329Y024535D01*
X008319Y024497D01*
X008319Y024250D01*
X008618Y024250D01*
X008618Y024153D01*
X008319Y024153D01*
X008319Y023948D01*
X008114Y023948D01*
X008038Y023951D01*
X008035Y023948D01*
X008031Y023948D01*
X007978Y023895D01*
X007946Y023865D01*
X007958Y023876D02*
X007278Y023876D01*
X007158Y023975D02*
X008319Y023975D01*
X008319Y024073D02*
X008249Y024073D01*
X008271Y024172D02*
X008618Y024172D01*
X008714Y024172D02*
X009107Y024172D01*
X009107Y024171D02*
X009013Y024080D01*
X009013Y024153D01*
X008714Y024153D01*
X008714Y024250D01*
X009013Y024250D01*
X009013Y024497D01*
X009003Y024533D01*
X009093Y024443D01*
X009107Y024443D01*
X009107Y024171D01*
X009107Y024270D02*
X009013Y024270D01*
X009013Y024369D02*
X009107Y024369D01*
X009069Y024467D02*
X009013Y024467D01*
X008955Y024597D02*
X008955Y024597D01*
X008955Y024664D02*
X008135Y024664D01*
X008135Y024763D02*
X008955Y024763D01*
X008731Y024861D02*
X008135Y024861D01*
X008135Y024960D02*
X008530Y024960D01*
X008431Y025058D02*
X008089Y025058D01*
X007990Y025157D02*
X008380Y025157D01*
X008380Y025255D02*
X007789Y025255D01*
X007781Y025354D02*
X008380Y025354D01*
X008380Y025452D02*
X007830Y025452D01*
X007830Y025551D02*
X008380Y025551D01*
X008380Y025649D02*
X007830Y025649D01*
X007796Y025748D02*
X008380Y025748D01*
X008380Y025846D02*
X007774Y025846D01*
X007830Y025945D02*
X008380Y025945D01*
X008380Y026043D02*
X007830Y026043D01*
X007830Y026142D02*
X008380Y026142D01*
X008380Y026240D02*
X007804Y026240D01*
X007766Y026339D02*
X008380Y026339D01*
X008380Y026437D02*
X007830Y026437D01*
X007830Y026536D02*
X008380Y026536D01*
X008380Y026634D02*
X007830Y026634D01*
X007811Y026733D02*
X008380Y026733D01*
X008394Y026831D02*
X007515Y026831D01*
X007515Y026930D02*
X008493Y026930D01*
X008356Y027028D02*
X008342Y027028D01*
X008043Y027028D02*
X007946Y027028D01*
X007946Y027127D02*
X008043Y027127D01*
X008043Y027225D02*
X007946Y027225D01*
X007647Y027028D02*
X007624Y027028D01*
X007135Y026991D02*
X007135Y026778D01*
X006894Y026778D01*
X006864Y026748D01*
X006839Y026748D01*
X006797Y026790D01*
X006797Y027046D01*
X006732Y027110D01*
X006208Y027110D01*
X006143Y027046D01*
X006143Y026701D01*
X005947Y026877D01*
X005947Y027066D01*
X005882Y027130D01*
X005398Y027130D01*
X005333Y027066D01*
X005333Y026542D01*
X005398Y026477D01*
X005824Y026477D01*
X006009Y026310D01*
X006061Y026258D01*
X006067Y026258D01*
X006072Y026254D01*
X006112Y026257D01*
X006072Y026160D01*
X006072Y026037D01*
X006092Y025988D01*
X005990Y025988D01*
X005952Y025978D01*
X005918Y025958D01*
X005907Y025947D01*
X005906Y025948D01*
X005594Y025948D01*
X005530Y025884D01*
X005530Y025708D01*
X005261Y025708D01*
X005261Y025780D01*
X005197Y025845D01*
X005135Y025845D01*
X005135Y026032D01*
X005187Y026032D01*
X005251Y026096D01*
X005251Y026620D01*
X005187Y026685D01*
X005135Y026685D01*
X005135Y026851D01*
X005175Y026891D01*
X005175Y027086D01*
X005037Y027223D01*
X004843Y027223D01*
X004705Y027086D01*
X004705Y026891D01*
X004755Y026841D01*
X004755Y026685D01*
X004702Y026685D01*
X004638Y026620D01*
X004638Y026096D01*
X004702Y026032D01*
X004755Y026032D01*
X004755Y025845D01*
X004712Y025845D01*
X004648Y025780D01*
X004648Y025256D01*
X004712Y025192D01*
X005141Y025192D01*
X005005Y025056D01*
X005005Y024861D01*
X005143Y024723D01*
X005337Y024723D01*
X005382Y024768D01*
X005530Y024768D01*
X005530Y024273D01*
X005594Y024208D01*
X005906Y024208D01*
X005930Y024233D01*
X005930Y024107D01*
X005923Y024099D01*
X005638Y024099D01*
X005573Y024035D01*
X005573Y023984D01*
X005434Y024123D01*
X005434Y024650D01*
X005370Y024714D01*
X004570Y024714D01*
X004530Y024674D01*
X004530Y024954D01*
X004466Y025018D01*
X003854Y025018D01*
X003790Y024954D01*
X003790Y024643D01*
X003854Y024578D01*
X003970Y024578D01*
X003970Y024530D01*
X004125Y024375D01*
X004125Y024311D01*
X004158Y024278D01*
X003854Y024278D01*
X003790Y024214D01*
X003790Y023903D01*
X003854Y023838D01*
X003970Y023838D01*
X003970Y023595D01*
X003793Y023595D01*
X003741Y023544D01*
X003722Y023577D01*
X003694Y023605D01*
X003660Y023625D01*
X003622Y023635D01*
X003434Y023635D01*
X003434Y023337D01*
X003337Y023337D01*
X003337Y023635D01*
X003149Y023635D01*
X003111Y023625D01*
X003077Y023605D01*
X003049Y023577D01*
X003029Y023543D01*
X003019Y023505D01*
X003019Y023337D01*
X003337Y023337D01*
X003337Y023240D01*
X003019Y023240D01*
X003019Y023072D01*
X003029Y023034D01*
X003049Y022999D01*
X003077Y022971D01*
X003111Y022952D01*
X003149Y022941D01*
X003337Y022941D01*
X003337Y023240D01*
X003434Y023240D01*
X003434Y022941D01*
X003622Y022941D01*
X003660Y022952D01*
X003694Y022971D01*
X003722Y022999D01*
X003741Y023033D01*
X003793Y022981D01*
X004084Y022981D01*
X004122Y022968D01*
X004149Y022981D01*
X004317Y022981D01*
X004381Y023046D01*
X004381Y023531D01*
X004350Y023562D01*
X004350Y023838D01*
X004466Y023838D01*
X004530Y023903D01*
X004530Y023905D01*
X004570Y023865D01*
X005155Y023865D01*
X005376Y023643D01*
X005344Y023652D01*
X005020Y023652D01*
X005020Y023237D01*
X005474Y023237D01*
X005474Y023522D01*
X005464Y023560D01*
X005448Y023588D01*
X005573Y023588D01*
X005573Y023511D01*
X005624Y023460D01*
X005591Y023440D01*
X005563Y023412D01*
X005543Y023378D01*
X005533Y023340D01*
X005533Y023152D01*
X005832Y023152D01*
X005832Y023055D01*
X005533Y023055D01*
X005533Y022867D01*
X005534Y022864D01*
X005474Y022864D01*
X005474Y023137D01*
X005020Y023137D01*
X005020Y023237D01*
X004920Y023237D01*
X004920Y023137D01*
X004466Y023137D01*
X004466Y022864D01*
X002673Y022864D01*
X002490Y023047D01*
X002490Y023584D01*
X002597Y023584D01*
X002767Y023655D01*
X002898Y023785D01*
X002924Y023849D01*
X002934Y023838D01*
X003546Y023838D01*
X003610Y023903D01*
X003610Y024214D01*
X003609Y024215D01*
X003620Y024226D01*
X003640Y024260D01*
X003650Y024299D01*
X003650Y024423D01*
X003245Y024423D01*
X003245Y024433D01*
X003650Y024433D01*
X003650Y024558D01*
X003640Y024596D01*
X003620Y024630D01*
X003609Y024642D01*
X003610Y024643D01*
X003610Y024954D01*
X003546Y025018D01*
X002934Y025018D01*
X002914Y024998D01*
X002200Y024998D01*
X002200Y024544D01*
X002544Y024544D01*
X002570Y024548D01*
X002570Y024513D01*
X001703Y024513D01*
X001533Y024442D01*
X001405Y024314D01*
X001405Y024728D01*
X001411Y024720D01*
X001467Y024664D01*
X001531Y024617D01*
X001602Y024581D01*
X001678Y024556D01*
X001756Y024544D01*
X002100Y024544D01*
X002100Y024998D01*
X002200Y024998D01*
X002200Y025098D01*
X003007Y025098D01*
X002996Y025166D01*
X002972Y025242D01*
X002936Y025313D01*
X002889Y025377D01*
X002833Y025433D01*
X002769Y025480D01*
X002698Y025516D01*
X002622Y025540D01*
X002544Y025553D01*
X002200Y025553D01*
X002200Y025098D01*
X002100Y025098D01*
X002100Y025553D01*
X001756Y025553D01*
X001678Y025540D01*
X001602Y025516D01*
X001531Y025480D01*
X001467Y025433D01*
X001411Y025377D01*
X001405Y025369D01*
X001405Y025782D01*
X001533Y025655D01*
X001703Y025584D01*
X002597Y025584D01*
X002767Y025655D01*
X002826Y025713D01*
X002890Y025650D01*
X003001Y025538D01*
X003283Y025538D01*
X003283Y025491D01*
X003348Y025427D01*
X003872Y025427D01*
X003937Y025491D01*
X003937Y025976D01*
X003872Y026040D01*
X003348Y026040D01*
X003283Y025976D01*
X003283Y025918D01*
X003159Y025918D01*
X002969Y026108D01*
X002969Y026141D01*
X002898Y026311D01*
X002767Y026442D01*
X002597Y026513D01*
X002061Y026513D01*
X002294Y026609D01*
X002489Y026805D01*
X002595Y027060D01*
X002595Y027337D01*
X002489Y027592D01*
X002382Y027699D01*
X005333Y027699D01*
X005333Y027211D01*
X005398Y027146D01*
X005882Y027146D01*
X005947Y027211D01*
X005947Y027283D01*
X006143Y027283D01*
X006143Y027231D01*
X006208Y027166D01*
X006732Y027166D01*
X006797Y027231D01*
X006797Y027462D01*
X006812Y027478D01*
X006999Y027478D01*
X006999Y027056D01*
X007063Y026991D01*
X007135Y026991D01*
X007135Y026930D02*
X006797Y026930D01*
X006797Y027028D02*
X007026Y027028D01*
X006999Y027127D02*
X005886Y027127D01*
X005947Y027225D02*
X006149Y027225D01*
X006143Y027028D02*
X005947Y027028D01*
X005947Y026930D02*
X006143Y026930D01*
X006143Y026831D02*
X005998Y026831D01*
X006108Y026733D02*
X006143Y026733D01*
X005868Y026437D02*
X005251Y026437D01*
X005251Y026339D02*
X005978Y026339D01*
X006105Y026240D02*
X005251Y026240D01*
X005251Y026142D02*
X006072Y026142D01*
X006072Y026043D02*
X005199Y026043D01*
X005135Y025945D02*
X005591Y025945D01*
X005530Y025846D02*
X005135Y025846D01*
X005261Y025748D02*
X005530Y025748D01*
X005106Y025157D02*
X004521Y025157D01*
X004540Y025162D02*
X004574Y025182D01*
X004602Y025210D01*
X004622Y025244D01*
X004632Y025282D01*
X004632Y025470D01*
X004334Y025470D01*
X004334Y025567D01*
X004237Y025567D01*
X004237Y025885D01*
X004069Y025885D01*
X004031Y025875D01*
X003996Y025855D01*
X003968Y025827D01*
X003949Y025793D01*
X003939Y025755D01*
X003939Y025567D01*
X004237Y025567D01*
X004237Y025470D01*
X003939Y025470D01*
X003939Y025282D01*
X003949Y025244D01*
X003968Y025210D01*
X003996Y025182D01*
X004031Y025162D01*
X004069Y025152D01*
X004237Y025152D01*
X004237Y025470D01*
X004334Y025470D01*
X004334Y025152D01*
X004502Y025152D01*
X004540Y025162D01*
X004625Y025255D02*
X004649Y025255D01*
X004648Y025354D02*
X004632Y025354D01*
X004632Y025452D02*
X004648Y025452D01*
X004648Y025551D02*
X004334Y025551D01*
X004334Y025567D02*
X004632Y025567D01*
X004632Y025755D01*
X004622Y025793D01*
X004602Y025827D01*
X004574Y025855D01*
X004540Y025875D01*
X004502Y025885D01*
X004334Y025885D01*
X004334Y025567D01*
X004334Y025649D02*
X004237Y025649D01*
X004237Y025551D02*
X003937Y025551D01*
X003937Y025649D02*
X003939Y025649D01*
X003937Y025748D02*
X003939Y025748D01*
X003937Y025846D02*
X003988Y025846D01*
X003937Y025945D02*
X004755Y025945D01*
X004755Y025846D02*
X004583Y025846D01*
X004632Y025748D02*
X004648Y025748D01*
X004648Y025649D02*
X004632Y025649D01*
X004334Y025748D02*
X004237Y025748D01*
X004237Y025846D02*
X004334Y025846D01*
X004518Y026032D02*
X004582Y026096D01*
X004582Y026620D01*
X004518Y026685D01*
X004033Y026685D01*
X003969Y026620D01*
X003969Y026593D01*
X003937Y026593D01*
X003937Y026645D01*
X003872Y026710D01*
X003845Y026710D01*
X003762Y026793D01*
X003458Y026793D01*
X003385Y026720D01*
X003375Y026710D01*
X003348Y026710D01*
X003283Y026645D01*
X003283Y026161D01*
X003348Y026096D01*
X003872Y026096D01*
X003937Y026161D01*
X003937Y026213D01*
X003969Y026213D01*
X003969Y026096D01*
X004033Y026032D01*
X004518Y026032D01*
X004529Y026043D02*
X004691Y026043D01*
X004638Y026142D02*
X004582Y026142D01*
X004582Y026240D02*
X004638Y026240D01*
X004638Y026339D02*
X004582Y026339D01*
X004582Y026437D02*
X004638Y026437D01*
X004638Y026536D02*
X004582Y026536D01*
X004568Y026634D02*
X004652Y026634D01*
X004755Y026733D02*
X003822Y026733D01*
X003937Y026634D02*
X003982Y026634D01*
X003969Y026142D02*
X003918Y026142D01*
X004021Y026043D02*
X003034Y026043D01*
X002968Y026142D02*
X003302Y026142D01*
X003283Y026240D02*
X002927Y026240D01*
X002870Y026339D02*
X003283Y026339D01*
X003283Y026437D02*
X002772Y026437D01*
X002417Y026733D02*
X003398Y026733D01*
X003283Y026634D02*
X002319Y026634D01*
X002117Y026536D02*
X003283Y026536D01*
X003210Y026824D02*
X003260Y026845D01*
X003305Y026875D01*
X003344Y026913D01*
X003374Y026958D01*
X003394Y027008D01*
X003405Y027061D01*
X003405Y027076D01*
X003143Y027076D01*
X003143Y027101D01*
X003405Y027101D01*
X003405Y027115D01*
X003394Y027169D01*
X003374Y027219D01*
X003344Y027264D01*
X003305Y027302D01*
X003260Y027332D01*
X003210Y027353D01*
X003157Y027363D01*
X003143Y027363D01*
X003143Y027101D01*
X003117Y027101D01*
X003117Y027076D01*
X002855Y027076D01*
X002855Y027061D01*
X002866Y027008D01*
X002886Y026958D01*
X002916Y026913D01*
X002955Y026875D01*
X003000Y026845D01*
X003050Y026824D01*
X003103Y026813D01*
X003117Y026813D01*
X003117Y027076D01*
X003143Y027076D01*
X003143Y026813D01*
X003157Y026813D01*
X003210Y026824D01*
X003228Y026831D02*
X004755Y026831D01*
X004705Y026930D02*
X003355Y026930D01*
X003398Y027028D02*
X004705Y027028D01*
X004746Y027127D02*
X003403Y027127D01*
X003369Y027225D02*
X005333Y027225D01*
X005333Y027324D02*
X003272Y027324D01*
X003143Y027324D02*
X003117Y027324D01*
X003117Y027363D02*
X003103Y027363D01*
X003050Y027353D01*
X003000Y027332D01*
X002955Y027302D01*
X002916Y027264D01*
X002886Y027219D01*
X002866Y027169D01*
X002855Y027115D01*
X002855Y027101D01*
X003117Y027101D01*
X003117Y027363D01*
X002988Y027324D02*
X002595Y027324D01*
X002595Y027225D02*
X002891Y027225D01*
X002857Y027127D02*
X002595Y027127D01*
X002582Y027028D02*
X002862Y027028D01*
X002905Y026930D02*
X002541Y026930D01*
X002500Y026831D02*
X003032Y026831D01*
X003117Y026831D02*
X003143Y026831D01*
X003143Y026930D02*
X003117Y026930D01*
X003117Y027028D02*
X003143Y027028D01*
X003143Y027127D02*
X003117Y027127D01*
X003117Y027225D02*
X003143Y027225D01*
X002559Y027422D02*
X005333Y027422D01*
X005333Y027521D02*
X002519Y027521D01*
X002462Y027619D02*
X005333Y027619D01*
X005394Y027127D02*
X005134Y027127D01*
X005175Y027028D02*
X005333Y027028D01*
X005333Y026930D02*
X005175Y026930D01*
X005135Y026831D02*
X005333Y026831D01*
X005333Y026733D02*
X005135Y026733D01*
X005238Y026634D02*
X005333Y026634D01*
X005339Y026536D02*
X005251Y026536D01*
X004334Y025452D02*
X004237Y025452D01*
X004237Y025354D02*
X004334Y025354D01*
X004334Y025255D02*
X004237Y025255D01*
X004237Y025157D02*
X004334Y025157D01*
X004524Y024960D02*
X005005Y024960D01*
X005008Y025058D02*
X002200Y025058D01*
X002200Y024960D02*
X002100Y024960D01*
X002100Y024861D02*
X002200Y024861D01*
X002200Y024763D02*
X002100Y024763D01*
X002100Y024664D02*
X002200Y024664D01*
X002200Y024566D02*
X002100Y024566D01*
X001648Y024566D02*
X001405Y024566D01*
X001405Y024664D02*
X001466Y024664D01*
X001405Y024467D02*
X001594Y024467D01*
X001460Y024369D02*
X001405Y024369D01*
X002100Y025157D02*
X002200Y025157D01*
X002200Y025255D02*
X002100Y025255D01*
X002100Y025354D02*
X002200Y025354D01*
X002200Y025452D02*
X002100Y025452D01*
X002100Y025551D02*
X002200Y025551D01*
X002555Y025551D02*
X002989Y025551D01*
X002890Y025649D02*
X002755Y025649D01*
X002806Y025452D02*
X003322Y025452D01*
X002965Y025255D02*
X003946Y025255D01*
X003939Y025354D02*
X002906Y025354D01*
X002998Y025157D02*
X004050Y025157D01*
X003939Y025452D02*
X003898Y025452D01*
X003796Y024960D02*
X003604Y024960D01*
X003610Y024861D02*
X003790Y024861D01*
X003790Y024763D02*
X003610Y024763D01*
X003610Y024664D02*
X003790Y024664D01*
X003648Y024566D02*
X003970Y024566D01*
X004032Y024467D02*
X003650Y024467D01*
X003650Y024369D02*
X004125Y024369D01*
X003846Y024270D02*
X003642Y024270D01*
X003610Y024172D02*
X003790Y024172D01*
X003790Y024073D02*
X003610Y024073D01*
X003610Y023975D02*
X003790Y023975D01*
X003816Y023876D02*
X003584Y023876D01*
X003718Y023581D02*
X003778Y023581D01*
X003970Y023679D02*
X002792Y023679D01*
X002891Y023778D02*
X003970Y023778D01*
X004350Y023778D02*
X005242Y023778D01*
X005340Y023679D02*
X004350Y023679D01*
X004350Y023581D02*
X004488Y023581D01*
X004496Y023594D02*
X004476Y023560D01*
X004466Y023522D01*
X004466Y023237D01*
X004920Y023237D01*
X004920Y023652D01*
X004596Y023652D01*
X004558Y023642D01*
X004524Y023622D01*
X004496Y023594D01*
X004466Y023482D02*
X004381Y023482D01*
X004381Y023384D02*
X004466Y023384D01*
X004466Y023285D02*
X004381Y023285D01*
X004381Y023187D02*
X004920Y023187D01*
X004920Y023285D02*
X005020Y023285D01*
X005020Y023187D02*
X005533Y023187D01*
X005533Y023285D02*
X005474Y023285D01*
X005474Y023384D02*
X005547Y023384D01*
X005602Y023482D02*
X005474Y023482D01*
X005452Y023581D02*
X005573Y023581D01*
X005611Y024073D02*
X005484Y024073D01*
X005434Y024172D02*
X005930Y024172D01*
X005532Y024270D02*
X005434Y024270D01*
X005434Y024369D02*
X005530Y024369D01*
X005530Y024467D02*
X005434Y024467D01*
X005434Y024566D02*
X005530Y024566D01*
X005530Y024664D02*
X005420Y024664D01*
X005377Y024763D02*
X005530Y024763D01*
X005103Y024763D02*
X004530Y024763D01*
X004530Y024861D02*
X005005Y024861D01*
X004558Y023876D02*
X004504Y023876D01*
X004920Y023581D02*
X005020Y023581D01*
X005020Y023482D02*
X004920Y023482D01*
X004920Y023384D02*
X005020Y023384D01*
X005474Y023088D02*
X005832Y023088D01*
X005928Y023088D02*
X006511Y023088D01*
X006415Y023187D02*
X006227Y023187D01*
X006227Y023285D02*
X006301Y023285D01*
X006245Y023384D02*
X006213Y023384D01*
X006245Y023482D02*
X006158Y023482D01*
X006187Y023581D02*
X006290Y023581D01*
X006187Y023679D02*
X006710Y023679D01*
X006715Y023581D02*
X006670Y023581D01*
X006715Y023482D02*
X006719Y023482D01*
X006705Y023778D02*
X006187Y023778D01*
X006234Y023876D02*
X006350Y023876D01*
X006630Y023876D02*
X006700Y023876D01*
X006725Y023975D02*
X006882Y023975D01*
X006925Y024073D02*
X006725Y024073D01*
X006719Y024172D02*
X006909Y024172D01*
X006909Y024270D02*
X006708Y024270D01*
X006710Y024369D02*
X007227Y024369D01*
X007227Y024467D02*
X007324Y024467D01*
X007324Y024566D02*
X007227Y024566D01*
X007227Y024664D02*
X007324Y024664D01*
X007568Y024664D02*
X007755Y024664D01*
X007755Y024763D02*
X006710Y024763D01*
X006710Y024664D02*
X006983Y024664D01*
X006912Y024566D02*
X006710Y024566D01*
X006710Y024467D02*
X006909Y024467D01*
X007227Y024270D02*
X007324Y024270D01*
X007324Y024172D02*
X007227Y024172D01*
X007227Y024073D02*
X007324Y024073D01*
X007626Y024073D02*
X007641Y024073D01*
X007388Y023482D02*
X007332Y023482D01*
X007332Y023384D02*
X007388Y023384D01*
X007388Y023285D02*
X007332Y023285D01*
X007332Y023187D02*
X007388Y023187D01*
X007388Y023088D02*
X007332Y023088D01*
X007316Y022990D02*
X007404Y022990D01*
X006750Y022891D02*
X006227Y022891D01*
X006227Y022990D02*
X006735Y022990D01*
X005533Y022990D02*
X005474Y022990D01*
X005474Y022891D02*
X005533Y022891D01*
X004466Y022891D02*
X002646Y022891D01*
X002548Y022990D02*
X003058Y022990D01*
X003019Y023088D02*
X002490Y023088D01*
X002490Y023187D02*
X003019Y023187D01*
X003019Y023384D02*
X002490Y023384D01*
X002490Y023482D02*
X003019Y023482D01*
X003052Y023581D02*
X002490Y023581D01*
X002490Y023285D02*
X003337Y023285D01*
X003337Y023187D02*
X003434Y023187D01*
X003434Y023088D02*
X003337Y023088D01*
X003337Y022990D02*
X003434Y022990D01*
X003712Y022990D02*
X003784Y022990D01*
X003434Y023384D02*
X003337Y023384D01*
X003337Y023482D02*
X003434Y023482D01*
X003434Y023581D02*
X003337Y023581D01*
X004325Y022990D02*
X004466Y022990D01*
X004466Y023088D02*
X004381Y023088D01*
X003283Y025945D02*
X003132Y025945D01*
X001745Y025551D02*
X001405Y025551D01*
X001405Y025649D02*
X001545Y025649D01*
X001439Y025748D02*
X001405Y025748D01*
X001405Y025452D02*
X001494Y025452D01*
X006797Y026831D02*
X007135Y026831D01*
X006999Y027225D02*
X006791Y027225D01*
X006797Y027324D02*
X006999Y027324D01*
X006999Y027422D02*
X006797Y027422D01*
X008728Y027699D02*
X012706Y027699D01*
X012706Y026123D01*
X012637Y026192D01*
X012467Y026263D01*
X012220Y026263D01*
X012220Y026663D01*
X012220Y026663D01*
X012285Y026728D01*
X012285Y027529D01*
X012220Y027593D01*
X011499Y027593D01*
X011435Y027529D01*
X011435Y026728D01*
X011499Y026663D01*
X011500Y026663D01*
X011500Y026232D01*
X011403Y026192D01*
X011284Y026073D01*
X011109Y026248D01*
X009656Y026248D01*
X009626Y026278D01*
X008760Y026278D01*
X008760Y026304D01*
X008780Y026298D01*
X009185Y026298D01*
X009185Y026553D01*
X009195Y026553D01*
X009195Y026298D01*
X009600Y026298D01*
X009638Y026309D01*
X009672Y026328D01*
X009700Y026356D01*
X009720Y026390D01*
X009730Y026429D01*
X009730Y026553D01*
X009195Y026553D01*
X009195Y026563D01*
X009730Y026563D01*
X009730Y026688D01*
X009720Y026726D01*
X009700Y026760D01*
X009672Y026788D01*
X009638Y026808D01*
X009600Y026818D01*
X009299Y026818D01*
X009300Y026820D01*
X009393Y026913D01*
X009393Y026913D01*
X009462Y026982D01*
X009557Y026982D01*
X009621Y027046D01*
X009621Y027570D01*
X009557Y027635D01*
X009072Y027635D01*
X009008Y027570D01*
X009008Y027088D01*
X008952Y027088D01*
X008952Y027570D01*
X008888Y027635D01*
X008795Y027635D01*
X008752Y027675D01*
X008728Y027699D01*
X008903Y027619D02*
X009057Y027619D01*
X009008Y027521D02*
X008952Y027521D01*
X008952Y027422D02*
X009008Y027422D01*
X009008Y027324D02*
X008952Y027324D01*
X008952Y027225D02*
X009008Y027225D01*
X009008Y027127D02*
X008952Y027127D01*
X009300Y026820D02*
X009300Y026820D01*
X009312Y026831D02*
X010275Y026831D01*
X010275Y026754D02*
X010285Y026715D01*
X010305Y026681D01*
X010333Y026653D01*
X010367Y026634D01*
X010405Y026623D01*
X010690Y026623D01*
X010690Y027078D01*
X010790Y027078D01*
X010790Y026623D01*
X011075Y026623D01*
X011113Y026634D01*
X011147Y026653D01*
X011175Y026681D01*
X011195Y026715D01*
X011205Y026754D01*
X011205Y027078D01*
X010790Y027078D01*
X010790Y027178D01*
X011205Y027178D01*
X011205Y027503D01*
X011195Y027541D01*
X011175Y027575D01*
X011147Y027603D01*
X011113Y027623D01*
X011075Y027633D01*
X010790Y027633D01*
X010790Y027178D01*
X010690Y027178D01*
X010690Y027078D01*
X010275Y027078D01*
X010275Y026754D01*
X010281Y026733D02*
X009716Y026733D01*
X009730Y026634D02*
X010366Y026634D01*
X010275Y026930D02*
X009410Y026930D01*
X009604Y027028D02*
X010275Y027028D01*
X010275Y027178D02*
X010690Y027178D01*
X010690Y027633D01*
X010405Y027633D01*
X010367Y027623D01*
X010333Y027603D01*
X010305Y027575D01*
X010285Y027541D01*
X010275Y027503D01*
X010275Y027178D01*
X010275Y027225D02*
X009621Y027225D01*
X009621Y027127D02*
X010690Y027127D01*
X010690Y027225D02*
X010790Y027225D01*
X010790Y027127D02*
X011435Y027127D01*
X011435Y027225D02*
X011205Y027225D01*
X011205Y027324D02*
X011435Y027324D01*
X011435Y027422D02*
X011205Y027422D01*
X011200Y027521D02*
X011435Y027521D01*
X011119Y027619D02*
X012706Y027619D01*
X012706Y027521D02*
X012285Y027521D01*
X012285Y027422D02*
X012706Y027422D01*
X012706Y027324D02*
X012285Y027324D01*
X012285Y027225D02*
X012706Y027225D01*
X012706Y027127D02*
X012285Y027127D01*
X012285Y027028D02*
X012706Y027028D01*
X012706Y026930D02*
X012285Y026930D01*
X012285Y026831D02*
X012706Y026831D01*
X012706Y026733D02*
X012285Y026733D01*
X012220Y026634D02*
X012706Y026634D01*
X012706Y026536D02*
X012220Y026536D01*
X012220Y026437D02*
X012706Y026437D01*
X012706Y026339D02*
X012220Y026339D01*
X012520Y026240D02*
X012706Y026240D01*
X012706Y026142D02*
X012687Y026142D01*
X012706Y025473D02*
X012706Y025123D01*
X012637Y025192D01*
X012467Y025263D01*
X011573Y025263D01*
X011403Y025192D01*
X011272Y025061D01*
X011201Y024891D01*
X011201Y024835D01*
X010888Y024835D01*
X010888Y024537D01*
X011076Y024537D01*
X011114Y024547D01*
X011149Y024567D01*
X011177Y024595D01*
X011196Y024629D01*
X011207Y024667D01*
X011207Y024693D01*
X011272Y024535D01*
X011403Y024405D01*
X011573Y024334D01*
X011660Y024334D01*
X011660Y024067D01*
X011431Y023838D01*
X010065Y023845D01*
X010065Y023846D01*
X009927Y023983D01*
X009733Y023983D01*
X009721Y023971D01*
X009721Y024523D01*
X009656Y024587D01*
X009425Y024587D01*
X009425Y024776D01*
X009380Y024821D01*
X009380Y024838D01*
X009451Y024838D01*
X009480Y024810D01*
X009591Y024698D01*
X009693Y024698D01*
X009693Y024641D01*
X009758Y024577D01*
X010282Y024577D01*
X010347Y024641D01*
X010347Y025126D01*
X010282Y025190D01*
X009758Y025190D01*
X009697Y025130D01*
X009690Y025137D01*
X009690Y025214D01*
X009626Y025278D01*
X008760Y025278D01*
X008760Y025338D01*
X009626Y025338D01*
X009656Y025368D01*
X009693Y025368D01*
X009693Y025311D01*
X009758Y025246D01*
X010282Y025246D01*
X010347Y025311D01*
X010347Y025363D01*
X010513Y025363D01*
X010513Y025311D01*
X010578Y025246D01*
X011102Y025246D01*
X011167Y025311D01*
X011167Y025653D01*
X011201Y025618D01*
X011238Y025618D01*
X011272Y025535D01*
X011403Y025405D01*
X011573Y025334D01*
X012467Y025334D01*
X012637Y025405D01*
X012706Y025473D01*
X012706Y025452D02*
X012685Y025452D01*
X012706Y025354D02*
X012515Y025354D01*
X012484Y025255D02*
X012706Y025255D01*
X012706Y025157D02*
X012672Y025157D01*
X011556Y025255D02*
X011111Y025255D01*
X011114Y025220D02*
X011076Y025230D01*
X010888Y025230D01*
X010888Y024932D01*
X010792Y024932D01*
X010792Y025230D01*
X010604Y025230D01*
X010566Y025220D01*
X010531Y025201D01*
X010503Y025173D01*
X010484Y025138D01*
X010473Y025100D01*
X010473Y024932D01*
X010792Y024932D01*
X010792Y024835D01*
X010888Y024835D01*
X010888Y024932D01*
X011207Y024932D01*
X011207Y025100D01*
X011196Y025138D01*
X011177Y025173D01*
X011149Y025201D01*
X011114Y025220D01*
X011186Y025157D02*
X011368Y025157D01*
X011271Y025058D02*
X011207Y025058D01*
X011207Y024960D02*
X011230Y024960D01*
X011201Y024861D02*
X010888Y024861D01*
X010792Y024861D02*
X010347Y024861D01*
X010347Y024763D02*
X010473Y024763D01*
X010473Y024835D02*
X010473Y024667D01*
X010484Y024629D01*
X010503Y024595D01*
X010531Y024567D01*
X010566Y024547D01*
X010604Y024537D01*
X010792Y024537D01*
X010792Y024835D01*
X010473Y024835D01*
X010473Y024960D02*
X010347Y024960D01*
X010347Y025058D02*
X010473Y025058D01*
X010494Y025157D02*
X010316Y025157D01*
X010291Y025255D02*
X010569Y025255D01*
X010513Y025354D02*
X010347Y025354D01*
X010792Y025157D02*
X010888Y025157D01*
X010888Y025058D02*
X010792Y025058D01*
X010792Y024960D02*
X010888Y024960D01*
X010888Y024763D02*
X010792Y024763D01*
X010792Y024664D02*
X010888Y024664D01*
X010888Y024566D02*
X010792Y024566D01*
X010533Y024566D02*
X009678Y024566D01*
X009693Y024664D02*
X009425Y024664D01*
X009425Y024763D02*
X009527Y024763D01*
X009721Y024467D02*
X011340Y024467D01*
X011259Y024566D02*
X011147Y024566D01*
X011206Y024664D02*
X011219Y024664D01*
X011489Y024369D02*
X009721Y024369D01*
X009721Y024270D02*
X011660Y024270D01*
X011660Y024172D02*
X009721Y024172D01*
X009721Y024073D02*
X011660Y024073D01*
X011567Y023975D02*
X009936Y023975D01*
X010034Y023876D02*
X011469Y023876D01*
X010474Y024664D02*
X010347Y024664D01*
X009724Y025157D02*
X009690Y025157D01*
X009649Y025255D02*
X009749Y025255D01*
X009693Y025354D02*
X009641Y025354D01*
X009683Y026339D02*
X011500Y026339D01*
X011500Y026437D02*
X009730Y026437D01*
X009730Y026536D02*
X011500Y026536D01*
X011500Y026634D02*
X011114Y026634D01*
X011200Y026733D02*
X011435Y026733D01*
X011435Y026831D02*
X011205Y026831D01*
X011205Y026930D02*
X011435Y026930D01*
X011435Y027028D02*
X011205Y027028D01*
X010790Y027028D02*
X010690Y027028D01*
X010690Y026930D02*
X010790Y026930D01*
X010790Y026831D02*
X010690Y026831D01*
X010690Y026733D02*
X010790Y026733D01*
X010790Y026634D02*
X010690Y026634D01*
X011117Y026240D02*
X011500Y026240D01*
X011353Y026142D02*
X011215Y026142D01*
X011167Y025649D02*
X011170Y025649D01*
X011167Y025551D02*
X011266Y025551D01*
X011355Y025452D02*
X011167Y025452D01*
X011167Y025354D02*
X011525Y025354D01*
X010790Y027324D02*
X010690Y027324D01*
X010690Y027422D02*
X010790Y027422D01*
X010790Y027521D02*
X010690Y027521D01*
X010690Y027619D02*
X010790Y027619D01*
X010361Y027619D02*
X009573Y027619D01*
X009621Y027521D02*
X010280Y027521D01*
X010275Y027422D02*
X009621Y027422D01*
X009621Y027324D02*
X010275Y027324D01*
X009195Y026536D02*
X009185Y026536D01*
X009185Y026437D02*
X009195Y026437D01*
X009185Y026339D02*
X009195Y026339D01*
X008714Y024566D02*
X008618Y024566D01*
X008618Y024467D02*
X008714Y024467D01*
X008714Y024369D02*
X008618Y024369D01*
X008618Y024270D02*
X008714Y024270D01*
X008319Y024270D02*
X008271Y024270D01*
X008271Y024369D02*
X008319Y024369D01*
X008319Y024467D02*
X008271Y024467D01*
X008271Y024566D02*
X008347Y024566D01*
X008737Y022990D02*
X008757Y022990D01*
X008777Y022694D02*
X009357Y022694D01*
X009357Y022721D02*
X009357Y022553D01*
X009357Y022596D02*
X008777Y022596D01*
X008458Y022596D02*
X008362Y022596D01*
X008362Y022694D02*
X008458Y022694D01*
X008458Y022793D02*
X008362Y022793D01*
X009323Y022990D02*
X009418Y022990D01*
X009387Y022793D02*
X009368Y022759D01*
X009357Y022721D01*
X009721Y023975D02*
X009724Y023975D01*
X011245Y021118D02*
X011524Y021118D01*
X011495Y021020D02*
X011265Y021020D01*
X011265Y020921D02*
X011495Y020921D01*
X011495Y020823D02*
X011265Y020823D01*
X014049Y023581D02*
X014102Y023581D01*
X014113Y023679D02*
X014049Y023679D01*
X011470Y014814D02*
X011182Y014814D01*
X011175Y014825D02*
X011147Y014853D01*
X011113Y014873D01*
X011075Y014883D01*
X010790Y014883D01*
X010790Y014428D01*
X011205Y014428D01*
X011205Y014753D01*
X011195Y014791D01*
X011175Y014825D01*
X011205Y014716D02*
X011435Y014716D01*
X011435Y014617D02*
X011205Y014617D01*
X011205Y014519D02*
X011435Y014519D01*
X011435Y014420D02*
X010790Y014420D01*
X010790Y014428D02*
X010790Y014328D01*
X010790Y013873D01*
X011075Y013873D01*
X011113Y013884D01*
X011147Y013903D01*
X011175Y013931D01*
X011195Y013965D01*
X011205Y014004D01*
X011205Y014328D01*
X010790Y014328D01*
X010690Y014328D01*
X010690Y013873D01*
X010405Y013873D01*
X010367Y013884D01*
X010333Y013903D01*
X010305Y013931D01*
X010285Y013965D01*
X010275Y014004D01*
X010275Y014328D01*
X010690Y014328D01*
X010690Y014428D01*
X010275Y014428D01*
X010275Y014753D01*
X010285Y014791D01*
X010305Y014825D01*
X010333Y014853D01*
X010367Y014873D01*
X010405Y014883D01*
X010690Y014883D01*
X010690Y014428D01*
X010790Y014428D01*
X010790Y014519D02*
X010690Y014519D01*
X010690Y014617D02*
X010790Y014617D01*
X010790Y014716D02*
X010690Y014716D01*
X010690Y014814D02*
X010790Y014814D01*
X010690Y014420D02*
X009621Y014420D01*
X009621Y014322D02*
X010275Y014322D01*
X010275Y014223D02*
X009454Y014223D01*
X009355Y014125D02*
X010275Y014125D01*
X010275Y014026D02*
X009684Y014026D01*
X009730Y013928D02*
X010309Y013928D01*
X010690Y013928D02*
X010790Y013928D01*
X010790Y014026D02*
X010690Y014026D01*
X010690Y014125D02*
X010790Y014125D01*
X010790Y014223D02*
X010690Y014223D01*
X010690Y014322D02*
X010790Y014322D01*
X011205Y014322D02*
X011435Y014322D01*
X011435Y014223D02*
X011205Y014223D01*
X011205Y014125D02*
X011435Y014125D01*
X011435Y014026D02*
X011205Y014026D01*
X011172Y013928D02*
X011485Y013928D01*
X011500Y013829D02*
X009730Y013829D01*
X009730Y013731D02*
X011500Y013731D01*
X011500Y013632D02*
X009715Y013632D01*
X009195Y013632D02*
X009185Y013632D01*
X009185Y013731D02*
X009195Y013731D01*
X009008Y014420D02*
X008952Y014420D01*
X008952Y014519D02*
X009008Y014519D01*
X009008Y014617D02*
X008952Y014617D01*
X008952Y014716D02*
X009008Y014716D01*
X009008Y014814D02*
X008952Y014814D01*
X008536Y014223D02*
X008289Y014223D01*
X008438Y014125D02*
X007515Y014125D01*
X007946Y014223D02*
X008043Y014223D01*
X008043Y014322D02*
X007946Y014322D01*
X007946Y014420D02*
X008043Y014420D01*
X009621Y014519D02*
X010275Y014519D01*
X010275Y014617D02*
X009621Y014617D01*
X009621Y014716D02*
X010275Y014716D01*
X010299Y014814D02*
X009621Y014814D01*
X010347Y012056D02*
X010473Y012056D01*
X010473Y011958D02*
X010347Y011958D01*
X010315Y011859D02*
X010495Y011859D01*
X012617Y012450D02*
X012706Y012450D01*
X006704Y010283D02*
X006227Y010283D01*
X006227Y010185D02*
X006704Y010185D01*
X006306Y011170D02*
X006276Y011170D01*
X005930Y011367D02*
X005440Y011367D01*
X005434Y011465D02*
X005587Y011465D01*
X005530Y011564D02*
X005434Y011564D01*
X005434Y011662D02*
X005530Y011662D01*
X005530Y011761D02*
X005434Y011761D01*
X005434Y011859D02*
X005530Y011859D01*
X005530Y011958D02*
X005377Y011958D01*
X005913Y011465D02*
X005930Y011465D01*
X005573Y011268D02*
X005539Y011268D01*
X005297Y010973D02*
X004350Y010973D01*
X004350Y011071D02*
X005198Y011071D01*
X005020Y010874D02*
X004920Y010874D01*
X004920Y010776D02*
X005020Y010776D01*
X005020Y010677D02*
X004920Y010677D01*
X004527Y010874D02*
X004350Y010874D01*
X004381Y010776D02*
X004467Y010776D01*
X004466Y010677D02*
X004381Y010677D01*
X004381Y010579D02*
X004466Y010579D01*
X005474Y010579D02*
X005533Y010579D01*
X005578Y010677D02*
X005474Y010677D01*
X005473Y010776D02*
X005573Y010776D01*
X003434Y010480D02*
X003337Y010480D01*
X003337Y010382D02*
X003434Y010382D01*
X003434Y010283D02*
X003337Y010283D01*
X003024Y010776D02*
X002490Y010776D01*
X002694Y010874D02*
X003110Y010874D01*
X002200Y011859D02*
X002100Y011859D01*
X002100Y011958D02*
X002200Y011958D01*
X002200Y012056D02*
X002100Y012056D01*
X002100Y012155D02*
X002200Y012155D01*
X002200Y012253D02*
X002919Y012253D01*
X002200Y012352D02*
X002100Y012352D01*
X002100Y012450D02*
X002200Y012450D01*
X002200Y012549D02*
X002100Y012549D01*
X002100Y012647D02*
X002200Y012647D01*
X002200Y012746D02*
X002100Y012746D01*
X001678Y012844D02*
X001405Y012844D01*
X001405Y012746D02*
X001563Y012746D01*
X001431Y012647D02*
X001405Y012647D01*
X001405Y012943D02*
X001494Y012943D01*
X001423Y011958D02*
X001405Y011958D01*
X001405Y011859D02*
X001546Y011859D01*
X001405Y011761D02*
X001699Y011761D01*
X001503Y011662D02*
X001405Y011662D01*
X005950Y014125D02*
X006143Y014125D01*
X006143Y014223D02*
X005947Y014223D01*
X005941Y014322D02*
X006169Y014322D01*
X006204Y014420D02*
X005906Y014420D01*
X005947Y014519D02*
X006143Y014519D01*
X006143Y014026D02*
X006059Y014026D01*
D33*
X006380Y013348D03*
X008080Y013018D03*
X007020Y010948D03*
X010040Y013808D03*
X010340Y011468D03*
X007080Y017258D03*
X008140Y019328D03*
X006440Y019658D03*
X007020Y023698D03*
X008080Y025768D03*
X006380Y026098D03*
X010040Y026558D03*
X010340Y024218D03*
X010100Y020118D03*
X010400Y017778D03*
X015650Y021178D03*
X015980Y022878D03*
X015190Y024838D03*
X017530Y025138D03*
X018050Y021818D03*
X018550Y017518D03*
X002780Y016758D03*
X002720Y010448D03*
X002720Y023198D03*
D34*
X002450Y024048D02*
X002150Y024048D01*
X002450Y024048D02*
X002760Y024358D01*
X002760Y024538D01*
X003020Y024798D01*
X003240Y024798D01*
X003240Y024058D02*
X003230Y024048D01*
X002450Y024048D01*
X003080Y025728D02*
X003605Y025728D01*
X003610Y025734D01*
X003080Y025728D02*
X002760Y026048D01*
X002150Y026048D01*
X003610Y026403D02*
X004231Y026403D01*
X004275Y026358D01*
X004945Y026358D02*
X004945Y025528D01*
X004955Y025518D01*
X005750Y025518D01*
X005750Y025588D01*
X005760Y025518D01*
X006120Y025588D02*
X005960Y026068D01*
X006140Y026448D02*
X006510Y026448D01*
X006920Y026078D01*
X007310Y026078D01*
X007330Y026058D01*
X007330Y025558D01*
X007310Y025538D01*
X006870Y025538D01*
X006810Y025478D01*
X006810Y025338D01*
X006660Y025188D01*
X006070Y025188D01*
X005750Y024868D01*
X005660Y024958D01*
X005240Y024958D01*
X005750Y024868D02*
X005750Y024568D01*
X006120Y024568D02*
X006120Y024033D01*
X005880Y023773D01*
X005875Y023778D01*
X005510Y023778D01*
X004999Y024289D01*
X004970Y024289D01*
X004851Y024408D01*
X004360Y024408D01*
X004160Y024608D01*
X004160Y024798D01*
X004160Y024058D02*
X004160Y023394D01*
X004055Y023288D01*
X004110Y023174D01*
X006120Y024568D02*
X006120Y024808D01*
X006270Y024968D01*
X006760Y024968D01*
X006850Y025048D01*
X007320Y025048D01*
X007330Y025058D01*
X007350Y025038D01*
X007840Y025038D01*
X007945Y024934D01*
X007945Y024338D01*
X008110Y023758D02*
X008951Y023758D01*
X009414Y024201D01*
X009803Y023748D02*
X009803Y023252D01*
X009799Y023248D01*
X009360Y023248D01*
X009213Y023395D01*
X009040Y023335D01*
X008977Y023398D01*
X008740Y023398D01*
X008515Y023173D01*
X008410Y023183D01*
X008110Y023758D02*
X007695Y023373D01*
X007695Y023268D01*
X007025Y023268D02*
X007025Y023683D01*
X007010Y023698D01*
X007025Y023268D02*
X006595Y023274D01*
X006480Y023438D01*
X006490Y024068D02*
X006490Y024568D01*
X006490Y025588D02*
X006490Y025988D01*
X006380Y026098D01*
X006140Y026448D02*
X005745Y026804D01*
X005640Y026804D01*
X005640Y027473D02*
X006470Y027473D01*
X006545Y027473D01*
X006730Y027668D01*
X008480Y027668D01*
X008620Y027538D01*
X008620Y027334D01*
X008645Y027308D01*
X008730Y026898D02*
X008570Y026738D01*
X008570Y025188D01*
X008690Y025068D01*
X009180Y025068D01*
X009190Y025058D01*
X009190Y024678D01*
X009190Y025058D02*
X009500Y025058D01*
X009670Y024888D01*
X010015Y024888D01*
X010020Y024884D01*
X010020Y025553D02*
X010840Y025553D01*
X011280Y025808D02*
X012120Y025808D01*
X012160Y025768D01*
X012150Y025768D01*
X012020Y025798D01*
X011280Y025808D02*
X011030Y026058D01*
X009190Y026058D01*
X009190Y025558D02*
X010015Y025558D01*
X010020Y025553D01*
X009110Y026898D02*
X008730Y026898D01*
X009110Y026898D02*
X009315Y027103D01*
X009315Y027308D01*
X007325Y027298D02*
X007325Y026563D01*
X007330Y026558D01*
X006760Y026558D01*
X006515Y026804D01*
X006470Y026804D01*
X007315Y026574D02*
X007330Y026558D01*
X004945Y026358D02*
X004945Y026988D01*
X004940Y026988D01*
X008410Y022514D02*
X008619Y022504D01*
X008620Y022504D01*
X008540Y021228D02*
X008680Y021098D01*
X008680Y020894D01*
X008705Y020868D01*
X008540Y021228D02*
X006790Y021228D01*
X006605Y021033D01*
X006530Y021033D01*
X005700Y021033D01*
X005700Y020364D02*
X005805Y020364D01*
X006200Y020008D01*
X006570Y020008D01*
X006980Y019638D01*
X007370Y019638D01*
X007390Y019618D01*
X007390Y019118D01*
X007370Y019098D01*
X006930Y019098D01*
X006870Y019038D01*
X006870Y018898D01*
X006720Y018748D01*
X006130Y018748D01*
X005810Y018428D01*
X005720Y018518D01*
X005300Y018518D01*
X005810Y018428D02*
X005810Y018128D01*
X006180Y018128D02*
X006180Y018368D01*
X006330Y018528D01*
X006820Y018528D01*
X006910Y018608D01*
X007380Y018608D01*
X007390Y018618D01*
X007410Y018598D01*
X007900Y018598D01*
X008005Y018494D01*
X008005Y017898D01*
X008170Y017318D02*
X009011Y017318D01*
X009474Y017761D01*
X009250Y018238D02*
X009250Y018618D01*
X009560Y018618D01*
X009730Y018448D01*
X010075Y018448D01*
X010080Y018444D01*
X010080Y019113D02*
X010900Y019113D01*
X011340Y019368D02*
X011090Y019618D01*
X009250Y019618D01*
X009250Y019118D02*
X010075Y019118D01*
X010080Y019113D01*
X009250Y018618D02*
X009240Y018628D01*
X008750Y018628D01*
X008630Y018748D01*
X008630Y020298D01*
X008790Y020458D01*
X009170Y020458D01*
X009375Y020663D01*
X009375Y020868D01*
X011340Y019368D02*
X012180Y019368D01*
X012220Y019328D01*
X012210Y019328D01*
X012080Y019358D01*
X014080Y021528D02*
X014080Y023278D01*
X014210Y023418D01*
X014415Y023418D01*
X014440Y023444D01*
X014850Y023528D02*
X014850Y023908D01*
X014645Y024113D01*
X014440Y024113D01*
X014850Y023528D02*
X015010Y023368D01*
X016560Y023368D01*
X016680Y023488D01*
X016680Y023978D01*
X016690Y023988D01*
X017070Y023988D01*
X016690Y023988D02*
X016690Y024298D01*
X016860Y024468D01*
X016860Y024814D01*
X016865Y024818D01*
X016195Y024818D02*
X016195Y025638D01*
X015940Y026078D02*
X015940Y026918D01*
X015980Y026958D01*
X015980Y026948D01*
X015950Y026818D01*
X015940Y026078D02*
X015690Y025828D01*
X015690Y023988D01*
X016190Y023988D02*
X016190Y024813D01*
X016195Y024818D01*
X017547Y024212D02*
X017990Y023749D01*
X017990Y022908D01*
X018375Y022493D01*
X018480Y022493D01*
X018480Y021824D02*
X018065Y021824D01*
X018050Y021808D01*
X018480Y021824D02*
X018475Y021394D01*
X018310Y021278D01*
X017975Y020678D02*
X017970Y020673D01*
X017970Y020308D01*
X017459Y019797D01*
X017459Y019768D01*
X017340Y019649D01*
X017340Y019158D01*
X017140Y018958D01*
X016950Y018958D01*
X017690Y018958D02*
X018355Y018958D01*
X018460Y018853D01*
X018575Y018908D01*
X017700Y018028D02*
X017690Y018038D01*
X017700Y018028D02*
X017700Y017248D01*
X017390Y017558D01*
X017210Y017558D01*
X016950Y017818D01*
X016950Y018038D01*
X017700Y017248D02*
X017700Y016948D01*
X016020Y017878D02*
X016020Y018403D01*
X016015Y018408D01*
X016020Y017878D02*
X015700Y017558D01*
X015700Y016948D01*
X015345Y018408D02*
X015345Y019029D01*
X015390Y019074D01*
X015390Y019743D02*
X014760Y019743D01*
X014760Y019738D01*
X014945Y020438D02*
X014945Y020543D01*
X015300Y020938D01*
X015300Y021308D01*
X015670Y021718D01*
X015670Y022108D01*
X015690Y022128D01*
X016190Y022128D01*
X016210Y022108D01*
X016210Y021668D01*
X016270Y021608D01*
X016410Y021608D01*
X016560Y021458D01*
X016560Y020868D01*
X016880Y020548D01*
X016790Y020458D01*
X016790Y020038D01*
X016880Y020548D02*
X017180Y020548D01*
X017180Y020918D02*
X016940Y020918D01*
X016780Y021068D01*
X016780Y021558D01*
X016700Y021648D01*
X016700Y022118D01*
X016690Y022128D01*
X016710Y022148D01*
X016710Y022638D01*
X016815Y022743D01*
X017410Y022743D01*
X018350Y023538D02*
X018350Y023775D01*
X018413Y023838D01*
X018353Y024011D01*
X018500Y024158D01*
X018500Y024597D01*
X018496Y024601D01*
X018000Y024601D01*
X018000Y024628D01*
X018350Y023538D02*
X018575Y023313D01*
X018565Y023208D01*
X019235Y023208D02*
X019245Y023418D01*
X019244Y023418D01*
X017680Y021288D02*
X017180Y021288D01*
X017180Y020918D02*
X017715Y020918D01*
X017975Y020678D01*
X016230Y020558D02*
X016160Y020548D01*
X016230Y020548D01*
X016230Y019753D01*
X016220Y019743D01*
X015390Y019743D01*
X015680Y020758D02*
X016160Y020918D01*
X016160Y021288D02*
X015760Y021288D01*
X015650Y021178D01*
X015190Y021558D02*
X015190Y022128D01*
X015185Y022124D01*
X014450Y022124D01*
X014080Y021528D02*
X014275Y021343D01*
X014275Y021268D01*
X014275Y020438D01*
X014945Y021268D02*
X014945Y021313D01*
X015190Y021558D01*
X015175Y022113D02*
X015190Y022128D01*
X009890Y017308D02*
X009863Y017308D01*
X009863Y016812D01*
X009859Y016808D01*
X009420Y016808D01*
X009273Y016955D01*
X009100Y016895D01*
X009037Y016958D01*
X008800Y016958D01*
X008575Y016733D01*
X008470Y016743D01*
X008170Y017318D02*
X007755Y016933D01*
X007755Y016828D01*
X007085Y016828D02*
X007085Y017243D01*
X007070Y017258D01*
X007085Y016828D02*
X006655Y016834D01*
X006540Y016998D01*
X006550Y017628D02*
X006550Y018128D01*
X006180Y018128D02*
X006180Y017593D01*
X005940Y017333D01*
X005935Y017338D01*
X005570Y017338D01*
X005059Y017849D01*
X005030Y017849D01*
X004911Y017968D01*
X004420Y017968D01*
X004220Y018168D01*
X004220Y018358D01*
X004220Y017618D02*
X004220Y016954D01*
X004115Y016848D01*
X004170Y016734D01*
X003290Y017608D02*
X003300Y017618D01*
X003290Y017608D02*
X002510Y017608D01*
X002820Y017918D01*
X002820Y018098D01*
X003080Y018358D01*
X003300Y018358D01*
X003140Y019288D02*
X003665Y019288D01*
X003670Y019294D01*
X003140Y019288D02*
X002820Y019608D01*
X002210Y019608D01*
X003670Y019963D02*
X004291Y019963D01*
X004335Y019918D01*
X005005Y019918D02*
X005005Y020548D01*
X005000Y020548D01*
X005005Y019918D02*
X005005Y019088D01*
X005015Y019078D01*
X005810Y019078D01*
X005810Y019148D01*
X005820Y019078D01*
X006180Y019148D02*
X006020Y019628D01*
X006440Y019658D02*
X006550Y019548D01*
X006550Y019148D01*
X006820Y020118D02*
X007390Y020118D01*
X007385Y020123D01*
X007385Y020858D01*
X007375Y020134D02*
X007390Y020118D01*
X006820Y020118D02*
X006575Y020364D01*
X006530Y020364D01*
X009803Y023748D02*
X009830Y023748D01*
X008679Y016064D02*
X008680Y016064D01*
X008679Y016064D02*
X008470Y016074D01*
X008480Y014918D02*
X008620Y014788D01*
X008620Y014584D01*
X008645Y014558D01*
X008480Y014918D02*
X006730Y014918D01*
X006545Y014723D01*
X006470Y014723D01*
X005640Y014723D01*
X005640Y014054D02*
X005745Y014054D01*
X006140Y013698D01*
X006510Y013698D01*
X006920Y013328D01*
X007310Y013328D01*
X007330Y013308D01*
X007330Y012808D01*
X007310Y012788D01*
X006870Y012788D01*
X006810Y012728D01*
X006810Y012588D01*
X006660Y012438D01*
X006070Y012438D01*
X005750Y012118D01*
X005660Y012208D01*
X005240Y012208D01*
X005750Y012118D02*
X005750Y011818D01*
X006120Y011818D02*
X006120Y011283D01*
X005880Y011023D01*
X005875Y011028D01*
X005510Y011028D01*
X004999Y011539D01*
X004970Y011539D01*
X004851Y011658D01*
X004360Y011658D01*
X004160Y011858D01*
X004160Y012048D01*
X004160Y011308D02*
X004160Y010644D01*
X004055Y010538D01*
X004110Y010424D01*
X003230Y011298D02*
X003240Y011308D01*
X003230Y011298D02*
X002450Y011298D01*
X002760Y011608D01*
X002760Y011788D01*
X003020Y012048D01*
X003240Y012048D01*
X003080Y012978D02*
X003605Y012978D01*
X003610Y012984D01*
X003080Y012978D02*
X002760Y013298D01*
X002150Y013298D01*
X002150Y011298D02*
X002450Y011298D01*
X003610Y013653D02*
X004231Y013653D01*
X004275Y013608D01*
X004945Y013608D02*
X004945Y012778D01*
X004955Y012768D01*
X005750Y012768D01*
X005750Y012838D01*
X005760Y012768D01*
X006120Y012838D02*
X005960Y013318D01*
X006380Y013348D02*
X006490Y013238D01*
X006490Y012838D01*
X006850Y012298D02*
X007320Y012298D01*
X007330Y012308D01*
X007350Y012288D01*
X007840Y012288D01*
X007945Y012184D01*
X007945Y011588D01*
X008110Y011008D02*
X008951Y011008D01*
X009414Y011451D01*
X009803Y010998D02*
X009803Y010502D01*
X009799Y010498D01*
X009360Y010498D01*
X009213Y010645D01*
X009040Y010585D01*
X008977Y010648D01*
X008740Y010648D01*
X008515Y010423D01*
X008410Y010433D01*
X008110Y011008D02*
X007695Y010623D01*
X007695Y010518D01*
X007025Y010518D02*
X007025Y010933D01*
X007010Y010948D01*
X007025Y010518D02*
X006595Y010524D01*
X006480Y010688D01*
X006490Y011318D02*
X006490Y011818D01*
X006120Y011818D02*
X006120Y012058D01*
X006270Y012218D01*
X006760Y012218D01*
X006850Y012298D01*
X006760Y013808D02*
X007330Y013808D01*
X007325Y013813D01*
X007325Y014548D01*
X007315Y013824D02*
X007330Y013808D01*
X006760Y013808D02*
X006515Y014054D01*
X006470Y014054D01*
X004945Y014238D02*
X004945Y013608D01*
X004940Y014238D02*
X004945Y014238D01*
X002510Y017608D02*
X002210Y017608D01*
X008570Y013988D02*
X008570Y012438D01*
X008690Y012318D01*
X009180Y012318D01*
X009190Y012308D01*
X009190Y011928D01*
X009190Y012308D02*
X009500Y012308D01*
X009670Y012138D01*
X010015Y012138D01*
X010020Y012134D01*
X010020Y012803D02*
X010840Y012803D01*
X011280Y013058D02*
X011030Y013308D01*
X009190Y013308D01*
X009190Y012808D02*
X010015Y012808D01*
X010020Y012803D01*
X009110Y014148D02*
X008730Y014148D01*
X008570Y013988D01*
X009110Y014148D02*
X009315Y014353D01*
X009315Y014558D01*
X011280Y013058D02*
X012120Y013058D01*
X012160Y013018D01*
X012150Y013018D01*
X012020Y013048D01*
X009830Y010998D02*
X009803Y010998D01*
X008620Y009754D02*
X008619Y009754D01*
X008410Y009764D01*
D35*
X002524Y009754D02*
X002130Y010148D01*
X002130Y011278D01*
X002150Y011298D01*
X002524Y009754D02*
X008620Y009754D01*
X009803Y009754D01*
X010600Y010128D02*
X010610Y010118D01*
X010970Y010118D01*
X012020Y011168D01*
X012020Y012048D01*
X012020Y013048D02*
X011860Y013308D01*
X011860Y014378D01*
X011030Y016428D02*
X010670Y016428D01*
X010660Y016438D01*
X011030Y016428D02*
X012080Y017478D01*
X012080Y018358D01*
X012080Y019358D02*
X011920Y019618D01*
X011920Y020688D01*
X010970Y022868D02*
X010610Y022868D01*
X010600Y022878D01*
X010970Y022868D02*
X012020Y023918D01*
X012020Y024798D01*
X012020Y025798D02*
X011860Y026058D01*
X011860Y027128D01*
X014620Y026658D02*
X015690Y026658D01*
X015950Y026818D01*
X016950Y026818D02*
X017830Y026818D01*
X018880Y025768D01*
X018880Y025408D01*
X018870Y025398D01*
X019244Y024601D02*
X019244Y023418D01*
X019244Y017322D01*
X018850Y016928D01*
X017720Y016928D01*
X017700Y016948D01*
X009863Y016064D02*
X008680Y016064D01*
X002584Y016064D01*
X002190Y016458D01*
X002190Y017588D01*
X002210Y017608D01*
X002524Y022504D02*
X002130Y022898D01*
X002130Y024028D01*
X002150Y024048D01*
X002524Y022504D02*
X008620Y022504D01*
X009803Y022504D01*
M02*
