  0
SECTION
  2
HEADER
  9
$ACADVER
  1
AC1009
  9
$FILLMODE
 70
0
  9
$EXTMIN
 10
-0.065000
 20
-0.062000
 30
0.000000
  9
$EXTMAX
 10
1.212775
 20
0.655000
 30
0.000000
  0
ENDSEC
  0
SECTION
  2
TABLES
  0
TABLE
  2
LTYPE
 70
1
  0
LTYPE
  2
CONTINUOUS
 70
64
  3
Solid line
 72
65
 73
0
 40
0
  0
ENDTAB
  0
TABLE
  2
LAYER
 70
255
  0
LAYER
  2
1
 70
64
 62
14
  6
CONTINUOUS
  0
LAYER
  2
16
 70
64
 62
174
  6
CONTINUOUS
  0
LAYER
  2
17
 70
64
 62
94
  6
CONTINUOUS
  0
LAYER
  2
18
 70
64
 62
94
  6
CONTINUOUS
  0
LAYER
  2
19
 70
64
 62
54
  6
CONTINUOUS
  0
LAYER
  2
20
 70
64
 62
178
  6
CONTINUOUS
  0
LAYER
  2
21
 70
64
 62
251
  6
CONTINUOUS
  0
LAYER
  2
22
 70
64
 62
251
  6
CONTINUOUS
  0
LAYER
  2
23
 70
64
 62
178
  6
CONTINUOUS
  0
LAYER
  2
24
 70
64
 62
178
  6
CONTINUOUS
  0
LAYER
  2
25
 70
64
 62
251
  6
CONTINUOUS
  0
LAYER
  2
26
 70
64
 62
251
  6
CONTINUOUS
  0
LAYER
  2
39
 70
64
 62
14
  6
CONTINUOUS
  0
LAYER
  2
40
 70
64
 62
174
  6
CONTINUOUS
  0
LAYER
  2
41
 70
64
 62
14
  6
CONTINUOUS
  0
LAYER
  2
42
 70
64
 62
174
  6
CONTINUOUS
  0
LAYER
  2
43
 70
64
 62
94
  6
CONTINUOUS
  0
LAYER
  2
45
 70
64
 62
251
  6
CONTINUOUS
  0
LAYER
  2
47
 70
64
 62
251
  6
CONTINUOUS
  0
LAYER
  2
48
 70
64
 62
251
  6
CONTINUOUS
  0
LAYER
  2
49
 70
64
 62
251
  6
CONTINUOUS
  0
LAYER
  2
51
 70
64
 62
251
  6
CONTINUOUS
  0
LAYER
  2
52
 70
64
 62
251
  6
CONTINUOUS
  0
ENDTAB
  0
ENDSEC
  0
SECTION
  2
BLOCKS
  0
BLOCK
  8
0
  2
RECT
 70
64
 10
0.000000
 20
0.000000
 30
0.000000
  3
RECT
  0
SOLID
  8
0
 10
-0.500000
 20
-0.500000
 30
0.000000
 11
0.500000
 21
-0.500000
 31
0.000000
 12
-0.500000
 22
0.500000
 32
0.000000
 13
0.500000
 23
0.500000
 33
0.000000
  0
ENDBLK
  8
0
  0
BLOCK
  8
0
  2
PIE
 70
64
 10
0.000000
 20
0.000000
 30
0.000000
  3
PIE
  0
CIRCLE
  8
0
 10
0.000000
 20
0.000000
 30
0.000000
 40
0.500000
  0
ENDBLK
  8
0
  0
BLOCK
  8
0
  2
OCTAGONP
 70
64
 10
0.000000
 20
0.000000
 30
0.000000
  3
OCTAGONP
  0
POLYLINE
  8
0
 66
1
 10
0.000000
 20
0.000000
 30
0.000000
 40
0.000000
 41
0.000000
 70
1
  0
VERTEX
  8
0
 10
-0.500000
 20
-0.207107
 30
0.000000
  0
VERTEX
  8
0
 10
-0.500000
 20
0.207107
 30
0.000000
  0
VERTEX
  8
0
 10
-0.207107
 20
0.500000
 30
0.000000
  0
VERTEX
  8
0
 10
0.207107
 20
0.500000
 30
0.000000
  0
VERTEX
  8
0
 10
0.500000
 20
0.207107
 30
0.000000
  0
VERTEX
  8
0
 10
0.500000
 20
-0.207107
 30
0.000000
  0
VERTEX
  8
0
 10
0.207107
 20
-0.500000
 30
0.000000
  0
VERTEX
  8
0
 10
-0.207107
 20
-0.500000
 30
0.000000
  0
SEQEND
  8
0
  0
ENDBLK
  8
0
  0
BLOCK
  8
0
  2
SQUAREP
 70
64
 10
0.000000
 20
0.000000
 30
0.000000
  3
SQUAREP
  0
SOLID
  8
0
 10
-0.500000
 20
-0.500000
 30
0.000000
 11
0.500000
 21
-0.500000
 31
0.000000
 12
-0.500000
 22
0.500000
 32
0.000000
 13
0.500000
 23
0.500000
 33
0.000000
  0
ENDBLK
  8
0
  0
BLOCK
  8
0
  2
ROUNDP
 70
64
 10
0.000000
 20
0.000000
 30
0.000000
  3
ROUNDP
  0
CIRCLE
  8
0
 10
0.000000
 20
0.000000
 30
0.000000
 40
0.500000
  0
ENDBLK
  8
0
  0
BLOCK
  8
0
  2
ANNULUSP
 70
64
 10
0.000000
 20
0.000000
 30
0.000000
  3
ANNULUSP
  0
CIRCLE
  8
0
 10
0.000000
 20
0.000000
 30
0.000000
 40
0.500000
  0
ENDBLK
  8
0
  0
BLOCK
  8
0
  2
THERMALP
 70
64
 10
0.000000
 20
0.000000
 30
0.000000
  3
THERMALP
  0
LINE
  8
0
 10
-0.237868
 20
0.450000
 30
0.000000
 11
0.237868
 21
0.450000
 31
0.000000
  0
LINE
  8
0
 10
0.450000
 20
0.237868
 30
0.000000
 11
0.450000
 21
-0.237868
 31
0.000000
  0
LINE
  8
0
 10
0.237868
 20
-0.450000
 30
0.000000
 11
-0.237868
 21
-0.450000
 31
0.000000
  0
LINE
  8
0
 10
-0.450000
 20
-0.237868
 30
0.000000
 11
-0.450000
 21
0.237868
 31
0.000000
  0
ENDBLK
  8
0
  0
BLOCK
  8
0
  2
OCTAGONV
 70
64
 10
0.000000
 20
0.000000
 30
0.000000
  3
OCTAGONV
  0
POLYLINE
  8
0
 66
1
 10
0.000000
 20
0.000000
 30
0.000000
 40
0.000000
 41
0.000000
 70
1
  0
VERTEX
  8
0
 10
-0.500000
 20
-0.207107
 30
0.000000
  0
VERTEX
  8
0
 10
-0.500000
 20
0.207107
 30
0.000000
  0
VERTEX
  8
0
 10
-0.207107
 20
0.500000
 30
0.000000
  0
VERTEX
  8
0
 10
0.207107
 20
0.500000
 30
0.000000
  0
VERTEX
  8
0
 10
0.500000
 20
0.207107
 30
0.000000
  0
VERTEX
  8
0
 10
0.500000
 20
-0.207107
 30
0.000000
  0
VERTEX
  8
0
 10
0.207107
 20
-0.500000
 30
0.000000
  0
VERTEX
  8
0
 10
-0.207107
 20
-0.500000
 30
0.000000
  0
SEQEND
  8
0
  0
ENDBLK
  8
0
  0
BLOCK
  8
0
  2
SQUAREV
 70
64
 10
0.000000
 20
0.000000
 30
0.000000
  3
SQUAREV
  0
SOLID
  8
0
 10
-0.500000
 20
-0.500000
 30
0.000000
 11
0.500000
 21
-0.500000
 31
0.000000
 12
-0.500000
 22
0.500000
 32
0.000000
 13
0.500000
 23
0.500000
 33
0.000000
  0
ENDBLK
  8
0
  0
BLOCK
  8
0
  2
ROUNDV
 70
64
 10
0.000000
 20
0.000000
 30
0.000000
  3
ROUNDV
  0
CIRCLE
  8
0
 10
0.000000
 20
0.000000
 30
0.000000
 40
0.500000
  0
ENDBLK
  8
0
  0
BLOCK
  8
0
  2
ANNULUSV
 70
64
 10
0.000000
 20
0.000000
 30
0.000000
  3
ANNULUSV
  0
CIRCLE
  8
0
 10
0.000000
 20
0.000000
 30
0.000000
 40
0.500000
  0
ENDBLK
  8
0
  0
BLOCK
  8
0
  2
THERMALV
 70
64
 10
0.000000
 20
0.000000
 30
0.000000
  3
THERMALV
  0
LINE
  8
0
 10
-0.237868
 20
0.450000
 30
0.000000
 11
0.237868
 21
0.450000
 31
0.000000
  0
LINE
  8
0
 10
0.450000
 20
0.237868
 30
0.000000
 11
0.450000
 21
-0.237868
 31
0.000000
  0
LINE
  8
0
 10
0.237868
 20
-0.450000
 30
0.000000
 11
-0.237868
 21
-0.450000
 31
0.000000
  0
LINE
  8
0
 10
-0.450000
 20
-0.237868
 30
0.000000
 11
-0.450000
 21
0.237868
 31
0.000000
  0
ENDBLK
  8
0
  0
BLOCK
  8
0
  2
RECT101600X101600R100
 70
64
 10
0.000000
 20
0.000000
 30
0.000000
  3
RECT101600X101600R100
  0
POLYLINE
  8
0
 66
1
 10
0.000000
 20
0.000000
 30
0.000000
 40
0.000000
 41
0.000000
 70
1
  0
VERTEX
  8
0
 10
0.012500
 20
0.000000
 30
0.000000
  0
VERTEX
  8
0
 10
0.012500
 20
0.000000
 30
0.000000
 42
0.414214
  0
VERTEX
  8
0
 10
0.000000
 20
0.012500
 30
0.000000
  0
VERTEX
  8
0
 10
0.000000
 20
0.012500
 30
0.000000
 42
0.414214
  0
VERTEX
  8
0
 10
-0.012500
 20
0.000000
 30
0.000000
  0
VERTEX
  8
0
 10
-0.012500
 20
0.000000
 30
0.000000
 42
0.414214
  0
VERTEX
  8
0
 10
0.000000
 20
-0.012500
 30
0.000000
  0
VERTEX
  8
0
 10
0.000000
 20
-0.012500
 30
0.000000
 42
0.414214
  0
SEQEND
  8
0
  0
ENDBLK
  8
0
  0
BLOCK
  8
0
  2
LONGP100
 70
64
 10
0.000000
 20
0.000000
 30
0.000000
  3
LONGP100
  0
POLYLINE
  8
0
 66
1
 10
0.000000
 20
0.000000
 30
0.000000
 40
0.000000
 41
0.000000
 70
1
  0
VERTEX
  8
0
 10
-0.500000
 20
-0.500000
 30
0.000000
  0
VERTEX
  8
0
 10
0.500000
 20
-0.500000
 30
0.000000
 42
1.000000
  0
VERTEX
  8
0
 10
0.500000
 20
0.500000
 30
0.000000
  0
VERTEX
  8
0
 10
-0.500000
 20
0.500000
 30
0.000000
 42
1.000000
  0
SEQEND
  8
0
  0
ENDBLK
  8
0
  0
ENDSEC
  0
SECTION
  2
ENTITIES
  0
LINE
  8
20
 10
0.000000
 20
0.000000
 30
0.000000
 11
1.181102
 21
0.000000
 31
0.000000
  0
LINE
  8
20
 10
1.181102
 20
0.000000
 30
0.000000
 11
1.181102
 21
0.590551
 31
0.000000
  0
LINE
  8
20
 10
1.181102
 20
0.590551
 30
0.000000
 11
0.000000
 21
0.590551
 31
0.000000
  0
LINE
  8
20
 10
0.000000
 20
0.590551
 30
0.000000
 11
0.000000
 21
0.000000
 31
0.000000
  0
LINE
  8
25
 10
0.911500
 20
0.360525
 30
0.000000
 11
0.911500
 21
0.331500
 31
0.000000
  0
LINE
  8
25
 10
0.911500
 20
0.331500
 30
0.000000
 11
0.926012
 21
0.331500
 31
0.000000
  0
LINE
  8
25
 10
0.926012
 20
0.331500
 30
0.000000
 11
0.930850
 21
0.336337
 31
0.000000
  0
LINE
  8
25
 10
0.930850
 20
0.336337
 30
0.000000
 11
0.930850
 21
0.355687
 31
0.000000
  0
LINE
  8
25
 10
0.930850
 20
0.355687
 30
0.000000
 11
0.926012
 21
0.360525
 31
0.000000
  0
LINE
  8
25
 10
0.926012
 20
0.360525
 30
0.000000
 11
0.911500
 21
0.360525
 31
0.000000
  0
LINE
  8
25
 10
0.940965
 20
0.346012
 30
0.000000
 11
0.960315
 21
0.346012
 31
0.000000
  0
LINE
  8
25
 10
0.950640
 20
0.355687
 30
0.000000
 11
0.950640
 21
0.336337
 31
0.000000
  0
LINE
  8
25
 10
0.911500
 20
0.460525
 30
0.000000
 11
0.911500
 21
0.431500
 31
0.000000
  0
LINE
  8
25
 10
0.911500
 20
0.431500
 30
0.000000
 11
0.926012
 21
0.431500
 31
0.000000
  0
LINE
  8
25
 10
0.926012
 20
0.431500
 30
0.000000
 11
0.930850
 21
0.436337
 31
0.000000
  0
LINE
  8
25
 10
0.930850
 20
0.436337
 30
0.000000
 11
0.930850
 21
0.455687
 31
0.000000
  0
LINE
  8
25
 10
0.930850
 20
0.455687
 30
0.000000
 11
0.926012
 21
0.460525
 31
0.000000
  0
LINE
  8
25
 10
0.926012
 20
0.460525
 30
0.000000
 11
0.911500
 21
0.460525
 31
0.000000
  0
LINE
  8
25
 10
0.940965
 20
0.446012
 30
0.000000
 11
0.960315
 21
0.446012
 31
0.000000
  0
LINE
  8
16
 10
1.017324
 20
0.068014
 30
0.000000
 11
1.028000
 21
0.068014
 31
0.000000
  0
LINE
  8
16
 10
1.028000
 20
0.068014
 30
0.000000
 11
1.028000
 21
0.052000
 31
0.000000
  0
LINE
  8
16
 10
1.028000
 20
0.052000
 30
0.000000
 11
1.017324
 21
0.052000
 31
0.000000
  0
LINE
  8
16
 10
1.028000
 20
0.060007
 30
0.000000
 11
1.022662
 21
0.060007
 31
0.000000
  0
LINE
  8
16
 10
1.009584
 20
0.068014
 30
0.000000
 11
1.009584
 21
0.052000
 31
0.000000
  0
LINE
  8
16
 10
1.009584
 20
0.052000
 30
0.000000
 11
1.004246
 21
0.057338
 31
0.000000
  0
LINE
  8
16
 10
1.004246
 20
0.057338
 30
0.000000
 11
0.998909
 21
0.052000
 31
0.000000
  0
LINE
  8
16
 10
0.998909
 20
0.052000
 30
0.000000
 11
0.998909
 21
0.068014
 31
0.000000
  0
LINE
  8
16
 10
0.991169
 20
0.052000
 30
0.000000
 11
0.991169
 21
0.068014
 31
0.000000
  0
LINE
  8
16
 10
0.991169
 20
0.068014
 30
0.000000
 11
0.985831
 21
0.062676
 31
0.000000
  0
LINE
  8
16
 10
0.985831
 20
0.062676
 30
0.000000
 11
0.980493
 21
0.068014
 31
0.000000
  0
LINE
  8
16
 10
0.980493
 20
0.068014
 30
0.000000
 11
0.980493
 21
0.052000
 31
0.000000
  0
LINE
  8
16
 10
0.943661
 20
0.052000
 30
0.000000
 11
0.954337
 21
0.052000
 31
0.000000
  0
LINE
  8
16
 10
0.954337
 20
0.052000
 30
0.000000
 11
0.943661
 21
0.062676
 31
0.000000
  0
LINE
  8
16
 10
0.943661
 20
0.062676
 30
0.000000
 11
0.943661
 21
0.065345
 31
0.000000
  0
LINE
  8
16
 10
0.943661
 20
0.065345
 30
0.000000
 11
0.946330
 21
0.068014
 31
0.000000
  0
LINE
  8
16
 10
0.946330
 20
0.068014
 30
0.000000
 11
0.951668
 21
0.068014
 31
0.000000
  0
LINE
  8
16
 10
0.951668
 20
0.068014
 30
0.000000
 11
0.954337
 21
0.065345
 31
0.000000
  0
LINE
  8
16
 10
0.935921
 20
0.054669
 30
0.000000
 11
0.935921
 21
0.065345
 31
0.000000
  0
LINE
  8
16
 10
0.935921
 20
0.065345
 30
0.000000
 11
0.933252
 21
0.068014
 31
0.000000
  0
LINE
  8
16
 10
0.933252
 20
0.068014
 30
0.000000
 11
0.927915
 21
0.068014
 31
0.000000
  0
LINE
  8
16
 10
0.927915
 20
0.068014
 30
0.000000
 11
0.925246
 21
0.065345
 31
0.000000
  0
LINE
  8
16
 10
0.925246
 20
0.065345
 30
0.000000
 11
0.925246
 21
0.054669
 31
0.000000
  0
LINE
  8
16
 10
0.925246
 20
0.054669
 30
0.000000
 11
0.927915
 21
0.052000
 31
0.000000
  0
LINE
  8
16
 10
0.927915
 20
0.052000
 30
0.000000
 11
0.933252
 21
0.052000
 31
0.000000
  0
LINE
  8
16
 10
0.933252
 20
0.052000
 30
0.000000
 11
0.935921
 21
0.054669
 31
0.000000
  0
LINE
  8
16
 10
0.935921
 20
0.054669
 30
0.000000
 11
0.925246
 21
0.065345
 31
0.000000
  0
LINE
  8
16
 10
0.917506
 20
0.062676
 30
0.000000
 11
0.912168
 21
0.068014
 31
0.000000
  0
LINE
  8
16
 10
0.912168
 20
0.068014
 30
0.000000
 11
0.912168
 21
0.052000
 31
0.000000
  0
LINE
  8
16
 10
0.917506
 20
0.052000
 30
0.000000
 11
0.906830
 21
0.052000
 31
0.000000
  0
LINE
  8
16
 10
0.899090
 20
0.065345
 30
0.000000
 11
0.896421
 21
0.068014
 31
0.000000
  0
LINE
  8
16
 10
0.896421
 20
0.068014
 30
0.000000
 11
0.891083
 21
0.068014
 31
0.000000
  0
LINE
  8
16
 10
0.891083
 20
0.068014
 30
0.000000
 11
0.888414
 21
0.065345
 31
0.000000
  0
LINE
  8
16
 10
0.888414
 20
0.065345
 30
0.000000
 11
0.888414
 21
0.062676
 31
0.000000
  0
LINE
  8
16
 10
0.888414
 20
0.062676
 30
0.000000
 11
0.891083
 21
0.060007
 31
0.000000
  0
LINE
  8
16
 10
0.891083
 20
0.060007
 30
0.000000
 11
0.893752
 21
0.060007
 31
0.000000
  0
LINE
  8
16
 10
0.891083
 20
0.060007
 30
0.000000
 11
0.888414
 21
0.057338
 31
0.000000
  0
LINE
  8
16
 10
0.888414
 20
0.057338
 30
0.000000
 11
0.888414
 21
0.054669
 31
0.000000
  0
LINE
  8
16
 10
0.888414
 20
0.054669
 30
0.000000
 11
0.891083
 21
0.052000
 31
0.000000
  0
LINE
  8
16
 10
0.891083
 20
0.052000
 30
0.000000
 11
0.896421
 21
0.052000
 31
0.000000
  0
LINE
  8
16
 10
0.896421
 20
0.052000
 30
0.000000
 11
0.899090
 21
0.054669
 31
0.000000
  0
LINE
  8
16
 10
0.880674
 20
0.054669
 30
0.000000
 11
0.880674
 21
0.065345
 31
0.000000
  0
LINE
  8
16
 10
0.880674
 20
0.065345
 30
0.000000
 11
0.878005
 21
0.068014
 31
0.000000
  0
LINE
  8
16
 10
0.878005
 20
0.068014
 30
0.000000
 11
0.872667
 21
0.068014
 31
0.000000
  0
LINE
  8
16
 10
0.872667
 20
0.068014
 30
0.000000
 11
0.869999
 21
0.065345
 31
0.000000
  0
LINE
  8
16
 10
0.869999
 20
0.065345
 30
0.000000
 11
0.869999
 21
0.054669
 31
0.000000
  0
LINE
  8
16
 10
0.869999
 20
0.054669
 30
0.000000
 11
0.872667
 21
0.052000
 31
0.000000
  0
LINE
  8
16
 10
0.872667
 20
0.052000
 30
0.000000
 11
0.878005
 21
0.052000
 31
0.000000
  0
LINE
  8
16
 10
0.878005
 20
0.052000
 30
0.000000
 11
0.880674
 21
0.054669
 31
0.000000
  0
LINE
  8
16
 10
0.880674
 20
0.054669
 30
0.000000
 11
0.869999
 21
0.065345
 31
0.000000
  0
LINE
  8
16
 10
0.854252
 20
0.052000
 30
0.000000
 11
0.854252
 21
0.068014
 31
0.000000
  0
LINE
  8
16
 10
0.854252
 20
0.068014
 30
0.000000
 11
0.862258
 21
0.060007
 31
0.000000
  0
LINE
  8
16
 10
0.862258
 20
0.060007
 30
0.000000
 11
0.851583
 21
0.060007
 31
0.000000
  0
LINE
  8
16
 10
0.843843
 20
0.062676
 30
0.000000
 11
0.838505
 21
0.068014
 31
0.000000
  0
LINE
  8
16
 10
0.838505
 20
0.068014
 30
0.000000
 11
0.838505
 21
0.052000
 31
0.000000
  0
LINE
  8
16
 10
0.843843
 20
0.052000
 30
0.000000
 11
0.833167
 21
0.052000
 31
0.000000
  0
LINE
  8
16
 10
0.825427
 20
0.068014
 30
0.000000
 11
0.814751
 21
0.068014
 31
0.000000
  0
LINE
  8
16
 10
0.814751
 20
0.068014
 30
0.000000
 11
0.814751
 21
0.065345
 31
0.000000
  0
LINE
  8
16
 10
0.814751
 20
0.065345
 30
0.000000
 11
0.825427
 21
0.054669
 31
0.000000
  0
LINE
  8
16
 10
0.825427
 20
0.054669
 30
0.000000
 11
0.825427
 21
0.052000
 31
0.000000
  0
LINE
  8
16
 10
1.028000
 20
0.022000
 30
0.000000
 11
1.028000
 21
0.032676
 31
0.000000
  0
LINE
  8
16
 10
1.028000
 20
0.032676
 30
0.000000
 11
1.022662
 21
0.038014
 31
0.000000
  0
LINE
  8
16
 10
1.022662
 20
0.038014
 30
0.000000
 11
1.017324
 21
0.032676
 31
0.000000
  0
LINE
  8
16
 10
1.017324
 20
0.032676
 30
0.000000
 11
1.017324
 21
0.022000
 31
0.000000
  0
LINE
  8
16
 10
1.028000
 20
0.030007
 30
0.000000
 11
1.017324
 21
0.030007
 31
0.000000
  0
LINE
  8
16
 10
1.004246
 20
0.022000
 30
0.000000
 11
1.004246
 21
0.038014
 31
0.000000
  0
LINE
  8
16
 10
1.009584
 20
0.038014
 30
0.000000
 11
0.998909
 21
0.038014
 31
0.000000
  0
LINE
  8
16
 10
0.972753
 20
0.038014
 30
0.000000
 11
0.972753
 21
0.022000
 31
0.000000
  0
LINE
  8
16
 10
0.972753
 20
0.022000
 30
0.000000
 11
0.964746
 21
0.022000
 31
0.000000
  0
LINE
  8
16
 10
0.964746
 20
0.022000
 30
0.000000
 11
0.962077
 21
0.024669
 31
0.000000
  0
LINE
  8
16
 10
0.962077
 20
0.024669
 30
0.000000
 11
0.962077
 21
0.035345
 31
0.000000
  0
LINE
  8
16
 10
0.962077
 20
0.035345
 30
0.000000
 11
0.964746
 21
0.038014
 31
0.000000
  0
LINE
  8
16
 10
0.964746
 20
0.038014
 30
0.000000
 11
0.972753
 21
0.038014
 31
0.000000
  0
LINE
  8
16
 10
0.954337
 20
0.022000
 30
0.000000
 11
0.954337
 21
0.038014
 31
0.000000
  0
LINE
  8
16
 10
0.954337
 20
0.038014
 30
0.000000
 11
0.946330
 21
0.038014
 31
0.000000
  0
LINE
  8
16
 10
0.946330
 20
0.038014
 30
0.000000
 11
0.943661
 21
0.035345
 31
0.000000
  0
LINE
  8
16
 10
0.943661
 20
0.035345
 30
0.000000
 11
0.943661
 21
0.030007
 31
0.000000
  0
LINE
  8
16
 10
0.943661
 20
0.030007
 30
0.000000
 11
0.946330
 21
0.027338
 31
0.000000
  0
LINE
  8
16
 10
0.946330
 20
0.027338
 30
0.000000
 11
0.954337
 21
0.027338
 31
0.000000
  0
LINE
  8
16
 10
0.948999
 20
0.027338
 30
0.000000
 11
0.943661
 21
0.022000
 31
0.000000
  0
LINE
  8
16
 10
0.935921
 20
0.022000
 30
0.000000
 11
0.930584
 21
0.022000
 31
0.000000
  0
LINE
  8
16
 10
0.933252
 20
0.022000
 30
0.000000
 11
0.933252
 21
0.038014
 31
0.000000
  0
LINE
  8
16
 10
0.935921
 20
0.038014
 30
0.000000
 11
0.930584
 21
0.038014
 31
0.000000
  0
LINE
  8
16
 10
0.923644
 20
0.038014
 30
0.000000
 11
0.923644
 21
0.027338
 31
0.000000
  0
LINE
  8
16
 10
0.923644
 20
0.027338
 30
0.000000
 11
0.918306
 21
0.022000
 31
0.000000
  0
LINE
  8
16
 10
0.918306
 20
0.022000
 30
0.000000
 11
0.912969
 21
0.027338
 31
0.000000
  0
LINE
  8
16
 10
0.912969
 20
0.027338
 30
0.000000
 11
0.912969
 21
0.038014
 31
0.000000
  0
LINE
  8
16
 10
0.894553
 20
0.038014
 30
0.000000
 11
0.905229
 21
0.038014
 31
0.000000
  0
LINE
  8
16
 10
0.905229
 20
0.038014
 30
0.000000
 11
0.905229
 21
0.022000
 31
0.000000
  0
LINE
  8
16
 10
0.905229
 20
0.022000
 30
0.000000
 11
0.894553
 21
0.022000
 31
0.000000
  0
LINE
  8
16
 10
0.905229
 20
0.030007
 30
0.000000
 11
0.899891
 21
0.030007
 31
0.000000
  0
LINE
  8
16
 10
0.886813
 20
0.022000
 30
0.000000
 11
0.886813
 21
0.038014
 31
0.000000
  0
LINE
  8
16
 10
0.886813
 20
0.038014
 30
0.000000
 11
0.878806
 21
0.038014
 31
0.000000
  0
LINE
  8
16
 10
0.878806
 20
0.038014
 30
0.000000
 11
0.876137
 21
0.035345
 31
0.000000
  0
LINE
  8
16
 10
0.876137
 20
0.035345
 30
0.000000
 11
0.876137
 21
0.030007
 31
0.000000
  0
LINE
  8
16
 10
0.876137
 20
0.030007
 30
0.000000
 11
0.878806
 21
0.027338
 31
0.000000
  0
LINE
  8
16
 10
0.878806
 20
0.027338
 30
0.000000
 11
0.886813
 21
0.027338
 31
0.000000
  0
LINE
  8
16
 10
0.881475
 20
0.027338
 30
0.000000
 11
0.876137
 21
0.022000
 31
0.000000
  0
LINE
  8
25
 10
0.562500
 20
0.369525
 30
0.000000
 11
0.562500
 21
0.340500
 31
0.000000
  0
LINE
  8
25
 10
0.562500
 20
0.340500
 30
0.000000
 11
0.577012
 21
0.340500
 31
0.000000
  0
LINE
  8
25
 10
0.577012
 20
0.340500
 30
0.000000
 11
0.581850
 21
0.345337
 31
0.000000
  0
LINE
  8
25
 10
0.581850
 20
0.345337
 30
0.000000
 11
0.581850
 21
0.364687
 31
0.000000
  0
LINE
  8
25
 10
0.581850
 20
0.364687
 30
0.000000
 11
0.577012
 21
0.369525
 31
0.000000
  0
LINE
  8
25
 10
0.577012
 20
0.369525
 30
0.000000
 11
0.562500
 21
0.369525
 31
0.000000
  0
LINE
  8
25
 10
0.369850
 20
0.322687
 30
0.000000
 11
0.365012
 21
0.327525
 31
0.000000
  0
LINE
  8
25
 10
0.365012
 20
0.327525
 30
0.000000
 11
0.355337
 21
0.327525
 31
0.000000
  0
LINE
  8
25
 10
0.355337
 20
0.327525
 30
0.000000
 11
0.350500
 21
0.322687
 31
0.000000
  0
LINE
  8
25
 10
0.350500
 20
0.322687
 30
0.000000
 11
0.350500
 21
0.303337
 31
0.000000
  0
LINE
  8
25
 10
0.350500
 20
0.303337
 30
0.000000
 11
0.355337
 21
0.298500
 31
0.000000
  0
LINE
  8
25
 10
0.355337
 20
0.298500
 30
0.000000
 11
0.365012
 21
0.298500
 31
0.000000
  0
LINE
  8
25
 10
0.365012
 20
0.298500
 30
0.000000
 11
0.369850
 21
0.303337
 31
0.000000
  0
LINE
  8
25
 10
0.209850
 20
0.434687
 30
0.000000
 11
0.205012
 21
0.439525
 31
0.000000
  0
LINE
  8
25
 10
0.205012
 20
0.439525
 30
0.000000
 11
0.195337
 21
0.439525
 31
0.000000
  0
LINE
  8
25
 10
0.195337
 20
0.439525
 30
0.000000
 11
0.190500
 21
0.434687
 31
0.000000
  0
LINE
  8
25
 10
0.190500
 20
0.434687
 30
0.000000
 11
0.190500
 21
0.415337
 31
0.000000
  0
LINE
  8
25
 10
0.190500
 20
0.415337
 30
0.000000
 11
0.195337
 21
0.410500
 31
0.000000
  0
LINE
  8
25
 10
0.195337
 20
0.410500
 30
0.000000
 11
0.205012
 21
0.410500
 31
0.000000
  0
LINE
  8
25
 10
0.205012
 20
0.410500
 30
0.000000
 11
0.209850
 21
0.415337
 31
0.000000
  0
LINE
  8
25
 10
0.209850
 20
0.415337
 30
0.000000
 11
0.209850
 21
0.425012
 31
0.000000
  0
LINE
  8
25
 10
0.209850
 20
0.425012
 30
0.000000
 11
0.200175
 21
0.425012
 31
0.000000
  0
LINE
  8
25
 10
0.596500
 20
0.224500
 30
0.000000
 11
0.596500
 21
0.253525
 31
0.000000
  0
LINE
  8
25
 10
0.596500
 20
0.253525
 30
0.000000
 11
0.611012
 21
0.253525
 31
0.000000
  0
LINE
  8
25
 10
0.611012
 20
0.253525
 30
0.000000
 11
0.615850
 21
0.248687
 31
0.000000
  0
LINE
  8
25
 10
0.615850
 20
0.248687
 30
0.000000
 11
0.615850
 21
0.239012
 31
0.000000
  0
LINE
  8
25
 10
0.615850
 20
0.239012
 30
0.000000
 11
0.611012
 21
0.234175
 31
0.000000
  0
LINE
  8
25
 10
0.611012
 20
0.234175
 30
0.000000
 11
0.596500
 21
0.234175
 31
0.000000
  0
LINE
  8
25
 10
0.606175
 20
0.234175
 30
0.000000
 11
0.615850
 21
0.224500
 31
0.000000
  0
LINE
  8
25
 10
0.328500
 20
0.176525
 30
0.000000
 11
0.328500
 21
0.157175
 31
0.000000
  0
LINE
  8
25
 10
0.328500
 20
0.157175
 30
0.000000
 11
0.338175
 21
0.147500
 31
0.000000
  0
LINE
  8
25
 10
0.338175
 20
0.147500
 30
0.000000
 11
0.347850
 21
0.157175
 31
0.000000
  0
LINE
  8
25
 10
0.347850
 20
0.157175
 30
0.000000
 11
0.347850
 21
0.176525
 31
0.000000
  0
CIRCLE
  8
20
 10
0.060000
 20
0.530000
 30
0.000000
 40
0.062500
  0
CIRCLE
  8
20
 10
1.120000
 20
0.060000
 30
0.000000
 40
0.062500
  0
POINT
  8
23
 10
0.350000
 20
0.210000
 30
0.000000
  0
INSERT
  8
1
  2
PIE
 10
0.350000
 20
0.210000
 30
0.000000
 41
0.025000
 42
0.025000
 43
1.000000
 50
0.000000
  0
POINT
  8
24
 10
0.267559
 20
0.340000
 30
0.000000
  0
LINE
  8
40
 10
0.306260
 20
0.262323
 30
0.000000
 11
0.306260
 21
0.417677
 31
0.000000
  0
LINE
  8
40
 10
0.228858
 20
0.417677
 30
0.000000
 11
0.228858
 21
0.262323
 31
0.000000
  0
LINE
  8
40
 10
0.228858
 20
0.262323
 30
0.000000
 11
0.306260
 21
0.262323
 31
0.000000
  0
LINE
  8
52
 10
0.293543
 20
0.325000
 30
0.000000
 11
0.293543
 21
0.355000
 31
0.000000
  0
LINE
  8
52
 10
0.241575
 20
0.325984
 30
0.000000
 11
0.241575
 21
0.355000
 31
0.000000
  0
LINE
  8
40
 10
0.306260
 20
0.417677
 30
0.000000
 11
0.228858
 21
0.417677
 31
0.000000
  0
INSERT
  8
52
  2
RECT
 10
0.267604
 20
0.311766
 30
0.000000
 41
0.029531
 42
0.057091
 43
1.000000
 50
90.000000
  0
INSERT
  8
52
  2
RECT
 10
0.267604
 20
0.368766
 30
0.000000
 41
0.029531
 42
0.057091
 43
1.000000
 50
90.000000
  0
INSERT
  8
16
  2
RECT
 10
0.267559
 20
0.306535
 30
0.000000
 41
0.051181
 42
0.059055
 43
1.000000
 50
90.000000
  0
INSERT
  8
16
  2
RECT
 10
0.267559
 20
0.373465
 30
0.000000
 41
0.051181
 42
0.059055
 43
1.000000
 50
90.000000
  0
LINE
  8
26
 10
0.281709
 20
0.235687
 30
0.000000
 11
0.286547
 21
0.240525
 31
0.000000
  0
LINE
  8
26
 10
0.286547
 20
0.240525
 30
0.000000
 11
0.296222
 21
0.240525
 31
0.000000
  0
LINE
  8
26
 10
0.296222
 20
0.240525
 30
0.000000
 11
0.301059
 21
0.235687
 31
0.000000
  0
LINE
  8
26
 10
0.301059
 20
0.235687
 30
0.000000
 11
0.301059
 21
0.216337
 31
0.000000
  0
LINE
  8
26
 10
0.301059
 20
0.216337
 30
0.000000
 11
0.296222
 21
0.211500
 31
0.000000
  0
LINE
  8
26
 10
0.296222
 20
0.211500
 30
0.000000
 11
0.286547
 21
0.211500
 31
0.000000
  0
LINE
  8
26
 10
0.286547
 20
0.211500
 30
0.000000
 11
0.281709
 21
0.216337
 31
0.000000
  0
LINE
  8
26
 10
0.271594
 20
0.230850
 30
0.000000
 11
0.261919
 21
0.240525
 31
0.000000
  0
LINE
  8
26
 10
0.261919
 20
0.240525
 30
0.000000
 11
0.261919
 21
0.211500
 31
0.000000
  0
LINE
  8
26
 10
0.271594
 20
0.211500
 30
0.000000
 11
0.252244
 21
0.211500
 31
0.000000
  0
POINT
  8
23
 10
0.452000
 20
0.123000
 30
0.000000
  0
LINE
  8
39
 10
0.529677
 20
0.084299
 30
0.000000
 11
0.374323
 21
0.084299
 31
0.000000
  0
LINE
  8
39
 10
0.374323
 20
0.161701
 30
0.000000
 11
0.529677
 21
0.161701
 31
0.000000
  0
LINE
  8
39
 10
0.529677
 20
0.161701
 30
0.000000
 11
0.529677
 21
0.084299
 31
0.000000
  0
LINE
  8
51
 10
0.467000
 20
0.097016
 30
0.000000
 11
0.437000
 21
0.097016
 31
0.000000
  0
LINE
  8
51
 10
0.466016
 20
0.148984
 30
0.000000
 11
0.437000
 21
0.148984
 31
0.000000
  0
LINE
  8
39
 10
0.374323
 20
0.084299
 30
0.000000
 11
0.374323
 21
0.161701
 31
0.000000
  0
INSERT
  8
51
  2
RECT
 10
0.480234
 20
0.122955
 30
0.000000
 41
0.029531
 42
0.057091
 43
1.000000
 50
180.000000
  0
INSERT
  8
51
  2
RECT
 10
0.423234
 20
0.122955
 30
0.000000
 41
0.029531
 42
0.057091
 43
1.000000
 50
180.000000
  0
INSERT
  8
1
  2
RECT
 10
0.485465
 20
0.123000
 30
0.000000
 41
0.051181
 42
0.059055
 43
1.000000
 50
180.000000
  0
INSERT
  8
1
  2
RECT
 10
0.418535
 20
0.123000
 30
0.000000
 41
0.051181
 42
0.059055
 43
1.000000
 50
180.000000
  0
LINE
  8
25
 10
0.431919
 20
0.069687
 30
0.000000
 11
0.427082
 21
0.074525
 31
0.000000
  0
LINE
  8
25
 10
0.427082
 20
0.074525
 30
0.000000
 11
0.417407
 21
0.074525
 31
0.000000
  0
LINE
  8
25
 10
0.417407
 20
0.074525
 30
0.000000
 11
0.412570
 21
0.069687
 31
0.000000
  0
LINE
  8
25
 10
0.412570
 20
0.069687
 30
0.000000
 11
0.412570
 21
0.050337
 31
0.000000
  0
LINE
  8
25
 10
0.412570
 20
0.050337
 30
0.000000
 11
0.417407
 21
0.045500
 31
0.000000
  0
LINE
  8
25
 10
0.417407
 20
0.045500
 30
0.000000
 11
0.427082
 21
0.045500
 31
0.000000
  0
LINE
  8
25
 10
0.427082
 20
0.045500
 30
0.000000
 11
0.431919
 21
0.050337
 31
0.000000
  0
LINE
  8
25
 10
0.461385
 20
0.045500
 30
0.000000
 11
0.442035
 21
0.045500
 31
0.000000
  0
LINE
  8
25
 10
0.442035
 20
0.045500
 30
0.000000
 11
0.461385
 21
0.064850
 31
0.000000
  0
LINE
  8
25
 10
0.461385
 20
0.064850
 30
0.000000
 11
0.461385
 21
0.069687
 31
0.000000
  0
LINE
  8
25
 10
0.461385
 20
0.069687
 30
0.000000
 11
0.456547
 21
0.074525
 31
0.000000
  0
LINE
  8
25
 10
0.456547
 20
0.074525
 30
0.000000
 11
0.446872
 21
0.074525
 31
0.000000
  0
LINE
  8
25
 10
0.446872
 20
0.074525
 30
0.000000
 11
0.442035
 21
0.069687
 31
0.000000
  0
POINT
  8
23
 10
0.257000
 20
0.124000
 30
0.000000
  0
LINE
  8
39
 10
0.314992
 20
0.085299
 30
0.000000
 11
0.199008
 21
0.085299
 31
0.000000
  0
LINE
  8
39
 10
0.199008
 20
0.085299
 30
0.000000
 11
0.199008
 21
0.162701
 31
0.000000
  0
LINE
  8
39
 10
0.199008
 20
0.162701
 30
0.000000
 11
0.314992
 21
0.162701
 31
0.000000
  0
LINE
  8
39
 10
0.314992
 20
0.162701
 30
0.000000
 11
0.314992
 21
0.085299
 31
0.000000
  0
LINE
  8
51
 10
0.271016
 20
0.106992
 30
0.000000
 11
0.242984
 21
0.106992
 31
0.000000
  0
LINE
  8
51
 10
0.271016
 20
0.140496
 30
0.000000
 11
0.242984
 21
0.140496
 31
0.000000
  0
INSERT
  8
51
  2
RECT
 10
0.280156
 20
0.123799
 30
0.000000
 41
0.019689
 42
0.037402
 43
1.000000
 50
180.000000
  0
INSERT
  8
51
  2
RECT
 10
0.234156
 20
0.123799
 30
0.000000
 41
0.019689
 42
0.037402
 43
1.000000
 50
180.000000
  0
INSERT
  8
1
  2
RECT
 10
0.290465
 20
0.124000
 30
0.000000
 41
0.043307
 42
0.039370
 43
1.000000
 50
180.000000
  0
INSERT
  8
1
  2
RECT
 10
0.223535
 20
0.124000
 30
0.000000
 41
0.043307
 42
0.039370
 43
1.000000
 50
180.000000
  0
LINE
  8
25
 10
0.244919
 20
0.069687
 30
0.000000
 11
0.240082
 21
0.074525
 31
0.000000
  0
LINE
  8
25
 10
0.240082
 20
0.074525
 30
0.000000
 11
0.230407
 21
0.074525
 31
0.000000
  0
LINE
  8
25
 10
0.230407
 20
0.074525
 30
0.000000
 11
0.225570
 21
0.069687
 31
0.000000
  0
LINE
  8
25
 10
0.225570
 20
0.069687
 30
0.000000
 11
0.225570
 21
0.050337
 31
0.000000
  0
LINE
  8
25
 10
0.225570
 20
0.050337
 30
0.000000
 11
0.230407
 21
0.045500
 31
0.000000
  0
LINE
  8
25
 10
0.230407
 20
0.045500
 30
0.000000
 11
0.240082
 21
0.045500
 31
0.000000
  0
LINE
  8
25
 10
0.240082
 20
0.045500
 30
0.000000
 11
0.244919
 21
0.050337
 31
0.000000
  0
LINE
  8
25
 10
0.255035
 20
0.069687
 30
0.000000
 11
0.259872
 21
0.074525
 31
0.000000
  0
LINE
  8
25
 10
0.259872
 20
0.074525
 30
0.000000
 11
0.269547
 21
0.074525
 31
0.000000
  0
LINE
  8
25
 10
0.269547
 20
0.074525
 30
0.000000
 11
0.274385
 21
0.069687
 31
0.000000
  0
LINE
  8
25
 10
0.274385
 20
0.069687
 30
0.000000
 11
0.274385
 21
0.064850
 31
0.000000
  0
LINE
  8
25
 10
0.274385
 20
0.064850
 30
0.000000
 11
0.269547
 21
0.060012
 31
0.000000
  0
LINE
  8
25
 10
0.269547
 20
0.060012
 30
0.000000
 11
0.264710
 21
0.060012
 31
0.000000
  0
LINE
  8
25
 10
0.269547
 20
0.060012
 30
0.000000
 11
0.274385
 21
0.055175
 31
0.000000
  0
LINE
  8
25
 10
0.274385
 20
0.055175
 30
0.000000
 11
0.274385
 21
0.050337
 31
0.000000
  0
LINE
  8
25
 10
0.274385
 20
0.050337
 30
0.000000
 11
0.269547
 21
0.045500
 31
0.000000
  0
LINE
  8
25
 10
0.269547
 20
0.045500
 30
0.000000
 11
0.259872
 21
0.045500
 31
0.000000
  0
LINE
  8
25
 10
0.259872
 20
0.045500
 30
0.000000
 11
0.255035
 21
0.050337
 31
0.000000
  0
POINT
  8
24
 10
0.267559
 20
0.150000
 30
0.000000
  0
LINE
  8
52
 10
0.299559
 20
0.112500
 30
0.000000
 11
0.299559
 21
0.188000
 31
0.000000
  0
LINE
  8
52
 10
0.235559
 20
0.112500
 30
0.000000
 11
0.235559
 21
0.188000
 31
0.000000
  0
LINE
  8
40
 10
0.228858
 20
0.247362
 30
0.000000
 11
0.228858
 21
0.052638
 31
0.000000
  0
LINE
  8
40
 10
0.228858
 20
0.052638
 30
0.000000
 11
0.306260
 21
0.052638
 31
0.000000
  0
LINE
  8
40
 10
0.306260
 20
0.052638
 30
0.000000
 11
0.306260
 21
0.247362
 31
0.000000
  0
LINE
  8
40
 10
0.306260
 20
0.247362
 30
0.000000
 11
0.228858
 21
0.247362
 31
0.000000
  0
LINE
  8
22
 10
0.267559
 20
0.170000
 30
0.000000
 11
0.267559
 21
0.160000
 31
0.000000
  0
LINE
  8
22
 10
0.267559
 20
0.160000
 30
0.000000
 11
0.267559
 21
0.155000
 31
0.000000
  0
LINE
  8
22
 10
0.267559
 20
0.155000
 30
0.000000
 11
0.267559
 21
0.130000
 31
0.000000
  0
LINE
  8
22
 10
0.257559
 20
0.160000
 30
0.000000
 11
0.267559
 21
0.160000
 31
0.000000
  0
LINE
  8
22
 10
0.267559
 20
0.160000
 30
0.000000
 11
0.277559
 21
0.160000
 31
0.000000
  0
LINE
  8
22
 10
0.267559
 20
0.160000
 30
0.000000
 11
0.257559
 21
0.140000
 31
0.000000
  0
LINE
  8
22
 10
0.257559
 20
0.140000
 30
0.000000
 11
0.262559
 21
0.140000
 31
0.000000
  0
LINE
  8
22
 10
0.272559
 20
0.140000
 30
0.000000
 11
0.277559
 21
0.140000
 31
0.000000
  0
LINE
  8
22
 10
0.277559
 20
0.140000
 30
0.000000
 11
0.267559
 21
0.160000
 31
0.000000
  0
LINE
  8
22
 10
0.267559
 20
0.160000
 30
0.000000
 11
0.262559
 21
0.140000
 31
0.000000
  0
LINE
  8
22
 10
0.262559
 20
0.140000
 30
0.000000
 11
0.272559
 21
0.140000
 31
0.000000
  0
LINE
  8
22
 10
0.272559
 20
0.140000
 30
0.000000
 11
0.267559
 21
0.155000
 31
0.000000
  0
INSERT
  8
52
  2
RECT
 10
0.267559
 20
0.202000
 30
0.000000
 41
0.029000
 42
0.069000
 43
1.000000
 50
270.000000
  0
INSERT
  8
52
  2
RECT
 10
0.267559
 20
0.098000
 30
0.000000
 41
0.029000
 42
0.069000
 43
1.000000
 50
270.000000
  0
INSERT
  8
16
  2
RECT
 10
0.267559
 20
0.205984
 30
0.000000
 41
0.062992
 42
0.070984
 43
1.000000
 50
270.000000
  0
INSERT
  8
16
  2
RECT
 10
0.267559
 20
0.094016
 30
0.000000
 41
0.062992
 42
0.070984
 43
1.000000
 50
270.000000
  0
LINE
  8
26
 10
0.209989
 20
0.063525
 30
0.000000
 11
0.209989
 21
0.034500
 31
0.000000
  0
LINE
  8
26
 10
0.209989
 20
0.034500
 30
0.000000
 11
0.195477
 21
0.034500
 31
0.000000
  0
LINE
  8
26
 10
0.195477
 20
0.034500
 30
0.000000
 11
0.190640
 21
0.039337
 31
0.000000
  0
LINE
  8
26
 10
0.190640
 20
0.039337
 30
0.000000
 11
0.190640
 21
0.058687
 31
0.000000
  0
LINE
  8
26
 10
0.190640
 20
0.058687
 30
0.000000
 11
0.195477
 21
0.063525
 31
0.000000
  0
LINE
  8
26
 10
0.195477
 20
0.063525
 30
0.000000
 11
0.209989
 21
0.063525
 31
0.000000
  0
LINE
  8
26
 10
0.180524
 20
0.053850
 30
0.000000
 11
0.170849
 21
0.063525
 31
0.000000
  0
LINE
  8
26
 10
0.170849
 20
0.063525
 30
0.000000
 11
0.170849
 21
0.034500
 31
0.000000
  0
LINE
  8
26
 10
0.180524
 20
0.034500
 30
0.000000
 11
0.161174
 21
0.034500
 31
0.000000
  0
POINT
  8
23
 10
0.200000
 20
0.375000
 30
0.000000
  0
INSERT
  8
1
  2
PIE
 10
0.200000
 20
0.375000
 30
0.000000
 41
0.025000
 42
0.025000
 43
1.000000
 50
0.000000
  0
POINT
  8
24
 10
0.630000
 20
0.300000
 30
0.000000
  0
LINE
  8
22
 10
0.464646
 20
0.465354
 30
0.000000
 11
0.795354
 21
0.465354
 31
0.000000
  0
LINE
  8
22
 10
0.795354
 20
0.465354
 30
0.000000
 11
0.795354
 21
0.134646
 31
0.000000
  0
LINE
  8
22
 10
0.795354
 20
0.134646
 30
0.000000
 11
0.464646
 21
0.134646
 31
0.000000
  0
LINE
  8
22
 10
0.464646
 20
0.134646
 30
0.000000
 11
0.464646
 21
0.465354
 31
0.000000
  0
INSERT
  8
16
  2
RECT
 10
0.448898
 20
0.300000
 30
0.000000
 41
0.086614
 42
0.314961
 43
1.000000
 50
0.000000
  0
INSERT
  8
16
  2
RECT
 10
0.811102
 20
0.300000
 30
0.000000
 41
0.086614
 42
0.314961
 43
1.000000
 50
0.000000
  0
POINT
  8
23
 10
0.830000
 20
0.160000
 30
0.000000
  0
LINE
  8
21
 10
0.900000
 20
0.030984
 30
0.000000
 11
0.760000
 21
0.030984
 31
0.000000
  0
LINE
  8
21
 10
0.760000
 20
0.030984
 30
0.000000
 11
0.760000
 21
0.289016
 31
0.000000
  0
LINE
  8
21
 10
0.760000
 20
0.289016
 30
0.000000
 11
0.900000
 21
0.289016
 31
0.000000
  0
LINE
  8
21
 10
0.900000
 20
0.289016
 30
0.000000
 11
0.900000
 21
0.030984
 31
0.000000
  0
INSERT
  8
51
  2
RECT
 10
0.937500
 20
0.160000
 30
0.000000
 41
0.126000
 42
0.073000
 43
1.000000
 50
270.000000
  0
INSERT
  8
51
  2
RECT
 10
0.722500
 20
0.160000
 30
0.000000
 41
0.034000
 42
0.073000
 43
1.000000
 50
270.000000
  0
INSERT
  8
51
  2
RECT
 10
0.722500
 20
0.251000
 30
0.000000
 41
0.034000
 42
0.073000
 43
1.000000
 50
270.000000
  0
INSERT
  8
51
  2
RECT
 10
0.722500
 20
0.069000
 30
0.000000
 41
0.034000
 42
0.073000
 43
1.000000
 50
270.000000
  0
INSERT
  8
51
  2
RECT
 10
0.937500
 20
0.160000
 30
0.000000
 41
0.126000
 42
0.073000
 43
1.000000
 50
270.000000
  0
INSERT
  8
51
  2
RECT
 10
0.722500
 20
0.160000
 30
0.000000
 41
0.034000
 42
0.073000
 43
1.000000
 50
270.000000
  0
INSERT
  8
51
  2
RECT
 10
0.722500
 20
0.251000
 30
0.000000
 41
0.034000
 42
0.073000
 43
1.000000
 50
270.000000
  0
INSERT
  8
51
  2
RECT
 10
0.722500
 20
0.069000
 30
0.000000
 41
0.034000
 42
0.073000
 43
1.000000
 50
270.000000
  0
INSERT
  8
1
  2
RECT
 10
0.707992
 20
0.250984
 30
0.000000
 41
0.047992
 42
0.087992
 43
1.000000
 50
270.000000
  0
INSERT
  8
1
  2
RECT
 10
0.707992
 20
0.160000
 30
0.000000
 41
0.047992
 42
0.087992
 43
1.000000
 50
270.000000
  0
INSERT
  8
1
  2
RECT
 10
0.707992
 20
0.069016
 30
0.000000
 41
0.047992
 42
0.087992
 43
1.000000
 50
270.000000
  0
INSERT
  8
1
  2
RECT
 10
0.952008
 20
0.160000
 30
0.000000
 41
0.141732
 42
0.086614
 43
1.000000
 50
270.000000
  0
LINE
  8
25
 10
0.936500
 20
0.050337
 30
0.000000
 11
0.936500
 21
0.069687
 31
0.000000
  0
LINE
  8
25
 10
0.936500
 20
0.069687
 30
0.000000
 11
0.941337
 21
0.074525
 31
0.000000
  0
LINE
  8
25
 10
0.941337
 20
0.074525
 30
0.000000
 11
0.951012
 21
0.074525
 31
0.000000
  0
LINE
  8
25
 10
0.951012
 20
0.074525
 30
0.000000
 11
0.955850
 21
0.069687
 31
0.000000
  0
LINE
  8
25
 10
0.955850
 20
0.069687
 30
0.000000
 11
0.955850
 21
0.050337
 31
0.000000
  0
LINE
  8
25
 10
0.955850
 20
0.050337
 30
0.000000
 11
0.951012
 21
0.045500
 31
0.000000
  0
LINE
  8
25
 10
0.951012
 20
0.045500
 30
0.000000
 11
0.941337
 21
0.045500
 31
0.000000
  0
LINE
  8
25
 10
0.941337
 20
0.045500
 30
0.000000
 11
0.936500
 21
0.050337
 31
0.000000
  0
LINE
  8
25
 10
0.946175
 20
0.055175
 30
0.000000
 11
0.955850
 21
0.045500
 31
0.000000
  0
LINE
  8
25
 10
0.965965
 20
0.064850
 30
0.000000
 11
0.975640
 21
0.074525
 31
0.000000
  0
LINE
  8
25
 10
0.975640
 20
0.074525
 30
0.000000
 11
0.975640
 21
0.045500
 31
0.000000
  0
LINE
  8
25
 10
0.965965
 20
0.045500
 30
0.000000
 11
0.985315
 21
0.045500
 31
0.000000
  0
POINT
  8
23
 10
0.500000
 20
0.445000
 30
0.000000
  0
LINE
  8
51
 10
0.468000
 20
0.407500
 30
0.000000
 11
0.468000
 21
0.483000
 31
0.000000
  0
LINE
  8
51
 10
0.532000
 20
0.407500
 30
0.000000
 11
0.532000
 21
0.483000
 31
0.000000
  0
LINE
  8
39
 10
0.538701
 20
0.542362
 30
0.000000
 11
0.538701
 21
0.347638
 31
0.000000
  0
LINE
  8
39
 10
0.538701
 20
0.347638
 30
0.000000
 11
0.461299
 21
0.347638
 31
0.000000
  0
LINE
  8
39
 10
0.461299
 20
0.347638
 30
0.000000
 11
0.461299
 21
0.542362
 31
0.000000
  0
LINE
  8
39
 10
0.461299
 20
0.542362
 30
0.000000
 11
0.538701
 21
0.542362
 31
0.000000
  0
INSERT
  8
51
  2
RECT
 10
0.500000
 20
0.497000
 30
0.000000
 41
0.029000
 42
0.069000
 43
1.000000
 50
270.000000
  0
INSERT
  8
51
  2
RECT
 10
0.500000
 20
0.393000
 30
0.000000
 41
0.029000
 42
0.069000
 43
1.000000
 50
270.000000
  0
INSERT
  8
1
  2
RECT
 10
0.500000
 20
0.500984
 30
0.000000
 41
0.062992
 42
0.070984
 43
1.000000
 50
270.000000
  0
INSERT
  8
1
  2
RECT
 10
0.500000
 20
0.389016
 30
0.000000
 41
0.062992
 42
0.070984
 43
1.000000
 50
270.000000
  0
LINE
  8
25
 10
0.474500
 20
0.548500
 30
0.000000
 11
0.474500
 21
0.577525
 31
0.000000
  0
LINE
  8
25
 10
0.474500
 20
0.577525
 30
0.000000
 11
0.489012
 21
0.577525
 31
0.000000
  0
LINE
  8
25
 10
0.489012
 20
0.577525
 30
0.000000
 11
0.493850
 21
0.572687
 31
0.000000
  0
LINE
  8
25
 10
0.493850
 20
0.572687
 30
0.000000
 11
0.493850
 21
0.563012
 31
0.000000
  0
LINE
  8
25
 10
0.493850
 20
0.563012
 30
0.000000
 11
0.489012
 21
0.558175
 31
0.000000
  0
LINE
  8
25
 10
0.489012
 20
0.558175
 30
0.000000
 11
0.474500
 21
0.558175
 31
0.000000
  0
LINE
  8
25
 10
0.484175
 20
0.558175
 30
0.000000
 11
0.493850
 21
0.548500
 31
0.000000
  0
LINE
  8
25
 10
0.503965
 20
0.567850
 30
0.000000
 11
0.513640
 21
0.577525
 31
0.000000
  0
LINE
  8
25
 10
0.513640
 20
0.577525
 30
0.000000
 11
0.513640
 21
0.548500
 31
0.000000
  0
LINE
  8
25
 10
0.503965
 20
0.548500
 30
0.000000
 11
0.523315
 21
0.548500
 31
0.000000
  0
POINT
  8
23
 10
0.700000
 20
0.450000
 30
0.000000
  0
LINE
  8
51
 10
0.737500
 20
0.418000
 30
0.000000
 11
0.662000
 21
0.418000
 31
0.000000
  0
LINE
  8
51
 10
0.737500
 20
0.482000
 30
0.000000
 11
0.662000
 21
0.482000
 31
0.000000
  0
LINE
  8
39
 10
0.602638
 20
0.488701
 30
0.000000
 11
0.797362
 21
0.488701
 31
0.000000
  0
LINE
  8
39
 10
0.797362
 20
0.488701
 30
0.000000
 11
0.797362
 21
0.411299
 31
0.000000
  0
LINE
  8
39
 10
0.797362
 20
0.411299
 30
0.000000
 11
0.602638
 21
0.411299
 31
0.000000
  0
LINE
  8
39
 10
0.602638
 20
0.411299
 30
0.000000
 11
0.602638
 21
0.488701
 31
0.000000
  0
INSERT
  8
51
  2
RECT
 10
0.648000
 20
0.450000
 30
0.000000
 41
0.029000
 42
0.069000
 43
1.000000
 50
0.000000
  0
INSERT
  8
51
  2
RECT
 10
0.752000
 20
0.450000
 30
0.000000
 41
0.029000
 42
0.069000
 43
1.000000
 50
0.000000
  0
INSERT
  8
1
  2
RECT
 10
0.644016
 20
0.450000
 30
0.000000
 41
0.062992
 42
0.070984
 43
1.000000
 50
0.000000
  0
INSERT
  8
1
  2
RECT
 10
0.755984
 20
0.450000
 30
0.000000
 41
0.062992
 42
0.070984
 43
1.000000
 50
0.000000
  0
LINE
  8
25
 10
0.801500
 20
0.434500
 30
0.000000
 11
0.801500
 21
0.463525
 31
0.000000
  0
LINE
  8
25
 10
0.801500
 20
0.463525
 30
0.000000
 11
0.816012
 21
0.463525
 31
0.000000
  0
LINE
  8
25
 10
0.816012
 20
0.463525
 30
0.000000
 11
0.820850
 21
0.458687
 31
0.000000
  0
LINE
  8
25
 10
0.820850
 20
0.458687
 30
0.000000
 11
0.820850
 21
0.449012
 31
0.000000
  0
LINE
  8
25
 10
0.820850
 20
0.449012
 30
0.000000
 11
0.816012
 21
0.444175
 31
0.000000
  0
LINE
  8
25
 10
0.816012
 20
0.444175
 30
0.000000
 11
0.801500
 21
0.444175
 31
0.000000
  0
LINE
  8
25
 10
0.811175
 20
0.444175
 30
0.000000
 11
0.820850
 21
0.434500
 31
0.000000
  0
LINE
  8
25
 10
0.850315
 20
0.434500
 30
0.000000
 11
0.830965
 21
0.434500
 31
0.000000
  0
LINE
  8
25
 10
0.830965
 20
0.434500
 30
0.000000
 11
0.850315
 21
0.453850
 31
0.000000
  0
LINE
  8
25
 10
0.850315
 20
0.453850
 30
0.000000
 11
0.850315
 21
0.458687
 31
0.000000
  0
LINE
  8
25
 10
0.850315
 20
0.458687
 30
0.000000
 11
0.845477
 21
0.463525
 31
0.000000
  0
LINE
  8
25
 10
0.845477
 20
0.463525
 30
0.000000
 11
0.835803
 21
0.463525
 31
0.000000
  0
LINE
  8
25
 10
0.835803
 20
0.463525
 30
0.000000
 11
0.830965
 21
0.458687
 31
0.000000
  0
POINT
  8
23
 10
0.700000
 20
0.340000
 30
0.000000
  0
LINE
  8
51
 10
0.662500
 20
0.372000
 30
0.000000
 11
0.738000
 21
0.372000
 31
0.000000
  0
LINE
  8
51
 10
0.662500
 20
0.308000
 30
0.000000
 11
0.738000
 21
0.308000
 31
0.000000
  0
LINE
  8
39
 10
0.797362
 20
0.301299
 30
0.000000
 11
0.602638
 21
0.301299
 31
0.000000
  0
LINE
  8
39
 10
0.602638
 20
0.301299
 30
0.000000
 11
0.602638
 21
0.378701
 31
0.000000
  0
LINE
  8
39
 10
0.602638
 20
0.378701
 30
0.000000
 11
0.797362
 21
0.378701
 31
0.000000
  0
LINE
  8
39
 10
0.797362
 20
0.378701
 30
0.000000
 11
0.797362
 21
0.301299
 31
0.000000
  0
INSERT
  8
51
  2
RECT
 10
0.752000
 20
0.340000
 30
0.000000
 41
0.029000
 42
0.069000
 43
1.000000
 50
180.000000
  0
INSERT
  8
51
  2
RECT
 10
0.648000
 20
0.340000
 30
0.000000
 41
0.029000
 42
0.069000
 43
1.000000
 50
180.000000
  0
INSERT
  8
1
  2
RECT
 10
0.755984
 20
0.340000
 30
0.000000
 41
0.062992
 42
0.070984
 43
1.000000
 50
180.000000
  0
INSERT
  8
1
  2
RECT
 10
0.644016
 20
0.340000
 30
0.000000
 41
0.062992
 42
0.070984
 43
1.000000
 50
180.000000
  0
LINE
  8
25
 10
0.795570
 20
0.339500
 30
0.000000
 11
0.795570
 21
0.368525
 31
0.000000
  0
LINE
  8
25
 10
0.795570
 20
0.368525
 30
0.000000
 11
0.810082
 21
0.368525
 31
0.000000
  0
LINE
  8
25
 10
0.810082
 20
0.368525
 30
0.000000
 11
0.814919
 21
0.363687
 31
0.000000
  0
LINE
  8
25
 10
0.814919
 20
0.363687
 30
0.000000
 11
0.814919
 21
0.354012
 31
0.000000
  0
LINE
  8
25
 10
0.814919
 20
0.354012
 30
0.000000
 11
0.810082
 21
0.349175
 31
0.000000
  0
LINE
  8
25
 10
0.810082
 20
0.349175
 30
0.000000
 11
0.795570
 21
0.349175
 31
0.000000
  0
LINE
  8
25
 10
0.805244
 20
0.349175
 30
0.000000
 11
0.814919
 21
0.339500
 31
0.000000
  0
LINE
  8
25
 10
0.825035
 20
0.363687
 30
0.000000
 11
0.829872
 21
0.368525
 31
0.000000
  0
LINE
  8
25
 10
0.829872
 20
0.368525
 30
0.000000
 11
0.839547
 21
0.368525
 31
0.000000
  0
LINE
  8
25
 10
0.839547
 20
0.368525
 30
0.000000
 11
0.844385
 21
0.363687
 31
0.000000
  0
LINE
  8
25
 10
0.844385
 20
0.363687
 30
0.000000
 11
0.844385
 21
0.358850
 31
0.000000
  0
LINE
  8
25
 10
0.844385
 20
0.358850
 30
0.000000
 11
0.839547
 21
0.354012
 31
0.000000
  0
LINE
  8
25
 10
0.839547
 20
0.354012
 30
0.000000
 11
0.834710
 21
0.354012
 31
0.000000
  0
LINE
  8
25
 10
0.839547
 20
0.354012
 30
0.000000
 11
0.844385
 21
0.349175
 31
0.000000
  0
LINE
  8
25
 10
0.844385
 20
0.349175
 30
0.000000
 11
0.844385
 21
0.344337
 31
0.000000
  0
LINE
  8
25
 10
0.844385
 20
0.344337
 30
0.000000
 11
0.839547
 21
0.339500
 31
0.000000
  0
LINE
  8
25
 10
0.839547
 20
0.339500
 30
0.000000
 11
0.829872
 21
0.339500
 31
0.000000
  0
LINE
  8
25
 10
0.829872
 20
0.339500
 30
0.000000
 11
0.825035
 21
0.344337
 31
0.000000
  0
POINT
  8
23
 10
0.300000
 20
0.445000
 30
0.000000
  0
LINE
  8
51
 10
0.332000
 20
0.482500
 30
0.000000
 11
0.332000
 21
0.407000
 31
0.000000
  0
LINE
  8
51
 10
0.268000
 20
0.482500
 30
0.000000
 11
0.268000
 21
0.407000
 31
0.000000
  0
LINE
  8
39
 10
0.261299
 20
0.347638
 30
0.000000
 11
0.261299
 21
0.542362
 31
0.000000
  0
LINE
  8
39
 10
0.261299
 20
0.542362
 30
0.000000
 11
0.338701
 21
0.542362
 31
0.000000
  0
LINE
  8
39
 10
0.338701
 20
0.542362
 30
0.000000
 11
0.338701
 21
0.347638
 31
0.000000
  0
LINE
  8
39
 10
0.338701
 20
0.347638
 30
0.000000
 11
0.261299
 21
0.347638
 31
0.000000
  0
INSERT
  8
51
  2
RECT
 10
0.300000
 20
0.393000
 30
0.000000
 41
0.029000
 42
0.069000
 43
1.000000
 50
90.000000
  0
INSERT
  8
51
  2
RECT
 10
0.300000
 20
0.497000
 30
0.000000
 41
0.029000
 42
0.069000
 43
1.000000
 50
90.000000
  0
INSERT
  8
1
  2
RECT
 10
0.300000
 20
0.389016
 30
0.000000
 41
0.062992
 42
0.070984
 43
1.000000
 50
90.000000
  0
INSERT
  8
1
  2
RECT
 10
0.300000
 20
0.500984
 30
0.000000
 41
0.062992
 42
0.070984
 43
1.000000
 50
90.000000
  0
LINE
  8
25
 10
0.270570
 20
0.544500
 30
0.000000
 11
0.270570
 21
0.573525
 31
0.000000
  0
LINE
  8
25
 10
0.270570
 20
0.573525
 30
0.000000
 11
0.285082
 21
0.573525
 31
0.000000
  0
LINE
  8
25
 10
0.285082
 20
0.573525
 30
0.000000
 11
0.289919
 21
0.568687
 31
0.000000
  0
LINE
  8
25
 10
0.289919
 20
0.568687
 30
0.000000
 11
0.289919
 21
0.559012
 31
0.000000
  0
LINE
  8
25
 10
0.289919
 20
0.559012
 30
0.000000
 11
0.285082
 21
0.554175
 31
0.000000
  0
LINE
  8
25
 10
0.285082
 20
0.554175
 30
0.000000
 11
0.270570
 21
0.554175
 31
0.000000
  0
LINE
  8
25
 10
0.280244
 20
0.554175
 30
0.000000
 11
0.289919
 21
0.544500
 31
0.000000
  0
LINE
  8
25
 10
0.314547
 20
0.544500
 30
0.000000
 11
0.314547
 21
0.573525
 31
0.000000
  0
LINE
  8
25
 10
0.314547
 20
0.573525
 30
0.000000
 11
0.300035
 21
0.559012
 31
0.000000
  0
LINE
  8
25
 10
0.300035
 20
0.559012
 30
0.000000
 11
0.319385
 21
0.559012
 31
0.000000
  0
POINT
  8
23
 10
0.400000
 20
0.445000
 30
0.000000
  0
LINE
  8
51
 10
0.432000
 20
0.482500
 30
0.000000
 11
0.432000
 21
0.407000
 31
0.000000
  0
LINE
  8
51
 10
0.368000
 20
0.482500
 30
0.000000
 11
0.368000
 21
0.407000
 31
0.000000
  0
LINE
  8
39
 10
0.361299
 20
0.347638
 30
0.000000
 11
0.361299
 21
0.542362
 31
0.000000
  0
LINE
  8
39
 10
0.361299
 20
0.542362
 30
0.000000
 11
0.438701
 21
0.542362
 31
0.000000
  0
LINE
  8
39
 10
0.438701
 20
0.542362
 30
0.000000
 11
0.438701
 21
0.347638
 31
0.000000
  0
LINE
  8
39
 10
0.438701
 20
0.347638
 30
0.000000
 11
0.361299
 21
0.347638
 31
0.000000
  0
INSERT
  8
51
  2
RECT
 10
0.400000
 20
0.393000
 30
0.000000
 41
0.029000
 42
0.069000
 43
1.000000
 50
90.000000
  0
INSERT
  8
51
  2
RECT
 10
0.400000
 20
0.497000
 30
0.000000
 41
0.029000
 42
0.069000
 43
1.000000
 50
90.000000
  0
INSERT
  8
1
  2
RECT
 10
0.400000
 20
0.389016
 30
0.000000
 41
0.062992
 42
0.070984
 43
1.000000
 50
90.000000
  0
INSERT
  8
1
  2
RECT
 10
0.400000
 20
0.500984
 30
0.000000
 41
0.062992
 42
0.070984
 43
1.000000
 50
90.000000
  0
LINE
  8
25
 10
0.370570
 20
0.545500
 30
0.000000
 11
0.370570
 21
0.574525
 31
0.000000
  0
LINE
  8
25
 10
0.370570
 20
0.574525
 30
0.000000
 11
0.385082
 21
0.574525
 31
0.000000
  0
LINE
  8
25
 10
0.385082
 20
0.574525
 30
0.000000
 11
0.389919
 21
0.569687
 31
0.000000
  0
LINE
  8
25
 10
0.389919
 20
0.569687
 30
0.000000
 11
0.389919
 21
0.560012
 31
0.000000
  0
LINE
  8
25
 10
0.389919
 20
0.560012
 30
0.000000
 11
0.385082
 21
0.555175
 31
0.000000
  0
LINE
  8
25
 10
0.385082
 20
0.555175
 30
0.000000
 11
0.370570
 21
0.555175
 31
0.000000
  0
LINE
  8
25
 10
0.380244
 20
0.555175
 30
0.000000
 11
0.389919
 21
0.545500
 31
0.000000
  0
LINE
  8
25
 10
0.419385
 20
0.574525
 30
0.000000
 11
0.400035
 21
0.574525
 31
0.000000
  0
LINE
  8
25
 10
0.400035
 20
0.574525
 30
0.000000
 11
0.400035
 21
0.560012
 31
0.000000
  0
LINE
  8
25
 10
0.400035
 20
0.560012
 30
0.000000
 11
0.409710
 21
0.564850
 31
0.000000
  0
LINE
  8
25
 10
0.409710
 20
0.564850
 30
0.000000
 11
0.414547
 21
0.564850
 31
0.000000
  0
LINE
  8
25
 10
0.414547
 20
0.564850
 30
0.000000
 11
0.419385
 21
0.560012
 31
0.000000
  0
LINE
  8
25
 10
0.419385
 20
0.560012
 30
0.000000
 11
0.419385
 21
0.550337
 31
0.000000
  0
LINE
  8
25
 10
0.419385
 20
0.550337
 30
0.000000
 11
0.414547
 21
0.545500
 31
0.000000
  0
LINE
  8
25
 10
0.414547
 20
0.545500
 30
0.000000
 11
0.404872
 21
0.545500
 31
0.000000
  0
LINE
  8
25
 10
0.404872
 20
0.545500
 30
0.000000
 11
0.400035
 21
0.550337
 31
0.000000
  0
POINT
  8
23
 10
0.590000
 20
0.275000
 30
0.000000
  0
INSERT
  8
1
  2
PIE
 10
0.590000
 20
0.275000
 30
0.000000
 41
0.025000
 42
0.025000
 43
1.000000
 50
0.000000
  0
POINT
  8
23
 10
0.390000
 20
0.280000
 30
0.000000
  0
INSERT
  8
1
  2
PIE
 10
0.390000
 20
0.280000
 30
0.000000
 41
0.025000
 42
0.025000
 43
1.000000
 50
0.000000
  0
POINT
  8
23
 10
0.570000
 20
0.400000
 30
0.000000
  0
INSERT
  8
1
  2
PIE
 10
0.570000
 20
0.400000
 30
0.000000
 41
0.025000
 42
0.025000
 43
1.000000
 50
0.000000
  0
POINT
  8
23
 10
0.255000
 20
0.238000
 30
0.000000
  0
LINE
  8
21
 10
0.244000
 20
0.181000
 30
0.000000
 11
0.266000
 21
0.181000
 31
0.000000
  0
LINE
  8
21
 10
0.286000
 20
0.225000
 30
0.000000
 11
0.286000
 21
0.251000
 31
0.000000
  0
LINE
  8
21
 10
0.266000
 20
0.295000
 30
0.000000
 11
0.244000
 21
0.295000
 31
0.000000
  0
ARC
  8
21
 10
0.255000
 20
0.294960
 30
0.000000
 40
0.011370
 50
232.000000
 51
308.000000
  0
ARC
  8
21
 10
0.255000
 20
0.294960
 30
0.000000
 40
0.011370
 50
232.000000
 51
308.000000
  0
LINE
  8
51
 10
0.286000
 20
0.181000
 30
0.000000
 11
0.286000
 21
0.191000
 31
0.000000
  0
LINE
  8
51
 10
0.224000
 20
0.295000
 30
0.000000
 11
0.224000
 21
0.285000
 31
0.000000
  0
LINE
  8
51
 10
0.224000
 20
0.266000
 30
0.000000
 11
0.224000
 21
0.248000
 31
0.000000
  0
LINE
  8
51
 10
0.224000
 20
0.228000
 30
0.000000
 11
0.224000
 21
0.210000
 31
0.000000
  0
LINE
  8
51
 10
0.224000
 20
0.181000
 30
0.000000
 11
0.224000
 21
0.191000
 31
0.000000
  0
LINE
  8
51
 10
0.286000
 20
0.295000
 30
0.000000
 11
0.286000
 21
0.285000
 31
0.000000
  0
LINE
  8
51
 10
0.224000
 20
0.181000
 30
0.000000
 11
0.286000
 21
0.181000
 31
0.000000
  0
LINE
  8
51
 10
0.286000
 20
0.210000
 30
0.000000
 11
0.286000
 21
0.266000
 31
0.000000
  0
LINE
  8
51
 10
0.286000
 20
0.295000
 30
0.000000
 11
0.267000
 21
0.295000
 31
0.000000
  0
LINE
  8
51
 10
0.267000
 20
0.295000
 30
0.000000
 11
0.243000
 21
0.295000
 31
0.000000
  0
LINE
  8
51
 10
0.243000
 20
0.295000
 30
0.000000
 11
0.224000
 21
0.295000
 31
0.000000
  0
LINE
  8
51
 10
0.224000
 20
0.266000
 30
0.000000
 11
0.224000
 21
0.285000
 31
0.000000
  0
LINE
  8
51
 10
0.224000
 20
0.285000
 30
0.000000
 11
0.200000
 21
0.285000
 31
0.000000
  0
LINE
  8
51
 10
0.200000
 20
0.285000
 30
0.000000
 11
0.200000
 21
0.266000
 31
0.000000
  0
LINE
  8
51
 10
0.200000
 20
0.266000
 30
0.000000
 11
0.224000
 21
0.266000
 31
0.000000
  0
LINE
  8
51
 10
0.224000
 20
0.228000
 30
0.000000
 11
0.224000
 21
0.248000
 31
0.000000
  0
LINE
  8
51
 10
0.224000
 20
0.248000
 30
0.000000
 11
0.200000
 21
0.248000
 31
0.000000
  0
LINE
  8
51
 10
0.200000
 20
0.248000
 30
0.000000
 11
0.200000
 21
0.228000
 31
0.000000
  0
LINE
  8
51
 10
0.200000
 20
0.228000
 30
0.000000
 11
0.224000
 21
0.228000
 31
0.000000
  0
LINE
  8
51
 10
0.224000
 20
0.191000
 30
0.000000
 11
0.224000
 21
0.210000
 31
0.000000
  0
LINE
  8
51
 10
0.224000
 20
0.210000
 30
0.000000
 11
0.200000
 21
0.210000
 31
0.000000
  0
LINE
  8
51
 10
0.200000
 20
0.210000
 30
0.000000
 11
0.200000
 21
0.191000
 31
0.000000
  0
LINE
  8
51
 10
0.200000
 20
0.191000
 30
0.000000
 11
0.224000
 21
0.191000
 31
0.000000
  0
LINE
  8
51
 10
0.286000
 20
0.210000
 30
0.000000
 11
0.286000
 21
0.191000
 31
0.000000
  0
LINE
  8
51
 10
0.286000
 20
0.191000
 30
0.000000
 11
0.310000
 21
0.191000
 31
0.000000
  0
LINE
  8
51
 10
0.310000
 20
0.191000
 30
0.000000
 11
0.310000
 21
0.210000
 31
0.000000
  0
LINE
  8
51
 10
0.310000
 20
0.210000
 30
0.000000
 11
0.286000
 21
0.210000
 31
0.000000
  0
LINE
  8
51
 10
0.286000
 20
0.285000
 30
0.000000
 11
0.286000
 21
0.266000
 31
0.000000
  0
LINE
  8
51
 10
0.286000
 20
0.266000
 30
0.000000
 11
0.310000
 21
0.266000
 31
0.000000
  0
LINE
  8
51
 10
0.310000
 20
0.266000
 30
0.000000
 11
0.310000
 21
0.285000
 31
0.000000
  0
LINE
  8
51
 10
0.310000
 20
0.285000
 30
0.000000
 11
0.286000
 21
0.285000
 31
0.000000
  0
ARC
  8
51
 10
0.255000
 20
0.295000
 30
0.000000
 40
0.012000
 50
180.000000
 51
0.000000
  0
ARC
  8
51
 10
0.255000
 20
0.295000
 30
0.000000
 40
0.012000
 50
180.000000
 51
0.000000
  0
LINE
  8
21
 10
0.177500
 20
0.332700
 30
0.000000
 11
0.208860
 21
0.301340
 31
0.000000
  0
LINE
  8
21
 10
0.177500
 20
0.301340
 30
0.000000
 11
0.208860
 21
0.332700
 31
0.000000
  0
LINE
  8
21
 10
0.177500
 20
0.317020
 30
0.000000
 11
0.208860
 21
0.317020
 31
0.000000
  0
LINE
  8
21
 10
0.193180
 20
0.301340
 30
0.000000
 11
0.193180
 21
0.332700
 31
0.000000
  0
LINE
  8
21
 10
0.177500
 20
0.332700
 30
0.000000
 11
0.208860
 21
0.301340
 31
0.000000
  0
LINE
  8
21
 10
0.177500
 20
0.301340
 30
0.000000
 11
0.208860
 21
0.332700
 31
0.000000
  0
LINE
  8
21
 10
0.177500
 20
0.317020
 30
0.000000
 11
0.208860
 21
0.317020
 31
0.000000
  0
LINE
  8
21
 10
0.193180
 20
0.301340
 30
0.000000
 11
0.193180
 21
0.332700
 31
0.000000
  0
LINE
  8
51
 10
0.177500
 20
0.332700
 30
0.000000
 11
0.208860
 21
0.301340
 31
0.000000
  0
LINE
  8
51
 10
0.177500
 20
0.301340
 30
0.000000
 11
0.208860
 21
0.332700
 31
0.000000
  0
LINE
  8
51
 10
0.177500
 20
0.317020
 30
0.000000
 11
0.208860
 21
0.317020
 31
0.000000
  0
LINE
  8
51
 10
0.193180
 20
0.301340
 30
0.000000
 11
0.193180
 21
0.332700
 31
0.000000
  0
LINE
  8
51
 10
0.177500
 20
0.332700
 30
0.000000
 11
0.208860
 21
0.301340
 31
0.000000
  0
LINE
  8
51
 10
0.177500
 20
0.301340
 30
0.000000
 11
0.208860
 21
0.332700
 31
0.000000
  0
LINE
  8
51
 10
0.177500
 20
0.317020
 30
0.000000
 11
0.208860
 21
0.317020
 31
0.000000
  0
LINE
  8
51
 10
0.193180
 20
0.301340
 30
0.000000
 11
0.193180
 21
0.332700
 31
0.000000
  0
INSERT
  8
1
  2
RECT
 10
0.209000
 20
0.275000
 30
0.000000
 41
0.052000
 42
0.022000
 43
1.000000
 50
0.000000
  0
INSERT
  8
1
  2
RECT
 10
0.209000
 20
0.238000
 30
0.000000
 41
0.052000
 42
0.022000
 43
1.000000
 50
0.000000
  0
INSERT
  8
1
  2
RECT
 10
0.209000
 20
0.201000
 30
0.000000
 41
0.052000
 42
0.022000
 43
1.000000
 50
0.000000
  0
INSERT
  8
1
  2
RECT
 10
0.301000
 20
0.201000
 30
0.000000
 41
0.052000
 42
0.022000
 43
1.000000
 50
0.000000
  0
INSERT
  8
1
  2
RECT
 10
0.301000
 20
0.275000
 30
0.000000
 41
0.052000
 42
0.022000
 43
1.000000
 50
0.000000
  0
LINE
  8
25
 10
0.288500
 20
0.331525
 30
0.000000
 11
0.288500
 21
0.307337
 31
0.000000
  0
LINE
  8
25
 10
0.288500
 20
0.307337
 30
0.000000
 11
0.293337
 21
0.302500
 31
0.000000
  0
LINE
  8
25
 10
0.293337
 20
0.302500
 30
0.000000
 11
0.303012
 21
0.302500
 31
0.000000
  0
LINE
  8
25
 10
0.303012
 20
0.302500
 30
0.000000
 11
0.307850
 21
0.307337
 31
0.000000
  0
LINE
  8
25
 10
0.307850
 20
0.307337
 30
0.000000
 11
0.307850
 21
0.331525
 31
0.000000
  0
LINE
  8
25
 10
0.317965
 20
0.321850
 30
0.000000
 11
0.327640
 21
0.331525
 31
0.000000
  0
LINE
  8
25
 10
0.327640
 20
0.331525
 30
0.000000
 11
0.327640
 21
0.302500
 31
0.000000
  0
LINE
  8
25
 10
0.317965
 20
0.302500
 30
0.000000
 11
0.337315
 21
0.302500
 31
0.000000
  0
POINT
  8
23
 10
0.490000
 20
0.255000
 30
0.000000
  0
LINE
  8
21
 10
0.471000
 20
0.196000
 30
0.000000
 11
0.509000
 21
0.196000
 31
0.000000
  0
LINE
  8
21
 10
0.509000
 20
0.314000
 30
0.000000
 11
0.502000
 21
0.314000
 31
0.000000
  0
LINE
  8
21
 10
0.502000
 20
0.314000
 30
0.000000
 11
0.478000
 21
0.314000
 31
0.000000
  0
LINE
  8
21
 10
0.478000
 20
0.314000
 30
0.000000
 11
0.471000
 21
0.314000
 31
0.000000
  0
ARC
  8
21
 10
0.490000
 20
0.314000
 30
0.000000
 40
0.012000
 50
180.000000
 51
0.000000
  0
LINE
  8
51
 10
0.456000
 20
0.196000
 30
0.000000
 11
0.524000
 21
0.196000
 31
0.000000
  0
LINE
  8
51
 10
0.524000
 20
0.196000
 30
0.000000
 11
0.524000
 21
0.208000
 31
0.000000
  0
LINE
  8
51
 10
0.524000
 20
0.208000
 30
0.000000
 11
0.524000
 21
0.227000
 31
0.000000
  0
LINE
  8
51
 10
0.524000
 20
0.227000
 30
0.000000
 11
0.524000
 21
0.245000
 31
0.000000
  0
LINE
  8
51
 10
0.524000
 20
0.245000
 30
0.000000
 11
0.524000
 21
0.265000
 31
0.000000
  0
LINE
  8
51
 10
0.524000
 20
0.265000
 30
0.000000
 11
0.524000
 21
0.283000
 31
0.000000
  0
LINE
  8
51
 10
0.524000
 20
0.314000
 30
0.000000
 11
0.502000
 21
0.314000
 31
0.000000
  0
LINE
  8
51
 10
0.502000
 20
0.314000
 30
0.000000
 11
0.478000
 21
0.314000
 31
0.000000
  0
LINE
  8
51
 10
0.478000
 20
0.314000
 30
0.000000
 11
0.456000
 21
0.314000
 31
0.000000
  0
LINE
  8
51
 10
0.456000
 20
0.314000
 30
0.000000
 11
0.456000
 21
0.302000
 31
0.000000
  0
LINE
  8
51
 10
0.456000
 20
0.302000
 30
0.000000
 11
0.456000
 21
0.283000
 31
0.000000
  0
LINE
  8
51
 10
0.456000
 20
0.283000
 30
0.000000
 11
0.456000
 21
0.265000
 31
0.000000
  0
LINE
  8
51
 10
0.456000
 20
0.265000
 30
0.000000
 11
0.456000
 21
0.245000
 31
0.000000
  0
LINE
  8
51
 10
0.456000
 20
0.245000
 30
0.000000
 11
0.456000
 21
0.227000
 31
0.000000
  0
LINE
  8
51
 10
0.456000
 20
0.302000
 30
0.000000
 11
0.431000
 21
0.302000
 31
0.000000
  0
LINE
  8
51
 10
0.431000
 20
0.302000
 30
0.000000
 11
0.431000
 21
0.283000
 31
0.000000
  0
LINE
  8
51
 10
0.431000
 20
0.283000
 30
0.000000
 11
0.456000
 21
0.283000
 31
0.000000
  0
LINE
  8
51
 10
0.456000
 20
0.265000
 30
0.000000
 11
0.431000
 21
0.265000
 31
0.000000
  0
LINE
  8
51
 10
0.431000
 20
0.265000
 30
0.000000
 11
0.431000
 21
0.245000
 31
0.000000
  0
LINE
  8
51
 10
0.431000
 20
0.245000
 30
0.000000
 11
0.456000
 21
0.245000
 31
0.000000
  0
LINE
  8
51
 10
0.456000
 20
0.196000
 30
0.000000
 11
0.456000
 21
0.208000
 31
0.000000
  0
LINE
  8
51
 10
0.456000
 20
0.208000
 30
0.000000
 11
0.456000
 21
0.227000
 31
0.000000
  0
LINE
  8
51
 10
0.456000
 20
0.227000
 30
0.000000
 11
0.431000
 21
0.227000
 31
0.000000
  0
LINE
  8
51
 10
0.431000
 20
0.227000
 30
0.000000
 11
0.431000
 21
0.208000
 31
0.000000
  0
LINE
  8
51
 10
0.431000
 20
0.208000
 30
0.000000
 11
0.456000
 21
0.208000
 31
0.000000
  0
LINE
  8
51
 10
0.524000
 20
0.208000
 30
0.000000
 11
0.549000
 21
0.208000
 31
0.000000
  0
LINE
  8
51
 10
0.549000
 20
0.208000
 30
0.000000
 11
0.549000
 21
0.227000
 31
0.000000
  0
LINE
  8
51
 10
0.549000
 20
0.227000
 30
0.000000
 11
0.524000
 21
0.227000
 31
0.000000
  0
LINE
  8
51
 10
0.524000
 20
0.245000
 30
0.000000
 11
0.549000
 21
0.245000
 31
0.000000
  0
LINE
  8
51
 10
0.549000
 20
0.245000
 30
0.000000
 11
0.549000
 21
0.265000
 31
0.000000
  0
LINE
  8
51
 10
0.549000
 20
0.265000
 30
0.000000
 11
0.524000
 21
0.265000
 31
0.000000
  0
LINE
  8
51
 10
0.524000
 20
0.314000
 30
0.000000
 11
0.524000
 21
0.302000
 31
0.000000
  0
LINE
  8
51
 10
0.524000
 20
0.302000
 30
0.000000
 11
0.524000
 21
0.283000
 31
0.000000
  0
LINE
  8
51
 10
0.524000
 20
0.283000
 30
0.000000
 11
0.549000
 21
0.283000
 31
0.000000
  0
LINE
  8
51
 10
0.549000
 20
0.283000
 30
0.000000
 11
0.549000
 21
0.302000
 31
0.000000
  0
LINE
  8
51
 10
0.549000
 20
0.302000
 30
0.000000
 11
0.524000
 21
0.302000
 31
0.000000
  0
ARC
  8
51
 10
0.490000
 20
0.314000
 30
0.000000
 40
0.012000
 50
180.000000
 51
0.000000
  0
LINE
  8
21
 10
0.407500
 20
0.349700
 30
0.000000
 11
0.438860
 21
0.318340
 31
0.000000
  0
LINE
  8
21
 10
0.407500
 20
0.318340
 30
0.000000
 11
0.438860
 21
0.349700
 31
0.000000
  0
LINE
  8
21
 10
0.407500
 20
0.334020
 30
0.000000
 11
0.438860
 21
0.334020
 31
0.000000
  0
LINE
  8
21
 10
0.423180
 20
0.318340
 30
0.000000
 11
0.423180
 21
0.349700
 31
0.000000
  0
LINE
  8
51
 10
0.407500
 20
0.349700
 30
0.000000
 11
0.438860
 21
0.318340
 31
0.000000
  0
LINE
  8
51
 10
0.407500
 20
0.318340
 30
0.000000
 11
0.438860
 21
0.349700
 31
0.000000
  0
LINE
  8
51
 10
0.407500
 20
0.334020
 30
0.000000
 11
0.438860
 21
0.334020
 31
0.000000
  0
LINE
  8
51
 10
0.423180
 20
0.318340
 30
0.000000
 11
0.423180
 21
0.349700
 31
0.000000
  0
INSERT
  8
1
  2
RECT
 10
0.439000
 20
0.292000
 30
0.000000
 41
0.050000
 42
0.022000
 43
1.000000
 50
0.000000
  0
INSERT
  8
1
  2
RECT
 10
0.439000
 20
0.255000
 30
0.000000
 41
0.050000
 42
0.022000
 43
1.000000
 50
0.000000
  0
INSERT
  8
1
  2
RECT
 10
0.439000
 20
0.218000
 30
0.000000
 41
0.050000
 42
0.022000
 43
1.000000
 50
0.000000
  0
INSERT
  8
1
  2
RECT
 10
0.541000
 20
0.218000
 30
0.000000
 41
0.050000
 42
0.022000
 43
1.000000
 50
0.000000
  0
INSERT
  8
1
  2
RECT
 10
0.541000
 20
0.255000
 30
0.000000
 41
0.050000
 42
0.022000
 43
1.000000
 50
0.000000
  0
INSERT
  8
1
  2
RECT
 10
0.541000
 20
0.292000
 30
0.000000
 41
0.050000
 42
0.022000
 43
1.000000
 50
0.000000
  0
LINE
  8
25
 10
0.533500
 20
0.190525
 30
0.000000
 11
0.533500
 21
0.166337
 31
0.000000
  0
LINE
  8
25
 10
0.533500
 20
0.166337
 30
0.000000
 11
0.538337
 21
0.161500
 31
0.000000
  0
LINE
  8
25
 10
0.538337
 20
0.161500
 30
0.000000
 11
0.548012
 21
0.161500
 31
0.000000
  0
LINE
  8
25
 10
0.548012
 20
0.161500
 30
0.000000
 11
0.552850
 21
0.166337
 31
0.000000
  0
LINE
  8
25
 10
0.552850
 20
0.166337
 30
0.000000
 11
0.552850
 21
0.190525
 31
0.000000
  0
LINE
  8
25
 10
0.582315
 20
0.161500
 30
0.000000
 11
0.562965
 21
0.161500
 31
0.000000
  0
LINE
  8
25
 10
0.562965
 20
0.161500
 30
0.000000
 11
0.582315
 21
0.180850
 31
0.000000
  0
LINE
  8
25
 10
0.582315
 20
0.180850
 30
0.000000
 11
0.582315
 21
0.185687
 31
0.000000
  0
LINE
  8
25
 10
0.582315
 20
0.185687
 30
0.000000
 11
0.577477
 21
0.190525
 31
0.000000
  0
LINE
  8
25
 10
0.577477
 20
0.190525
 30
0.000000
 11
0.567803
 21
0.190525
 31
0.000000
  0
LINE
  8
25
 10
0.567803
 20
0.190525
 30
0.000000
 11
0.562965
 21
0.185687
 31
0.000000
  0
POINT
  8
23
 10
1.050000
 20
0.400000
 30
0.000000
  0
LINE
  8
21
 10
1.107087
 20
0.294882
 30
0.000000
 11
1.107087
 21
0.505118
 31
0.000000
  0
LINE
  8
21
 10
1.107087
 20
0.505118
 30
0.000000
 11
0.992913
 21
0.505118
 31
0.000000
  0
LINE
  8
21
 10
0.992913
 20
0.505118
 30
0.000000
 11
0.992913
 21
0.294882
 31
0.000000
  0
LINE
  8
21
 10
0.992913
 20
0.294882
 30
0.000000
 11
1.107087
 21
0.294882
 31
0.000000
  0
LINE
  8
21
 10
1.006693
 20
0.299213
 30
0.000000
 11
1.006693
 21
0.500787
 31
0.000000
  0
LINE
  8
51
 10
1.070000
 20
0.325000
 30
0.000000
 11
1.025000
 21
0.370000
 31
0.000000
  0
LINE
  8
51
 10
1.060000
 20
0.420000
 30
0.000000
 11
1.045000
 21
0.480000
 31
0.000000
  0
CIRCLE
  8
51
 10
1.050000
 20
0.350000
 30
0.000000
 40
0.035000
  0
CIRCLE
  8
51
 10
1.050000
 20
0.450000
 30
0.000000
 40
0.035000
  0
INSERT
  8
17
  2
LONGP100
 10
1.050000
 20
0.350000
 30
0.000000
 41
0.070866
 42
0.070866
 43
1.000000
 50
180.000000
  0
INSERT
  8
17
  2
LONGP100
 10
1.050000
 20
0.350000
 30
0.000000
 41
0.070866
 42
0.070866
 43
1.000000
 50
180.000000
  0
INSERT
  8
17
  2
LONGP100
 10
1.050000
 20
0.450000
 30
0.000000
 41
0.070866
 42
0.070866
 43
1.000000
 50
180.000000
  0
INSERT
  8
17
  2
LONGP100
 10
1.050000
 20
0.450000
 30
0.000000
 41
0.070866
 42
0.070866
 43
1.000000
 50
180.000000
  0
POINT
  8
23
 10
0.100000
 20
0.300000
 30
0.000000
  0
LINE
  8
21
 10
0.157087
 20
0.144882
 30
0.000000
 11
0.157087
 21
0.455118
 31
0.000000
  0
LINE
  8
21
 10
0.157087
 20
0.455118
 30
0.000000
 11
0.042913
 21
0.455118
 31
0.000000
  0
LINE
  8
21
 10
0.042913
 20
0.455118
 30
0.000000
 11
0.042913
 21
0.144882
 31
0.000000
  0
LINE
  8
21
 10
0.042913
 20
0.144882
 30
0.000000
 11
0.157087
 21
0.144882
 31
0.000000
  0
LINE
  8
21
 10
0.056693
 20
0.149213
 30
0.000000
 11
0.056693
 21
0.450787
 31
0.000000
  0
LINE
  8
51
 10
0.120000
 20
0.175000
 30
0.000000
 11
0.075000
 21
0.220000
 31
0.000000
  0
LINE
  8
51
 10
0.110000
 20
0.270000
 30
0.000000
 11
0.095000
 21
0.330000
 31
0.000000
  0
LINE
  8
51
 10
0.075000
 20
0.380000
 30
0.000000
 11
0.125000
 21
0.420000
 31
0.000000
  0
CIRCLE
  8
51
 10
0.100000
 20
0.200000
 30
0.000000
 40
0.035000
  0
CIRCLE
  8
51
 10
0.100000
 20
0.300000
 30
0.000000
 40
0.035000
  0
CIRCLE
  8
51
 10
0.100000
 20
0.400000
 30
0.000000
 40
0.035000
  0
INSERT
  8
17
  2
LONGP100
 10
0.100000
 20
0.200000
 30
0.000000
 41
0.070866
 42
0.070866
 43
1.000000
 50
180.000000
  0
INSERT
  8
17
  2
LONGP100
 10
0.100000
 20
0.200000
 30
0.000000
 41
0.070866
 42
0.070866
 43
1.000000
 50
180.000000
  0
INSERT
  8
17
  2
LONGP100
 10
0.100000
 20
0.300000
 30
0.000000
 41
0.070866
 42
0.070866
 43
1.000000
 50
180.000000
  0
INSERT
  8
17
  2
LONGP100
 10
0.100000
 20
0.300000
 30
0.000000
 41
0.070866
 42
0.070866
 43
1.000000
 50
180.000000
  0
INSERT
  8
17
  2
LONGP100
 10
0.100000
 20
0.400000
 30
0.000000
 41
0.070866
 42
0.070866
 43
1.000000
 50
180.000000
  0
INSERT
  8
17
  2
LONGP100
 10
0.100000
 20
0.400000
 30
0.000000
 41
0.070866
 42
0.070866
 43
1.000000
 50
180.000000
  0
LINE
  8
1
 10
0.820000
 20
0.320000
 30
0.000000
 11
0.976204
 21
0.324111
 31
0.000000
  0
LINE
  8
1
 10
0.976204
 20
0.324111
 30
0.000000
 11
0.988831
 21
0.311484
 31
0.000000
  0
LINE
  8
1
 10
0.988831
 20
0.311484
 30
0.000000
 11
1.005530
 21
0.304567
 31
0.000000
  0
LINE
  8
1
 10
1.005530
 20
0.304567
 30
0.000000
 11
1.094470
 21
0.304567
 31
0.000000
  0
LINE
  8
1
 10
1.094470
 20
0.304567
 30
0.000000
 11
1.111169
 21
0.311484
 31
0.000000
  0
LINE
  8
1
 10
1.111169
 20
0.311484
 30
0.000000
 11
1.123949
 21
0.324264
 31
0.000000
  0
LINE
  8
1
 10
1.123949
 20
0.324264
 30
0.000000
 11
1.125513
 21
0.328040
 31
0.000000
  0
LINE
  8
1
 10
1.125513
 20
0.328040
 30
0.000000
 11
1.155602
 21
0.328832
 31
0.000000
  0
LINE
  8
1
 10
1.155602
 20
0.328832
 30
0.000000
 11
1.155602
 21
0.139962
 31
0.000000
  0
LINE
  8
1
 10
1.155602
 20
0.139962
 30
0.000000
 11
1.137405
 21
0.147500
 31
0.000000
  0
LINE
  8
1
 10
1.137405
 20
0.147500
 30
0.000000
 11
1.102595
 21
0.147500
 31
0.000000
  0
LINE
  8
1
 10
1.102595
 20
0.147500
 30
0.000000
 11
1.070435
 21
0.134179
 31
0.000000
  0
LINE
  8
1
 10
1.070435
 20
0.134179
 30
0.000000
 11
1.045821
 21
0.109565
 31
0.000000
  0
LINE
  8
1
 10
1.045821
 20
0.109565
 30
0.000000
 11
1.032500
 21
0.077405
 31
0.000000
  0
LINE
  8
1
 10
1.032500
 20
0.077405
 30
0.000000
 11
1.032500
 21
0.042595
 31
0.000000
  0
LINE
  8
1
 10
1.032500
 20
0.042595
 30
0.000000
 11
1.039581
 21
0.025500
 31
0.000000
  0
LINE
  8
1
 10
1.039581
 20
0.025500
 30
0.000000
 11
0.540000
 21
0.025500
 31
0.000000
  0
LINE
  8
1
 10
0.540000
 20
0.025500
 30
0.000000
 11
0.540000
 21
0.150000
 31
0.000000
  0
LINE
  8
1
 10
0.540000
 20
0.150000
 30
0.000000
 11
0.656776
 21
0.220066
 31
0.000000
  0
LINE
  8
1
 10
0.656776
 20
0.220066
 30
0.000000
 11
0.659854
 21
0.216988
 31
0.000000
  0
LINE
  8
1
 10
0.659854
 20
0.216988
 30
0.000000
 11
0.756130
 21
0.216988
 31
0.000000
  0
LINE
  8
1
 10
0.756130
 20
0.216988
 30
0.000000
 11
0.761988
 21
0.222846
 31
0.000000
  0
LINE
  8
1
 10
0.761988
 20
0.222846
 30
0.000000
 11
0.761988
 21
0.279122
 31
0.000000
  0
LINE
  8
1
 10
0.761988
 20
0.279122
 30
0.000000
 11
0.759444
 21
0.281666
 31
0.000000
  0
LINE
  8
1
 10
0.759444
 20
0.281666
 30
0.000000
 11
0.780847
 21
0.294508
 31
0.000000
  0
LINE
  8
1
 10
0.780847
 20
0.294508
 30
0.000000
 11
0.791622
 21
0.294508
 31
0.000000
  0
LINE
  8
1
 10
0.791622
 20
0.294508
 30
0.000000
 11
0.797480
 21
0.300366
 31
0.000000
  0
LINE
  8
1
 10
0.797480
 20
0.300366
 30
0.000000
 11
0.797480
 21
0.304987
 31
0.000000
  0
LINE
  8
1
 10
0.797480
 20
0.304987
 30
0.000000
 11
0.820000
 21
0.320000
 31
0.000000
  0
LINE
  8
1
 10
0.756130
 20
0.035020
 30
0.000000
 11
0.761988
 21
0.040877
 31
0.000000
  0
LINE
  8
1
 10
0.761988
 20
0.040877
 30
0.000000
 11
0.761988
 21
0.097154
 31
0.000000
  0
LINE
  8
1
 10
0.761988
 20
0.097154
 30
0.000000
 11
0.756130
 21
0.103012
 31
0.000000
  0
LINE
  8
1
 10
0.756130
 20
0.103012
 30
0.000000
 11
0.717378
 21
0.103012
 31
0.000000
  0
LINE
  8
1
 10
0.717378
 20
0.103012
 30
0.000000
 11
0.714954
 21
0.104016
 31
0.000000
  0
LINE
  8
1
 10
0.714954
 20
0.104016
 30
0.000000
 11
0.649338
 21
0.104016
 31
0.000000
  0
LINE
  8
1
 10
0.649338
 20
0.104016
 30
0.000000
 11
0.646962
 21
0.105000
 31
0.000000
  0
LINE
  8
1
 10
0.646962
 20
0.105000
 30
0.000000
 11
0.633038
 21
0.105000
 31
0.000000
  0
LINE
  8
1
 10
0.633038
 20
0.105000
 30
0.000000
 11
0.620174
 21
0.099672
 31
0.000000
  0
LINE
  8
1
 10
0.620174
 20
0.099672
 30
0.000000
 11
0.610328
 21
0.089826
 31
0.000000
  0
LINE
  8
1
 10
0.610328
 20
0.089826
 30
0.000000
 11
0.605000
 21
0.076962
 31
0.000000
  0
LINE
  8
1
 10
0.605000
 20
0.076962
 30
0.000000
 11
0.605000
 21
0.063038
 31
0.000000
  0
LINE
  8
1
 10
0.605000
 20
0.063038
 30
0.000000
 11
0.610328
 21
0.050174
 31
0.000000
  0
LINE
  8
1
 10
0.610328
 20
0.050174
 30
0.000000
 11
0.621158
 21
0.039344
 31
0.000000
  0
LINE
  8
1
 10
0.621158
 20
0.039344
 30
0.000000
 11
0.634022
 21
0.034016
 31
0.000000
  0
LINE
  8
1
 10
0.634022
 20
0.034016
 30
0.000000
 11
0.714954
 21
0.034016
 31
0.000000
  0
LINE
  8
1
 10
0.714954
 20
0.034016
 30
0.000000
 11
0.717378
 21
0.035020
 31
0.000000
  0
LINE
  8
1
 10
0.717378
 20
0.035020
 30
0.000000
 11
0.756130
 21
0.035020
 31
0.000000
  0
LINE
  8
1
 10
0.540000
 20
0.030000
 30
0.000000
 11
1.037717
 21
0.030000
 31
0.000000
  0
LINE
  8
1
 10
0.540000
 20
0.040000
 30
0.000000
 11
0.620502
 21
0.040000
 31
0.000000
  0
LINE
  8
1
 10
0.761111
 20
0.040000
 30
0.000000
 11
1.033575
 21
0.040000
 31
0.000000
  0
LINE
  8
1
 10
0.540000
 20
0.050000
 30
0.000000
 11
0.610502
 21
0.050000
 31
0.000000
  0
LINE
  8
1
 10
0.761988
 20
0.050000
 30
0.000000
 11
1.032500
 21
0.050000
 31
0.000000
  0
LINE
  8
1
 10
0.540000
 20
0.060000
 30
0.000000
 11
0.606258
 21
0.060000
 31
0.000000
  0
LINE
  8
1
 10
0.761988
 20
0.060000
 30
0.000000
 11
1.032500
 21
0.060000
 31
0.000000
  0
LINE
  8
1
 10
0.540000
 20
0.070000
 30
0.000000
 11
0.605000
 21
0.070000
 31
0.000000
  0
LINE
  8
1
 10
0.761988
 20
0.070000
 30
0.000000
 11
1.032500
 21
0.070000
 31
0.000000
  0
LINE
  8
1
 10
0.540000
 20
0.080000
 30
0.000000
 11
0.606258
 21
0.080000
 31
0.000000
  0
LINE
  8
1
 10
0.761988
 20
0.080000
 30
0.000000
 11
1.033575
 21
0.080000
 31
0.000000
  0
LINE
  8
1
 10
0.540000
 20
0.090000
 30
0.000000
 11
0.610503
 21
0.090000
 31
0.000000
  0
LINE
  8
1
 10
0.761988
 20
0.090000
 30
0.000000
 11
1.037717
 21
0.090000
 31
0.000000
  0
LINE
  8
1
 10
0.540000
 20
0.100000
 30
0.000000
 11
0.620967
 21
0.100000
 31
0.000000
  0
LINE
  8
1
 10
0.759142
 20
0.100000
 30
0.000000
 11
1.041859
 21
0.100000
 31
0.000000
  0
LINE
  8
1
 10
0.540000
 20
0.110000
 30
0.000000
 11
1.046256
 21
0.110000
 31
0.000000
  0
LINE
  8
1
 10
0.540000
 20
0.120000
 30
0.000000
 11
1.056256
 21
0.120000
 31
0.000000
  0
LINE
  8
1
 10
0.540000
 20
0.130000
 30
0.000000
 11
1.066256
 21
0.130000
 31
0.000000
  0
LINE
  8
1
 10
0.540000
 20
0.140000
 30
0.000000
 11
1.084489
 21
0.140000
 31
0.000000
  0
LINE
  8
1
 10
1.155511
 20
0.140000
 30
0.000000
 11
1.155602
 21
0.140000
 31
0.000000
  0
LINE
  8
1
 10
0.540000
 20
0.150000
 30
0.000000
 11
1.155602
 21
0.150000
 31
0.000000
  0
LINE
  8
1
 10
0.556667
 20
0.160000
 30
0.000000
 11
1.155602
 21
0.160000
 31
0.000000
  0
LINE
  8
1
 10
0.573333
 20
0.170000
 30
0.000000
 11
1.155602
 21
0.170000
 31
0.000000
  0
LINE
  8
1
 10
0.590000
 20
0.180000
 30
0.000000
 11
1.155602
 21
0.180000
 31
0.000000
  0
LINE
  8
1
 10
0.606667
 20
0.190000
 30
0.000000
 11
1.155602
 21
0.190000
 31
0.000000
  0
LINE
  8
1
 10
0.623333
 20
0.200000
 30
0.000000
 11
1.155602
 21
0.200000
 31
0.000000
  0
LINE
  8
1
 10
0.640000
 20
0.210000
 30
0.000000
 11
1.155602
 21
0.210000
 31
0.000000
  0
LINE
  8
1
 10
0.656667
 20
0.220000
 30
0.000000
 11
0.656842
 21
0.220000
 31
0.000000
  0
LINE
  8
1
 10
0.759142
 20
0.220000
 30
0.000000
 11
1.155602
 21
0.220000
 31
0.000000
  0
LINE
  8
1
 10
0.761988
 20
0.230000
 30
0.000000
 11
1.155602
 21
0.230000
 31
0.000000
  0
LINE
  8
1
 10
0.761988
 20
0.240000
 30
0.000000
 11
1.155602
 21
0.240000
 31
0.000000
  0
LINE
  8
1
 10
0.761988
 20
0.250000
 30
0.000000
 11
1.155602
 21
0.250000
 31
0.000000
  0
LINE
  8
1
 10
0.761988
 20
0.260000
 30
0.000000
 11
1.155602
 21
0.260000
 31
0.000000
  0
LINE
  8
1
 10
0.761988
 20
0.270000
 30
0.000000
 11
1.155602
 21
0.270000
 31
0.000000
  0
LINE
  8
1
 10
0.761110
 20
0.280000
 30
0.000000
 11
1.155602
 21
0.280000
 31
0.000000
  0
LINE
  8
1
 10
0.773333
 20
0.290000
 30
0.000000
 11
1.155602
 21
0.290000
 31
0.000000
  0
LINE
  8
1
 10
0.797115
 20
0.300000
 30
0.000000
 11
1.155602
 21
0.300000
 31
0.000000
  0
LINE
  8
1
 10
0.805000
 20
0.310000
 30
0.000000
 11
0.992413
 21
0.310000
 31
0.000000
  0
LINE
  8
1
 10
1.107587
 20
0.310000
 30
0.000000
 11
1.155602
 21
0.310000
 31
0.000000
  0
LINE
  8
1
 10
0.820000
 20
0.320000
 30
0.000000
 11
0.980315
 21
0.320000
 31
0.000000
  0
LINE
  8
1
 10
1.119685
 20
0.320000
 30
0.000000
 11
1.155602
 21
0.320000
 31
0.000000
  0
LINE
  8
1
 10
0.707992
 20
0.160000
 30
0.000000
 11
0.640000
 21
0.160000
 31
0.000000
  0
LINE
  8
1
 10
0.640000
 20
0.160000
 30
0.000000
 11
0.570000
 21
0.090000
 31
0.000000
  0
LINE
  8
1
 10
0.570000
 20
0.090000
 30
0.000000
 11
0.570000
 21
0.070000
 31
0.000000
  0
LINE
  8
1
 10
0.570000
 20
0.070000
 30
0.000000
 11
0.548000
 21
0.045000
 31
0.000000
  0
LINE
  8
1
 10
0.548000
 20
0.045000
 30
0.000000
 11
0.139000
 21
0.045000
 31
0.000000
  0
LINE
  8
1
 10
0.139000
 20
0.045000
 30
0.000000
 11
0.100000
 21
0.083000
 31
0.000000
  0
LINE
  8
1
 10
0.100000
 20
0.083000
 30
0.000000
 11
0.100000
 21
0.200000
 31
0.000000
  0
LINE
  8
1
 10
0.707992
 20
0.160000
 30
0.000000
 11
0.952008
 21
0.160000
 31
0.000000
  0
LINE
  8
1
 10
0.100000
 20
0.200000
 30
0.000000
 11
0.130000
 21
0.200000
 31
0.000000
  0
LINE
  8
1
 10
0.130000
 20
0.200000
 30
0.000000
 11
0.208000
 21
0.200000
 31
0.000000
  0
LINE
  8
1
 10
0.208000
 20
0.200000
 30
0.000000
 11
0.209000
 21
0.201000
 31
0.000000
  0
LINE
  8
1
 10
0.209000
 20
0.275000
 30
0.000000
 11
0.187000
 21
0.275000
 31
0.000000
  0
LINE
  8
1
 10
0.187000
 20
0.275000
 30
0.000000
 11
0.161000
 21
0.249000
 31
0.000000
  0
LINE
  8
1
 10
0.161000
 20
0.249000
 30
0.000000
 11
0.161000
 21
0.231000
 31
0.000000
  0
LINE
  8
1
 10
0.161000
 20
0.231000
 30
0.000000
 11
0.130000
 21
0.200000
 31
0.000000
  0
LINE
  8
1
 10
0.300000
 20
0.389016
 30
0.000000
 11
0.400000
 21
0.389016
 31
0.000000
  0
LINE
  8
1
 10
0.400000
 20
0.389016
 30
0.000000
 11
0.400000
 21
0.310000
 31
0.000000
  0
LINE
  8
1
 10
0.400000
 20
0.310000
 30
0.000000
 11
0.390000
 21
0.300000
 31
0.000000
  0
LINE
  8
1
 10
0.390000
 20
0.230000
 30
0.000000
 11
0.401000
 21
0.218000
 31
0.000000
  0
LINE
  8
1
 10
0.401000
 20
0.218000
 30
0.000000
 11
0.439000
 21
0.218000
 31
0.000000
  0
LINE
  8
1
 10
0.390000
 20
0.300000
 30
0.000000
 11
0.390000
 21
0.280000
 31
0.000000
  0
LINE
  8
1
 10
0.390000
 20
0.280000
 30
0.000000
 11
0.390000
 21
0.230000
 31
0.000000
  0
LINE
  8
1
 10
1.050000
 20
0.450000
 30
0.000000
 11
0.755984
 21
0.450000
 31
0.000000
  0
LINE
  8
1
 10
0.755984
 20
0.450000
 30
0.000000
 11
0.755984
 21
0.340000
 31
0.000000
  0
LINE
  8
1
 10
0.449508
 20
0.495984
 30
0.000000
 11
0.405000
 21
0.495984
 31
0.000000
  0
LINE
  8
1
 10
0.405000
 20
0.495984
 30
0.000000
 11
0.405000
 21
0.505984
 31
0.000000
  0
LINE
  8
1
 10
0.405000
 20
0.505984
 30
0.000000
 11
0.495000
 21
0.505984
 31
0.000000
  0
LINE
  8
1
 10
0.495000
 20
0.505984
 30
0.000000
 11
0.495000
 21
0.495984
 31
0.000000
  0
LINE
  8
1
 10
0.495000
 20
0.495984
 30
0.000000
 11
0.449508
 21
0.495984
 31
0.000000
  0
LINE
  8
1
 10
0.218693
 20
0.089315
 30
0.000000
 11
0.218693
 21
0.119157
 31
0.000000
  0
LINE
  8
1
 10
0.218693
 20
0.119157
 30
0.000000
 11
0.228378
 21
0.119157
 31
0.000000
  0
LINE
  8
1
 10
0.228378
 20
0.119157
 30
0.000000
 11
0.228378
 21
0.089315
 31
0.000000
  0
LINE
  8
1
 10
0.228378
 20
0.089315
 30
0.000000
 11
0.247164
 21
0.089315
 31
0.000000
  0
LINE
  8
1
 10
0.247164
 20
0.089315
 30
0.000000
 11
0.250979
 21
0.090337
 31
0.000000
  0
LINE
  8
1
 10
0.250979
 20
0.090337
 30
0.000000
 11
0.254399
 21
0.092312
 31
0.000000
  0
LINE
  8
1
 10
0.254399
 20
0.092312
 30
0.000000
 11
0.257192
 21
0.095105
 31
0.000000
  0
LINE
  8
1
 10
0.257192
 20
0.095105
 30
0.000000
 11
0.259167
 21
0.098525
 31
0.000000
  0
LINE
  8
1
 10
0.259167
 20
0.098525
 30
0.000000
 11
0.259440
 21
0.099544
 31
0.000000
  0
LINE
  8
1
 10
0.259440
 20
0.099544
 30
0.000000
 11
0.264669
 21
0.094315
 31
0.000000
  0
LINE
  8
1
 10
0.264669
 20
0.094315
 30
0.000000
 11
0.293583
 21
0.094315
 31
0.000000
  0
LINE
  8
1
 10
0.293583
 20
0.094315
 30
0.000000
 11
0.297112
 21
0.093084
 31
0.000000
  0
LINE
  8
1
 10
0.297112
 20
0.093084
 30
0.000000
 11
0.299661
 21
0.094315
 31
0.000000
  0
LINE
  8
1
 10
0.299661
 20
0.094315
 30
0.000000
 11
0.316260
 21
0.094315
 31
0.000000
  0
LINE
  8
1
 10
0.316260
 20
0.094315
 30
0.000000
 11
0.322118
 21
0.100173
 31
0.000000
  0
LINE
  8
1
 10
0.322118
 20
0.100173
 30
0.000000
 11
0.322118
 21
0.147827
 31
0.000000
  0
LINE
  8
1
 10
0.322118
 20
0.147827
 30
0.000000
 11
0.319000
 21
0.150945
 31
0.000000
  0
LINE
  8
1
 10
0.319000
 20
0.150945
 30
0.000000
 11
0.319000
 21
0.180000
 31
0.000000
  0
LINE
  8
1
 10
0.319000
 20
0.180000
 30
0.000000
 11
0.331142
 21
0.180000
 31
0.000000
  0
LINE
  8
1
 10
0.331142
 20
0.180000
 30
0.000000
 11
0.337000
 21
0.185858
 31
0.000000
  0
LINE
  8
1
 10
0.337000
 20
0.185858
 30
0.000000
 11
0.337000
 21
0.191180
 31
0.000000
  0
LINE
  8
1
 10
0.337000
 20
0.191180
 30
0.000000
 11
0.340680
 21
0.187500
 31
0.000000
  0
LINE
  8
1
 10
0.340680
 20
0.187500
 30
0.000000
 11
0.347813
 21
0.187500
 31
0.000000
  0
LINE
  8
1
 10
0.347813
 20
0.187500
 30
0.000000
 11
0.368000
 21
0.166701
 31
0.000000
  0
LINE
  8
1
 10
0.368000
 20
0.166701
 30
0.000000
 11
0.368000
 21
0.166544
 31
0.000000
  0
LINE
  8
1
 10
0.368000
 20
0.166544
 30
0.000000
 11
0.373181
 21
0.161364
 31
0.000000
  0
LINE
  8
1
 10
0.373181
 20
0.161364
 30
0.000000
 11
0.378276
 21
0.156113
 31
0.000000
  0
LINE
  8
1
 10
0.378276
 20
0.156113
 30
0.000000
 11
0.378376
 21
0.156112
 31
0.000000
  0
LINE
  8
1
 10
0.378376
 20
0.156112
 30
0.000000
 11
0.377945
 21
0.154502
 31
0.000000
  0
LINE
  8
1
 10
0.377945
 20
0.154502
 30
0.000000
 11
0.377945
 21
0.128000
 31
0.000000
  0
LINE
  8
1
 10
0.377945
 20
0.128000
 30
0.000000
 11
0.413535
 21
0.128000
 31
0.000000
  0
LINE
  8
1
 10
0.413535
 20
0.128000
 30
0.000000
 11
0.413535
 21
0.118000
 31
0.000000
  0
LINE
  8
1
 10
0.413535
 20
0.118000
 30
0.000000
 11
0.377945
 21
0.118000
 31
0.000000
  0
LINE
  8
1
 10
0.377945
 20
0.118000
 30
0.000000
 11
0.377945
 21
0.091498
 31
0.000000
  0
LINE
  8
1
 10
0.377945
 20
0.091498
 30
0.000000
 11
0.378967
 21
0.087683
 31
0.000000
  0
LINE
  8
1
 10
0.378967
 20
0.087683
 30
0.000000
 11
0.380942
 21
0.084262
 31
0.000000
  0
LINE
  8
1
 10
0.380942
 20
0.084262
 30
0.000000
 11
0.383735
 21
0.081469
 31
0.000000
  0
LINE
  8
1
 10
0.383735
 20
0.081469
 30
0.000000
 11
0.386280
 21
0.080000
 31
0.000000
  0
LINE
  8
1
 10
0.386280
 20
0.080000
 30
0.000000
 11
0.153232
 21
0.080000
 31
0.000000
  0
LINE
  8
1
 10
0.153232
 20
0.080000
 30
0.000000
 11
0.135000
 21
0.097764
 31
0.000000
  0
LINE
  8
1
 10
0.135000
 20
0.097764
 30
0.000000
 11
0.135000
 21
0.154567
 31
0.000000
  0
LINE
  8
1
 10
0.135000
 20
0.154567
 30
0.000000
 11
0.144470
 21
0.154567
 31
0.000000
  0
LINE
  8
1
 10
0.144470
 20
0.154567
 30
0.000000
 11
0.161169
 21
0.161484
 31
0.000000
  0
LINE
  8
1
 10
0.161169
 20
0.161484
 30
0.000000
 11
0.173949
 21
0.174264
 31
0.000000
  0
LINE
  8
1
 10
0.173949
 20
0.174264
 30
0.000000
 11
0.177067
 21
0.181791
 31
0.000000
  0
LINE
  8
1
 10
0.177067
 20
0.181791
 30
0.000000
 11
0.178858
 21
0.180000
 31
0.000000
  0
LINE
  8
1
 10
0.178858
 20
0.180000
 30
0.000000
 11
0.239142
 21
0.180000
 31
0.000000
  0
LINE
  8
1
 10
0.239142
 20
0.180000
 30
0.000000
 11
0.245000
 21
0.185858
 31
0.000000
  0
LINE
  8
1
 10
0.245000
 20
0.185858
 30
0.000000
 11
0.245000
 21
0.215787
 31
0.000000
  0
LINE
  8
1
 10
0.245000
 20
0.215787
 30
0.000000
 11
0.247003
 21
0.217790
 31
0.000000
  0
LINE
  8
1
 10
0.247003
 20
0.217790
 30
0.000000
 11
0.248978
 21
0.221210
 31
0.000000
  0
LINE
  8
1
 10
0.248978
 20
0.221210
 30
0.000000
 11
0.250000
 21
0.225025
 31
0.000000
  0
LINE
  8
1
 10
0.250000
 20
0.225025
 30
0.000000
 11
0.250000
 21
0.237500
 31
0.000000
  0
LINE
  8
1
 10
0.250000
 20
0.237500
 30
0.000000
 11
0.209501
 21
0.237500
 31
0.000000
  0
LINE
  8
1
 10
0.209501
 20
0.237500
 30
0.000000
 11
0.209501
 21
0.238500
 31
0.000000
  0
LINE
  8
1
 10
0.209501
 20
0.238500
 30
0.000000
 11
0.250000
 21
0.238500
 31
0.000000
  0
LINE
  8
1
 10
0.250000
 20
0.238500
 30
0.000000
 11
0.250000
 21
0.250975
 31
0.000000
  0
LINE
  8
1
 10
0.250000
 20
0.250975
 30
0.000000
 11
0.248978
 21
0.254790
 31
0.000000
  0
LINE
  8
1
 10
0.248978
 20
0.254790
 30
0.000000
 11
0.247003
 21
0.258210
 31
0.000000
  0
LINE
  8
1
 10
0.247003
 20
0.258210
 30
0.000000
 11
0.245000
 21
0.260213
 31
0.000000
  0
LINE
  8
1
 10
0.245000
 20
0.260213
 30
0.000000
 11
0.245000
 21
0.290142
 31
0.000000
  0
LINE
  8
1
 10
0.245000
 20
0.290142
 30
0.000000
 11
0.239142
 21
0.296000
 31
0.000000
  0
LINE
  8
1
 10
0.239142
 20
0.296000
 30
0.000000
 11
0.178858
 21
0.296000
 31
0.000000
  0
LINE
  8
1
 10
0.178858
 20
0.296000
 30
0.000000
 11
0.177858
 21
0.295000
 31
0.000000
  0
LINE
  8
1
 10
0.177858
 20
0.295000
 30
0.000000
 11
0.105000
 21
0.295000
 31
0.000000
  0
LINE
  8
1
 10
0.105000
 20
0.295000
 30
0.000000
 11
0.105000
 21
0.305000
 31
0.000000
  0
LINE
  8
1
 10
0.105000
 20
0.305000
 30
0.000000
 11
0.185703
 21
0.305000
 31
0.000000
  0
LINE
  8
1
 10
0.185703
 20
0.305000
 30
0.000000
 11
0.184624
 21
0.311810
 31
0.000000
  0
LINE
  8
1
 10
0.184624
 20
0.311810
 30
0.000000
 11
0.182171
 21
0.319359
 31
0.000000
  0
LINE
  8
1
 10
0.182171
 20
0.319359
 30
0.000000
 11
0.178567
 21
0.326433
 31
0.000000
  0
LINE
  8
1
 10
0.178567
 20
0.326433
 30
0.000000
 11
0.173901
 21
0.332855
 31
0.000000
  0
LINE
  8
1
 10
0.173901
 20
0.332855
 30
0.000000
 11
0.168288
 21
0.338468
 31
0.000000
  0
LINE
  8
1
 10
0.168288
 20
0.338468
 30
0.000000
 11
0.161866
 21
0.343134
 31
0.000000
  0
LINE
  8
1
 10
0.161866
 20
0.343134
 30
0.000000
 11
0.154793
 21
0.346738
 31
0.000000
  0
LINE
  8
1
 10
0.154793
 20
0.346738
 30
0.000000
 11
0.147243
 21
0.349191
 31
0.000000
  0
LINE
  8
1
 10
0.147243
 20
0.349191
 30
0.000000
 11
0.139402
 21
0.350433
 31
0.000000
  0
LINE
  8
1
 10
0.139402
 20
0.350433
 30
0.000000
 11
0.105000
 21
0.350433
 31
0.000000
  0
LINE
  8
1
 10
0.105000
 20
0.350433
 30
0.000000
 11
0.105000
 21
0.305000
 31
0.000000
  0
LINE
  8
1
 10
0.105000
 20
0.305000
 30
0.000000
 11
0.095000
 21
0.305000
 31
0.000000
  0
LINE
  8
1
 10
0.095000
 20
0.305000
 30
0.000000
 11
0.095000
 21
0.350433
 31
0.000000
  0
LINE
  8
1
 10
0.095000
 20
0.350433
 30
0.000000
 11
0.060598
 21
0.350433
 31
0.000000
  0
LINE
  8
1
 10
0.060598
 20
0.350433
 30
0.000000
 11
0.052757
 21
0.349191
 31
0.000000
  0
LINE
  8
1
 10
0.052757
 20
0.349191
 30
0.000000
 11
0.045207
 21
0.346738
 31
0.000000
  0
LINE
  8
1
 10
0.045207
 20
0.346738
 30
0.000000
 11
0.038134
 21
0.343134
 31
0.000000
  0
LINE
  8
1
 10
0.038134
 20
0.343134
 30
0.000000
 11
0.031712
 21
0.338468
 31
0.000000
  0
LINE
  8
1
 10
0.031712
 20
0.338468
 30
0.000000
 11
0.026099
 21
0.332855
 31
0.000000
  0
LINE
  8
1
 10
0.026099
 20
0.332855
 30
0.000000
 11
0.025500
 21
0.332031
 31
0.000000
  0
LINE
  8
1
 10
0.025500
 20
0.332031
 30
0.000000
 11
0.025500
 21
0.375594
 31
0.000000
  0
LINE
  8
1
 10
0.025500
 20
0.375594
 30
0.000000
 11
0.026051
 21
0.374264
 31
0.000000
  0
LINE
  8
1
 10
0.026051
 20
0.374264
 30
0.000000
 11
0.038831
 21
0.361484
 31
0.000000
  0
LINE
  8
1
 10
0.038831
 20
0.361484
 30
0.000000
 11
0.055530
 21
0.354567
 31
0.000000
  0
LINE
  8
1
 10
0.055530
 20
0.354567
 30
0.000000
 11
0.144470
 21
0.354567
 31
0.000000
  0
LINE
  8
1
 10
0.144470
 20
0.354567
 30
0.000000
 11
0.161169
 21
0.361484
 31
0.000000
  0
LINE
  8
1
 10
0.161169
 20
0.361484
 30
0.000000
 11
0.172500
 21
0.372815
 31
0.000000
  0
LINE
  8
1
 10
0.172500
 20
0.372815
 30
0.000000
 11
0.172500
 21
0.372291
 31
0.000000
  0
LINE
  8
1
 10
0.172500
 20
0.372291
 30
0.000000
 11
0.173557
 21
0.366978
 31
0.000000
  0
LINE
  8
1
 10
0.173557
 20
0.366978
 30
0.000000
 11
0.175630
 21
0.361974
 31
0.000000
  0
LINE
  8
1
 10
0.175630
 20
0.361974
 30
0.000000
 11
0.178639
 21
0.357470
 31
0.000000
  0
LINE
  8
1
 10
0.178639
 20
0.357470
 30
0.000000
 11
0.182470
 21
0.353639
 31
0.000000
  0
LINE
  8
1
 10
0.182470
 20
0.353639
 30
0.000000
 11
0.186974
 21
0.350630
 31
0.000000
  0
LINE
  8
1
 10
0.186974
 20
0.350630
 30
0.000000
 11
0.191978
 21
0.348557
 31
0.000000
  0
LINE
  8
1
 10
0.191978
 20
0.348557
 30
0.000000
 11
0.197291
 21
0.347500
 31
0.000000
  0
LINE
  8
1
 10
0.197291
 20
0.347500
 30
0.000000
 11
0.198750
 21
0.347500
 31
0.000000
  0
LINE
  8
1
 10
0.198750
 20
0.347500
 30
0.000000
 11
0.198750
 21
0.373749
 31
0.000000
  0
LINE
  8
1
 10
0.198750
 20
0.373749
 30
0.000000
 11
0.201250
 21
0.373749
 31
0.000000
  0
LINE
  8
1
 10
0.201250
 20
0.373749
 30
0.000000
 11
0.201250
 21
0.347500
 31
0.000000
  0
LINE
  8
1
 10
0.201250
 20
0.347500
 30
0.000000
 11
0.202709
 21
0.347500
 31
0.000000
  0
LINE
  8
1
 10
0.202709
 20
0.347500
 30
0.000000
 11
0.208021
 21
0.348557
 31
0.000000
  0
LINE
  8
1
 10
0.208021
 20
0.348557
 30
0.000000
 11
0.213026
 21
0.350630
 31
0.000000
  0
LINE
  8
1
 10
0.213026
 20
0.350630
 30
0.000000
 11
0.217530
 21
0.353639
 31
0.000000
  0
LINE
  8
1
 10
0.217530
 20
0.353639
 30
0.000000
 11
0.221361
 21
0.357470
 31
0.000000
  0
LINE
  8
1
 10
0.221361
 20
0.357470
 30
0.000000
 11
0.224370
 21
0.361974
 31
0.000000
  0
LINE
  8
1
 10
0.224370
 20
0.361974
 30
0.000000
 11
0.226443
 21
0.366978
 31
0.000000
  0
LINE
  8
1
 10
0.226443
 20
0.366978
 30
0.000000
 11
0.227500
 21
0.372291
 31
0.000000
  0
LINE
  8
1
 10
0.227500
 20
0.372291
 30
0.000000
 11
0.227500
 21
0.373750
 31
0.000000
  0
LINE
  8
1
 10
0.227500
 20
0.373750
 30
0.000000
 11
0.201251
 21
0.373750
 31
0.000000
  0
LINE
  8
1
 10
0.201251
 20
0.373750
 30
0.000000
 11
0.201251
 21
0.376250
 31
0.000000
  0
LINE
  8
1
 10
0.201251
 20
0.376250
 30
0.000000
 11
0.227500
 21
0.376250
 31
0.000000
  0
LINE
  8
1
 10
0.227500
 20
0.376250
 30
0.000000
 11
0.227500
 21
0.377709
 31
0.000000
  0
LINE
  8
1
 10
0.227500
 20
0.377709
 30
0.000000
 11
0.226443
 21
0.383021
 31
0.000000
  0
LINE
  8
1
 10
0.226443
 20
0.383021
 30
0.000000
 11
0.224370
 21
0.388026
 31
0.000000
  0
LINE
  8
1
 10
0.224370
 20
0.388026
 30
0.000000
 11
0.221361
 21
0.392530
 31
0.000000
  0
LINE
  8
1
 10
0.221361
 20
0.392530
 30
0.000000
 11
0.217530
 21
0.396361
 31
0.000000
  0
LINE
  8
1
 10
0.217530
 20
0.396361
 30
0.000000
 11
0.213026
 21
0.399370
 31
0.000000
  0
LINE
  8
1
 10
0.213026
 20
0.399370
 30
0.000000
 11
0.208021
 21
0.401443
 31
0.000000
  0
LINE
  8
1
 10
0.208021
 20
0.401443
 30
0.000000
 11
0.202709
 21
0.402500
 31
0.000000
  0
LINE
  8
1
 10
0.202709
 20
0.402500
 30
0.000000
 11
0.201250
 21
0.402500
 31
0.000000
  0
LINE
  8
1
 10
0.201250
 20
0.402500
 30
0.000000
 11
0.201250
 21
0.376251
 31
0.000000
  0
LINE
  8
1
 10
0.201250
 20
0.376251
 30
0.000000
 11
0.198750
 21
0.376251
 31
0.000000
  0
LINE
  8
1
 10
0.198750
 20
0.376251
 30
0.000000
 11
0.198750
 21
0.402500
 31
0.000000
  0
LINE
  8
1
 10
0.198750
 20
0.402500
 30
0.000000
 11
0.197291
 21
0.402500
 31
0.000000
  0
LINE
  8
1
 10
0.197291
 20
0.402500
 30
0.000000
 11
0.191978
 21
0.401443
 31
0.000000
  0
LINE
  8
1
 10
0.191978
 20
0.401443
 30
0.000000
 11
0.186974
 21
0.399370
 31
0.000000
  0
LINE
  8
1
 10
0.186974
 20
0.399370
 30
0.000000
 11
0.182470
 21
0.396361
 31
0.000000
  0
LINE
  8
1
 10
0.182470
 20
0.396361
 30
0.000000
 11
0.180866
 21
0.394757
 31
0.000000
  0
LINE
  8
1
 10
0.180866
 20
0.394757
 30
0.000000
 11
0.180866
 21
0.409037
 31
0.000000
  0
LINE
  8
1
 10
0.180866
 20
0.409037
 30
0.000000
 11
0.173949
 21
0.425736
 31
0.000000
  0
LINE
  8
1
 10
0.173949
 20
0.425736
 30
0.000000
 11
0.167570
 21
0.432115
 31
0.000000
  0
LINE
  8
1
 10
0.167570
 20
0.432115
 30
0.000000
 11
0.201078
 21
0.465622
 31
0.000000
  0
LINE
  8
1
 10
0.201078
 20
0.465622
 30
0.000000
 11
0.254508
 21
0.465622
 31
0.000000
  0
LINE
  8
1
 10
0.254508
 20
0.465622
 30
0.000000
 11
0.254508
 21
0.465346
 31
0.000000
  0
LINE
  8
1
 10
0.254508
 20
0.465346
 30
0.000000
 11
0.260366
 21
0.459488
 31
0.000000
  0
LINE
  8
1
 10
0.260366
 20
0.459488
 30
0.000000
 11
0.339634
 21
0.459488
 31
0.000000
  0
LINE
  8
1
 10
0.339634
 20
0.459488
 30
0.000000
 11
0.345492
 21
0.465346
 31
0.000000
  0
LINE
  8
1
 10
0.345492
 20
0.465346
 30
0.000000
 11
0.345492
 21
0.536622
 31
0.000000
  0
LINE
  8
1
 10
0.345492
 20
0.536622
 30
0.000000
 11
0.339634
 21
0.542480
 31
0.000000
  0
LINE
  8
1
 10
0.339634
 20
0.542480
 30
0.000000
 11
0.260366
 21
0.542480
 31
0.000000
  0
LINE
  8
1
 10
0.260366
 20
0.542480
 30
0.000000
 11
0.254508
 21
0.536622
 31
0.000000
  0
LINE
  8
1
 10
0.254508
 20
0.536622
 30
0.000000
 11
0.254508
 21
0.501622
 31
0.000000
  0
LINE
  8
1
 10
0.254508
 20
0.501622
 30
0.000000
 11
0.186166
 21
0.501622
 31
0.000000
  0
LINE
  8
1
 10
0.186166
 20
0.501622
 30
0.000000
 11
0.175622
 21
0.491078
 31
0.000000
  0
LINE
  8
1
 10
0.175622
 20
0.491078
 30
0.000000
 11
0.129977
 21
0.445433
 31
0.000000
  0
LINE
  8
1
 10
0.129977
 20
0.445433
 30
0.000000
 11
0.084485
 21
0.445433
 31
0.000000
  0
LINE
  8
1
 10
0.084485
 20
0.445433
 30
0.000000
 11
0.109565
 21
0.455821
 31
0.000000
  0
LINE
  8
1
 10
0.109565
 20
0.455821
 30
0.000000
 11
0.134179
 21
0.480435
 31
0.000000
  0
LINE
  8
1
 10
0.134179
 20
0.480435
 30
0.000000
 11
0.147500
 21
0.512595
 31
0.000000
  0
LINE
  8
1
 10
0.147500
 20
0.512595
 30
0.000000
 11
0.147500
 21
0.547405
 31
0.000000
  0
LINE
  8
1
 10
0.147500
 20
0.547405
 30
0.000000
 11
0.140190
 21
0.565051
 31
0.000000
  0
LINE
  8
1
 10
0.140190
 20
0.565051
 30
0.000000
 11
1.155602
 21
0.565051
 31
0.000000
  0
LINE
  8
1
 10
1.155602
 20
0.565051
 30
0.000000
 11
1.155602
 21
0.350000
 31
0.000000
  0
LINE
  8
1
 10
1.155602
 20
0.350000
 30
0.000000
 11
1.130866
 21
0.350000
 31
0.000000
  0
LINE
  8
1
 10
1.130866
 20
0.350000
 30
0.000000
 11
1.130866
 21
0.359037
 31
0.000000
  0
LINE
  8
1
 10
1.130866
 20
0.359037
 30
0.000000
 11
1.123949
 21
0.375736
 31
0.000000
  0
LINE
  8
1
 10
1.123949
 20
0.375736
 30
0.000000
 11
1.111169
 21
0.388516
 31
0.000000
  0
LINE
  8
1
 10
1.111169
 20
0.388516
 30
0.000000
 11
1.094470
 21
0.395433
 31
0.000000
  0
LINE
  8
1
 10
1.094470
 20
0.395433
 30
0.000000
 11
1.005530
 21
0.395433
 31
0.000000
  0
LINE
  8
1
 10
1.005530
 20
0.395433
 30
0.000000
 11
0.988831
 21
0.388516
 31
0.000000
  0
LINE
  8
1
 10
0.988831
 20
0.388516
 30
0.000000
 11
0.976051
 21
0.375736
 31
0.000000
  0
LINE
  8
1
 10
0.976051
 20
0.375736
 30
0.000000
 11
0.969134
 21
0.359037
 31
0.000000
  0
LINE
  8
1
 10
0.969134
 20
0.359037
 30
0.000000
 11
0.969134
 21
0.350000
 31
0.000000
  0
LINE
  8
1
 10
0.969134
 20
0.350000
 30
0.000000
 11
0.840000
 21
0.350000
 31
0.000000
  0
LINE
  8
1
 10
0.840000
 20
0.350000
 30
0.000000
 11
0.797480
 21
0.324754
 31
0.000000
  0
LINE
  8
1
 10
0.797480
 20
0.324754
 30
0.000000
 11
0.797480
 21
0.379634
 31
0.000000
  0
LINE
  8
1
 10
0.797480
 20
0.379634
 30
0.000000
 11
0.791622
 21
0.385492
 31
0.000000
  0
LINE
  8
1
 10
0.791622
 20
0.385492
 30
0.000000
 11
0.790984
 21
0.385492
 31
0.000000
  0
LINE
  8
1
 10
0.790984
 20
0.385492
 30
0.000000
 11
0.790984
 21
0.404508
 31
0.000000
  0
LINE
  8
1
 10
0.790984
 20
0.404508
 30
0.000000
 11
0.791622
 21
0.404508
 31
0.000000
  0
LINE
  8
1
 10
0.791622
 20
0.404508
 30
0.000000
 11
0.797480
 21
0.410366
 31
0.000000
  0
LINE
  8
1
 10
0.797480
 20
0.410366
 30
0.000000
 11
0.797480
 21
0.415000
 31
0.000000
  0
LINE
  8
1
 10
0.797480
 20
0.415000
 30
0.000000
 11
0.985315
 21
0.415000
 31
0.000000
  0
LINE
  8
1
 10
0.985315
 20
0.415000
 30
0.000000
 11
0.988831
 21
0.411484
 31
0.000000
  0
LINE
  8
1
 10
0.988831
 20
0.411484
 30
0.000000
 11
1.005530
 21
0.404567
 31
0.000000
  0
LINE
  8
1
 10
1.005530
 20
0.404567
 30
0.000000
 11
1.094470
 21
0.404567
 31
0.000000
  0
LINE
  8
1
 10
1.094470
 20
0.404567
 30
0.000000
 11
1.111169
 21
0.411484
 31
0.000000
  0
LINE
  8
1
 10
1.111169
 20
0.411484
 30
0.000000
 11
1.123949
 21
0.424264
 31
0.000000
  0
LINE
  8
1
 10
1.123949
 20
0.424264
 30
0.000000
 11
1.130866
 21
0.440963
 31
0.000000
  0
LINE
  8
1
 10
1.130866
 20
0.440963
 30
0.000000
 11
1.130866
 21
0.459037
 31
0.000000
  0
LINE
  8
1
 10
1.130866
 20
0.459037
 30
0.000000
 11
1.123949
 21
0.475736
 31
0.000000
  0
LINE
  8
1
 10
1.123949
 20
0.475736
 30
0.000000
 11
1.111169
 21
0.488516
 31
0.000000
  0
LINE
  8
1
 10
1.111169
 20
0.488516
 30
0.000000
 11
1.094470
 21
0.495433
 31
0.000000
  0
LINE
  8
1
 10
1.094470
 20
0.495433
 30
0.000000
 11
1.005530
 21
0.495433
 31
0.000000
  0
LINE
  8
1
 10
1.005530
 20
0.495433
 30
0.000000
 11
0.988831
 21
0.488516
 31
0.000000
  0
LINE
  8
1
 10
0.988831
 20
0.488516
 30
0.000000
 11
0.985315
 21
0.485000
 31
0.000000
  0
LINE
  8
1
 10
0.985315
 20
0.485000
 30
0.000000
 11
0.797480
 21
0.485000
 31
0.000000
  0
LINE
  8
1
 10
0.797480
 20
0.485000
 30
0.000000
 11
0.797480
 21
0.489634
 31
0.000000
  0
LINE
  8
1
 10
0.797480
 20
0.489634
 30
0.000000
 11
0.791622
 21
0.495492
 31
0.000000
  0
LINE
  8
1
 10
0.791622
 20
0.495492
 30
0.000000
 11
0.720346
 21
0.495492
 31
0.000000
  0
LINE
  8
1
 10
0.720346
 20
0.495492
 30
0.000000
 11
0.714488
 21
0.489634
 31
0.000000
  0
LINE
  8
1
 10
0.714488
 20
0.489634
 30
0.000000
 11
0.714488
 21
0.410366
 31
0.000000
  0
LINE
  8
1
 10
0.714488
 20
0.410366
 30
0.000000
 11
0.720346
 21
0.404508
 31
0.000000
  0
LINE
  8
1
 10
0.720346
 20
0.404508
 30
0.000000
 11
0.720984
 21
0.404508
 31
0.000000
  0
LINE
  8
1
 10
0.720984
 20
0.404508
 30
0.000000
 11
0.720984
 21
0.385492
 31
0.000000
  0
LINE
  8
1
 10
0.720984
 20
0.385492
 30
0.000000
 11
0.720346
 21
0.385492
 31
0.000000
  0
LINE
  8
1
 10
0.720346
 20
0.385492
 30
0.000000
 11
0.718000
 21
0.383146
 31
0.000000
  0
LINE
  8
1
 10
0.718000
 20
0.383146
 30
0.000000
 11
0.718000
 21
0.385456
 31
0.000000
  0
LINE
  8
1
 10
0.718000
 20
0.385456
 30
0.000000
 11
0.707456
 21
0.396000
 31
0.000000
  0
LINE
  8
1
 10
0.707456
 20
0.396000
 30
0.000000
 11
0.690512
 21
0.412944
 31
0.000000
  0
LINE
  8
1
 10
0.690512
 20
0.412944
 30
0.000000
 11
0.690512
 21
0.445000
 31
0.000000
  0
LINE
  8
1
 10
0.690512
 20
0.445000
 30
0.000000
 11
0.649016
 21
0.445000
 31
0.000000
  0
LINE
  8
1
 10
0.649016
 20
0.445000
 30
0.000000
 11
0.649016
 21
0.455000
 31
0.000000
  0
LINE
  8
1
 10
0.649016
 20
0.455000
 30
0.000000
 11
0.690512
 21
0.455000
 31
0.000000
  0
LINE
  8
1
 10
0.690512
 20
0.455000
 30
0.000000
 11
0.690512
 21
0.487467
 31
0.000000
  0
LINE
  8
1
 10
0.690512
 20
0.487467
 30
0.000000
 11
0.689489
 21
0.491282
 31
0.000000
  0
LINE
  8
1
 10
0.689489
 20
0.491282
 30
0.000000
 11
0.687515
 21
0.494702
 31
0.000000
  0
LINE
  8
1
 10
0.687515
 20
0.494702
 30
0.000000
 11
0.684722
 21
0.497495
 31
0.000000
  0
LINE
  8
1
 10
0.684722
 20
0.497495
 30
0.000000
 11
0.681302
 21
0.499470
 31
0.000000
  0
LINE
  8
1
 10
0.681302
 20
0.499470
 30
0.000000
 11
0.677487
 21
0.500492
 31
0.000000
  0
LINE
  8
1
 10
0.677487
 20
0.500492
 30
0.000000
 11
0.649015
 21
0.500492
 31
0.000000
  0
LINE
  8
1
 10
0.649015
 20
0.500492
 30
0.000000
 11
0.649015
 21
0.455000
 31
0.000000
  0
LINE
  8
1
 10
0.649015
 20
0.455000
 30
0.000000
 11
0.639016
 21
0.455000
 31
0.000000
  0
LINE
  8
1
 10
0.639016
 20
0.455000
 30
0.000000
 11
0.639016
 21
0.500492
 31
0.000000
  0
LINE
  8
1
 10
0.639016
 20
0.500492
 30
0.000000
 11
0.610545
 21
0.500492
 31
0.000000
  0
LINE
  8
1
 10
0.610545
 20
0.500492
 30
0.000000
 11
0.606730
 21
0.499470
 31
0.000000
  0
LINE
  8
1
 10
0.606730
 20
0.499470
 30
0.000000
 11
0.603309
 21
0.497495
 31
0.000000
  0
LINE
  8
1
 10
0.603309
 20
0.497495
 30
0.000000
 11
0.600517
 21
0.494702
 31
0.000000
  0
LINE
  8
1
 10
0.600517
 20
0.494702
 30
0.000000
 11
0.598542
 21
0.491282
 31
0.000000
  0
LINE
  8
1
 10
0.598542
 20
0.491282
 30
0.000000
 11
0.597520
 21
0.487467
 31
0.000000
  0
LINE
  8
1
 10
0.597520
 20
0.487467
 30
0.000000
 11
0.597520
 21
0.455000
 31
0.000000
  0
LINE
  8
1
 10
0.597520
 20
0.455000
 30
0.000000
 11
0.639015
 21
0.455000
 31
0.000000
  0
LINE
  8
1
 10
0.639015
 20
0.455000
 30
0.000000
 11
0.639015
 21
0.445000
 31
0.000000
  0
LINE
  8
1
 10
0.639015
 20
0.445000
 30
0.000000
 11
0.597520
 21
0.445000
 31
0.000000
  0
LINE
  8
1
 10
0.597520
 20
0.445000
 30
0.000000
 11
0.597520
 21
0.418000
 31
0.000000
  0
LINE
  8
1
 10
0.597520
 20
0.418000
 30
0.000000
 11
0.583820
 21
0.418000
 31
0.000000
  0
LINE
  8
1
 10
0.583820
 20
0.418000
 30
0.000000
 11
0.579320
 21
0.422500
 31
0.000000
  0
LINE
  8
1
 10
0.579320
 20
0.422500
 30
0.000000
 11
0.560680
 21
0.422500
 31
0.000000
  0
LINE
  8
1
 10
0.560680
 20
0.422500
 30
0.000000
 11
0.547500
 21
0.409320
 31
0.000000
  0
LINE
  8
1
 10
0.547500
 20
0.409320
 30
0.000000
 11
0.547500
 21
0.407016
 31
0.000000
  0
LINE
  8
1
 10
0.547500
 20
0.407016
 30
0.000000
 11
0.545492
 21
0.407016
 31
0.000000
  0
LINE
  8
1
 10
0.545492
 20
0.407016
 30
0.000000
 11
0.545492
 21
0.424654
 31
0.000000
  0
LINE
  8
1
 10
0.545492
 20
0.424654
 30
0.000000
 11
0.539634
 21
0.430512
 31
0.000000
  0
LINE
  8
1
 10
0.539634
 20
0.430512
 30
0.000000
 11
0.460366
 21
0.430512
 31
0.000000
  0
LINE
  8
1
 10
0.460366
 20
0.430512
 30
0.000000
 11
0.454508
 21
0.424654
 31
0.000000
  0
LINE
  8
1
 10
0.454508
 20
0.424654
 30
0.000000
 11
0.454508
 21
0.363964
 31
0.000000
  0
LINE
  8
1
 10
0.454508
 20
0.363964
 30
0.000000
 11
0.445492
 21
0.354948
 31
0.000000
  0
LINE
  8
1
 10
0.445492
 20
0.354948
 30
0.000000
 11
0.445492
 21
0.424654
 31
0.000000
  0
LINE
  8
1
 10
0.445492
 20
0.424654
 30
0.000000
 11
0.439634
 21
0.430512
 31
0.000000
  0
LINE
  8
1
 10
0.439634
 20
0.430512
 30
0.000000
 11
0.360366
 21
0.430512
 31
0.000000
  0
LINE
  8
1
 10
0.360366
 20
0.430512
 30
0.000000
 11
0.354508
 21
0.424654
 31
0.000000
  0
LINE
  8
1
 10
0.354508
 20
0.424654
 30
0.000000
 11
0.354508
 21
0.407016
 31
0.000000
  0
LINE
  8
1
 10
0.354508
 20
0.407016
 30
0.000000
 11
0.345492
 21
0.407016
 31
0.000000
  0
LINE
  8
1
 10
0.345492
 20
0.407016
 30
0.000000
 11
0.345492
 21
0.424654
 31
0.000000
  0
LINE
  8
1
 10
0.345492
 20
0.424654
 30
0.000000
 11
0.339634
 21
0.430512
 31
0.000000
  0
LINE
  8
1
 10
0.339634
 20
0.430512
 30
0.000000
 11
0.260366
 21
0.430512
 31
0.000000
  0
LINE
  8
1
 10
0.260366
 20
0.430512
 30
0.000000
 11
0.254508
 21
0.424654
 31
0.000000
  0
LINE
  8
1
 10
0.254508
 20
0.424654
 30
0.000000
 11
0.254508
 21
0.353377
 31
0.000000
  0
LINE
  8
1
 10
0.254508
 20
0.353377
 30
0.000000
 11
0.260366
 21
0.347520
 31
0.000000
  0
LINE
  8
1
 10
0.260366
 20
0.347520
 30
0.000000
 11
0.339634
 21
0.347520
 31
0.000000
  0
LINE
  8
1
 10
0.339634
 20
0.347520
 30
0.000000
 11
0.345492
 21
0.353377
 31
0.000000
  0
LINE
  8
1
 10
0.345492
 20
0.353377
 30
0.000000
 11
0.345492
 21
0.371016
 31
0.000000
  0
LINE
  8
1
 10
0.345492
 20
0.371016
 30
0.000000
 11
0.354508
 21
0.371016
 31
0.000000
  0
LINE
  8
1
 10
0.354508
 20
0.371016
 30
0.000000
 11
0.354508
 21
0.353377
 31
0.000000
  0
LINE
  8
1
 10
0.354508
 20
0.353377
 30
0.000000
 11
0.360366
 21
0.347520
 31
0.000000
  0
LINE
  8
1
 10
0.360366
 20
0.347520
 30
0.000000
 11
0.382000
 21
0.347520
 31
0.000000
  0
LINE
  8
1
 10
0.382000
 20
0.347520
 30
0.000000
 11
0.382000
 21
0.317456
 31
0.000000
  0
LINE
  8
1
 10
0.382000
 20
0.317456
 30
0.000000
 11
0.372000
 21
0.307456
 31
0.000000
  0
LINE
  8
1
 10
0.372000
 20
0.307456
 30
0.000000
 11
0.372000
 21
0.293820
 31
0.000000
  0
LINE
  8
1
 10
0.372000
 20
0.293820
 30
0.000000
 11
0.367500
 21
0.289320
 31
0.000000
  0
LINE
  8
1
 10
0.367500
 20
0.289320
 30
0.000000
 11
0.367500
 21
0.270680
 31
0.000000
  0
LINE
  8
1
 10
0.367500
 20
0.270680
 30
0.000000
 11
0.372000
 21
0.266180
 31
0.000000
  0
LINE
  8
1
 10
0.372000
 20
0.266180
 30
0.000000
 11
0.372000
 21
0.230391
 31
0.000000
  0
LINE
  8
1
 10
0.372000
 20
0.230391
 30
0.000000
 11
0.371693
 21
0.223333
 31
0.000000
  0
LINE
  8
1
 10
0.371693
 20
0.223333
 30
0.000000
 11
0.372000
 21
0.222998
 31
0.000000
  0
LINE
  8
1
 10
0.372000
 20
0.222998
 30
0.000000
 11
0.372000
 21
0.222544
 31
0.000000
  0
LINE
  8
1
 10
0.372000
 20
0.222544
 30
0.000000
 11
0.376997
 21
0.217547
 31
0.000000
  0
LINE
  8
1
 10
0.376997
 20
0.217547
 30
0.000000
 11
0.383000
 21
0.210998
 31
0.000000
  0
LINE
  8
1
 10
0.383000
 20
0.210998
 30
0.000000
 11
0.383000
 21
0.210544
 31
0.000000
  0
LINE
  8
1
 10
0.383000
 20
0.210544
 30
0.000000
 11
0.387996
 21
0.205548
 31
0.000000
  0
LINE
  8
1
 10
0.387996
 20
0.205548
 30
0.000000
 11
0.392769
 21
0.200341
 31
0.000000
  0
LINE
  8
1
 10
0.392769
 20
0.200341
 30
0.000000
 11
0.393223
 21
0.200321
 31
0.000000
  0
LINE
  8
1
 10
0.393223
 20
0.200321
 30
0.000000
 11
0.393544
 21
0.200000
 31
0.000000
  0
LINE
  8
1
 10
0.393544
 20
0.200000
 30
0.000000
 11
0.400609
 21
0.200000
 31
0.000000
  0
LINE
  8
1
 10
0.400609
 20
0.200000
 30
0.000000
 11
0.407142
 21
0.199716
 31
0.000000
  0
LINE
  8
1
 10
0.407142
 20
0.199716
 30
0.000000
 11
0.409858
 21
0.197000
 31
0.000000
  0
LINE
  8
1
 10
0.409858
 20
0.197000
 30
0.000000
 11
0.468142
 21
0.197000
 31
0.000000
  0
LINE
  8
1
 10
0.468142
 20
0.197000
 30
0.000000
 11
0.474000
 21
0.202858
 31
0.000000
  0
LINE
  8
1
 10
0.474000
 20
0.202858
 30
0.000000
 11
0.474000
 21
0.232787
 31
0.000000
  0
LINE
  8
1
 10
0.474000
 20
0.232787
 30
0.000000
 11
0.476003
 21
0.234790
 31
0.000000
  0
LINE
  8
1
 10
0.476003
 20
0.234790
 30
0.000000
 11
0.477978
 21
0.238210
 31
0.000000
  0
LINE
  8
1
 10
0.477978
 20
0.238210
 30
0.000000
 11
0.479000
 21
0.242025
 31
0.000000
  0
LINE
  8
1
 10
0.479000
 20
0.242025
 30
0.000000
 11
0.479000
 21
0.254500
 31
0.000000
  0
LINE
  8
1
 10
0.479000
 20
0.254500
 30
0.000000
 11
0.439501
 21
0.254500
 31
0.000000
  0
LINE
  8
1
 10
0.439501
 20
0.254500
 30
0.000000
 11
0.439501
 21
0.255500
 31
0.000000
  0
LINE
  8
1
 10
0.439501
 20
0.255500
 30
0.000000
 11
0.479000
 21
0.255500
 31
0.000000
  0
LINE
  8
1
 10
0.479000
 20
0.255500
 30
0.000000
 11
0.479000
 21
0.267975
 31
0.000000
  0
LINE
  8
1
 10
0.479000
 20
0.267975
 30
0.000000
 11
0.477978
 21
0.271790
 31
0.000000
  0
LINE
  8
1
 10
0.477978
 20
0.271790
 30
0.000000
 11
0.476003
 21
0.275210
 31
0.000000
  0
LINE
  8
1
 10
0.476003
 20
0.275210
 30
0.000000
 11
0.474000
 21
0.277213
 31
0.000000
  0
LINE
  8
1
 10
0.474000
 20
0.277213
 30
0.000000
 11
0.474000
 21
0.307142
 31
0.000000
  0
LINE
  8
1
 10
0.474000
 20
0.307142
 30
0.000000
 11
0.468142
 21
0.313000
 31
0.000000
  0
LINE
  8
1
 10
0.468142
 20
0.313000
 30
0.000000
 11
0.457000
 21
0.313000
 31
0.000000
  0
LINE
  8
1
 10
0.457000
 20
0.313000
 30
0.000000
 11
0.457000
 21
0.315544
 31
0.000000
  0
LINE
  8
1
 10
0.457000
 20
0.315544
 30
0.000000
 11
0.488975
 21
0.347520
 31
0.000000
  0
LINE
  8
1
 10
0.488975
 20
0.347520
 30
0.000000
 11
0.539634
 21
0.347520
 31
0.000000
  0
LINE
  8
1
 10
0.539634
 20
0.347520
 30
0.000000
 11
0.545492
 21
0.353377
 31
0.000000
  0
LINE
  8
1
 10
0.545492
 20
0.353377
 30
0.000000
 11
0.545492
 21
0.371016
 31
0.000000
  0
LINE
  8
1
 10
0.545492
 20
0.371016
 30
0.000000
 11
0.554886
 21
0.371016
 31
0.000000
  0
LINE
  8
1
 10
0.554886
 20
0.371016
 30
0.000000
 11
0.555774
 21
0.370305
 31
0.000000
  0
LINE
  8
1
 10
0.555774
 20
0.370305
 30
0.000000
 11
0.562197
 21
0.371016
 31
0.000000
  0
LINE
  8
1
 10
0.562197
 20
0.371016
 30
0.000000
 11
0.568661
 21
0.371016
 31
0.000000
  0
LINE
  8
1
 10
0.568661
 20
0.371016
 30
0.000000
 11
0.569465
 21
0.371820
 31
0.000000
  0
LINE
  8
1
 10
0.569465
 20
0.371820
 30
0.000000
 11
0.570595
 21
0.371945
 31
0.000000
  0
LINE
  8
1
 10
0.570595
 20
0.371945
 30
0.000000
 11
0.574634
 21
0.376990
 31
0.000000
  0
LINE
  8
1
 10
0.574634
 20
0.376990
 30
0.000000
 11
0.575145
 21
0.377500
 31
0.000000
  0
LINE
  8
1
 10
0.575145
 20
0.377500
 30
0.000000
 11
0.579320
 21
0.377500
 31
0.000000
  0
LINE
  8
1
 10
0.579320
 20
0.377500
 30
0.000000
 11
0.583820
 21
0.382000
 31
0.000000
  0
LINE
  8
1
 10
0.583820
 20
0.382000
 30
0.000000
 11
0.604886
 21
0.382000
 31
0.000000
  0
LINE
  8
1
 10
0.604886
 20
0.382000
 30
0.000000
 11
0.602520
 21
0.379634
 31
0.000000
  0
LINE
  8
1
 10
0.602520
 20
0.379634
 30
0.000000
 11
0.602520
 21
0.300366
 31
0.000000
  0
LINE
  8
1
 10
0.602520
 20
0.300366
 30
0.000000
 11
0.608377
 21
0.294508
 31
0.000000
  0
LINE
  8
1
 10
0.608377
 20
0.294508
 30
0.000000
 11
0.627000
 21
0.294508
 31
0.000000
  0
LINE
  8
1
 10
0.627000
 20
0.294508
 30
0.000000
 11
0.627000
 21
0.260456
 31
0.000000
  0
LINE
  8
1
 10
0.627000
 20
0.260456
 30
0.000000
 11
0.602544
 21
0.236000
 31
0.000000
  0
LINE
  8
1
 10
0.602544
 20
0.236000
 30
0.000000
 11
0.573142
 21
0.236000
 31
0.000000
  0
LINE
  8
1
 10
0.573142
 20
0.236000
 30
0.000000
 11
0.572642
 21
0.236500
 31
0.000000
  0
LINE
  8
1
 10
0.572642
 20
0.236500
 30
0.000000
 11
0.576000
 21
0.239858
 31
0.000000
  0
LINE
  8
1
 10
0.576000
 20
0.239858
 30
0.000000
 11
0.576000
 21
0.257180
 31
0.000000
  0
LINE
  8
1
 10
0.576000
 20
0.257180
 30
0.000000
 11
0.580680
 21
0.252500
 31
0.000000
  0
LINE
  8
1
 10
0.580680
 20
0.252500
 30
0.000000
 11
0.599320
 21
0.252500
 31
0.000000
  0
LINE
  8
1
 10
0.599320
 20
0.252500
 30
0.000000
 11
0.612500
 21
0.265680
 31
0.000000
  0
LINE
  8
1
 10
0.612500
 20
0.265680
 30
0.000000
 11
0.612500
 21
0.284320
 31
0.000000
  0
LINE
  8
1
 10
0.612500
 20
0.284320
 30
0.000000
 11
0.599320
 21
0.297500
 31
0.000000
  0
LINE
  8
1
 10
0.599320
 20
0.297500
 30
0.000000
 11
0.592392
 21
0.297500
 31
0.000000
  0
LINE
  8
1
 10
0.592392
 20
0.297500
 30
0.000000
 11
0.584546
 21
0.304910
 31
0.000000
  0
LINE
  8
1
 10
0.584546
 20
0.304910
 30
0.000000
 11
0.579456
 21
0.310000
 31
0.000000
  0
LINE
  8
1
 10
0.579456
 20
0.310000
 30
0.000000
 11
0.579156
 21
0.310000
 31
0.000000
  0
LINE
  8
1
 10
0.579156
 20
0.310000
 30
0.000000
 11
0.578939
 21
0.310205
 31
0.000000
  0
LINE
  8
1
 10
0.578939
 20
0.310205
 30
0.000000
 11
0.573103
 21
0.310039
 31
0.000000
  0
LINE
  8
1
 10
0.573103
 20
0.310039
 30
0.000000
 11
0.570142
 21
0.313000
 31
0.000000
  0
LINE
  8
1
 10
0.570142
 20
0.313000
 30
0.000000
 11
0.511858
 21
0.313000
 31
0.000000
  0
LINE
  8
1
 10
0.511858
 20
0.313000
 30
0.000000
 11
0.506000
 21
0.307142
 31
0.000000
  0
LINE
  8
1
 10
0.506000
 20
0.307142
 30
0.000000
 11
0.506000
 21
0.276858
 31
0.000000
  0
LINE
  8
1
 10
0.506000
 20
0.276858
 30
0.000000
 11
0.508697
 21
0.274160
 31
0.000000
  0
LINE
  8
1
 10
0.508697
 20
0.274160
 30
0.000000
 11
0.505333
 21
0.274307
 31
0.000000
  0
LINE
  8
1
 10
0.505333
 20
0.274307
 30
0.000000
 11
0.505264
 21
0.274243
 31
0.000000
  0
LINE
  8
1
 10
0.505264
 20
0.274243
 30
0.000000
 11
0.505169
 21
0.274246
 31
0.000000
  0
LINE
  8
1
 10
0.505169
 20
0.274246
 30
0.000000
 11
0.499768
 21
0.269206
 31
0.000000
  0
LINE
  8
1
 10
0.499768
 20
0.269206
 30
0.000000
 11
0.492998
 21
0.263000
 31
0.000000
  0
LINE
  8
1
 10
0.492998
 20
0.263000
 30
0.000000
 11
0.492544
 21
0.263000
 31
0.000000
  0
LINE
  8
1
 10
0.492544
 20
0.263000
 30
0.000000
 11
0.487548
 21
0.258004
 31
0.000000
  0
LINE
  8
1
 10
0.487548
 20
0.258004
 30
0.000000
 11
0.482341
 21
0.253231
 31
0.000000
  0
LINE
  8
1
 10
0.482341
 20
0.253231
 30
0.000000
 11
0.482321
 21
0.252777
 31
0.000000
  0
LINE
  8
1
 10
0.482321
 20
0.252777
 30
0.000000
 11
0.482000
 21
0.252456
 31
0.000000
  0
LINE
  8
1
 10
0.482000
 20
0.252456
 30
0.000000
 11
0.482000
 21
0.245391
 31
0.000000
  0
LINE
  8
1
 10
0.482000
 20
0.245391
 30
0.000000
 11
0.481693
 21
0.238333
 31
0.000000
  0
LINE
  8
1
 10
0.481693
 20
0.238333
 30
0.000000
 11
0.482000
 21
0.237998
 31
0.000000
  0
LINE
  8
1
 10
0.482000
 20
0.237998
 30
0.000000
 11
0.482000
 21
0.162527
 31
0.000000
  0
LINE
  8
1
 10
0.482000
 20
0.162527
 30
0.000000
 11
0.481151
 21
0.162527
 31
0.000000
  0
LINE
  8
1
 10
0.481151
 20
0.162527
 30
0.000000
 11
0.463000
 21
0.181283
 31
0.000000
  0
LINE
  8
1
 10
0.463000
 20
0.181283
 30
0.000000
 11
0.463000
 21
0.181456
 31
0.000000
  0
LINE
  8
1
 10
0.463000
 20
0.181456
 30
0.000000
 11
0.457832
 21
0.186624
 31
0.000000
  0
LINE
  8
1
 10
0.457832
 20
0.186624
 30
0.000000
 11
0.452750
 21
0.191875
 31
0.000000
  0
LINE
  8
1
 10
0.452750
 20
0.191875
 30
0.000000
 11
0.452578
 21
0.191878
 31
0.000000
  0
LINE
  8
1
 10
0.452578
 20
0.191878
 30
0.000000
 11
0.452456
 21
0.192000
 31
0.000000
  0
LINE
  8
1
 10
0.452456
 20
0.192000
 30
0.000000
 11
0.445149
 21
0.192000
 31
0.000000
  0
LINE
  8
1
 10
0.445149
 20
0.192000
 30
0.000000
 11
0.437840
 21
0.192120
 31
0.000000
  0
LINE
  8
1
 10
0.437840
 20
0.192120
 30
0.000000
 11
0.437716
 21
0.192000
 31
0.000000
  0
LINE
  8
1
 10
0.437716
 20
0.192000
 30
0.000000
 11
0.393614
 21
0.192000
 31
0.000000
  0
LINE
  8
1
 10
0.393614
 20
0.192000
 30
0.000000
 11
0.372500
 21
0.213753
 31
0.000000
  0
LINE
  8
1
 10
0.372500
 20
0.213753
 30
0.000000
 11
0.372500
 21
0.219320
 31
0.000000
  0
LINE
  8
1
 10
0.372500
 20
0.219320
 30
0.000000
 11
0.368000
 21
0.223820
 31
0.000000
  0
LINE
  8
1
 10
0.368000
 20
0.223820
 30
0.000000
 11
0.368000
 21
0.240867
 31
0.000000
  0
LINE
  8
1
 10
0.368000
 20
0.240867
 30
0.000000
 11
0.368109
 21
0.248186
 31
0.000000
  0
LINE
  8
1
 10
0.368109
 20
0.248186
 30
0.000000
 11
0.368000
 21
0.248299
 31
0.000000
  0
LINE
  8
1
 10
0.368000
 20
0.248299
 30
0.000000
 11
0.368000
 21
0.248456
 31
0.000000
  0
LINE
  8
1
 10
0.368000
 20
0.248456
 30
0.000000
 11
0.362822
 21
0.253633
 31
0.000000
  0
LINE
  8
1
 10
0.362822
 20
0.253633
 30
0.000000
 11
0.337000
 21
0.280238
 31
0.000000
  0
LINE
  8
1
 10
0.337000
 20
0.280238
 30
0.000000
 11
0.337000
 21
0.290142
 31
0.000000
  0
LINE
  8
1
 10
0.337000
 20
0.290142
 30
0.000000
 11
0.331142
 21
0.296000
 31
0.000000
  0
LINE
  8
1
 10
0.331142
 20
0.296000
 30
0.000000
 11
0.270858
 21
0.296000
 31
0.000000
  0
LINE
  8
1
 10
0.270858
 20
0.296000
 30
0.000000
 11
0.265000
 21
0.290142
 31
0.000000
  0
LINE
  8
1
 10
0.265000
 20
0.290142
 30
0.000000
 11
0.265000
 21
0.259858
 31
0.000000
  0
LINE
  8
1
 10
0.265000
 20
0.259858
 30
0.000000
 11
0.270858
 21
0.254000
 31
0.000000
  0
LINE
  8
1
 10
0.270858
 20
0.254000
 30
0.000000
 11
0.312298
 21
0.254000
 31
0.000000
  0
LINE
  8
1
 10
0.312298
 20
0.254000
 30
0.000000
 11
0.332000
 21
0.233701
 31
0.000000
  0
LINE
  8
1
 10
0.332000
 20
0.233701
 30
0.000000
 11
0.332000
 21
0.223820
 31
0.000000
  0
LINE
  8
1
 10
0.332000
 20
0.223820
 30
0.000000
 11
0.330180
 21
0.222000
 31
0.000000
  0
LINE
  8
1
 10
0.330180
 20
0.222000
 30
0.000000
 11
0.270858
 21
0.222000
 31
0.000000
  0
LINE
  8
1
 10
0.270858
 20
0.222000
 30
0.000000
 11
0.265000
 21
0.216142
 31
0.000000
  0
LINE
  8
1
 10
0.265000
 20
0.216142
 30
0.000000
 11
0.265000
 21
0.185858
 31
0.000000
  0
LINE
  8
1
 10
0.265000
 20
0.185858
 30
0.000000
 11
0.270858
 21
0.180000
 31
0.000000
  0
LINE
  8
1
 10
0.270858
 20
0.180000
 30
0.000000
 11
0.283000
 21
0.180000
 31
0.000000
  0
LINE
  8
1
 10
0.283000
 20
0.180000
 30
0.000000
 11
0.283000
 21
0.153685
 31
0.000000
  0
LINE
  8
1
 10
0.283000
 20
0.153685
 30
0.000000
 11
0.264669
 21
0.153685
 31
0.000000
  0
LINE
  8
1
 10
0.264669
 20
0.153685
 30
0.000000
 11
0.259440
 21
0.148456
 31
0.000000
  0
LINE
  8
1
 10
0.259440
 20
0.148456
 30
0.000000
 11
0.259167
 21
0.149475
 31
0.000000
  0
LINE
  8
1
 10
0.259167
 20
0.149475
 30
0.000000
 11
0.257192
 21
0.152895
 31
0.000000
  0
LINE
  8
1
 10
0.257192
 20
0.152895
 30
0.000000
 11
0.254399
 21
0.155688
 31
0.000000
  0
LINE
  8
1
 10
0.254399
 20
0.155688
 30
0.000000
 11
0.250979
 21
0.157663
 31
0.000000
  0
LINE
  8
1
 10
0.250979
 20
0.157663
 30
0.000000
 11
0.247164
 21
0.158685
 31
0.000000
  0
LINE
  8
1
 10
0.247164
 20
0.158685
 30
0.000000
 11
0.228378
 21
0.158685
 31
0.000000
  0
LINE
  8
1
 10
0.228378
 20
0.158685
 30
0.000000
 11
0.228378
 21
0.128843
 31
0.000000
  0
LINE
  8
1
 10
0.228378
 20
0.128843
 30
0.000000
 11
0.218693
 21
0.128843
 31
0.000000
  0
LINE
  8
1
 10
0.218693
 20
0.128843
 30
0.000000
 11
0.218693
 21
0.158685
 31
0.000000
  0
LINE
  8
1
 10
0.218693
 20
0.158685
 30
0.000000
 11
0.199907
 21
0.158685
 31
0.000000
  0
LINE
  8
1
 10
0.199907
 20
0.158685
 30
0.000000
 11
0.196092
 21
0.157663
 31
0.000000
  0
LINE
  8
1
 10
0.196092
 20
0.157663
 30
0.000000
 11
0.192672
 21
0.155688
 31
0.000000
  0
LINE
  8
1
 10
0.192672
 20
0.155688
 30
0.000000
 11
0.189879
 21
0.152895
 31
0.000000
  0
LINE
  8
1
 10
0.189879
 20
0.152895
 30
0.000000
 11
0.187904
 21
0.149475
 31
0.000000
  0
LINE
  8
1
 10
0.187904
 20
0.149475
 30
0.000000
 11
0.186882
 21
0.145660
 31
0.000000
  0
LINE
  8
1
 10
0.186882
 20
0.145660
 30
0.000000
 11
0.186882
 21
0.128843
 31
0.000000
  0
LINE
  8
1
 10
0.186882
 20
0.128843
 30
0.000000
 11
0.218692
 21
0.128843
 31
0.000000
  0
LINE
  8
1
 10
0.218692
 20
0.128843
 30
0.000000
 11
0.218692
 21
0.119157
 31
0.000000
  0
LINE
  8
1
 10
0.218692
 20
0.119157
 30
0.000000
 11
0.186882
 21
0.119157
 31
0.000000
  0
LINE
  8
1
 10
0.186882
 20
0.119157
 30
0.000000
 11
0.186882
 21
0.102340
 31
0.000000
  0
LINE
  8
1
 10
0.186882
 20
0.102340
 30
0.000000
 11
0.187904
 21
0.098525
 31
0.000000
  0
LINE
  8
1
 10
0.187904
 20
0.098525
 30
0.000000
 11
0.189879
 21
0.095105
 31
0.000000
  0
LINE
  8
1
 10
0.189879
 20
0.095105
 30
0.000000
 11
0.192672
 21
0.092312
 31
0.000000
  0
LINE
  8
1
 10
0.192672
 20
0.092312
 30
0.000000
 11
0.196092
 21
0.090337
 31
0.000000
  0
LINE
  8
1
 10
0.196092
 20
0.090337
 30
0.000000
 11
0.199907
 21
0.089315
 31
0.000000
  0
LINE
  8
1
 10
0.199907
 20
0.089315
 30
0.000000
 11
0.218693
 21
0.089315
 31
0.000000
  0
LINE
  8
1
 10
0.550492
 20
0.495984
 30
0.000000
 11
0.505000
 21
0.495984
 31
0.000000
  0
LINE
  8
1
 10
0.505000
 20
0.495984
 30
0.000000
 11
0.505000
 21
0.505984
 31
0.000000
  0
LINE
  8
1
 10
0.505000
 20
0.505984
 30
0.000000
 11
0.550492
 21
0.505984
 31
0.000000
  0
LINE
  8
1
 10
0.550492
 20
0.505984
 30
0.000000
 11
0.550492
 21
0.534455
 31
0.000000
  0
LINE
  8
1
 10
0.550492
 20
0.534455
 30
0.000000
 11
0.549470
 21
0.538270
 31
0.000000
  0
LINE
  8
1
 10
0.549470
 20
0.538270
 30
0.000000
 11
0.547495
 21
0.541690
 31
0.000000
  0
LINE
  8
1
 10
0.547495
 20
0.541690
 30
0.000000
 11
0.544702
 21
0.544483
 31
0.000000
  0
LINE
  8
1
 10
0.544702
 20
0.544483
 30
0.000000
 11
0.541282
 21
0.546458
 31
0.000000
  0
LINE
  8
1
 10
0.541282
 20
0.546458
 30
0.000000
 11
0.537467
 21
0.547480
 31
0.000000
  0
LINE
  8
1
 10
0.537467
 20
0.547480
 30
0.000000
 11
0.505000
 21
0.547480
 31
0.000000
  0
LINE
  8
1
 10
0.505000
 20
0.547480
 30
0.000000
 11
0.505000
 21
0.505985
 31
0.000000
  0
LINE
  8
1
 10
0.505000
 20
0.505985
 30
0.000000
 11
0.495000
 21
0.505985
 31
0.000000
  0
LINE
  8
1
 10
0.495000
 20
0.505985
 30
0.000000
 11
0.495000
 21
0.547480
 31
0.000000
  0
LINE
  8
1
 10
0.495000
 20
0.547480
 30
0.000000
 11
0.462533
 21
0.547480
 31
0.000000
  0
LINE
  8
1
 10
0.462533
 20
0.547480
 30
0.000000
 11
0.458718
 21
0.546458
 31
0.000000
  0
LINE
  8
1
 10
0.458718
 20
0.546458
 30
0.000000
 11
0.455298
 21
0.544483
 31
0.000000
  0
LINE
  8
1
 10
0.455298
 20
0.544483
 30
0.000000
 11
0.452505
 21
0.541690
 31
0.000000
  0
LINE
  8
1
 10
0.452505
 20
0.541690
 30
0.000000
 11
0.450530
 21
0.538270
 31
0.000000
  0
LINE
  8
1
 10
0.450530
 20
0.538270
 30
0.000000
 11
0.450000
 21
0.536291
 31
0.000000
  0
LINE
  8
1
 10
0.450000
 20
0.536291
 30
0.000000
 11
0.449470
 21
0.538270
 31
0.000000
  0
LINE
  8
1
 10
0.449470
 20
0.538270
 30
0.000000
 11
0.447495
 21
0.541690
 31
0.000000
  0
LINE
  8
1
 10
0.447495
 20
0.541690
 30
0.000000
 11
0.444702
 21
0.544483
 31
0.000000
  0
LINE
  8
1
 10
0.444702
 20
0.544483
 30
0.000000
 11
0.441282
 21
0.546458
 31
0.000000
  0
LINE
  8
1
 10
0.441282
 20
0.546458
 30
0.000000
 11
0.437467
 21
0.547480
 31
0.000000
  0
LINE
  8
1
 10
0.437467
 20
0.547480
 30
0.000000
 11
0.405000
 21
0.547480
 31
0.000000
  0
LINE
  8
1
 10
0.405000
 20
0.547480
 30
0.000000
 11
0.405000
 21
0.505985
 31
0.000000
  0
LINE
  8
1
 10
0.405000
 20
0.505985
 30
0.000000
 11
0.395000
 21
0.505985
 31
0.000000
  0
LINE
  8
1
 10
0.395000
 20
0.505985
 30
0.000000
 11
0.395000
 21
0.547480
 31
0.000000
  0
LINE
  8
1
 10
0.395000
 20
0.547480
 30
0.000000
 11
0.362533
 21
0.547480
 31
0.000000
  0
LINE
  8
1
 10
0.362533
 20
0.547480
 30
0.000000
 11
0.358718
 21
0.546458
 31
0.000000
  0
LINE
  8
1
 10
0.358718
 20
0.546458
 30
0.000000
 11
0.355298
 21
0.544483
 31
0.000000
  0
LINE
  8
1
 10
0.355298
 20
0.544483
 30
0.000000
 11
0.352505
 21
0.541690
 31
0.000000
  0
LINE
  8
1
 10
0.352505
 20
0.541690
 30
0.000000
 11
0.350530
 21
0.538270
 31
0.000000
  0
LINE
  8
1
 10
0.350530
 20
0.538270
 30
0.000000
 11
0.349508
 21
0.534455
 31
0.000000
  0
LINE
  8
1
 10
0.349508
 20
0.534455
 30
0.000000
 11
0.349508
 21
0.505984
 31
0.000000
  0
LINE
  8
1
 10
0.349508
 20
0.505984
 30
0.000000
 11
0.395000
 21
0.505984
 31
0.000000
  0
LINE
  8
1
 10
0.395000
 20
0.505984
 30
0.000000
 11
0.395000
 21
0.495984
 31
0.000000
  0
LINE
  8
1
 10
0.395000
 20
0.495984
 30
0.000000
 11
0.349508
 21
0.495984
 31
0.000000
  0
LINE
  8
1
 10
0.349508
 20
0.495984
 30
0.000000
 11
0.349508
 21
0.467513
 31
0.000000
  0
LINE
  8
1
 10
0.349508
 20
0.467513
 30
0.000000
 11
0.350530
 21
0.463698
 31
0.000000
  0
LINE
  8
1
 10
0.350530
 20
0.463698
 30
0.000000
 11
0.352505
 21
0.460278
 31
0.000000
  0
LINE
  8
1
 10
0.352505
 20
0.460278
 30
0.000000
 11
0.355298
 21
0.457485
 31
0.000000
  0
LINE
  8
1
 10
0.355298
 20
0.457485
 30
0.000000
 11
0.358718
 21
0.455510
 31
0.000000
  0
LINE
  8
1
 10
0.358718
 20
0.455510
 30
0.000000
 11
0.362533
 21
0.454488
 31
0.000000
  0
LINE
  8
1
 10
0.362533
 20
0.454488
 30
0.000000
 11
0.395000
 21
0.454488
 31
0.000000
  0
LINE
  8
1
 10
0.395000
 20
0.454488
 30
0.000000
 11
0.395000
 21
0.495984
 31
0.000000
  0
LINE
  8
1
 10
0.395000
 20
0.495984
 30
0.000000
 11
0.405000
 21
0.495984
 31
0.000000
  0
LINE
  8
1
 10
0.405000
 20
0.495984
 30
0.000000
 11
0.405000
 21
0.454488
 31
0.000000
  0
LINE
  8
1
 10
0.405000
 20
0.454488
 30
0.000000
 11
0.437467
 21
0.454488
 31
0.000000
  0
LINE
  8
1
 10
0.437467
 20
0.454488
 30
0.000000
 11
0.441282
 21
0.455510
 31
0.000000
  0
LINE
  8
1
 10
0.441282
 20
0.455510
 30
0.000000
 11
0.444702
 21
0.457485
 31
0.000000
  0
LINE
  8
1
 10
0.444702
 20
0.457485
 30
0.000000
 11
0.447495
 21
0.460278
 31
0.000000
  0
LINE
  8
1
 10
0.447495
 20
0.460278
 30
0.000000
 11
0.449470
 21
0.463698
 31
0.000000
  0
LINE
  8
1
 10
0.449470
 20
0.463698
 30
0.000000
 11
0.450000
 21
0.465677
 31
0.000000
  0
LINE
  8
1
 10
0.450000
 20
0.465677
 30
0.000000
 11
0.450530
 21
0.463698
 31
0.000000
  0
LINE
  8
1
 10
0.450530
 20
0.463698
 30
0.000000
 11
0.452505
 21
0.460278
 31
0.000000
  0
LINE
  8
1
 10
0.452505
 20
0.460278
 30
0.000000
 11
0.455298
 21
0.457485
 31
0.000000
  0
LINE
  8
1
 10
0.455298
 20
0.457485
 30
0.000000
 11
0.458718
 21
0.455510
 31
0.000000
  0
LINE
  8
1
 10
0.458718
 20
0.455510
 30
0.000000
 11
0.462533
 21
0.454488
 31
0.000000
  0
LINE
  8
1
 10
0.462533
 20
0.454488
 30
0.000000
 11
0.495000
 21
0.454488
 31
0.000000
  0
LINE
  8
1
 10
0.495000
 20
0.454488
 30
0.000000
 11
0.495000
 21
0.495984
 31
0.000000
  0
LINE
  8
1
 10
0.495000
 20
0.495984
 30
0.000000
 11
0.505000
 21
0.495984
 31
0.000000
  0
LINE
  8
1
 10
0.505000
 20
0.495984
 30
0.000000
 11
0.505000
 21
0.454488
 31
0.000000
  0
LINE
  8
1
 10
0.505000
 20
0.454488
 30
0.000000
 11
0.537467
 21
0.454488
 31
0.000000
  0
LINE
  8
1
 10
0.537467
 20
0.454488
 30
0.000000
 11
0.541282
 21
0.455510
 31
0.000000
  0
LINE
  8
1
 10
0.541282
 20
0.455510
 30
0.000000
 11
0.544702
 21
0.457485
 31
0.000000
  0
LINE
  8
1
 10
0.544702
 20
0.457485
 30
0.000000
 11
0.547495
 21
0.460278
 31
0.000000
  0
LINE
  8
1
 10
0.547495
 20
0.460278
 30
0.000000
 11
0.549470
 21
0.463698
 31
0.000000
  0
LINE
  8
1
 10
0.549470
 20
0.463698
 30
0.000000
 11
0.550492
 21
0.467513
 31
0.000000
  0
LINE
  8
1
 10
0.550492
 20
0.467513
 30
0.000000
 11
0.550492
 21
0.495984
 31
0.000000
  0
LINE
  8
1
 10
0.105000
 20
0.249567
 30
0.000000
 11
0.139402
 21
0.249567
 31
0.000000
  0
LINE
  8
1
 10
0.139402
 20
0.249567
 30
0.000000
 11
0.143000
 21
0.250137
 31
0.000000
  0
LINE
  8
1
 10
0.143000
 20
0.250137
 30
0.000000
 11
0.143000
 21
0.245433
 31
0.000000
  0
LINE
  8
1
 10
0.143000
 20
0.245433
 30
0.000000
 11
0.055530
 21
0.245433
 31
0.000000
  0
LINE
  8
1
 10
0.055530
 20
0.245433
 30
0.000000
 11
0.038831
 21
0.238516
 31
0.000000
  0
LINE
  8
1
 10
0.038831
 20
0.238516
 30
0.000000
 11
0.026051
 21
0.225736
 31
0.000000
  0
LINE
  8
1
 10
0.026051
 20
0.225736
 30
0.000000
 11
0.025500
 21
0.224406
 31
0.000000
  0
LINE
  8
1
 10
0.025500
 20
0.224406
 30
0.000000
 11
0.025500
 21
0.267969
 31
0.000000
  0
LINE
  8
1
 10
0.025500
 20
0.267969
 30
0.000000
 11
0.026099
 21
0.267145
 31
0.000000
  0
LINE
  8
1
 10
0.026099
 20
0.267145
 30
0.000000
 11
0.031712
 21
0.261532
 31
0.000000
  0
LINE
  8
1
 10
0.031712
 20
0.261532
 30
0.000000
 11
0.038134
 21
0.256866
 31
0.000000
  0
LINE
  8
1
 10
0.038134
 20
0.256866
 30
0.000000
 11
0.045207
 21
0.253262
 31
0.000000
  0
LINE
  8
1
 10
0.045207
 20
0.253262
 30
0.000000
 11
0.052757
 21
0.250809
 31
0.000000
  0
LINE
  8
1
 10
0.052757
 20
0.250809
 30
0.000000
 11
0.060598
 21
0.249567
 31
0.000000
  0
LINE
  8
1
 10
0.060598
 20
0.249567
 30
0.000000
 11
0.095000
 21
0.249567
 31
0.000000
  0
LINE
  8
1
 10
0.095000
 20
0.249567
 30
0.000000
 11
0.095000
 21
0.294999
 31
0.000000
  0
LINE
  8
1
 10
0.095000
 20
0.294999
 30
0.000000
 11
0.105000
 21
0.294999
 31
0.000000
  0
LINE
  8
1
 10
0.105000
 20
0.294999
 30
0.000000
 11
0.105000
 21
0.249567
 31
0.000000
  0
LINE
  8
1
 10
0.153232
 20
0.080000
 30
0.000000
 11
0.386280
 21
0.080000
 31
0.000000
  0
LINE
  8
1
 10
0.142969
 20
0.090000
 30
0.000000
 11
0.197351
 21
0.090000
 31
0.000000
  0
LINE
  8
1
 10
0.218693
 20
0.090000
 30
0.000000
 11
0.228378
 21
0.090000
 31
0.000000
  0
LINE
  8
1
 10
0.249720
 20
0.090000
 30
0.000000
 11
0.378346
 21
0.090000
 31
0.000000
  0
LINE
  8
1
 10
0.135000
 20
0.100000
 30
0.000000
 11
0.187509
 21
0.100000
 31
0.000000
  0
LINE
  8
1
 10
0.218693
 20
0.100000
 30
0.000000
 11
0.228378
 21
0.100000
 31
0.000000
  0
LINE
  8
1
 10
0.321945
 20
0.100000
 30
0.000000
 11
0.377945
 21
0.100000
 31
0.000000
  0
LINE
  8
1
 10
0.135000
 20
0.110000
 30
0.000000
 11
0.186882
 21
0.110000
 31
0.000000
  0
LINE
  8
1
 10
0.218693
 20
0.110000
 30
0.000000
 11
0.228378
 21
0.110000
 31
0.000000
  0
LINE
  8
1
 10
0.322118
 20
0.110000
 30
0.000000
 11
0.377945
 21
0.110000
 31
0.000000
  0
LINE
  8
1
 10
0.135000
 20
0.120000
 30
0.000000
 11
0.218692
 21
0.120000
 31
0.000000
  0
LINE
  8
1
 10
0.322118
 20
0.120000
 30
0.000000
 11
0.413535
 21
0.120000
 31
0.000000
  0
LINE
  8
1
 10
0.135000
 20
0.130000
 30
0.000000
 11
0.186882
 21
0.130000
 31
0.000000
  0
LINE
  8
1
 10
0.218693
 20
0.130000
 30
0.000000
 11
0.228378
 21
0.130000
 31
0.000000
  0
LINE
  8
1
 10
0.322118
 20
0.130000
 30
0.000000
 11
0.377945
 21
0.130000
 31
0.000000
  0
LINE
  8
1
 10
0.135000
 20
0.140000
 30
0.000000
 11
0.186882
 21
0.140000
 31
0.000000
  0
LINE
  8
1
 10
0.218693
 20
0.140000
 30
0.000000
 11
0.228378
 21
0.140000
 31
0.000000
  0
LINE
  8
1
 10
0.322118
 20
0.140000
 30
0.000000
 11
0.377945
 21
0.140000
 31
0.000000
  0
LINE
  8
1
 10
0.135000
 20
0.150000
 30
0.000000
 11
0.188207
 21
0.150000
 31
0.000000
  0
LINE
  8
1
 10
0.218693
 20
0.150000
 30
0.000000
 11
0.228378
 21
0.150000
 31
0.000000
  0
LINE
  8
1
 10
0.258863
 20
0.150000
 30
0.000000
 11
0.260984
 21
0.150000
 31
0.000000
  0
LINE
  8
1
 10
0.319945
 20
0.150000
 30
0.000000
 11
0.377945
 21
0.150000
 31
0.000000
  0
LINE
  8
1
 10
0.157587
 20
0.160000
 30
0.000000
 11
0.283000
 21
0.160000
 31
0.000000
  0
LINE
  8
1
 10
0.319000
 20
0.160000
 30
0.000000
 11
0.374504
 21
0.160000
 31
0.000000
  0
LINE
  8
1
 10
0.169685
 20
0.170000
 30
0.000000
 11
0.283000
 21
0.170000
 31
0.000000
  0
LINE
  8
1
 10
0.319000
 20
0.170000
 30
0.000000
 11
0.364798
 21
0.170000
 31
0.000000
  0
LINE
  8
1
 10
0.473919
 20
0.170000
 30
0.000000
 11
0.482000
 21
0.170000
 31
0.000000
  0
LINE
  8
1
 10
0.176325
 20
0.180000
 30
0.000000
 11
0.178858
 21
0.180000
 31
0.000000
  0
LINE
  8
1
 10
0.239142
 20
0.180000
 30
0.000000
 11
0.270858
 21
0.180000
 31
0.000000
  0
LINE
  8
1
 10
0.331142
 20
0.180000
 30
0.000000
 11
0.355092
 21
0.180000
 31
0.000000
  0
LINE
  8
1
 10
0.464242
 20
0.180000
 30
0.000000
 11
0.482000
 21
0.180000
 31
0.000000
  0
LINE
  8
1
 10
0.245000
 20
0.190000
 30
0.000000
 11
0.265000
 21
0.190000
 31
0.000000
  0
LINE
  8
1
 10
0.337000
 20
0.190000
 30
0.000000
 11
0.338180
 21
0.190000
 31
0.000000
  0
LINE
  8
1
 10
0.454565
 20
0.190000
 30
0.000000
 11
0.482000
 21
0.190000
 31
0.000000
  0
LINE
  8
1
 10
0.245000
 20
0.200000
 30
0.000000
 11
0.265000
 21
0.200000
 31
0.000000
  0
LINE
  8
1
 10
0.385849
 20
0.200000
 30
0.000000
 11
0.393544
 21
0.200000
 31
0.000000
  0
LINE
  8
1
 10
0.471142
 20
0.200000
 30
0.000000
 11
0.482000
 21
0.200000
 31
0.000000
  0
LINE
  8
1
 10
0.245000
 20
0.210000
 30
0.000000
 11
0.265000
 21
0.210000
 31
0.000000
  0
LINE
  8
1
 10
0.376143
 20
0.210000
 30
0.000000
 11
0.383544
 21
0.210000
 31
0.000000
  0
LINE
  8
1
 10
0.474000
 20
0.210000
 30
0.000000
 11
0.482000
 21
0.210000
 31
0.000000
  0
LINE
  8
1
 10
0.248279
 20
0.220000
 30
0.000000
 11
0.268858
 21
0.220000
 31
0.000000
  0
LINE
  8
1
 10
0.371820
 20
0.220000
 30
0.000000
 11
0.374544
 21
0.220000
 31
0.000000
  0
LINE
  8
1
 10
0.474000
 20
0.220000
 30
0.000000
 11
0.482000
 21
0.220000
 31
0.000000
  0
LINE
  8
1
 10
0.025500
 20
0.230000
 30
0.000000
 11
0.030315
 21
0.230000
 31
0.000000
  0
LINE
  8
1
 10
0.250000
 20
0.230000
 30
0.000000
 11
0.332000
 21
0.230000
 31
0.000000
  0
LINE
  8
1
 10
0.368000
 20
0.230000
 30
0.000000
 11
0.371983
 21
0.230000
 31
0.000000
  0
LINE
  8
1
 10
0.474000
 20
0.230000
 30
0.000000
 11
0.482000
 21
0.230000
 31
0.000000
  0
LINE
  8
1
 10
0.025500
 20
0.240000
 30
0.000000
 11
0.042413
 21
0.240000
 31
0.000000
  0
LINE
  8
1
 10
0.250000
 20
0.240000
 30
0.000000
 11
0.325886
 21
0.240000
 31
0.000000
  0
LINE
  8
1
 10
0.368000
 20
0.240000
 30
0.000000
 11
0.372000
 21
0.240000
 31
0.000000
  0
LINE
  8
1
 10
0.478457
 20
0.240000
 30
0.000000
 11
0.481766
 21
0.240000
 31
0.000000
  0
LINE
  8
1
 10
0.576000
 20
0.240000
 30
0.000000
 11
0.606544
 21
0.240000
 31
0.000000
  0
LINE
  8
1
 10
0.025500
 20
0.250000
 30
0.000000
 11
0.057863
 21
0.250000
 31
0.000000
  0
LINE
  8
1
 10
0.095000
 20
0.250000
 30
0.000000
 11
0.105000
 21
0.250000
 31
0.000000
  0
LINE
  8
1
 10
0.142136
 20
0.250000
 30
0.000000
 11
0.143000
 21
0.250000
 31
0.000000
  0
LINE
  8
1
 10
0.250000
 20
0.250000
 30
0.000000
 11
0.316180
 21
0.250000
 31
0.000000
  0
LINE
  8
1
 10
0.366456
 20
0.250000
 30
0.000000
 11
0.372000
 21
0.250000
 31
0.000000
  0
LINE
  8
1
 10
0.479000
 20
0.250000
 30
0.000000
 11
0.482000
 21
0.250000
 31
0.000000
  0
LINE
  8
1
 10
0.576000
 20
0.250000
 30
0.000000
 11
0.616544
 21
0.250000
 31
0.000000
  0
LINE
  8
1
 10
0.025500
 20
0.260000
 30
0.000000
 11
0.033820
 21
0.260000
 31
0.000000
  0
LINE
  8
1
 10
0.095000
 20
0.260000
 30
0.000000
 11
0.105000
 21
0.260000
 31
0.000000
  0
LINE
  8
1
 10
0.245213
 20
0.260000
 30
0.000000
 11
0.265000
 21
0.260000
 31
0.000000
  0
LINE
  8
1
 10
0.356643
 20
0.260000
 30
0.000000
 11
0.372000
 21
0.260000
 31
0.000000
  0
LINE
  8
1
 10
0.479000
 20
0.260000
 30
0.000000
 11
0.489544
 21
0.260000
 31
0.000000
  0
LINE
  8
1
 10
0.606820
 20
0.260000
 30
0.000000
 11
0.626544
 21
0.260000
 31
0.000000
  0
LINE
  8
1
 10
0.095000
 20
0.270000
 30
0.000000
 11
0.105000
 21
0.270000
 31
0.000000
  0
LINE
  8
1
 10
0.245000
 20
0.270000
 30
0.000000
 11
0.265000
 21
0.270000
 31
0.000000
  0
LINE
  8
1
 10
0.346937
 20
0.270000
 30
0.000000
 11
0.368180
 21
0.270000
 31
0.000000
  0
LINE
  8
1
 10
0.478457
 20
0.270000
 30
0.000000
 11
0.500619
 21
0.270000
 31
0.000000
  0
LINE
  8
1
 10
0.612500
 20
0.270000
 30
0.000000
 11
0.627000
 21
0.270000
 31
0.000000
  0
LINE
  8
1
 10
0.095000
 20
0.280000
 30
0.000000
 11
0.105000
 21
0.280000
 31
0.000000
  0
LINE
  8
1
 10
0.245000
 20
0.280000
 30
0.000000
 11
0.265000
 21
0.280000
 31
0.000000
  0
LINE
  8
1
 10
0.337231
 20
0.280000
 30
0.000000
 11
0.367500
 21
0.280000
 31
0.000000
  0
LINE
  8
1
 10
0.474000
 20
0.280000
 30
0.000000
 11
0.506000
 21
0.280000
 31
0.000000
  0
LINE
  8
1
 10
0.612500
 20
0.280000
 30
0.000000
 11
0.627000
 21
0.280000
 31
0.000000
  0
LINE
  8
1
 10
0.095000
 20
0.290000
 30
0.000000
 11
0.105000
 21
0.290000
 31
0.000000
  0
LINE
  8
1
 10
0.245000
 20
0.290000
 30
0.000000
 11
0.265000
 21
0.290000
 31
0.000000
  0
LINE
  8
1
 10
0.337000
 20
0.290000
 30
0.000000
 11
0.368180
 21
0.290000
 31
0.000000
  0
LINE
  8
1
 10
0.474000
 20
0.290000
 30
0.000000
 11
0.506000
 21
0.290000
 31
0.000000
  0
LINE
  8
1
 10
0.606820
 20
0.290000
 30
0.000000
 11
0.627000
 21
0.290000
 31
0.000000
  0
LINE
  8
1
 10
0.105000
 20
0.300000
 30
0.000000
 11
0.372000
 21
0.300000
 31
0.000000
  0
LINE
  8
1
 10
0.474000
 20
0.300000
 30
0.000000
 11
0.506000
 21
0.300000
 31
0.000000
  0
LINE
  8
1
 10
0.589745
 20
0.300000
 30
0.000000
 11
0.602885
 21
0.300000
 31
0.000000
  0
LINE
  8
1
 10
0.095000
 20
0.310000
 30
0.000000
 11
0.105000
 21
0.310000
 31
0.000000
  0
LINE
  8
1
 10
0.184911
 20
0.310000
 30
0.000000
 11
0.374544
 21
0.310000
 31
0.000000
  0
LINE
  8
1
 10
0.471142
 20
0.310000
 30
0.000000
 11
0.508858
 21
0.310000
 31
0.000000
  0
LINE
  8
1
 10
0.579156
 20
0.310000
 30
0.000000
 11
0.602520
 21
0.310000
 31
0.000000
  0
LINE
  8
1
 10
0.095000
 20
0.320000
 30
0.000000
 11
0.105000
 21
0.320000
 31
0.000000
  0
LINE
  8
1
 10
0.181845
 20
0.320000
 30
0.000000
 11
0.382000
 21
0.320000
 31
0.000000
  0
LINE
  8
1
 10
0.461456
 20
0.320000
 30
0.000000
 11
0.602520
 21
0.320000
 31
0.000000
  0
LINE
  8
1
 10
0.095000
 20
0.330000
 30
0.000000
 11
0.105000
 21
0.330000
 31
0.000000
  0
LINE
  8
1
 10
0.175975
 20
0.330000
 30
0.000000
 11
0.382000
 21
0.330000
 31
0.000000
  0
LINE
  8
1
 10
0.471456
 20
0.330000
 30
0.000000
 11
0.602520
 21
0.330000
 31
0.000000
  0
LINE
  8
1
 10
0.797480
 20
0.330000
 30
0.000000
 11
0.806316
 21
0.330000
 31
0.000000
  0
LINE
  8
1
 10
0.025500
 20
0.340000
 30
0.000000
 11
0.033820
 21
0.340000
 31
0.000000
  0
LINE
  8
1
 10
0.095000
 20
0.340000
 30
0.000000
 11
0.105000
 21
0.340000
 31
0.000000
  0
LINE
  8
1
 10
0.166180
 20
0.340000
 30
0.000000
 11
0.382000
 21
0.340000
 31
0.000000
  0
LINE
  8
1
 10
0.481456
 20
0.340000
 30
0.000000
 11
0.602520
 21
0.340000
 31
0.000000
  0
LINE
  8
1
 10
0.797480
 20
0.340000
 30
0.000000
 11
0.823158
 21
0.340000
 31
0.000000
  0
LINE
  8
1
 10
0.025500
 20
0.350000
 30
0.000000
 11
0.057864
 21
0.350000
 31
0.000000
  0
LINE
  8
1
 10
0.095000
 20
0.350000
 30
0.000000
 11
0.105000
 21
0.350000
 31
0.000000
  0
LINE
  8
1
 10
0.142136
 20
0.350000
 30
0.000000
 11
0.188494
 21
0.350000
 31
0.000000
  0
LINE
  8
1
 10
0.198750
 20
0.350000
 30
0.000000
 11
0.201250
 21
0.350000
 31
0.000000
  0
LINE
  8
1
 10
0.211506
 20
0.350000
 30
0.000000
 11
0.257885
 21
0.350000
 31
0.000000
  0
LINE
  8
1
 10
0.342115
 20
0.350000
 30
0.000000
 11
0.357885
 21
0.350000
 31
0.000000
  0
LINE
  8
1
 10
0.542115
 20
0.350000
 30
0.000000
 11
0.602520
 21
0.350000
 31
0.000000
  0
LINE
  8
1
 10
0.797480
 20
0.350000
 30
0.000000
 11
0.969134
 21
0.350000
 31
0.000000
  0
LINE
  8
1
 10
1.130866
 20
0.350000
 30
0.000000
 11
1.155602
 21
0.350000
 31
0.000000
  0
LINE
  8
1
 10
0.025500
 20
0.360000
 30
0.000000
 11
0.042413
 21
0.360000
 31
0.000000
  0
LINE
  8
1
 10
0.157587
 20
0.360000
 30
0.000000
 11
0.176949
 21
0.360000
 31
0.000000
  0
LINE
  8
1
 10
0.198750
 20
0.360000
 30
0.000000
 11
0.201250
 21
0.360000
 31
0.000000
  0
LINE
  8
1
 10
0.223051
 20
0.360000
 30
0.000000
 11
0.254508
 21
0.360000
 31
0.000000
  0
LINE
  8
1
 10
0.345492
 20
0.360000
 30
0.000000
 11
0.354508
 21
0.360000
 31
0.000000
  0
LINE
  8
1
 10
0.445492
 20
0.360000
 30
0.000000
 11
0.450544
 21
0.360000
 31
0.000000
  0
LINE
  8
1
 10
0.545492
 20
0.360000
 30
0.000000
 11
0.602520
 21
0.360000
 31
0.000000
  0
LINE
  8
1
 10
0.797480
 20
0.360000
 30
0.000000
 11
0.969533
 21
0.360000
 31
0.000000
  0
LINE
  8
1
 10
1.130467
 20
0.360000
 30
0.000000
 11
1.155602
 21
0.360000
 31
0.000000
  0
LINE
  8
1
 10
0.025500
 20
0.370000
 30
0.000000
 11
0.030315
 21
0.370000
 31
0.000000
  0
LINE
  8
1
 10
0.169685
 20
0.370000
 30
0.000000
 11
0.172956
 21
0.370000
 31
0.000000
  0
LINE
  8
1
 10
0.198750
 20
0.370000
 30
0.000000
 11
0.201250
 21
0.370000
 31
0.000000
  0
LINE
  8
1
 10
0.227044
 20
0.370000
 30
0.000000
 11
0.254508
 21
0.370000
 31
0.000000
  0
LINE
  8
1
 10
0.345492
 20
0.370000
 30
0.000000
 11
0.354508
 21
0.370000
 31
0.000000
  0
LINE
  8
1
 10
0.445492
 20
0.370000
 30
0.000000
 11
0.454508
 21
0.370000
 31
0.000000
  0
LINE
  8
1
 10
0.545492
 20
0.370000
 30
0.000000
 11
0.602520
 21
0.370000
 31
0.000000
  0
LINE
  8
1
 10
0.797480
 20
0.370000
 30
0.000000
 11
0.973675
 21
0.370000
 31
0.000000
  0
LINE
  8
1
 10
1.126325
 20
0.370000
 30
0.000000
 11
1.155602
 21
0.370000
 31
0.000000
  0
LINE
  8
1
 10
0.198750
 20
0.380000
 30
0.000000
 11
0.201250
 21
0.380000
 31
0.000000
  0
LINE
  8
1
 10
0.227044
 20
0.380000
 30
0.000000
 11
0.254508
 21
0.380000
 31
0.000000
  0
LINE
  8
1
 10
0.445492
 20
0.380000
 30
0.000000
 11
0.454508
 21
0.380000
 31
0.000000
  0
LINE
  8
1
 10
0.581820
 20
0.380000
 30
0.000000
 11
0.602886
 21
0.380000
 31
0.000000
  0
LINE
  8
1
 10
0.797114
 20
0.380000
 30
0.000000
 11
0.980315
 21
0.380000
 31
0.000000
  0
LINE
  8
1
 10
1.119685
 20
0.380000
 30
0.000000
 11
1.155602
 21
0.380000
 31
0.000000
  0
LINE
  8
1
 10
0.198750
 20
0.390000
 30
0.000000
 11
0.201250
 21
0.390000
 31
0.000000
  0
LINE
  8
1
 10
0.223051
 20
0.390000
 30
0.000000
 11
0.254508
 21
0.390000
 31
0.000000
  0
LINE
  8
1
 10
0.445492
 20
0.390000
 30
0.000000
 11
0.454508
 21
0.390000
 31
0.000000
  0
LINE
  8
1
 10
0.713456
 20
0.390000
 30
0.000000
 11
0.720984
 21
0.390000
 31
0.000000
  0
LINE
  8
1
 10
0.790984
 20
0.390000
 30
0.000000
 11
0.992413
 21
0.390000
 31
0.000000
  0
LINE
  8
1
 10
1.107587
 20
0.390000
 30
0.000000
 11
1.155602
 21
0.390000
 31
0.000000
  0
LINE
  8
1
 10
0.180866
 20
0.400000
 30
0.000000
 11
0.188495
 21
0.400000
 31
0.000000
  0
LINE
  8
1
 10
0.198750
 20
0.400000
 30
0.000000
 11
0.201250
 21
0.400000
 31
0.000000
  0
LINE
  8
1
 10
0.211505
 20
0.400000
 30
0.000000
 11
0.254508
 21
0.400000
 31
0.000000
  0
LINE
  8
1
 10
0.445492
 20
0.400000
 30
0.000000
 11
0.454508
 21
0.400000
 31
0.000000
  0
LINE
  8
1
 10
0.703456
 20
0.400000
 30
0.000000
 11
0.720984
 21
0.400000
 31
0.000000
  0
LINE
  8
1
 10
0.790984
 20
0.400000
 30
0.000000
 11
1.155602
 21
0.400000
 31
0.000000
  0
LINE
  8
1
 10
0.180467
 20
0.410000
 30
0.000000
 11
0.254508
 21
0.410000
 31
0.000000
  0
LINE
  8
1
 10
0.345492
 20
0.410000
 30
0.000000
 11
0.354508
 21
0.410000
 31
0.000000
  0
LINE
  8
1
 10
0.445492
 20
0.410000
 30
0.000000
 11
0.454508
 21
0.410000
 31
0.000000
  0
LINE
  8
1
 10
0.545492
 20
0.410000
 30
0.000000
 11
0.548180
 21
0.410000
 31
0.000000
  0
LINE
  8
1
 10
0.693456
 20
0.410000
 30
0.000000
 11
0.714854
 21
0.410000
 31
0.000000
  0
LINE
  8
1
 10
0.797115
 20
0.410000
 30
0.000000
 11
0.992413
 21
0.410000
 31
0.000000
  0
LINE
  8
1
 10
1.107587
 20
0.410000
 30
0.000000
 11
1.155602
 21
0.410000
 31
0.000000
  0
LINE
  8
1
 10
0.176325
 20
0.420000
 30
0.000000
 11
0.254508
 21
0.420000
 31
0.000000
  0
LINE
  8
1
 10
0.345492
 20
0.420000
 30
0.000000
 11
0.354508
 21
0.420000
 31
0.000000
  0
LINE
  8
1
 10
0.445492
 20
0.420000
 30
0.000000
 11
0.454508
 21
0.420000
 31
0.000000
  0
LINE
  8
1
 10
0.545492
 20
0.420000
 30
0.000000
 11
0.558180
 21
0.420000
 31
0.000000
  0
LINE
  8
1
 10
0.581820
 20
0.420000
 30
0.000000
 11
0.597520
 21
0.420000
 31
0.000000
  0
LINE
  8
1
 10
0.690512
 20
0.420000
 30
0.000000
 11
0.714488
 21
0.420000
 31
0.000000
  0
LINE
  8
1
 10
1.119685
 20
0.420000
 30
0.000000
 11
1.155602
 21
0.420000
 31
0.000000
  0
LINE
  8
1
 10
0.169685
 20
0.430000
 30
0.000000
 11
0.259854
 21
0.430000
 31
0.000000
  0
LINE
  8
1
 10
0.340146
 20
0.430000
 30
0.000000
 11
0.359854
 21
0.430000
 31
0.000000
  0
LINE
  8
1
 10
0.440146
 20
0.430000
 30
0.000000
 11
0.459854
 21
0.430000
 31
0.000000
  0
LINE
  8
1
 10
0.540146
 20
0.430000
 30
0.000000
 11
0.597520
 21
0.430000
 31
0.000000
  0
LINE
  8
1
 10
0.690512
 20
0.430000
 30
0.000000
 11
0.714488
 21
0.430000
 31
0.000000
  0
LINE
  8
1
 10
1.126325
 20
0.430000
 30
0.000000
 11
1.155602
 21
0.430000
 31
0.000000
  0
LINE
  8
1
 10
0.175456
 20
0.440000
 30
0.000000
 11
0.597520
 21
0.440000
 31
0.000000
  0
LINE
  8
1
 10
0.690512
 20
0.440000
 30
0.000000
 11
0.714488
 21
0.440000
 31
0.000000
  0
LINE
  8
1
 10
1.130467
 20
0.440000
 30
0.000000
 11
1.155602
 21
0.440000
 31
0.000000
  0
LINE
  8
1
 10
0.095511
 20
0.450000
 30
0.000000
 11
0.134544
 21
0.450000
 31
0.000000
  0
LINE
  8
1
 10
0.185456
 20
0.450000
 30
0.000000
 11
0.639015
 21
0.450000
 31
0.000000
  0
LINE
  8
1
 10
0.649016
 20
0.450000
 30
0.000000
 11
0.714488
 21
0.450000
 31
0.000000
  0
LINE
  8
1
 10
1.130866
 20
0.450000
 30
0.000000
 11
1.155602
 21
0.450000
 31
0.000000
  0
LINE
  8
1
 10
0.113744
 20
0.460000
 30
0.000000
 11
0.144544
 21
0.460000
 31
0.000000
  0
LINE
  8
1
 10
0.195456
 20
0.460000
 30
0.000000
 11
0.259854
 21
0.460000
 31
0.000000
  0
LINE
  8
1
 10
0.340146
 20
0.460000
 30
0.000000
 11
0.352783
 21
0.460000
 31
0.000000
  0
LINE
  8
1
 10
0.395000
 20
0.460000
 30
0.000000
 11
0.405000
 21
0.460000
 31
0.000000
  0
LINE
  8
1
 10
0.447217
 20
0.460000
 30
0.000000
 11
0.452783
 21
0.460000
 31
0.000000
  0
LINE
  8
1
 10
0.495000
 20
0.460000
 30
0.000000
 11
0.505000
 21
0.460000
 31
0.000000
  0
LINE
  8
1
 10
0.547217
 20
0.460000
 30
0.000000
 11
0.597520
 21
0.460000
 31
0.000000
  0
LINE
  8
1
 10
0.639016
 20
0.460000
 30
0.000000
 11
0.649015
 21
0.460000
 31
0.000000
  0
LINE
  8
1
 10
0.690512
 20
0.460000
 30
0.000000
 11
0.714488
 21
0.460000
 31
0.000000
  0
LINE
  8
1
 10
1.130467
 20
0.460000
 30
0.000000
 11
1.155602
 21
0.460000
 31
0.000000
  0
LINE
  8
1
 10
0.123744
 20
0.470000
 30
0.000000
 11
0.154544
 21
0.470000
 31
0.000000
  0
LINE
  8
1
 10
0.345492
 20
0.470000
 30
0.000000
 11
0.349508
 21
0.470000
 31
0.000000
  0
LINE
  8
1
 10
0.395000
 20
0.470000
 30
0.000000
 11
0.405000
 21
0.470000
 31
0.000000
  0
LINE
  8
1
 10
0.495000
 20
0.470000
 30
0.000000
 11
0.505000
 21
0.470000
 31
0.000000
  0
LINE
  8
1
 10
0.550492
 20
0.470000
 30
0.000000
 11
0.597520
 21
0.470000
 31
0.000000
  0
LINE
  8
1
 10
0.639016
 20
0.470000
 30
0.000000
 11
0.649015
 21
0.470000
 31
0.000000
  0
LINE
  8
1
 10
0.690512
 20
0.470000
 30
0.000000
 11
0.714488
 21
0.470000
 31
0.000000
  0
LINE
  8
1
 10
1.126325
 20
0.470000
 30
0.000000
 11
1.155602
 21
0.470000
 31
0.000000
  0
LINE
  8
1
 10
0.133744
 20
0.480000
 30
0.000000
 11
0.164544
 21
0.480000
 31
0.000000
  0
LINE
  8
1
 10
0.345492
 20
0.480000
 30
0.000000
 11
0.349508
 21
0.480000
 31
0.000000
  0
LINE
  8
1
 10
0.395000
 20
0.480000
 30
0.000000
 11
0.405000
 21
0.480000
 31
0.000000
  0
LINE
  8
1
 10
0.495000
 20
0.480000
 30
0.000000
 11
0.505000
 21
0.480000
 31
0.000000
  0
LINE
  8
1
 10
0.550492
 20
0.480000
 30
0.000000
 11
0.597520
 21
0.480000
 31
0.000000
  0
LINE
  8
1
 10
0.639016
 20
0.480000
 30
0.000000
 11
0.649015
 21
0.480000
 31
0.000000
  0
LINE
  8
1
 10
0.690512
 20
0.480000
 30
0.000000
 11
0.714488
 21
0.480000
 31
0.000000
  0
LINE
  8
1
 10
1.119685
 20
0.480000
 30
0.000000
 11
1.155602
 21
0.480000
 31
0.000000
  0
LINE
  8
1
 10
0.138141
 20
0.490000
 30
0.000000
 11
0.174544
 21
0.490000
 31
0.000000
  0
LINE
  8
1
 10
0.345492
 20
0.490000
 30
0.000000
 11
0.349508
 21
0.490000
 31
0.000000
  0
LINE
  8
1
 10
0.395000
 20
0.490000
 30
0.000000
 11
0.405000
 21
0.490000
 31
0.000000
  0
LINE
  8
1
 10
0.495000
 20
0.490000
 30
0.000000
 11
0.505000
 21
0.490000
 31
0.000000
  0
LINE
  8
1
 10
0.550492
 20
0.490000
 30
0.000000
 11
0.598199
 21
0.490000
 31
0.000000
  0
LINE
  8
1
 10
0.639016
 20
0.490000
 30
0.000000
 11
0.649015
 21
0.490000
 31
0.000000
  0
LINE
  8
1
 10
0.689833
 20
0.490000
 30
0.000000
 11
0.714854
 21
0.490000
 31
0.000000
  0
LINE
  8
1
 10
0.797114
 20
0.490000
 30
0.000000
 11
0.992413
 21
0.490000
 31
0.000000
  0
LINE
  8
1
 10
1.107587
 20
0.490000
 30
0.000000
 11
1.155602
 21
0.490000
 31
0.000000
  0
LINE
  8
1
 10
0.142283
 20
0.500000
 30
0.000000
 11
0.184544
 21
0.500000
 31
0.000000
  0
LINE
  8
1
 10
0.345492
 20
0.500000
 30
0.000000
 11
0.395000
 21
0.500000
 31
0.000000
  0
LINE
  8
1
 10
0.405000
 20
0.500000
 30
0.000000
 11
0.495000
 21
0.500000
 31
0.000000
  0
LINE
  8
1
 10
0.505000
 20
0.500000
 30
0.000000
 11
0.608709
 21
0.500000
 31
0.000000
  0
LINE
  8
1
 10
0.639016
 20
0.500000
 30
0.000000
 11
0.649015
 21
0.500000
 31
0.000000
  0
LINE
  8
1
 10
0.679323
 20
0.500000
 30
0.000000
 11
1.155602
 21
0.500000
 31
0.000000
  0
LINE
  8
1
 10
0.146425
 20
0.510000
 30
0.000000
 11
0.254508
 21
0.510000
 31
0.000000
  0
LINE
  8
1
 10
0.345492
 20
0.510000
 30
0.000000
 11
0.349508
 21
0.510000
 31
0.000000
  0
LINE
  8
1
 10
0.395000
 20
0.510000
 30
0.000000
 11
0.405000
 21
0.510000
 31
0.000000
  0
LINE
  8
1
 10
0.495000
 20
0.510000
 30
0.000000
 11
0.505000
 21
0.510000
 31
0.000000
  0
LINE
  8
1
 10
0.550492
 20
0.510000
 30
0.000000
 11
1.155602
 21
0.510000
 31
0.000000
  0
LINE
  8
1
 10
0.147500
 20
0.520000
 30
0.000000
 11
0.254508
 21
0.520000
 31
0.000000
  0
LINE
  8
1
 10
0.345492
 20
0.520000
 30
0.000000
 11
0.349508
 21
0.520000
 31
0.000000
  0
LINE
  8
1
 10
0.395000
 20
0.520000
 30
0.000000
 11
0.405000
 21
0.520000
 31
0.000000
  0
LINE
  8
1
 10
0.495000
 20
0.520000
 30
0.000000
 11
0.505000
 21
0.520000
 31
0.000000
  0
LINE
  8
1
 10
0.550492
 20
0.520000
 30
0.000000
 11
1.155602
 21
0.520000
 31
0.000000
  0
LINE
  8
1
 10
0.147500
 20
0.530000
 30
0.000000
 11
0.254508
 21
0.530000
 31
0.000000
  0
LINE
  8
1
 10
0.345492
 20
0.530000
 30
0.000000
 11
0.349508
 21
0.530000
 31
0.000000
  0
LINE
  8
1
 10
0.395000
 20
0.530000
 30
0.000000
 11
0.405000
 21
0.530000
 31
0.000000
  0
LINE
  8
1
 10
0.495000
 20
0.530000
 30
0.000000
 11
0.505000
 21
0.530000
 31
0.000000
  0
LINE
  8
1
 10
0.550492
 20
0.530000
 30
0.000000
 11
1.155602
 21
0.530000
 31
0.000000
  0
LINE
  8
1
 10
0.147500
 20
0.540000
 30
0.000000
 11
0.257885
 21
0.540000
 31
0.000000
  0
LINE
  8
1
 10
0.342114
 20
0.540000
 30
0.000000
 11
0.351529
 21
0.540000
 31
0.000000
  0
LINE
  8
1
 10
0.395000
 20
0.540000
 30
0.000000
 11
0.405000
 21
0.540000
 31
0.000000
  0
LINE
  8
1
 10
0.448471
 20
0.540000
 30
0.000000
 11
0.451529
 21
0.540000
 31
0.000000
  0
LINE
  8
1
 10
0.495000
 20
0.540000
 30
0.000000
 11
0.505000
 21
0.540000
 31
0.000000
  0
LINE
  8
1
 10
0.548471
 20
0.540000
 30
0.000000
 11
1.155602
 21
0.540000
 31
0.000000
  0
LINE
  8
1
 10
0.146425
 20
0.550000
 30
0.000000
 11
1.155602
 21
0.550000
 31
0.000000
  0
LINE
  8
1
 10
0.142283
 20
0.560000
 30
0.000000
 11
1.155602
 21
0.560000
 31
0.000000
  0
LINE
  8
16
 10
0.184624
 20
0.288190
 30
0.000000
 11
0.185703
 21
0.295000
 31
0.000000
  0
LINE
  8
16
 10
0.185703
 20
0.295000
 30
0.000000
 11
0.105000
 21
0.295000
 31
0.000000
  0
LINE
  8
16
 10
0.105000
 20
0.295000
 30
0.000000
 11
0.105000
 21
0.305000
 31
0.000000
  0
LINE
  8
16
 10
0.105000
 20
0.305000
 30
0.000000
 11
0.185703
 21
0.305000
 31
0.000000
  0
LINE
  8
16
 10
0.185703
 20
0.305000
 30
0.000000
 11
0.184624
 21
0.311810
 31
0.000000
  0
LINE
  8
16
 10
0.184624
 20
0.311810
 30
0.000000
 11
0.182171
 21
0.319359
 31
0.000000
  0
LINE
  8
16
 10
0.182171
 20
0.319359
 30
0.000000
 11
0.178567
 21
0.326433
 31
0.000000
  0
LINE
  8
16
 10
0.178567
 20
0.326433
 30
0.000000
 11
0.173901
 21
0.332855
 31
0.000000
  0
LINE
  8
16
 10
0.173901
 20
0.332855
 30
0.000000
 11
0.168288
 21
0.338468
 31
0.000000
  0
LINE
  8
16
 10
0.168288
 20
0.338468
 30
0.000000
 11
0.161866
 21
0.343134
 31
0.000000
  0
LINE
  8
16
 10
0.161866
 20
0.343134
 30
0.000000
 11
0.154793
 21
0.346738
 31
0.000000
  0
LINE
  8
16
 10
0.154793
 20
0.346738
 30
0.000000
 11
0.147243
 21
0.349191
 31
0.000000
  0
LINE
  8
16
 10
0.147243
 20
0.349191
 30
0.000000
 11
0.139402
 21
0.350433
 31
0.000000
  0
LINE
  8
16
 10
0.139402
 20
0.350433
 30
0.000000
 11
0.105000
 21
0.350433
 31
0.000000
  0
LINE
  8
16
 10
0.105000
 20
0.350433
 30
0.000000
 11
0.105000
 21
0.305000
 31
0.000000
  0
LINE
  8
16
 10
0.105000
 20
0.305000
 30
0.000000
 11
0.095000
 21
0.305000
 31
0.000000
  0
LINE
  8
16
 10
0.095000
 20
0.305000
 30
0.000000
 11
0.095000
 21
0.350433
 31
0.000000
  0
LINE
  8
16
 10
0.095000
 20
0.350433
 30
0.000000
 11
0.060598
 21
0.350433
 31
0.000000
  0
LINE
  8
16
 10
0.060598
 20
0.350433
 30
0.000000
 11
0.052757
 21
0.349191
 31
0.000000
  0
LINE
  8
16
 10
0.052757
 20
0.349191
 30
0.000000
 11
0.045207
 21
0.346738
 31
0.000000
  0
LINE
  8
16
 10
0.045207
 20
0.346738
 30
0.000000
 11
0.038134
 21
0.343134
 31
0.000000
  0
LINE
  8
16
 10
0.038134
 20
0.343134
 30
0.000000
 11
0.031712
 21
0.338468
 31
0.000000
  0
LINE
  8
16
 10
0.031712
 20
0.338468
 30
0.000000
 11
0.026099
 21
0.332855
 31
0.000000
  0
LINE
  8
16
 10
0.026099
 20
0.332855
 30
0.000000
 11
0.025500
 21
0.332031
 31
0.000000
  0
LINE
  8
16
 10
0.025500
 20
0.332031
 30
0.000000
 11
0.025500
 21
0.375594
 31
0.000000
  0
LINE
  8
16
 10
0.025500
 20
0.375594
 30
0.000000
 11
0.026051
 21
0.374264
 31
0.000000
  0
LINE
  8
16
 10
0.026051
 20
0.374264
 30
0.000000
 11
0.038831
 21
0.361484
 31
0.000000
  0
LINE
  8
16
 10
0.038831
 20
0.361484
 30
0.000000
 11
0.055530
 21
0.354567
 31
0.000000
  0
LINE
  8
16
 10
0.055530
 20
0.354567
 30
0.000000
 11
0.144470
 21
0.354567
 31
0.000000
  0
LINE
  8
16
 10
0.144470
 20
0.354567
 30
0.000000
 11
0.161169
 21
0.361484
 31
0.000000
  0
LINE
  8
16
 10
0.161169
 20
0.361484
 30
0.000000
 11
0.173949
 21
0.374264
 31
0.000000
  0
LINE
  8
16
 10
0.173949
 20
0.374264
 30
0.000000
 11
0.180866
 21
0.390963
 31
0.000000
  0
LINE
  8
16
 10
0.180866
 20
0.390963
 30
0.000000
 11
0.180866
 21
0.409037
 31
0.000000
  0
LINE
  8
16
 10
0.180866
 20
0.409037
 30
0.000000
 11
0.173949
 21
0.425736
 31
0.000000
  0
LINE
  8
16
 10
0.173949
 20
0.425736
 30
0.000000
 11
0.161169
 21
0.438516
 31
0.000000
  0
LINE
  8
16
 10
0.161169
 20
0.438516
 30
0.000000
 11
0.144470
 21
0.445433
 31
0.000000
  0
LINE
  8
16
 10
0.144470
 20
0.445433
 30
0.000000
 11
0.084485
 21
0.445433
 31
0.000000
  0
LINE
  8
16
 10
0.084485
 20
0.445433
 30
0.000000
 11
0.109565
 21
0.455821
 31
0.000000
  0
LINE
  8
16
 10
0.109565
 20
0.455821
 30
0.000000
 11
0.134179
 21
0.480435
 31
0.000000
  0
LINE
  8
16
 10
0.134179
 20
0.480435
 30
0.000000
 11
0.147500
 21
0.512595
 31
0.000000
  0
LINE
  8
16
 10
0.147500
 20
0.512595
 30
0.000000
 11
0.147500
 21
0.547405
 31
0.000000
  0
LINE
  8
16
 10
0.147500
 20
0.547405
 30
0.000000
 11
0.140190
 21
0.565051
 31
0.000000
  0
LINE
  8
16
 10
0.140190
 20
0.565051
 30
0.000000
 11
1.155602
 21
0.565051
 31
0.000000
  0
LINE
  8
16
 10
1.155602
 20
0.565051
 30
0.000000
 11
1.155602
 21
0.139962
 31
0.000000
  0
LINE
  8
16
 10
1.155602
 20
0.139962
 30
0.000000
 11
1.137405
 21
0.147500
 31
0.000000
  0
LINE
  8
16
 10
1.137405
 20
0.147500
 30
0.000000
 11
1.102595
 21
0.147500
 31
0.000000
  0
LINE
  8
16
 10
1.102595
 20
0.147500
 30
0.000000
 11
1.070435
 21
0.134179
 31
0.000000
  0
LINE
  8
16
 10
1.070435
 20
0.134179
 30
0.000000
 11
1.045821
 21
0.109565
 31
0.000000
  0
LINE
  8
16
 10
1.045821
 20
0.109565
 30
0.000000
 11
1.033402
 21
0.079582
 31
0.000000
  0
LINE
  8
16
 10
1.033402
 20
0.079582
 30
0.000000
 11
1.032970
 21
0.080014
 31
0.000000
  0
LINE
  8
16
 10
1.032970
 20
0.080014
 30
0.000000
 11
1.004614
 21
0.080014
 31
0.000000
  0
LINE
  8
16
 10
1.004614
 20
0.080014
 30
0.000000
 11
1.004246
 21
0.079646
 31
0.000000
  0
LINE
  8
16
 10
1.004246
 20
0.079646
 30
0.000000
 11
1.003879
 21
0.080014
 31
0.000000
  0
LINE
  8
16
 10
1.003879
 20
0.080014
 30
0.000000
 11
0.986198
 21
0.080014
 31
0.000000
  0
LINE
  8
16
 10
0.986198
 20
0.080014
 30
0.000000
 11
0.985831
 21
0.079646
 31
0.000000
  0
LINE
  8
16
 10
0.985831
 20
0.079646
 30
0.000000
 11
0.985463
 21
0.080014
 31
0.000000
  0
LINE
  8
16
 10
0.985463
 20
0.080014
 30
0.000000
 11
0.975522
 21
0.080014
 31
0.000000
  0
LINE
  8
16
 10
0.975522
 20
0.080014
 30
0.000000
 11
0.971957
 21
0.076448
 31
0.000000
  0
LINE
  8
16
 10
0.971957
 20
0.076448
 30
0.000000
 11
0.968493
 21
0.072984
 31
0.000000
  0
LINE
  8
16
 10
0.968493
 20
0.072984
 30
0.000000
 11
0.968493
 21
0.050014
 31
0.000000
  0
LINE
  8
16
 10
0.968493
 20
0.050014
 30
0.000000
 11
0.966337
 21
0.050014
 31
0.000000
  0
LINE
  8
16
 10
0.966337
 20
0.050014
 30
0.000000
 11
0.966337
 21
0.056970
 31
0.000000
  0
LINE
  8
16
 10
0.966337
 20
0.056970
 30
0.000000
 11
0.964635
 21
0.058672
 31
0.000000
  0
LINE
  8
16
 10
0.964635
 20
0.058672
 30
0.000000
 11
0.966337
 21
0.060374
 31
0.000000
  0
LINE
  8
16
 10
0.966337
 20
0.060374
 30
0.000000
 11
0.966337
 21
0.070315
 31
0.000000
  0
LINE
  8
16
 10
0.966337
 20
0.070315
 30
0.000000
 11
0.956639
 21
0.080014
 31
0.000000
  0
LINE
  8
16
 10
0.956639
 20
0.080014
 30
0.000000
 11
0.941360
 21
0.080014
 31
0.000000
  0
LINE
  8
16
 10
0.941360
 20
0.080014
 30
0.000000
 11
0.939791
 21
0.078445
 31
0.000000
  0
LINE
  8
16
 10
0.939791
 20
0.078445
 30
0.000000
 11
0.938223
 21
0.080014
 31
0.000000
  0
LINE
  8
16
 10
0.938223
 20
0.080014
 30
0.000000
 11
0.922944
 21
0.080014
 31
0.000000
  0
LINE
  8
16
 10
0.922944
 20
0.080014
 30
0.000000
 11
0.920275
 21
0.077345
 31
0.000000
  0
LINE
  8
16
 10
0.920275
 20
0.077345
 30
0.000000
 11
0.920041
 21
0.077111
 31
0.000000
  0
LINE
  8
16
 10
0.920041
 20
0.077111
 30
0.000000
 11
0.917138
 21
0.080014
 31
0.000000
  0
LINE
  8
16
 10
0.917138
 20
0.080014
 30
0.000000
 11
0.907197
 21
0.080014
 31
0.000000
  0
LINE
  8
16
 10
0.907197
 20
0.080014
 30
0.000000
 11
0.904294
 21
0.077111
 31
0.000000
  0
LINE
  8
16
 10
0.904294
 20
0.077111
 30
0.000000
 11
0.901391
 21
0.080014
 31
0.000000
  0
LINE
  8
16
 10
0.901391
 20
0.080014
 30
0.000000
 11
0.886113
 21
0.080014
 31
0.000000
  0
LINE
  8
16
 10
0.886113
 20
0.080014
 30
0.000000
 11
0.884544
 21
0.078445
 31
0.000000
  0
LINE
  8
16
 10
0.884544
 20
0.078445
 30
0.000000
 11
0.882976
 21
0.080014
 31
0.000000
  0
LINE
  8
16
 10
0.882976
 20
0.080014
 30
0.000000
 11
0.867697
 21
0.080014
 31
0.000000
  0
LINE
  8
16
 10
0.867697
 20
0.080014
 30
0.000000
 11
0.865028
 21
0.077345
 31
0.000000
  0
LINE
  8
16
 10
0.865028
 20
0.077345
 30
0.000000
 11
0.863460
 21
0.075776
 31
0.000000
  0
LINE
  8
16
 10
0.863460
 20
0.075776
 30
0.000000
 11
0.859222
 21
0.080014
 31
0.000000
  0
LINE
  8
16
 10
0.859222
 20
0.080014
 30
0.000000
 11
0.849281
 21
0.080014
 31
0.000000
  0
LINE
  8
16
 10
0.849281
 20
0.080014
 30
0.000000
 11
0.846378
 21
0.077111
 31
0.000000
  0
LINE
  8
16
 10
0.846378
 20
0.077111
 30
0.000000
 11
0.843476
 21
0.080014
 31
0.000000
  0
LINE
  8
16
 10
0.843476
 20
0.080014
 30
0.000000
 11
0.833534
 21
0.080014
 31
0.000000
  0
LINE
  8
16
 10
0.833534
 20
0.080014
 30
0.000000
 11
0.831966
 21
0.078445
 31
0.000000
  0
LINE
  8
16
 10
0.831966
 20
0.078445
 30
0.000000
 11
0.830398
 21
0.080014
 31
0.000000
  0
LINE
  8
16
 10
0.830398
 20
0.080014
 30
0.000000
 11
0.809781
 21
0.080014
 31
0.000000
  0
LINE
  8
16
 10
0.809781
 20
0.080014
 30
0.000000
 11
0.802751
 21
0.072984
 31
0.000000
  0
LINE
  8
16
 10
0.802751
 20
0.072984
 30
0.000000
 11
0.802751
 21
0.060374
 31
0.000000
  0
LINE
  8
16
 10
0.802751
 20
0.060374
 30
0.000000
 11
0.813427
 21
0.049698
 31
0.000000
  0
LINE
  8
16
 10
0.813427
 20
0.049698
 30
0.000000
 11
0.813427
 21
0.047029
 31
0.000000
  0
LINE
  8
16
 10
0.813427
 20
0.047029
 30
0.000000
 11
0.820456
 21
0.040000
 31
0.000000
  0
LINE
  8
16
 10
0.820456
 20
0.040000
 30
0.000000
 11
0.848813
 21
0.040000
 31
0.000000
  0
LINE
  8
16
 10
0.848813
 20
0.040000
 30
0.000000
 11
0.849047
 21
0.040234
 31
0.000000
  0
LINE
  8
16
 10
0.849047
 20
0.040234
 30
0.000000
 11
0.849281
 21
0.040000
 31
0.000000
  0
LINE
  8
16
 10
0.849281
 20
0.040000
 30
0.000000
 11
0.859222
 21
0.040000
 31
0.000000
  0
LINE
  8
16
 10
0.859222
 20
0.040000
 30
0.000000
 11
0.863460
 21
0.044237
 31
0.000000
  0
LINE
  8
16
 10
0.863460
 20
0.044237
 30
0.000000
 11
0.865759
 21
0.041938
 31
0.000000
  0
LINE
  8
16
 10
0.865759
 20
0.041938
 30
0.000000
 11
0.864137
 21
0.040315
 31
0.000000
  0
LINE
  8
16
 10
0.864137
 20
0.040315
 30
0.000000
 11
0.864137
 21
0.025500
 31
0.000000
  0
LINE
  8
16
 10
0.864137
 20
0.025500
 30
0.000000
 11
0.025500
 21
0.025500
 31
0.000000
  0
LINE
  8
16
 10
0.025500
 20
0.025500
 30
0.000000
 11
0.025500
 21
0.175594
 31
0.000000
  0
LINE
  8
16
 10
0.025500
 20
0.175594
 30
0.000000
 11
0.026051
 21
0.174264
 31
0.000000
  0
LINE
  8
16
 10
0.026051
 20
0.174264
 30
0.000000
 11
0.038831
 21
0.161484
 31
0.000000
  0
LINE
  8
16
 10
0.038831
 20
0.161484
 30
0.000000
 11
0.055530
 21
0.154567
 31
0.000000
  0
LINE
  8
16
 10
0.055530
 20
0.154567
 30
0.000000
 11
0.144470
 21
0.154567
 31
0.000000
  0
LINE
  8
16
 10
0.144470
 20
0.154567
 30
0.000000
 11
0.161169
 21
0.161484
 31
0.000000
  0
LINE
  8
16
 10
0.161169
 20
0.161484
 30
0.000000
 11
0.173949
 21
0.174264
 31
0.000000
  0
LINE
  8
16
 10
0.173949
 20
0.174264
 30
0.000000
 11
0.180866
 21
0.190963
 31
0.000000
  0
LINE
  8
16
 10
0.180866
 20
0.190963
 30
0.000000
 11
0.180866
 21
0.209037
 31
0.000000
  0
LINE
  8
16
 10
0.180866
 20
0.209037
 30
0.000000
 11
0.173949
 21
0.225736
 31
0.000000
  0
LINE
  8
16
 10
0.173949
 20
0.225736
 30
0.000000
 11
0.161169
 21
0.238516
 31
0.000000
  0
LINE
  8
16
 10
0.161169
 20
0.238516
 30
0.000000
 11
0.144470
 21
0.245433
 31
0.000000
  0
LINE
  8
16
 10
0.144470
 20
0.245433
 30
0.000000
 11
0.055530
 21
0.245433
 31
0.000000
  0
LINE
  8
16
 10
0.055530
 20
0.245433
 30
0.000000
 11
0.038831
 21
0.238516
 31
0.000000
  0
LINE
  8
16
 10
0.038831
 20
0.238516
 30
0.000000
 11
0.026051
 21
0.225736
 31
0.000000
  0
LINE
  8
16
 10
0.026051
 20
0.225736
 30
0.000000
 11
0.025500
 21
0.224406
 31
0.000000
  0
LINE
  8
16
 10
0.025500
 20
0.224406
 30
0.000000
 11
0.025500
 21
0.267969
 31
0.000000
  0
LINE
  8
16
 10
0.025500
 20
0.267969
 30
0.000000
 11
0.026099
 21
0.267145
 31
0.000000
  0
LINE
  8
16
 10
0.026099
 20
0.267145
 30
0.000000
 11
0.031712
 21
0.261532
 31
0.000000
  0
LINE
  8
16
 10
0.031712
 20
0.261532
 30
0.000000
 11
0.038134
 21
0.256866
 31
0.000000
  0
LINE
  8
16
 10
0.038134
 20
0.256866
 30
0.000000
 11
0.045207
 21
0.253262
 31
0.000000
  0
LINE
  8
16
 10
0.045207
 20
0.253262
 30
0.000000
 11
0.052757
 21
0.250809
 31
0.000000
  0
LINE
  8
16
 10
0.052757
 20
0.250809
 30
0.000000
 11
0.060598
 21
0.249567
 31
0.000000
  0
LINE
  8
16
 10
0.060598
 20
0.249567
 30
0.000000
 11
0.095000
 21
0.249567
 31
0.000000
  0
LINE
  8
16
 10
0.095000
 20
0.249567
 30
0.000000
 11
0.095000
 21
0.294999
 31
0.000000
  0
LINE
  8
16
 10
0.095000
 20
0.294999
 30
0.000000
 11
0.105000
 21
0.294999
 31
0.000000
  0
LINE
  8
16
 10
0.105000
 20
0.294999
 30
0.000000
 11
0.105000
 21
0.249567
 31
0.000000
  0
LINE
  8
16
 10
0.105000
 20
0.249567
 30
0.000000
 11
0.139402
 21
0.249567
 31
0.000000
  0
LINE
  8
16
 10
0.139402
 20
0.249567
 30
0.000000
 11
0.147243
 21
0.250809
 31
0.000000
  0
LINE
  8
16
 10
0.147243
 20
0.250809
 30
0.000000
 11
0.154793
 21
0.253262
 31
0.000000
  0
LINE
  8
16
 10
0.154793
 20
0.253262
 30
0.000000
 11
0.161866
 21
0.256866
 31
0.000000
  0
LINE
  8
16
 10
0.161866
 20
0.256866
 30
0.000000
 11
0.168288
 21
0.261532
 31
0.000000
  0
LINE
  8
16
 10
0.168288
 20
0.261532
 30
0.000000
 11
0.173901
 21
0.267145
 31
0.000000
  0
LINE
  8
16
 10
0.173901
 20
0.267145
 30
0.000000
 11
0.178567
 21
0.273567
 31
0.000000
  0
LINE
  8
16
 10
0.178567
 20
0.273567
 30
0.000000
 11
0.182171
 21
0.280640
 31
0.000000
  0
LINE
  8
16
 10
0.182171
 20
0.280640
 30
0.000000
 11
0.184624
 21
0.288190
 31
0.000000
  0
LINE
  8
16
 10
0.669672
 20
0.089826
 30
0.000000
 11
0.653766
 21
0.105731
 31
0.000000
  0
LINE
  8
16
 10
0.653766
 20
0.105731
 30
0.000000
 11
0.643920
 21
0.115577
 31
0.000000
  0
LINE
  8
16
 10
0.643920
 20
0.115577
 30
0.000000
 11
0.631056
 21
0.120905
 31
0.000000
  0
LINE
  8
16
 10
0.631056
 20
0.120905
 30
0.000000
 11
0.488592
 21
0.120905
 31
0.000000
  0
LINE
  8
16
 10
0.488592
 20
0.120905
 30
0.000000
 11
0.485000
 21
0.124497
 31
0.000000
  0
LINE
  8
16
 10
0.485000
 20
0.124497
 30
0.000000
 11
0.485000
 21
0.132520
 31
0.000000
  0
LINE
  8
16
 10
0.485000
 20
0.132520
 30
0.000000
 11
0.496347
 21
0.132520
 31
0.000000
  0
LINE
  8
16
 10
0.496347
 20
0.132520
 30
0.000000
 11
0.502205
 21
0.138377
 31
0.000000
  0
LINE
  8
16
 10
0.502205
 20
0.138377
 30
0.000000
 11
0.502205
 21
0.461622
 31
0.000000
  0
LINE
  8
16
 10
0.502205
 20
0.461622
 30
0.000000
 11
0.496347
 21
0.467480
 31
0.000000
  0
LINE
  8
16
 10
0.496347
 20
0.467480
 30
0.000000
 11
0.401448
 21
0.467480
 31
0.000000
  0
LINE
  8
16
 10
0.401448
 20
0.467480
 30
0.000000
 11
0.395591
 21
0.461622
 31
0.000000
  0
LINE
  8
16
 10
0.395591
 20
0.461622
 30
0.000000
 11
0.395591
 21
0.341535
 31
0.000000
  0
LINE
  8
16
 10
0.395591
 20
0.341535
 30
0.000000
 11
0.310747
 21
0.341535
 31
0.000000
  0
LINE
  8
16
 10
0.310747
 20
0.341535
 30
0.000000
 11
0.311064
 21
0.342084
 31
0.000000
  0
LINE
  8
16
 10
0.311064
 20
0.342084
 30
0.000000
 11
0.312086
 21
0.345899
 31
0.000000
  0
LINE
  8
16
 10
0.312086
 20
0.345899
 30
0.000000
 11
0.312086
 21
0.368465
 31
0.000000
  0
LINE
  8
16
 10
0.312086
 20
0.368465
 30
0.000000
 11
0.272559
 21
0.368465
 31
0.000000
  0
LINE
  8
16
 10
0.272559
 20
0.368465
 30
0.000000
 11
0.272559
 21
0.378464
 31
0.000000
  0
LINE
  8
16
 10
0.272559
 20
0.378464
 30
0.000000
 11
0.312086
 21
0.378464
 31
0.000000
  0
LINE
  8
16
 10
0.312086
 20
0.378464
 30
0.000000
 11
0.312086
 21
0.401030
 31
0.000000
  0
LINE
  8
16
 10
0.312086
 20
0.401030
 30
0.000000
 11
0.311064
 21
0.404845
 31
0.000000
  0
LINE
  8
16
 10
0.311064
 20
0.404845
 30
0.000000
 11
0.309089
 21
0.408265
 31
0.000000
  0
LINE
  8
16
 10
0.309089
 20
0.408265
 30
0.000000
 11
0.306297
 21
0.411058
 31
0.000000
  0
LINE
  8
16
 10
0.306297
 20
0.411058
 30
0.000000
 11
0.302876
 21
0.413033
 31
0.000000
  0
LINE
  8
16
 10
0.302876
 20
0.413033
 30
0.000000
 11
0.299061
 21
0.414055
 31
0.000000
  0
LINE
  8
16
 10
0.299061
 20
0.414055
 30
0.000000
 11
0.272559
 21
0.414055
 31
0.000000
  0
LINE
  8
16
 10
0.272559
 20
0.414055
 30
0.000000
 11
0.272559
 21
0.378465
 31
0.000000
  0
LINE
  8
16
 10
0.272559
 20
0.378465
 30
0.000000
 11
0.262559
 21
0.378465
 31
0.000000
  0
LINE
  8
16
 10
0.262559
 20
0.378465
 30
0.000000
 11
0.262559
 21
0.414055
 31
0.000000
  0
LINE
  8
16
 10
0.262559
 20
0.414055
 30
0.000000
 11
0.236057
 21
0.414055
 31
0.000000
  0
LINE
  8
16
 10
0.236057
 20
0.414055
 30
0.000000
 11
0.232242
 21
0.413033
 31
0.000000
  0
LINE
  8
16
 10
0.232242
 20
0.413033
 30
0.000000
 11
0.228821
 21
0.411058
 31
0.000000
  0
LINE
  8
16
 10
0.228821
 20
0.411058
 30
0.000000
 11
0.226029
 21
0.408265
 31
0.000000
  0
LINE
  8
16
 10
0.226029
 20
0.408265
 30
0.000000
 11
0.224054
 21
0.404845
 31
0.000000
  0
LINE
  8
16
 10
0.224054
 20
0.404845
 30
0.000000
 11
0.223031
 21
0.401030
 31
0.000000
  0
LINE
  8
16
 10
0.223031
 20
0.401030
 30
0.000000
 11
0.223031
 21
0.378464
 31
0.000000
  0
LINE
  8
16
 10
0.223031
 20
0.378464
 30
0.000000
 11
0.262559
 21
0.378464
 31
0.000000
  0
LINE
  8
16
 10
0.262559
 20
0.378464
 30
0.000000
 11
0.262559
 21
0.368465
 31
0.000000
  0
LINE
  8
16
 10
0.262559
 20
0.368465
 30
0.000000
 11
0.223031
 21
0.368465
 31
0.000000
  0
LINE
  8
16
 10
0.223031
 20
0.368465
 30
0.000000
 11
0.223031
 21
0.345899
 31
0.000000
  0
LINE
  8
16
 10
0.223031
 20
0.345899
 30
0.000000
 11
0.224054
 21
0.342084
 31
0.000000
  0
LINE
  8
16
 10
0.224054
 20
0.342084
 30
0.000000
 11
0.226029
 21
0.338664
 31
0.000000
  0
LINE
  8
16
 10
0.226029
 20
0.338664
 30
0.000000
 11
0.228228
 21
0.336464
 31
0.000000
  0
LINE
  8
16
 10
0.228228
 20
0.336464
 30
0.000000
 11
0.228031
 21
0.336268
 31
0.000000
  0
LINE
  8
16
 10
0.228031
 20
0.336268
 30
0.000000
 11
0.228031
 21
0.276803
 31
0.000000
  0
LINE
  8
16
 10
0.228031
 20
0.276803
 30
0.000000
 11
0.233889
 21
0.270945
 31
0.000000
  0
LINE
  8
16
 10
0.233889
 20
0.270945
 30
0.000000
 11
0.301229
 21
0.270945
 31
0.000000
  0
LINE
  8
16
 10
0.301229
 20
0.270945
 30
0.000000
 11
0.301819
 21
0.271535
 31
0.000000
  0
LINE
  8
16
 10
0.301819
 20
0.271535
 30
0.000000
 11
0.395591
 21
0.271535
 31
0.000000
  0
LINE
  8
16
 10
0.395591
 20
0.271535
 30
0.000000
 11
0.395591
 21
0.138377
 31
0.000000
  0
LINE
  8
16
 10
0.395591
 20
0.138377
 30
0.000000
 11
0.401448
 21
0.132520
 31
0.000000
  0
LINE
  8
16
 10
0.401448
 20
0.132520
 30
0.000000
 11
0.415000
 21
0.132520
 31
0.000000
  0
LINE
  8
16
 10
0.415000
 20
0.132520
 30
0.000000
 11
0.415000
 21
0.103038
 31
0.000000
  0
LINE
  8
16
 10
0.415000
 20
0.103038
 30
0.000000
 11
0.420328
 21
0.090174
 31
0.000000
  0
LINE
  8
16
 10
0.420328
 20
0.090174
 30
0.000000
 11
0.430174
 21
0.080328
 31
0.000000
  0
LINE
  8
16
 10
0.430174
 20
0.080328
 30
0.000000
 11
0.454269
 21
0.056234
 31
0.000000
  0
LINE
  8
16
 10
0.454269
 20
0.056234
 30
0.000000
 11
0.467133
 21
0.050906
 31
0.000000
  0
LINE
  8
16
 10
0.467133
 20
0.050906
 30
0.000000
 11
0.609597
 21
0.050906
 31
0.000000
  0
LINE
  8
16
 10
0.609597
 20
0.050906
 30
0.000000
 11
0.620174
 21
0.040328
 31
0.000000
  0
LINE
  8
16
 10
0.620174
 20
0.040328
 30
0.000000
 11
0.633038
 21
0.035000
 31
0.000000
  0
LINE
  8
16
 10
0.633038
 20
0.035000
 30
0.000000
 11
0.646962
 21
0.035000
 31
0.000000
  0
LINE
  8
16
 10
0.646962
 20
0.035000
 30
0.000000
 11
0.659826
 21
0.040328
 31
0.000000
  0
LINE
  8
16
 10
0.659826
 20
0.040328
 30
0.000000
 11
0.669672
 21
0.050174
 31
0.000000
  0
LINE
  8
16
 10
0.669672
 20
0.050174
 30
0.000000
 11
0.675000
 21
0.063038
 31
0.000000
  0
LINE
  8
16
 10
0.675000
 20
0.063038
 30
0.000000
 11
0.675000
 21
0.076962
 31
0.000000
  0
LINE
  8
16
 10
0.675000
 20
0.076962
 30
0.000000
 11
0.669672
 21
0.089826
 31
0.000000
  0
LINE
  8
16
 10
0.227925
 20
0.164488
 30
0.000000
 11
0.307193
 21
0.164488
 31
0.000000
  0
LINE
  8
16
 10
0.307193
 20
0.164488
 30
0.000000
 11
0.313051
 21
0.170346
 31
0.000000
  0
LINE
  8
16
 10
0.313051
 20
0.170346
 30
0.000000
 11
0.313051
 21
0.241622
 31
0.000000
  0
LINE
  8
16
 10
0.313051
 20
0.241622
 30
0.000000
 11
0.307193
 21
0.247480
 31
0.000000
  0
LINE
  8
16
 10
0.307193
 20
0.247480
 30
0.000000
 11
0.227925
 21
0.247480
 31
0.000000
  0
LINE
  8
16
 10
0.227925
 20
0.247480
 30
0.000000
 11
0.222067
 21
0.241622
 31
0.000000
  0
LINE
  8
16
 10
0.222067
 20
0.241622
 30
0.000000
 11
0.222067
 21
0.170346
 31
0.000000
  0
LINE
  8
16
 10
0.222067
 20
0.170346
 30
0.000000
 11
0.227925
 21
0.164488
 31
0.000000
  0
LINE
  8
16
 10
1.005530
 20
0.304567
 30
0.000000
 11
1.094470
 21
0.304567
 31
0.000000
  0
LINE
  8
16
 10
1.094470
 20
0.304567
 30
0.000000
 11
1.111169
 21
0.311484
 31
0.000000
  0
LINE
  8
16
 10
1.111169
 20
0.311484
 30
0.000000
 11
1.123949
 21
0.324264
 31
0.000000
  0
LINE
  8
16
 10
1.123949
 20
0.324264
 30
0.000000
 11
1.130866
 21
0.340963
 31
0.000000
  0
LINE
  8
16
 10
1.130866
 20
0.340963
 30
0.000000
 11
1.130866
 21
0.359037
 31
0.000000
  0
LINE
  8
16
 10
1.130866
 20
0.359037
 30
0.000000
 11
1.123949
 21
0.375736
 31
0.000000
  0
LINE
  8
16
 10
1.123949
 20
0.375736
 30
0.000000
 11
1.111169
 21
0.388516
 31
0.000000
  0
LINE
  8
16
 10
1.111169
 20
0.388516
 30
0.000000
 11
1.094470
 21
0.395433
 31
0.000000
  0
LINE
  8
16
 10
1.094470
 20
0.395433
 30
0.000000
 11
1.005530
 21
0.395433
 31
0.000000
  0
LINE
  8
16
 10
1.005530
 20
0.395433
 30
0.000000
 11
0.988831
 21
0.388516
 31
0.000000
  0
LINE
  8
16
 10
0.988831
 20
0.388516
 30
0.000000
 11
0.985315
 21
0.385000
 31
0.000000
  0
LINE
  8
16
 10
0.985315
 20
0.385000
 30
0.000000
 11
0.963038
 21
0.385000
 31
0.000000
  0
LINE
  8
16
 10
0.963038
 20
0.385000
 30
0.000000
 11
0.950174
 21
0.379672
 31
0.000000
  0
LINE
  8
16
 10
0.950174
 20
0.379672
 30
0.000000
 11
0.905502
 21
0.335000
 31
0.000000
  0
LINE
  8
16
 10
0.905502
 20
0.335000
 30
0.000000
 11
0.864409
 21
0.335000
 31
0.000000
  0
LINE
  8
16
 10
0.864409
 20
0.335000
 30
0.000000
 11
0.864409
 21
0.461622
 31
0.000000
  0
LINE
  8
16
 10
0.864409
 20
0.461622
 30
0.000000
 11
0.858552
 21
0.467480
 31
0.000000
  0
LINE
  8
16
 10
0.858552
 20
0.467480
 30
0.000000
 11
0.763653
 21
0.467480
 31
0.000000
  0
LINE
  8
16
 10
0.763653
 20
0.467480
 30
0.000000
 11
0.757795
 21
0.461622
 31
0.000000
  0
LINE
  8
16
 10
0.757795
 20
0.461622
 30
0.000000
 11
0.757795
 21
0.138377
 31
0.000000
  0
LINE
  8
16
 10
0.757795
 20
0.138377
 30
0.000000
 11
0.763653
 21
0.132520
 31
0.000000
  0
LINE
  8
16
 10
0.763653
 20
0.132520
 30
0.000000
 11
0.858552
 21
0.132520
 31
0.000000
  0
LINE
  8
16
 10
0.858552
 20
0.132520
 30
0.000000
 11
0.864409
 21
0.138377
 31
0.000000
  0
LINE
  8
16
 10
0.864409
 20
0.138377
 30
0.000000
 11
0.864409
 21
0.265000
 31
0.000000
  0
LINE
  8
16
 10
0.864409
 20
0.265000
 30
0.000000
 11
0.926962
 21
0.265000
 31
0.000000
  0
LINE
  8
16
 10
0.926962
 20
0.265000
 30
0.000000
 11
0.939826
 21
0.270328
 31
0.000000
  0
LINE
  8
16
 10
0.939826
 20
0.270328
 30
0.000000
 11
0.949672
 21
0.280174
 31
0.000000
  0
LINE
  8
16
 10
0.949672
 20
0.280174
 30
0.000000
 11
0.984497
 21
0.315000
 31
0.000000
  0
LINE
  8
16
 10
0.984497
 20
0.315000
 30
0.000000
 11
0.985315
 21
0.315000
 31
0.000000
  0
LINE
  8
16
 10
0.985315
 20
0.315000
 30
0.000000
 11
0.988831
 21
0.311484
 31
0.000000
  0
LINE
  8
16
 10
0.988831
 20
0.311484
 30
0.000000
 11
1.005530
 21
0.304567
 31
0.000000
  0
LINE
  8
16
 10
1.005530
 20
0.404567
 30
0.000000
 11
1.094470
 21
0.404567
 31
0.000000
  0
LINE
  8
16
 10
1.094470
 20
0.404567
 30
0.000000
 11
1.111169
 21
0.411484
 31
0.000000
  0
LINE
  8
16
 10
1.111169
 20
0.411484
 30
0.000000
 11
1.123949
 21
0.424264
 31
0.000000
  0
LINE
  8
16
 10
1.123949
 20
0.424264
 30
0.000000
 11
1.130866
 21
0.440963
 31
0.000000
  0
LINE
  8
16
 10
1.130866
 20
0.440963
 30
0.000000
 11
1.130866
 21
0.459037
 31
0.000000
  0
LINE
  8
16
 10
1.130866
 20
0.459037
 30
0.000000
 11
1.123949
 21
0.475736
 31
0.000000
  0
LINE
  8
16
 10
1.123949
 20
0.475736
 30
0.000000
 11
1.111169
 21
0.488516
 31
0.000000
  0
LINE
  8
16
 10
1.111169
 20
0.488516
 30
0.000000
 11
1.094470
 21
0.495433
 31
0.000000
  0
LINE
  8
16
 10
1.094470
 20
0.495433
 30
0.000000
 11
1.005530
 21
0.495433
 31
0.000000
  0
LINE
  8
16
 10
1.005530
 20
0.495433
 30
0.000000
 11
0.988831
 21
0.488516
 31
0.000000
  0
LINE
  8
16
 10
0.988831
 20
0.488516
 30
0.000000
 11
0.976051
 21
0.475736
 31
0.000000
  0
LINE
  8
16
 10
0.976051
 20
0.475736
 30
0.000000
 11
0.969134
 21
0.459037
 31
0.000000
  0
LINE
  8
16
 10
0.969134
 20
0.459037
 30
0.000000
 11
0.969134
 21
0.440963
 31
0.000000
  0
LINE
  8
16
 10
0.969134
 20
0.440963
 30
0.000000
 11
0.976051
 21
0.424264
 31
0.000000
  0
LINE
  8
16
 10
0.976051
 20
0.424264
 30
0.000000
 11
0.988831
 21
0.411484
 31
0.000000
  0
LINE
  8
16
 10
0.988831
 20
0.411484
 30
0.000000
 11
1.005530
 21
0.404567
 31
0.000000
  0
LINE
  8
16
 10
0.318051
 20
0.089016
 30
0.000000
 11
0.272559
 21
0.089016
 31
0.000000
  0
LINE
  8
16
 10
0.272559
 20
0.089016
 30
0.000000
 11
0.272559
 21
0.099015
 31
0.000000
  0
LINE
  8
16
 10
0.272559
 20
0.099015
 30
0.000000
 11
0.318051
 21
0.099015
 31
0.000000
  0
LINE
  8
16
 10
0.318051
 20
0.099015
 30
0.000000
 11
0.318051
 21
0.127487
 31
0.000000
  0
LINE
  8
16
 10
0.318051
 20
0.127487
 30
0.000000
 11
0.317029
 21
0.131302
 31
0.000000
  0
LINE
  8
16
 10
0.317029
 20
0.131302
 30
0.000000
 11
0.315054
 21
0.134722
 31
0.000000
  0
LINE
  8
16
 10
0.315054
 20
0.134722
 30
0.000000
 11
0.312261
 21
0.137515
 31
0.000000
  0
LINE
  8
16
 10
0.312261
 20
0.137515
 30
0.000000
 11
0.308841
 21
0.139489
 31
0.000000
  0
LINE
  8
16
 10
0.308841
 20
0.139489
 30
0.000000
 11
0.305026
 21
0.140512
 31
0.000000
  0
LINE
  8
16
 10
0.305026
 20
0.140512
 30
0.000000
 11
0.272559
 21
0.140512
 31
0.000000
  0
LINE
  8
16
 10
0.272559
 20
0.140512
 30
0.000000
 11
0.272559
 21
0.099016
 31
0.000000
  0
LINE
  8
16
 10
0.272559
 20
0.099016
 30
0.000000
 11
0.262559
 21
0.099016
 31
0.000000
  0
LINE
  8
16
 10
0.262559
 20
0.099016
 30
0.000000
 11
0.262559
 21
0.140512
 31
0.000000
  0
LINE
  8
16
 10
0.262559
 20
0.140512
 30
0.000000
 11
0.230092
 21
0.140512
 31
0.000000
  0
LINE
  8
16
 10
0.230092
 20
0.140512
 30
0.000000
 11
0.226277
 21
0.139489
 31
0.000000
  0
LINE
  8
16
 10
0.226277
 20
0.139489
 30
0.000000
 11
0.222857
 21
0.137515
 31
0.000000
  0
LINE
  8
16
 10
0.222857
 20
0.137515
 30
0.000000
 11
0.220064
 21
0.134722
 31
0.000000
  0
LINE
  8
16
 10
0.220064
 20
0.134722
 30
0.000000
 11
0.218089
 21
0.131302
 31
0.000000
  0
LINE
  8
16
 10
0.218089
 20
0.131302
 30
0.000000
 11
0.217067
 21
0.127487
 31
0.000000
  0
LINE
  8
16
 10
0.217067
 20
0.127487
 30
0.000000
 11
0.217067
 21
0.099015
 31
0.000000
  0
LINE
  8
16
 10
0.217067
 20
0.099015
 30
0.000000
 11
0.262559
 21
0.099015
 31
0.000000
  0
LINE
  8
16
 10
0.262559
 20
0.099015
 30
0.000000
 11
0.262559
 21
0.089016
 31
0.000000
  0
LINE
  8
16
 10
0.262559
 20
0.089016
 30
0.000000
 11
0.217067
 21
0.089016
 31
0.000000
  0
LINE
  8
16
 10
0.217067
 20
0.089016
 30
0.000000
 11
0.217067
 21
0.060545
 31
0.000000
  0
LINE
  8
16
 10
0.217067
 20
0.060545
 30
0.000000
 11
0.218089
 21
0.056730
 31
0.000000
  0
LINE
  8
16
 10
0.218089
 20
0.056730
 30
0.000000
 11
0.220064
 21
0.053309
 31
0.000000
  0
LINE
  8
16
 10
0.220064
 20
0.053309
 30
0.000000
 11
0.222857
 21
0.050517
 31
0.000000
  0
LINE
  8
16
 10
0.222857
 20
0.050517
 30
0.000000
 11
0.226277
 21
0.048542
 31
0.000000
  0
LINE
  8
16
 10
0.226277
 20
0.048542
 30
0.000000
 11
0.230092
 21
0.047520
 31
0.000000
  0
LINE
  8
16
 10
0.230092
 20
0.047520
 30
0.000000
 11
0.262559
 21
0.047520
 31
0.000000
  0
LINE
  8
16
 10
0.262559
 20
0.047520
 30
0.000000
 11
0.262559
 21
0.089015
 31
0.000000
  0
LINE
  8
16
 10
0.262559
 20
0.089015
 30
0.000000
 11
0.272559
 21
0.089015
 31
0.000000
  0
LINE
  8
16
 10
0.272559
 20
0.089015
 30
0.000000
 11
0.272559
 21
0.047520
 31
0.000000
  0
LINE
  8
16
 10
0.272559
 20
0.047520
 30
0.000000
 11
0.305026
 21
0.047520
 31
0.000000
  0
LINE
  8
16
 10
0.305026
 20
0.047520
 30
0.000000
 11
0.308841
 21
0.048542
 31
0.000000
  0
LINE
  8
16
 10
0.308841
 20
0.048542
 30
0.000000
 11
0.312261
 21
0.050517
 31
0.000000
  0
LINE
  8
16
 10
0.312261
 20
0.050517
 30
0.000000
 11
0.315054
 21
0.053309
 31
0.000000
  0
LINE
  8
16
 10
0.315054
 20
0.053309
 30
0.000000
 11
0.317029
 21
0.056730
 31
0.000000
  0
LINE
  8
16
 10
0.317029
 20
0.056730
 30
0.000000
 11
0.318051
 21
0.060545
 31
0.000000
  0
LINE
  8
16
 10
0.318051
 20
0.060545
 30
0.000000
 11
0.318051
 21
0.089016
 31
0.000000
  0
LINE
  8
16
 10
0.025500
 20
0.030000
 30
0.000000
 11
0.864137
 21
0.030000
 31
0.000000
  0
LINE
  8
16
 10
0.025500
 20
0.040000
 30
0.000000
 11
0.620967
 21
0.040000
 31
0.000000
  0
LINE
  8
16
 10
0.659033
 20
0.040000
 30
0.000000
 11
0.820456
 21
0.040000
 31
0.000000
  0
LINE
  8
16
 10
0.848813
 20
0.040000
 30
0.000000
 11
0.849281
 21
0.040000
 31
0.000000
  0
LINE
  8
16
 10
0.859222
 20
0.040000
 30
0.000000
 11
0.864137
 21
0.040000
 31
0.000000
  0
LINE
  8
16
 10
0.025500
 20
0.050000
 30
0.000000
 11
0.223752
 21
0.050000
 31
0.000000
  0
LINE
  8
16
 10
0.262559
 20
0.050000
 30
0.000000
 11
0.272559
 21
0.050000
 31
0.000000
  0
LINE
  8
16
 10
0.311366
 20
0.050000
 30
0.000000
 11
0.610502
 21
0.050000
 31
0.000000
  0
LINE
  8
16
 10
0.669497
 20
0.050000
 30
0.000000
 11
0.813125
 21
0.050000
 31
0.000000
  0
LINE
  8
16
 10
0.025500
 20
0.060000
 30
0.000000
 11
0.217213
 21
0.060000
 31
0.000000
  0
LINE
  8
16
 10
0.262559
 20
0.060000
 30
0.000000
 11
0.272559
 21
0.060000
 31
0.000000
  0
LINE
  8
16
 10
0.317905
 20
0.060000
 30
0.000000
 11
0.450502
 21
0.060000
 31
0.000000
  0
LINE
  8
16
 10
0.673741
 20
0.060000
 30
0.000000
 11
0.803125
 21
0.060000
 31
0.000000
  0
LINE
  8
16
 10
0.965963
 20
0.060000
 30
0.000000
 11
0.968493
 21
0.060000
 31
0.000000
  0
LINE
  8
16
 10
0.025500
 20
0.070000
 30
0.000000
 11
0.217067
 21
0.070000
 31
0.000000
  0
LINE
  8
16
 10
0.262559
 20
0.070000
 30
0.000000
 11
0.272559
 21
0.070000
 31
0.000000
  0
LINE
  8
16
 10
0.318051
 20
0.070000
 30
0.000000
 11
0.440502
 21
0.070000
 31
0.000000
  0
LINE
  8
16
 10
0.675000
 20
0.070000
 30
0.000000
 11
0.802751
 21
0.070000
 31
0.000000
  0
LINE
  8
16
 10
0.966337
 20
0.070000
 30
0.000000
 11
0.968493
 21
0.070000
 31
0.000000
  0
LINE
  8
16
 10
0.025500
 20
0.080000
 30
0.000000
 11
0.217067
 21
0.080000
 31
0.000000
  0
LINE
  8
16
 10
0.262559
 20
0.080000
 30
0.000000
 11
0.272559
 21
0.080000
 31
0.000000
  0
LINE
  8
16
 10
0.318051
 20
0.080000
 30
0.000000
 11
0.430502
 21
0.080000
 31
0.000000
  0
LINE
  8
16
 10
0.673742
 20
0.080000
 30
0.000000
 11
0.809767
 21
0.080000
 31
0.000000
  0
LINE
  8
16
 10
0.830411
 20
0.080000
 30
0.000000
 11
0.833521
 21
0.080000
 31
0.000000
  0
LINE
  8
16
 10
0.843489
 20
0.080000
 30
0.000000
 11
0.849268
 21
0.080000
 31
0.000000
  0
LINE
  8
16
 10
0.859236
 20
0.080000
 30
0.000000
 11
0.867683
 21
0.080000
 31
0.000000
  0
LINE
  8
16
 10
0.882989
 20
0.080000
 30
0.000000
 11
0.886099
 21
0.080000
 31
0.000000
  0
LINE
  8
16
 10
0.901405
 20
0.080000
 30
0.000000
 11
0.907184
 21
0.080000
 31
0.000000
  0
LINE
  8
16
 10
0.917152
 20
0.080000
 30
0.000000
 11
0.922930
 21
0.080000
 31
0.000000
  0
LINE
  8
16
 10
0.938236
 20
0.080000
 30
0.000000
 11
0.941346
 21
0.080000
 31
0.000000
  0
LINE
  8
16
 10
0.956652
 20
0.080000
 30
0.000000
 11
0.975509
 21
0.080000
 31
0.000000
  0
LINE
  8
16
 10
0.985477
 20
0.080000
 30
0.000000
 11
0.986184
 21
0.080000
 31
0.000000
  0
LINE
  8
16
 10
1.003893
 20
0.080000
 30
0.000000
 11
1.004600
 21
0.080000
 31
0.000000
  0
LINE
  8
16
 10
1.032984
 20
0.080000
 30
0.000000
 11
1.033575
 21
0.080000
 31
0.000000
  0
LINE
  8
16
 10
0.025500
 20
0.090000
 30
0.000000
 11
0.262559
 21
0.090000
 31
0.000000
  0
LINE
  8
16
 10
0.272559
 20
0.090000
 30
0.000000
 11
0.420502
 21
0.090000
 31
0.000000
  0
LINE
  8
16
 10
0.669497
 20
0.090000
 30
0.000000
 11
1.037717
 21
0.090000
 31
0.000000
  0
LINE
  8
16
 10
0.025500
 20
0.100000
 30
0.000000
 11
0.217067
 21
0.100000
 31
0.000000
  0
LINE
  8
16
 10
0.262559
 20
0.100000
 30
0.000000
 11
0.272559
 21
0.100000
 31
0.000000
  0
LINE
  8
16
 10
0.318051
 20
0.100000
 30
0.000000
 11
0.416258
 21
0.100000
 31
0.000000
  0
LINE
  8
16
 10
0.659497
 20
0.100000
 30
0.000000
 11
1.041859
 21
0.100000
 31
0.000000
  0
LINE
  8
16
 10
0.025500
 20
0.110000
 30
0.000000
 11
0.217067
 21
0.110000
 31
0.000000
  0
LINE
  8
16
 10
0.262559
 20
0.110000
 30
0.000000
 11
0.272559
 21
0.110000
 31
0.000000
  0
LINE
  8
16
 10
0.318051
 20
0.110000
 30
0.000000
 11
0.415000
 21
0.110000
 31
0.000000
  0
LINE
  8
16
 10
0.649497
 20
0.110000
 30
0.000000
 11
1.046256
 21
0.110000
 31
0.000000
  0
LINE
  8
16
 10
0.025500
 20
0.120000
 30
0.000000
 11
0.217067
 21
0.120000
 31
0.000000
  0
LINE
  8
16
 10
0.262559
 20
0.120000
 30
0.000000
 11
0.272559
 21
0.120000
 31
0.000000
  0
LINE
  8
16
 10
0.318051
 20
0.120000
 30
0.000000
 11
0.415000
 21
0.120000
 31
0.000000
  0
LINE
  8
16
 10
0.633242
 20
0.120000
 30
0.000000
 11
1.056256
 21
0.120000
 31
0.000000
  0
LINE
  8
16
 10
0.025500
 20
0.130000
 30
0.000000
 11
0.217741
 21
0.130000
 31
0.000000
  0
LINE
  8
16
 10
0.262559
 20
0.130000
 30
0.000000
 11
0.272559
 21
0.130000
 31
0.000000
  0
LINE
  8
16
 10
0.317378
 20
0.130000
 30
0.000000
 11
0.415000
 21
0.130000
 31
0.000000
  0
LINE
  8
16
 10
0.485000
 20
0.130000
 30
0.000000
 11
1.066256
 21
0.130000
 31
0.000000
  0
LINE
  8
16
 10
0.025500
 20
0.140000
 30
0.000000
 11
0.228183
 21
0.140000
 31
0.000000
  0
LINE
  8
16
 10
0.262559
 20
0.140000
 30
0.000000
 11
0.272559
 21
0.140000
 31
0.000000
  0
LINE
  8
16
 10
0.306936
 20
0.140000
 30
0.000000
 11
0.395591
 21
0.140000
 31
0.000000
  0
LINE
  8
16
 10
0.502205
 20
0.140000
 30
0.000000
 11
0.757795
 21
0.140000
 31
0.000000
  0
LINE
  8
16
 10
0.864409
 20
0.140000
 30
0.000000
 11
1.084489
 21
0.140000
 31
0.000000
  0
LINE
  8
16
 10
1.155511
 20
0.140000
 30
0.000000
 11
1.155602
 21
0.140000
 31
0.000000
  0
LINE
  8
16
 10
0.025500
 20
0.150000
 30
0.000000
 11
0.395591
 21
0.150000
 31
0.000000
  0
LINE
  8
16
 10
0.502205
 20
0.150000
 30
0.000000
 11
0.757795
 21
0.150000
 31
0.000000
  0
LINE
  8
16
 10
0.864409
 20
0.150000
 30
0.000000
 11
1.155602
 21
0.150000
 31
0.000000
  0
LINE
  8
16
 10
0.025500
 20
0.160000
 30
0.000000
 11
0.042413
 21
0.160000
 31
0.000000
  0
LINE
  8
16
 10
0.157587
 20
0.160000
 30
0.000000
 11
0.395591
 21
0.160000
 31
0.000000
  0
LINE
  8
16
 10
0.502205
 20
0.160000
 30
0.000000
 11
0.757795
 21
0.160000
 31
0.000000
  0
LINE
  8
16
 10
0.864409
 20
0.160000
 30
0.000000
 11
1.155602
 21
0.160000
 31
0.000000
  0
LINE
  8
16
 10
0.025500
 20
0.170000
 30
0.000000
 11
0.030315
 21
0.170000
 31
0.000000
  0
LINE
  8
16
 10
0.169685
 20
0.170000
 30
0.000000
 11
0.222413
 21
0.170000
 31
0.000000
  0
LINE
  8
16
 10
0.312705
 20
0.170000
 30
0.000000
 11
0.395591
 21
0.170000
 31
0.000000
  0
LINE
  8
16
 10
0.502205
 20
0.170000
 30
0.000000
 11
0.757795
 21
0.170000
 31
0.000000
  0
LINE
  8
16
 10
0.864409
 20
0.170000
 30
0.000000
 11
1.155602
 21
0.170000
 31
0.000000
  0
LINE
  8
16
 10
0.176325
 20
0.180000
 30
0.000000
 11
0.222067
 21
0.180000
 31
0.000000
  0
LINE
  8
16
 10
0.313051
 20
0.180000
 30
0.000000
 11
0.395591
 21
0.180000
 31
0.000000
  0
LINE
  8
16
 10
0.502205
 20
0.180000
 30
0.000000
 11
0.757795
 21
0.180000
 31
0.000000
  0
LINE
  8
16
 10
0.864409
 20
0.180000
 30
0.000000
 11
1.155602
 21
0.180000
 31
0.000000
  0
LINE
  8
16
 10
0.180467
 20
0.190000
 30
0.000000
 11
0.222067
 21
0.190000
 31
0.000000
  0
LINE
  8
16
 10
0.313051
 20
0.190000
 30
0.000000
 11
0.395591
 21
0.190000
 31
0.000000
  0
LINE
  8
16
 10
0.502205
 20
0.190000
 30
0.000000
 11
0.757795
 21
0.190000
 31
0.000000
  0
LINE
  8
16
 10
0.864409
 20
0.190000
 30
0.000000
 11
1.155602
 21
0.190000
 31
0.000000
  0
LINE
  8
16
 10
0.180866
 20
0.200000
 30
0.000000
 11
0.222067
 21
0.200000
 31
0.000000
  0
LINE
  8
16
 10
0.313051
 20
0.200000
 30
0.000000
 11
0.395591
 21
0.200000
 31
0.000000
  0
LINE
  8
16
 10
0.502205
 20
0.200000
 30
0.000000
 11
0.757795
 21
0.200000
 31
0.000000
  0
LINE
  8
16
 10
0.864409
 20
0.200000
 30
0.000000
 11
1.155602
 21
0.200000
 31
0.000000
  0
LINE
  8
16
 10
0.180467
 20
0.210000
 30
0.000000
 11
0.222067
 21
0.210000
 31
0.000000
  0
LINE
  8
16
 10
0.313051
 20
0.210000
 30
0.000000
 11
0.395591
 21
0.210000
 31
0.000000
  0
LINE
  8
16
 10
0.502205
 20
0.210000
 30
0.000000
 11
0.757795
 21
0.210000
 31
0.000000
  0
LINE
  8
16
 10
0.864409
 20
0.210000
 30
0.000000
 11
1.155602
 21
0.210000
 31
0.000000
  0
LINE
  8
16
 10
0.176325
 20
0.220000
 30
0.000000
 11
0.222067
 21
0.220000
 31
0.000000
  0
LINE
  8
16
 10
0.313051
 20
0.220000
 30
0.000000
 11
0.395591
 21
0.220000
 31
0.000000
  0
LINE
  8
16
 10
0.502205
 20
0.220000
 30
0.000000
 11
0.757795
 21
0.220000
 31
0.000000
  0
LINE
  8
16
 10
0.864409
 20
0.220000
 30
0.000000
 11
1.155602
 21
0.220000
 31
0.000000
  0
LINE
  8
16
 10
0.025500
 20
0.230000
 30
0.000000
 11
0.030315
 21
0.230000
 31
0.000000
  0
LINE
  8
16
 10
0.169685
 20
0.230000
 30
0.000000
 11
0.222067
 21
0.230000
 31
0.000000
  0
LINE
  8
16
 10
0.313051
 20
0.230000
 30
0.000000
 11
0.395591
 21
0.230000
 31
0.000000
  0
LINE
  8
16
 10
0.502205
 20
0.230000
 30
0.000000
 11
0.757795
 21
0.230000
 31
0.000000
  0
LINE
  8
16
 10
0.864409
 20
0.230000
 30
0.000000
 11
1.155602
 21
0.230000
 31
0.000000
  0
LINE
  8
16
 10
0.025500
 20
0.240000
 30
0.000000
 11
0.042413
 21
0.240000
 31
0.000000
  0
LINE
  8
16
 10
0.157587
 20
0.240000
 30
0.000000
 11
0.222067
 21
0.240000
 31
0.000000
  0
LINE
  8
16
 10
0.313051
 20
0.240000
 30
0.000000
 11
0.395591
 21
0.240000
 31
0.000000
  0
LINE
  8
16
 10
0.502205
 20
0.240000
 30
0.000000
 11
0.757795
 21
0.240000
 31
0.000000
  0
LINE
  8
16
 10
0.864409
 20
0.240000
 30
0.000000
 11
1.155602
 21
0.240000
 31
0.000000
  0
LINE
  8
16
 10
0.025500
 20
0.250000
 30
0.000000
 11
0.057863
 21
0.250000
 31
0.000000
  0
LINE
  8
16
 10
0.095000
 20
0.250000
 30
0.000000
 11
0.105000
 21
0.250000
 31
0.000000
  0
LINE
  8
16
 10
0.142136
 20
0.250000
 30
0.000000
 11
0.395591
 21
0.250000
 31
0.000000
  0
LINE
  8
16
 10
0.502205
 20
0.250000
 30
0.000000
 11
0.757795
 21
0.250000
 31
0.000000
  0
LINE
  8
16
 10
0.864409
 20
0.250000
 30
0.000000
 11
1.155602
 21
0.250000
 31
0.000000
  0
LINE
  8
16
 10
0.025500
 20
0.260000
 30
0.000000
 11
0.033820
 21
0.260000
 31
0.000000
  0
LINE
  8
16
 10
0.095000
 20
0.260000
 30
0.000000
 11
0.105000
 21
0.260000
 31
0.000000
  0
LINE
  8
16
 10
0.166180
 20
0.260000
 30
0.000000
 11
0.395591
 21
0.260000
 31
0.000000
  0
LINE
  8
16
 10
0.502205
 20
0.260000
 30
0.000000
 11
0.757795
 21
0.260000
 31
0.000000
  0
LINE
  8
16
 10
0.864409
 20
0.260000
 30
0.000000
 11
1.155602
 21
0.260000
 31
0.000000
  0
LINE
  8
16
 10
0.095000
 20
0.270000
 30
0.000000
 11
0.105000
 21
0.270000
 31
0.000000
  0
LINE
  8
16
 10
0.175975
 20
0.270000
 30
0.000000
 11
0.395591
 21
0.270000
 31
0.000000
  0
LINE
  8
16
 10
0.502205
 20
0.270000
 30
0.000000
 11
0.757795
 21
0.270000
 31
0.000000
  0
LINE
  8
16
 10
0.939033
 20
0.270000
 30
0.000000
 11
1.155602
 21
0.270000
 31
0.000000
  0
LINE
  8
16
 10
0.095000
 20
0.280000
 30
0.000000
 11
0.105000
 21
0.280000
 31
0.000000
  0
LINE
  8
16
 10
0.181845
 20
0.280000
 30
0.000000
 11
0.228031
 21
0.280000
 31
0.000000
  0
LINE
  8
16
 10
0.502205
 20
0.280000
 30
0.000000
 11
0.757795
 21
0.280000
 31
0.000000
  0
LINE
  8
16
 10
0.949497
 20
0.280000
 30
0.000000
 11
1.155602
 21
0.280000
 31
0.000000
  0
LINE
  8
16
 10
0.095000
 20
0.290000
 30
0.000000
 11
0.105000
 21
0.290000
 31
0.000000
  0
LINE
  8
16
 10
0.184911
 20
0.290000
 30
0.000000
 11
0.228031
 21
0.290000
 31
0.000000
  0
LINE
  8
16
 10
0.502205
 20
0.290000
 30
0.000000
 11
0.757795
 21
0.290000
 31
0.000000
  0
LINE
  8
16
 10
0.959497
 20
0.290000
 30
0.000000
 11
1.155602
 21
0.290000
 31
0.000000
  0
LINE
  8
16
 10
0.105000
 20
0.300000
 30
0.000000
 11
0.228031
 21
0.300000
 31
0.000000
  0
LINE
  8
16
 10
0.502205
 20
0.300000
 30
0.000000
 11
0.757795
 21
0.300000
 31
0.000000
  0
LINE
  8
16
 10
0.969497
 20
0.300000
 30
0.000000
 11
1.155602
 21
0.300000
 31
0.000000
  0
LINE
  8
16
 10
0.095000
 20
0.310000
 30
0.000000
 11
0.105000
 21
0.310000
 31
0.000000
  0
LINE
  8
16
 10
0.184911
 20
0.310000
 30
0.000000
 11
0.228031
 21
0.310000
 31
0.000000
  0
LINE
  8
16
 10
0.502205
 20
0.310000
 30
0.000000
 11
0.757795
 21
0.310000
 31
0.000000
  0
LINE
  8
16
 10
0.979497
 20
0.310000
 30
0.000000
 11
0.992413
 21
0.310000
 31
0.000000
  0
LINE
  8
16
 10
1.107587
 20
0.310000
 30
0.000000
 11
1.155602
 21
0.310000
 31
0.000000
  0
LINE
  8
16
 10
0.095000
 20
0.320000
 30
0.000000
 11
0.105000
 21
0.320000
 31
0.000000
  0
LINE
  8
16
 10
0.181845
 20
0.320000
 30
0.000000
 11
0.228031
 21
0.320000
 31
0.000000
  0
LINE
  8
16
 10
0.502205
 20
0.320000
 30
0.000000
 11
0.757795
 21
0.320000
 31
0.000000
  0
LINE
  8
16
 10
1.119685
 20
0.320000
 30
0.000000
 11
1.155602
 21
0.320000
 31
0.000000
  0
LINE
  8
16
 10
0.095000
 20
0.330000
 30
0.000000
 11
0.105000
 21
0.330000
 31
0.000000
  0
LINE
  8
16
 10
0.175975
 20
0.330000
 30
0.000000
 11
0.228031
 21
0.330000
 31
0.000000
  0
LINE
  8
16
 10
0.502205
 20
0.330000
 30
0.000000
 11
0.757795
 21
0.330000
 31
0.000000
  0
LINE
  8
16
 10
1.126325
 20
0.330000
 30
0.000000
 11
1.155602
 21
0.330000
 31
0.000000
  0
LINE
  8
16
 10
0.025500
 20
0.340000
 30
0.000000
 11
0.033820
 21
0.340000
 31
0.000000
  0
LINE
  8
16
 10
0.095000
 20
0.340000
 30
0.000000
 11
0.105000
 21
0.340000
 31
0.000000
  0
LINE
  8
16
 10
0.166180
 20
0.340000
 30
0.000000
 11
0.225257
 21
0.340000
 31
0.000000
  0
LINE
  8
16
 10
0.502205
 20
0.340000
 30
0.000000
 11
0.757795
 21
0.340000
 31
0.000000
  0
LINE
  8
16
 10
0.864409
 20
0.340000
 30
0.000000
 11
0.910503
 21
0.340000
 31
0.000000
  0
LINE
  8
16
 10
1.130467
 20
0.340000
 30
0.000000
 11
1.155602
 21
0.340000
 31
0.000000
  0
LINE
  8
16
 10
0.025500
 20
0.350000
 30
0.000000
 11
0.057864
 21
0.350000
 31
0.000000
  0
LINE
  8
16
 10
0.095000
 20
0.350000
 30
0.000000
 11
0.105000
 21
0.350000
 31
0.000000
  0
LINE
  8
16
 10
0.142136
 20
0.350000
 30
0.000000
 11
0.223031
 21
0.350000
 31
0.000000
  0
LINE
  8
16
 10
0.312086
 20
0.350000
 30
0.000000
 11
0.395591
 21
0.350000
 31
0.000000
  0
LINE
  8
16
 10
0.502205
 20
0.350000
 30
0.000000
 11
0.757795
 21
0.350000
 31
0.000000
  0
LINE
  8
16
 10
0.864409
 20
0.350000
 30
0.000000
 11
0.920503
 21
0.350000
 31
0.000000
  0
LINE
  8
16
 10
1.130866
 20
0.350000
 30
0.000000
 11
1.155602
 21
0.350000
 31
0.000000
  0
LINE
  8
16
 10
0.025500
 20
0.360000
 30
0.000000
 11
0.042413
 21
0.360000
 31
0.000000
  0
LINE
  8
16
 10
0.157587
 20
0.360000
 30
0.000000
 11
0.223031
 21
0.360000
 31
0.000000
  0
LINE
  8
16
 10
0.312086
 20
0.360000
 30
0.000000
 11
0.395591
 21
0.360000
 31
0.000000
  0
LINE
  8
16
 10
0.502205
 20
0.360000
 30
0.000000
 11
0.757795
 21
0.360000
 31
0.000000
  0
LINE
  8
16
 10
0.864409
 20
0.360000
 30
0.000000
 11
0.930503
 21
0.360000
 31
0.000000
  0
LINE
  8
16
 10
1.130467
 20
0.360000
 30
0.000000
 11
1.155602
 21
0.360000
 31
0.000000
  0
LINE
  8
16
 10
0.025500
 20
0.370000
 30
0.000000
 11
0.030315
 21
0.370000
 31
0.000000
  0
LINE
  8
16
 10
0.169685
 20
0.370000
 30
0.000000
 11
0.262559
 21
0.370000
 31
0.000000
  0
LINE
  8
16
 10
0.272559
 20
0.370000
 30
0.000000
 11
0.395591
 21
0.370000
 31
0.000000
  0
LINE
  8
16
 10
0.502205
 20
0.370000
 30
0.000000
 11
0.757795
 21
0.370000
 31
0.000000
  0
LINE
  8
16
 10
0.864409
 20
0.370000
 30
0.000000
 11
0.940503
 21
0.370000
 31
0.000000
  0
LINE
  8
16
 10
1.126325
 20
0.370000
 30
0.000000
 11
1.155602
 21
0.370000
 31
0.000000
  0
LINE
  8
16
 10
0.176325
 20
0.380000
 30
0.000000
 11
0.223031
 21
0.380000
 31
0.000000
  0
LINE
  8
16
 10
0.262559
 20
0.380000
 30
0.000000
 11
0.272559
 21
0.380000
 31
0.000000
  0
LINE
  8
16
 10
0.312086
 20
0.380000
 30
0.000000
 11
0.395591
 21
0.380000
 31
0.000000
  0
LINE
  8
16
 10
0.502205
 20
0.380000
 30
0.000000
 11
0.757795
 21
0.380000
 31
0.000000
  0
LINE
  8
16
 10
0.864409
 20
0.380000
 30
0.000000
 11
0.950967
 21
0.380000
 31
0.000000
  0
LINE
  8
16
 10
1.119685
 20
0.380000
 30
0.000000
 11
1.155602
 21
0.380000
 31
0.000000
  0
LINE
  8
16
 10
0.180467
 20
0.390000
 30
0.000000
 11
0.223031
 21
0.390000
 31
0.000000
  0
LINE
  8
16
 10
0.262559
 20
0.390000
 30
0.000000
 11
0.272559
 21
0.390000
 31
0.000000
  0
LINE
  8
16
 10
0.312086
 20
0.390000
 30
0.000000
 11
0.395591
 21
0.390000
 31
0.000000
  0
LINE
  8
16
 10
0.502205
 20
0.390000
 30
0.000000
 11
0.757795
 21
0.390000
 31
0.000000
  0
LINE
  8
16
 10
0.864409
 20
0.390000
 30
0.000000
 11
0.992413
 21
0.390000
 31
0.000000
  0
LINE
  8
16
 10
1.107587
 20
0.390000
 30
0.000000
 11
1.155602
 21
0.390000
 31
0.000000
  0
LINE
  8
16
 10
0.180866
 20
0.400000
 30
0.000000
 11
0.223031
 21
0.400000
 31
0.000000
  0
LINE
  8
16
 10
0.262559
 20
0.400000
 30
0.000000
 11
0.272559
 21
0.400000
 31
0.000000
  0
LINE
  8
16
 10
0.312086
 20
0.400000
 30
0.000000
 11
0.395591
 21
0.400000
 31
0.000000
  0
LINE
  8
16
 10
0.502205
 20
0.400000
 30
0.000000
 11
0.757795
 21
0.400000
 31
0.000000
  0
LINE
  8
16
 10
0.864409
 20
0.400000
 30
0.000000
 11
1.155602
 21
0.400000
 31
0.000000
  0
LINE
  8
16
 10
0.180467
 20
0.410000
 30
0.000000
 11
0.227763
 21
0.410000
 31
0.000000
  0
LINE
  8
16
 10
0.262559
 20
0.410000
 30
0.000000
 11
0.272559
 21
0.410000
 31
0.000000
  0
LINE
  8
16
 10
0.307355
 20
0.410000
 30
0.000000
 11
0.395591
 21
0.410000
 31
0.000000
  0
LINE
  8
16
 10
0.502205
 20
0.410000
 30
0.000000
 11
0.757795
 21
0.410000
 31
0.000000
  0
LINE
  8
16
 10
0.864409
 20
0.410000
 30
0.000000
 11
0.992413
 21
0.410000
 31
0.000000
  0
LINE
  8
16
 10
1.107587
 20
0.410000
 30
0.000000
 11
1.155602
 21
0.410000
 31
0.000000
  0
LINE
  8
16
 10
0.176325
 20
0.420000
 30
0.000000
 11
0.395591
 21
0.420000
 31
0.000000
  0
LINE
  8
16
 10
0.502205
 20
0.420000
 30
0.000000
 11
0.757795
 21
0.420000
 31
0.000000
  0
LINE
  8
16
 10
0.864409
 20
0.420000
 30
0.000000
 11
0.980315
 21
0.420000
 31
0.000000
  0
LINE
  8
16
 10
1.119685
 20
0.420000
 30
0.000000
 11
1.155602
 21
0.420000
 31
0.000000
  0
LINE
  8
16
 10
0.169685
 20
0.430000
 30
0.000000
 11
0.395591
 21
0.430000
 31
0.000000
  0
LINE
  8
16
 10
0.502205
 20
0.430000
 30
0.000000
 11
0.757795
 21
0.430000
 31
0.000000
  0
LINE
  8
16
 10
0.864409
 20
0.430000
 30
0.000000
 11
0.973675
 21
0.430000
 31
0.000000
  0
LINE
  8
16
 10
1.126325
 20
0.430000
 30
0.000000
 11
1.155602
 21
0.430000
 31
0.000000
  0
LINE
  8
16
 10
0.157587
 20
0.440000
 30
0.000000
 11
0.395591
 21
0.440000
 31
0.000000
  0
LINE
  8
16
 10
0.502205
 20
0.440000
 30
0.000000
 11
0.757795
 21
0.440000
 31
0.000000
  0
LINE
  8
16
 10
0.864409
 20
0.440000
 30
0.000000
 11
0.969533
 21
0.440000
 31
0.000000
  0
LINE
  8
16
 10
1.130467
 20
0.440000
 30
0.000000
 11
1.155602
 21
0.440000
 31
0.000000
  0
LINE
  8
16
 10
0.095511
 20
0.450000
 30
0.000000
 11
0.395591
 21
0.450000
 31
0.000000
  0
LINE
  8
16
 10
0.502205
 20
0.450000
 30
0.000000
 11
0.757795
 21
0.450000
 31
0.000000
  0
LINE
  8
16
 10
0.864409
 20
0.450000
 30
0.000000
 11
0.969134
 21
0.450000
 31
0.000000
  0
LINE
  8
16
 10
1.130866
 20
0.450000
 30
0.000000
 11
1.155602
 21
0.450000
 31
0.000000
  0
LINE
  8
16
 10
0.113744
 20
0.460000
 30
0.000000
 11
0.395591
 21
0.460000
 31
0.000000
  0
LINE
  8
16
 10
0.502205
 20
0.460000
 30
0.000000
 11
0.757795
 21
0.460000
 31
0.000000
  0
LINE
  8
16
 10
0.864409
 20
0.460000
 30
0.000000
 11
0.969533
 21
0.460000
 31
0.000000
  0
LINE
  8
16
 10
1.130467
 20
0.460000
 30
0.000000
 11
1.155602
 21
0.460000
 31
0.000000
  0
LINE
  8
16
 10
0.123744
 20
0.470000
 30
0.000000
 11
0.973675
 21
0.470000
 31
0.000000
  0
LINE
  8
16
 10
1.126325
 20
0.470000
 30
0.000000
 11
1.155602
 21
0.470000
 31
0.000000
  0
LINE
  8
16
 10
0.133744
 20
0.480000
 30
0.000000
 11
0.980315
 21
0.480000
 31
0.000000
  0
LINE
  8
16
 10
1.119685
 20
0.480000
 30
0.000000
 11
1.155602
 21
0.480000
 31
0.000000
  0
LINE
  8
16
 10
0.138141
 20
0.490000
 30
0.000000
 11
0.992413
 21
0.490000
 31
0.000000
  0
LINE
  8
16
 10
1.107587
 20
0.490000
 30
0.000000
 11
1.155602
 21
0.490000
 31
0.000000
  0
LINE
  8
16
 10
0.142283
 20
0.500000
 30
0.000000
 11
1.155602
 21
0.500000
 31
0.000000
  0
LINE
  8
16
 10
0.146425
 20
0.510000
 30
0.000000
 11
1.155602
 21
0.510000
 31
0.000000
  0
LINE
  8
16
 10
0.147500
 20
0.520000
 30
0.000000
 11
1.155602
 21
0.520000
 31
0.000000
  0
LINE
  8
16
 10
0.147500
 20
0.530000
 30
0.000000
 11
1.155602
 21
0.530000
 31
0.000000
  0
LINE
  8
16
 10
0.147500
 20
0.540000
 30
0.000000
 11
1.155602
 21
0.540000
 31
0.000000
  0
LINE
  8
16
 10
0.146425
 20
0.550000
 30
0.000000
 11
1.155602
 21
0.550000
 31
0.000000
  0
LINE
  8
16
 10
0.142283
 20
0.560000
 30
0.000000
 11
1.155602
 21
0.560000
 31
0.000000
  0
INSERT
  8
18
  2
ROUNDV
 10
0.157000
 20
0.115000
 30
0.000000
 41
0.039622
 42
0.039622
 43
1.000000
 50
0.000000
  0
INSERT
  8
18
  2
ROUNDV
 10
0.157000
 20
0.115000
 30
0.000000
 41
0.039622
 42
0.039622
 43
1.000000
 50
0.000000
  0
INSERT
  8
18
  2
ROUNDV
 10
0.200000
 20
0.545000
 30
0.000000
 41
0.039622
 42
0.039622
 43
1.000000
 50
0.000000
  0
INSERT
  8
18
  2
ROUNDV
 10
0.200000
 20
0.545000
 30
0.000000
 41
0.039622
 42
0.039622
 43
1.000000
 50
0.000000
  0
INSERT
  8
18
  2
ROUNDV
 10
0.890000
 20
0.530000
 30
0.000000
 41
0.039622
 42
0.039622
 43
1.000000
 50
0.000000
  0
INSERT
  8
18
  2
ROUNDV
 10
0.890000
 20
0.530000
 30
0.000000
 41
0.039622
 42
0.039622
 43
1.000000
 50
0.000000
  0
LINE
  8
16
 10
0.624094
 20
0.085906
 30
0.000000
 11
0.640000
 21
0.070000
 31
0.000000
  0
LINE
  8
1
 10
0.707992
 20
0.069016
 30
0.000000
 11
0.640984
 21
0.069016
 31
0.000000
  0
LINE
  8
1
 10
0.640984
 20
0.069016
 30
0.000000
 11
0.640000
 21
0.070000
 31
0.000000
  0
LINE
  8
16
 10
0.267559
 20
0.306535
 30
0.000000
 11
0.442362
 21
0.306535
 31
0.000000
  0
LINE
  8
16
 10
0.442362
 20
0.306535
 30
0.000000
 11
0.448898
 21
0.300000
 31
0.000000
  0
LINE
  8
16
 10
0.624094
 20
0.085906
 30
0.000000
 11
0.474094
 21
0.085906
 31
0.000000
  0
LINE
  8
16
 10
0.474094
 20
0.085906
 30
0.000000
 11
0.450000
 21
0.110000
 31
0.000000
  0
LINE
  8
16
 10
0.450000
 20
0.110000
 30
0.000000
 11
0.450000
 21
0.298898
 31
0.000000
  0
LINE
  8
16
 10
0.450000
 20
0.298898
 30
0.000000
 11
0.448898
 21
0.300000
 31
0.000000
  0
LINE
  8
19
 10
0.267559
 20
0.306535
 30
0.000000
 11
0.267559
 21
0.205984
 31
0.000000
  0
INSERT
  8
18
  2
ROUNDV
 10
0.640000
 20
0.070000
 30
0.000000
 41
0.039622
 42
0.039622
 43
1.000000
 50
0.000000
  0
INSERT
  8
18
  2
ROUNDV
 10
0.640000
 20
0.070000
 30
0.000000
 41
0.039622
 42
0.039622
 43
1.000000
 50
0.000000
  0
LINE
  8
1
 10
0.541000
 20
0.218000
 30
0.000000
 11
0.610000
 21
0.218000
 31
0.000000
  0
LINE
  8
1
 10
0.610000
 20
0.218000
 30
0.000000
 11
0.645000
 21
0.253000
 31
0.000000
  0
LINE
  8
1
 10
0.645000
 20
0.253000
 30
0.000000
 11
0.645000
 21
0.339016
 31
0.000000
  0
LINE
  8
1
 10
0.645000
 20
0.339016
 30
0.000000
 11
0.644016
 21
0.340000
 31
0.000000
  0
LINE
  8
1
 10
0.500000
 20
0.389016
 30
0.000000
 11
0.500000
 21
0.384000
 31
0.000000
  0
LINE
  8
1
 10
0.500000
 20
0.384000
 30
0.000000
 11
0.439000
 21
0.323000
 31
0.000000
  0
LINE
  8
1
 10
0.439000
 20
0.323000
 30
0.000000
 11
0.439000
 21
0.292000
 31
0.000000
  0
LINE
  8
1
 10
0.500000
 20
0.389016
 30
0.000000
 11
0.561205
 21
0.389016
 31
0.000000
  0
LINE
  8
1
 10
0.561205
 20
0.389016
 30
0.000000
 11
0.570000
 21
0.400000
 31
0.000000
  0
LINE
  8
1
 10
0.570000
 20
0.400000
 30
0.000000
 11
0.678000
 21
0.400000
 31
0.000000
  0
LINE
  8
1
 10
0.678000
 20
0.400000
 30
0.000000
 11
0.700000
 21
0.378000
 31
0.000000
  0
LINE
  8
1
 10
0.700000
 20
0.378000
 30
0.000000
 11
0.700000
 21
0.258976
 31
0.000000
  0
LINE
  8
1
 10
0.700000
 20
0.258976
 30
0.000000
 11
0.707992
 21
0.250984
 31
0.000000
  0
LINE
  8
1
 10
0.100000
 20
0.400000
 30
0.000000
 11
0.110000
 21
0.400000
 31
0.000000
  0
LINE
  8
1
 10
0.110000
 20
0.400000
 30
0.000000
 11
0.193622
 21
0.483622
 31
0.000000
  0
LINE
  8
1
 10
0.193622
 20
0.483622
 30
0.000000
 11
0.299921
 21
0.483622
 31
0.000000
  0
LINE
  8
1
 10
0.299921
 20
0.483622
 30
0.000000
 11
0.300000
 21
0.500984
 31
0.000000
  0
LINE
  8
1
 10
0.296000
 20
0.112535
 30
0.000000
 11
0.290465
 21
0.124000
 31
0.000000
  0
LINE
  8
1
 10
0.301000
 20
0.201000
 30
0.000000
 11
0.301000
 21
0.134535
 31
0.000000
  0
LINE
  8
1
 10
0.301000
 20
0.134535
 30
0.000000
 11
0.290465
 21
0.124000
 31
0.000000
  0
LINE
  8
16
 10
1.050000
 20
0.350000
 30
0.000000
 11
0.970000
 21
0.350000
 31
0.000000
  0
LINE
  8
16
 10
0.970000
 20
0.350000
 30
0.000000
 11
0.920000
 21
0.300000
 31
0.000000
  0
LINE
  8
16
 10
0.920000
 20
0.300000
 30
0.000000
 11
0.811102
 21
0.300000
 31
0.000000
  0
LINE
  8
1
 10
0.541000
 20
0.292000
 30
0.000000
 11
0.572000
 21
0.292000
 31
0.000000
  0
LINE
  8
1
 10
0.572000
 20
0.292000
 30
0.000000
 11
0.590000
 21
0.275000
 31
0.000000
  0
LINE
  8
1
 10
0.541000
 20
0.255000
 30
0.000000
 11
0.512000
 21
0.256000
 31
0.000000
  0
LINE
  8
1
 10
0.512000
 20
0.256000
 30
0.000000
 11
0.500000
 21
0.245000
 31
0.000000
  0
LINE
  8
1
 10
0.500000
 20
0.245000
 30
0.000000
 11
0.500000
 21
0.126535
 31
0.000000
  0
LINE
  8
1
 10
0.500000
 20
0.126535
 30
0.000000
 11
0.485465
 21
0.123000
 31
0.000000
  0
LINE
  8
1
 10
0.301000
 20
0.275000
 30
0.000000
 11
0.317000
 21
0.275000
 31
0.000000
  0
LINE
  8
1
 10
0.317000
 20
0.275000
 30
0.000000
 11
0.350000
 21
0.241000
 31
0.000000
  0
LINE
  8
1
 10
0.350000
 20
0.210000
 30
0.000000
 11
0.350000
 21
0.241000
 31
0.000000
  0
LINE
  8
1
 10
0.350000
 20
0.210000
 30
0.000000
 11
0.353000
 21
0.208000
 31
0.000000
  0
LINE
  8
1
 10
0.353000
 20
0.208000
 30
0.000000
 11
0.386000
 21
0.174000
 31
0.000000
  0
LINE
  8
1
 10
0.386000
 20
0.174000
 30
0.000000
 11
0.445000
 21
0.174000
 31
0.000000
  0
LINE
  8
1
 10
0.445000
 20
0.174000
 30
0.000000
 11
0.475000
 21
0.143000
 31
0.000000
  0
LINE
  8
1
 10
0.475000
 20
0.143000
 30
0.000000
 11
0.475000
 21
0.133465
 31
0.000000
  0
LINE
  8
1
 10
0.475000
 20
0.133465
 30
0.000000
 11
0.485465
 21
0.123000
 31
0.000000
  0
ENDSEC
  0
EOF
