G75*
G70*
%OFA0B0*%
%FSLAX24Y24*%
%IPPOS*%
%LPD*%
%AMOC8*
5,1,8,0,0,1.08239X$1,22.5*
%
%ADD10C,0.0010*%
%ADD11C,0.0051*%
%ADD12C,0.0060*%
%ADD13C,0.0050*%
D10*
X002370Y004118D02*
X002370Y010368D01*
X018870Y010368D01*
X018870Y004118D01*
X002370Y004118D01*
X002470Y005018D02*
X003270Y004218D01*
X002470Y004218D02*
X003270Y005018D01*
X004095Y005018D02*
X004895Y004218D01*
X004095Y004218D02*
X004895Y005018D01*
X005720Y005018D02*
X006520Y004218D01*
X005720Y004218D02*
X006520Y005018D01*
X003830Y006948D02*
X003030Y007748D01*
X003030Y006948D02*
X003830Y007748D01*
X003800Y009468D02*
X003000Y010268D01*
X003000Y009468D02*
X003800Y010268D01*
X009980Y008758D02*
X010780Y007958D01*
X009980Y007958D02*
X010780Y008758D01*
X011680Y008428D02*
X012480Y007628D01*
X011680Y007628D02*
X012480Y008428D01*
X013640Y009218D02*
X014440Y008418D01*
X013640Y008418D02*
X014440Y009218D01*
X016740Y007788D02*
X017540Y006988D01*
X016740Y006988D02*
X017540Y007788D01*
X018800Y008568D02*
X018000Y009368D01*
X018000Y008568D02*
X018800Y009368D01*
X015580Y005768D02*
X014780Y006568D01*
X014780Y005768D02*
X015580Y006568D01*
X017970Y006218D02*
X018770Y005418D01*
X017970Y005418D02*
X018770Y006218D01*
X011420Y005558D02*
X010620Y006358D01*
X010620Y005558D02*
X011420Y006358D01*
D11*
X002370Y004118D02*
X002370Y001481D01*
X002370Y002248D02*
X003393Y002123D01*
X003393Y002374D01*
X002370Y002248D01*
X003393Y002146D01*
X003393Y002197D02*
X002370Y002248D01*
X003393Y002351D01*
X003393Y002299D02*
X002370Y002248D01*
X018870Y002248D01*
X017846Y002146D01*
X017846Y002123D02*
X018870Y002248D01*
X017846Y002351D01*
X017846Y002374D02*
X017846Y002123D01*
X017846Y002197D02*
X018870Y002248D01*
X017846Y002299D01*
X017846Y002374D02*
X018870Y002248D01*
X018870Y001481D02*
X018870Y004118D01*
X002370Y004118D02*
X000492Y004118D01*
X001260Y004118D02*
X001362Y005142D01*
X001385Y005142D02*
X001260Y004118D01*
X001157Y005142D01*
X001134Y005142D02*
X001385Y005142D01*
X001311Y005142D02*
X001260Y004118D01*
X001208Y005142D01*
X001134Y005142D02*
X001260Y004118D01*
X001260Y010368D01*
X001362Y009345D01*
X001385Y009345D02*
X001260Y010368D01*
X001157Y009345D01*
X001134Y009345D02*
X001385Y009345D01*
X001311Y009345D02*
X001260Y010368D01*
X001208Y009345D01*
X001134Y009345D02*
X001260Y010368D01*
X000492Y010368D02*
X002370Y010368D01*
D12*
X000897Y008700D02*
X000683Y008700D01*
X000576Y008593D01*
X000576Y008486D01*
X000683Y008273D01*
X000363Y008273D01*
X000363Y008700D01*
X000897Y008700D02*
X001003Y008593D01*
X001003Y008380D01*
X000897Y008273D01*
X001003Y008055D02*
X001003Y007628D01*
X000576Y008055D01*
X000470Y008055D01*
X000363Y007949D01*
X000363Y007735D01*
X000470Y007628D01*
X000363Y007411D02*
X000470Y007197D01*
X000683Y006984D01*
X000683Y007304D01*
X000790Y007411D01*
X000897Y007411D01*
X001003Y007304D01*
X001003Y007091D01*
X000897Y006984D01*
X000683Y006984D01*
X000897Y006768D02*
X001003Y006768D01*
X001003Y006662D01*
X000897Y006662D01*
X000897Y006768D01*
X000897Y006444D02*
X000470Y006444D01*
X000897Y006017D01*
X001003Y006124D01*
X001003Y006337D01*
X000897Y006444D01*
X000470Y006444D02*
X000363Y006337D01*
X000363Y006124D01*
X000470Y006017D01*
X000897Y006017D01*
X009673Y002932D02*
X009886Y003145D01*
X009886Y002504D01*
X009673Y002504D02*
X010100Y002504D01*
X010317Y002504D02*
X010317Y002611D01*
X010424Y002611D01*
X010424Y002504D01*
X010317Y002504D01*
X010639Y002611D02*
X010746Y002504D01*
X010960Y002504D01*
X011066Y002611D01*
X011066Y002718D01*
X010960Y002825D01*
X010639Y002825D01*
X010639Y002611D01*
X010639Y002825D02*
X010853Y003038D01*
X011066Y003145D01*
X011284Y003145D02*
X011284Y002825D01*
X011497Y002932D01*
X011604Y002932D01*
X011711Y002825D01*
X011711Y002611D01*
X011604Y002504D01*
X011391Y002504D01*
X011284Y002611D01*
X011284Y003145D02*
X011711Y003145D01*
D13*
X010355Y005698D02*
X010357Y005720D01*
X010363Y005741D01*
X010372Y005760D01*
X010384Y005778D01*
X010400Y005794D01*
X010417Y005806D01*
X010437Y005815D01*
X010458Y005821D01*
X010480Y005823D01*
X010502Y005821D01*
X010523Y005815D01*
X010542Y005806D01*
X010560Y005794D01*
X010576Y005778D01*
X010588Y005760D01*
X010597Y005741D01*
X010603Y005720D01*
X010605Y005698D01*
X010603Y005676D01*
X010597Y005655D01*
X010588Y005636D01*
X010576Y005618D01*
X010560Y005602D01*
X010543Y005590D01*
X010523Y005581D01*
X010502Y005575D01*
X010480Y005573D01*
X010458Y005575D01*
X010437Y005581D01*
X010417Y005590D01*
X010400Y005602D01*
X010384Y005618D01*
X010372Y005635D01*
X010363Y005655D01*
X010357Y005676D01*
X010355Y005698D01*
X010365Y006328D02*
X010367Y006350D01*
X010373Y006371D01*
X010382Y006390D01*
X010394Y006408D01*
X010410Y006424D01*
X010427Y006436D01*
X010447Y006445D01*
X010468Y006451D01*
X010490Y006453D01*
X010512Y006451D01*
X010533Y006445D01*
X010552Y006436D01*
X010570Y006424D01*
X010586Y006408D01*
X010598Y006390D01*
X010607Y006371D01*
X010613Y006350D01*
X010615Y006328D01*
X010613Y006306D01*
X010607Y006285D01*
X010598Y006266D01*
X010586Y006248D01*
X010570Y006232D01*
X010553Y006220D01*
X010533Y006211D01*
X010512Y006205D01*
X010490Y006203D01*
X010468Y006205D01*
X010447Y006211D01*
X010427Y006220D01*
X010410Y006232D01*
X010394Y006248D01*
X010382Y006265D01*
X010373Y006285D01*
X010367Y006306D01*
X010365Y006328D01*
X009115Y007218D02*
X009117Y007240D01*
X009123Y007261D01*
X009132Y007280D01*
X009144Y007298D01*
X009160Y007314D01*
X009177Y007326D01*
X009197Y007335D01*
X009218Y007341D01*
X009240Y007343D01*
X009262Y007341D01*
X009283Y007335D01*
X009302Y007326D01*
X009320Y007314D01*
X009336Y007298D01*
X009348Y007280D01*
X009357Y007261D01*
X009363Y007240D01*
X009365Y007218D01*
X009363Y007196D01*
X009357Y007175D01*
X009348Y007156D01*
X009336Y007138D01*
X009320Y007122D01*
X009303Y007110D01*
X009283Y007101D01*
X009262Y007095D01*
X009240Y007093D01*
X009218Y007095D01*
X009197Y007101D01*
X009177Y007110D01*
X009160Y007122D01*
X009144Y007138D01*
X009132Y007155D01*
X009123Y007175D01*
X009117Y007196D01*
X009115Y007218D01*
X008235Y006668D02*
X008237Y006690D01*
X008243Y006711D01*
X008252Y006730D01*
X008264Y006748D01*
X008280Y006764D01*
X008297Y006776D01*
X008317Y006785D01*
X008338Y006791D01*
X008360Y006793D01*
X008382Y006791D01*
X008403Y006785D01*
X008422Y006776D01*
X008440Y006764D01*
X008456Y006748D01*
X008468Y006730D01*
X008477Y006711D01*
X008483Y006690D01*
X008485Y006668D01*
X008483Y006646D01*
X008477Y006625D01*
X008468Y006606D01*
X008456Y006588D01*
X008440Y006572D01*
X008423Y006560D01*
X008403Y006551D01*
X008382Y006545D01*
X008360Y006543D01*
X008338Y006545D01*
X008317Y006551D01*
X008297Y006560D01*
X008280Y006572D01*
X008264Y006588D01*
X008252Y006605D01*
X008243Y006625D01*
X008237Y006646D01*
X008235Y006668D01*
X008815Y009248D02*
X008817Y009270D01*
X008823Y009291D01*
X008832Y009310D01*
X008844Y009328D01*
X008860Y009344D01*
X008877Y009356D01*
X008897Y009365D01*
X008918Y009371D01*
X008940Y009373D01*
X008962Y009371D01*
X008983Y009365D01*
X009002Y009356D01*
X009020Y009344D01*
X009036Y009328D01*
X009048Y009310D01*
X009057Y009291D01*
X009063Y009270D01*
X009065Y009248D01*
X009063Y009226D01*
X009057Y009205D01*
X009048Y009186D01*
X009036Y009168D01*
X009020Y009152D01*
X009003Y009140D01*
X008983Y009131D01*
X008962Y009125D01*
X008940Y009123D01*
X008918Y009125D01*
X008897Y009131D01*
X008877Y009140D01*
X008860Y009152D01*
X008844Y009168D01*
X008832Y009185D01*
X008823Y009205D01*
X008817Y009226D01*
X008815Y009248D01*
X007005Y009348D02*
X007007Y009370D01*
X007013Y009391D01*
X007022Y009410D01*
X007034Y009428D01*
X007050Y009444D01*
X007067Y009456D01*
X007087Y009465D01*
X007108Y009471D01*
X007130Y009473D01*
X007152Y009471D01*
X007173Y009465D01*
X007192Y009456D01*
X007210Y009444D01*
X007226Y009428D01*
X007238Y009410D01*
X007247Y009391D01*
X007253Y009370D01*
X007255Y009348D01*
X007253Y009326D01*
X007247Y009305D01*
X007238Y009286D01*
X007226Y009268D01*
X007210Y009252D01*
X007193Y009240D01*
X007173Y009231D01*
X007152Y009225D01*
X007130Y009223D01*
X007108Y009225D01*
X007087Y009231D01*
X007067Y009240D01*
X007050Y009252D01*
X007034Y009268D01*
X007022Y009285D01*
X007013Y009305D01*
X007007Y009326D01*
X007005Y009348D01*
X013065Y006938D02*
X013067Y006960D01*
X013073Y006981D01*
X013082Y007000D01*
X013094Y007018D01*
X013110Y007034D01*
X013127Y007046D01*
X013147Y007055D01*
X013168Y007061D01*
X013190Y007063D01*
X013212Y007061D01*
X013233Y007055D01*
X013252Y007046D01*
X013270Y007034D01*
X013286Y007018D01*
X013298Y007000D01*
X013307Y006981D01*
X013313Y006960D01*
X013315Y006938D01*
X013313Y006916D01*
X013307Y006895D01*
X013298Y006876D01*
X013286Y006858D01*
X013270Y006842D01*
X013253Y006830D01*
X013233Y006821D01*
X013212Y006815D01*
X013190Y006813D01*
X013168Y006815D01*
X013147Y006821D01*
X013127Y006830D01*
X013110Y006842D01*
X013094Y006858D01*
X013082Y006875D01*
X013073Y006895D01*
X013067Y006916D01*
X013065Y006938D01*
X013705Y006008D02*
X013707Y006030D01*
X013713Y006051D01*
X013722Y006070D01*
X013734Y006088D01*
X013750Y006104D01*
X013767Y006116D01*
X013787Y006125D01*
X013808Y006131D01*
X013830Y006133D01*
X013852Y006131D01*
X013873Y006125D01*
X013892Y006116D01*
X013910Y006104D01*
X013926Y006088D01*
X013938Y006070D01*
X013947Y006051D01*
X013953Y006030D01*
X013955Y006008D01*
X013953Y005986D01*
X013947Y005965D01*
X013938Y005946D01*
X013926Y005928D01*
X013910Y005912D01*
X013893Y005900D01*
X013873Y005891D01*
X013852Y005885D01*
X013830Y005883D01*
X013808Y005885D01*
X013787Y005891D01*
X013767Y005900D01*
X013750Y005912D01*
X013734Y005928D01*
X013722Y005945D01*
X013713Y005965D01*
X013707Y005986D01*
X013705Y006008D01*
M02*
