G75*
G70*
%OFA0B0*%
%FSLAX24Y24*%
%IPPOS*%
%LPD*%
%AMOC8*
5,1,8,0,0,1.08239X$1,22.5*
%
%ADD10C,0.0050*%
%ADD11R,0.0592X0.1379*%
%ADD12R,0.0434X0.0277*%
%ADD13R,0.0276X0.1378*%
%ADD14R,0.4330X0.0830*%
%ADD15C,0.0476*%
%ADD16R,0.0580X0.0580*%
D10*
X010355Y005698D02*
X010357Y005720D01*
X010363Y005741D01*
X010372Y005760D01*
X010384Y005778D01*
X010400Y005794D01*
X010417Y005806D01*
X010437Y005815D01*
X010458Y005821D01*
X010480Y005823D01*
X010502Y005821D01*
X010523Y005815D01*
X010542Y005806D01*
X010560Y005794D01*
X010576Y005778D01*
X010588Y005760D01*
X010597Y005741D01*
X010603Y005720D01*
X010605Y005698D01*
X010603Y005676D01*
X010597Y005655D01*
X010588Y005636D01*
X010576Y005618D01*
X010560Y005602D01*
X010543Y005590D01*
X010523Y005581D01*
X010502Y005575D01*
X010480Y005573D01*
X010458Y005575D01*
X010437Y005581D01*
X010417Y005590D01*
X010400Y005602D01*
X010384Y005618D01*
X010372Y005635D01*
X010363Y005655D01*
X010357Y005676D01*
X010355Y005698D01*
X010365Y006328D02*
X010367Y006350D01*
X010373Y006371D01*
X010382Y006390D01*
X010394Y006408D01*
X010410Y006424D01*
X010427Y006436D01*
X010447Y006445D01*
X010468Y006451D01*
X010490Y006453D01*
X010512Y006451D01*
X010533Y006445D01*
X010552Y006436D01*
X010570Y006424D01*
X010586Y006408D01*
X010598Y006390D01*
X010607Y006371D01*
X010613Y006350D01*
X010615Y006328D01*
X010613Y006306D01*
X010607Y006285D01*
X010598Y006266D01*
X010586Y006248D01*
X010570Y006232D01*
X010553Y006220D01*
X010533Y006211D01*
X010512Y006205D01*
X010490Y006203D01*
X010468Y006205D01*
X010447Y006211D01*
X010427Y006220D01*
X010410Y006232D01*
X010394Y006248D01*
X010382Y006265D01*
X010373Y006285D01*
X010367Y006306D01*
X010365Y006328D01*
X009115Y007218D02*
X009117Y007240D01*
X009123Y007261D01*
X009132Y007280D01*
X009144Y007298D01*
X009160Y007314D01*
X009177Y007326D01*
X009197Y007335D01*
X009218Y007341D01*
X009240Y007343D01*
X009262Y007341D01*
X009283Y007335D01*
X009302Y007326D01*
X009320Y007314D01*
X009336Y007298D01*
X009348Y007280D01*
X009357Y007261D01*
X009363Y007240D01*
X009365Y007218D01*
X009363Y007196D01*
X009357Y007175D01*
X009348Y007156D01*
X009336Y007138D01*
X009320Y007122D01*
X009303Y007110D01*
X009283Y007101D01*
X009262Y007095D01*
X009240Y007093D01*
X009218Y007095D01*
X009197Y007101D01*
X009177Y007110D01*
X009160Y007122D01*
X009144Y007138D01*
X009132Y007155D01*
X009123Y007175D01*
X009117Y007196D01*
X009115Y007218D01*
X008235Y006668D02*
X008237Y006690D01*
X008243Y006711D01*
X008252Y006730D01*
X008264Y006748D01*
X008280Y006764D01*
X008297Y006776D01*
X008317Y006785D01*
X008338Y006791D01*
X008360Y006793D01*
X008382Y006791D01*
X008403Y006785D01*
X008422Y006776D01*
X008440Y006764D01*
X008456Y006748D01*
X008468Y006730D01*
X008477Y006711D01*
X008483Y006690D01*
X008485Y006668D01*
X008483Y006646D01*
X008477Y006625D01*
X008468Y006606D01*
X008456Y006588D01*
X008440Y006572D01*
X008423Y006560D01*
X008403Y006551D01*
X008382Y006545D01*
X008360Y006543D01*
X008338Y006545D01*
X008317Y006551D01*
X008297Y006560D01*
X008280Y006572D01*
X008264Y006588D01*
X008252Y006605D01*
X008243Y006625D01*
X008237Y006646D01*
X008235Y006668D01*
X008815Y009248D02*
X008817Y009270D01*
X008823Y009291D01*
X008832Y009310D01*
X008844Y009328D01*
X008860Y009344D01*
X008877Y009356D01*
X008897Y009365D01*
X008918Y009371D01*
X008940Y009373D01*
X008962Y009371D01*
X008983Y009365D01*
X009002Y009356D01*
X009020Y009344D01*
X009036Y009328D01*
X009048Y009310D01*
X009057Y009291D01*
X009063Y009270D01*
X009065Y009248D01*
X009063Y009226D01*
X009057Y009205D01*
X009048Y009186D01*
X009036Y009168D01*
X009020Y009152D01*
X009003Y009140D01*
X008983Y009131D01*
X008962Y009125D01*
X008940Y009123D01*
X008918Y009125D01*
X008897Y009131D01*
X008877Y009140D01*
X008860Y009152D01*
X008844Y009168D01*
X008832Y009185D01*
X008823Y009205D01*
X008817Y009226D01*
X008815Y009248D01*
X007005Y009348D02*
X007007Y009370D01*
X007013Y009391D01*
X007022Y009410D01*
X007034Y009428D01*
X007050Y009444D01*
X007067Y009456D01*
X007087Y009465D01*
X007108Y009471D01*
X007130Y009473D01*
X007152Y009471D01*
X007173Y009465D01*
X007192Y009456D01*
X007210Y009444D01*
X007226Y009428D01*
X007238Y009410D01*
X007247Y009391D01*
X007253Y009370D01*
X007255Y009348D01*
X007253Y009326D01*
X007247Y009305D01*
X007238Y009286D01*
X007226Y009268D01*
X007210Y009252D01*
X007193Y009240D01*
X007173Y009231D01*
X007152Y009225D01*
X007130Y009223D01*
X007108Y009225D01*
X007087Y009231D01*
X007067Y009240D01*
X007050Y009252D01*
X007034Y009268D01*
X007022Y009285D01*
X007013Y009305D01*
X007007Y009326D01*
X007005Y009348D01*
X013065Y006938D02*
X013067Y006960D01*
X013073Y006981D01*
X013082Y007000D01*
X013094Y007018D01*
X013110Y007034D01*
X013127Y007046D01*
X013147Y007055D01*
X013168Y007061D01*
X013190Y007063D01*
X013212Y007061D01*
X013233Y007055D01*
X013252Y007046D01*
X013270Y007034D01*
X013286Y007018D01*
X013298Y007000D01*
X013307Y006981D01*
X013313Y006960D01*
X013315Y006938D01*
X013313Y006916D01*
X013307Y006895D01*
X013298Y006876D01*
X013286Y006858D01*
X013270Y006842D01*
X013253Y006830D01*
X013233Y006821D01*
X013212Y006815D01*
X013190Y006813D01*
X013168Y006815D01*
X013147Y006821D01*
X013127Y006830D01*
X013110Y006842D01*
X013094Y006858D01*
X013082Y006875D01*
X013073Y006895D01*
X013067Y006916D01*
X013065Y006938D01*
X013705Y006008D02*
X013707Y006030D01*
X013713Y006051D01*
X013722Y006070D01*
X013734Y006088D01*
X013750Y006104D01*
X013767Y006116D01*
X013787Y006125D01*
X013808Y006131D01*
X013830Y006133D01*
X013852Y006131D01*
X013873Y006125D01*
X013892Y006116D01*
X013910Y006104D01*
X013926Y006088D01*
X013938Y006070D01*
X013947Y006051D01*
X013953Y006030D01*
X013955Y006008D01*
X013953Y005986D01*
X013947Y005965D01*
X013938Y005946D01*
X013926Y005928D01*
X013910Y005912D01*
X013893Y005900D01*
X013873Y005891D01*
X013852Y005885D01*
X013830Y005883D01*
X013808Y005885D01*
X013787Y005891D01*
X013767Y005900D01*
X013750Y005912D01*
X013734Y005928D01*
X013722Y005945D01*
X013713Y005965D01*
X013707Y005986D01*
X013705Y006008D01*
D11*
X017150Y006298D03*
X017200Y009318D03*
D12*
X017829Y009318D03*
X016570Y009318D03*
X016520Y006298D03*
X017779Y006298D03*
D13*
X017701Y006298D03*
X016598Y006298D03*
X016648Y009318D03*
X017751Y009318D03*
D14*
X004470Y009113D03*
X004470Y006113D03*
D15*
X002870Y004618D03*
X004495Y004618D03*
X006120Y004618D03*
X003430Y007348D03*
X003400Y009868D03*
X010380Y008358D03*
X012080Y008028D03*
X014040Y008818D03*
X017140Y007388D03*
X015180Y006168D03*
X011020Y005958D03*
D16*
X018370Y005818D03*
X018400Y008968D03*
M02*
